<svg width="458" height="388" viewBox="0 0 458 388" fill="none" xmlns="http://www.w3.org/2000/svg">
<path d="M112.464 208.679L111.98 208.174L115.01 205.284L115.493 205.789L112.464 208.679ZM118.517 202.88L118.026 202.383C119.011 201.414 119.997 200.414 120.963 199.409L121.466 199.892C120.497 200.9 119.506 201.906 118.517 202.88ZM124.333 196.826L123.817 196.357C124.744 195.341 125.676 194.288 126.589 193.23L127.117 193.688C126.199 194.749 125.263 195.804 124.333 196.826ZM129.82 190.474L129.281 190.03C130.152 188.969 131.032 187.872 131.892 186.769L132.442 187.199C131.576 188.307 130.694 189.41 129.82 190.474ZM134.986 183.862L134.427 183.446C135.245 182.346 136.075 181.207 136.885 180.065L137.454 180.469C136.639 181.614 135.809 182.756 134.986 183.862ZM139.844 177.018L139.266 176.627C140.048 175.474 140.819 174.313 141.575 173.143L142.162 173.522C141.402 174.695 140.629 175.862 139.844 177.018ZM178.09 172.179C176.802 172.179 175.501 171.931 174.328 171.462L174.588 170.814C175.68 171.249 176.889 171.481 178.09 171.481C178.263 171.464 178.391 171.478 178.542 171.47L178.576 172.168C178.414 172.176 178.221 172.165 178.09 172.179ZM182.725 170.987L182.376 170.384C183.526 169.719 184.487 168.748 185.16 167.572L185.766 167.918C185.031 169.2 183.981 170.261 182.725 170.987ZM144.407 169.979L143.815 169.61C144.549 168.426 145.272 167.234 145.984 166.036L146.585 166.394C145.87 167.594 145.144 168.792 144.407 169.979ZM170.791 169.007C169.853 167.996 169.079 166.779 168.493 165.386L169.135 165.115C169.688 166.433 170.417 167.58 171.302 168.533L170.791 169.007ZM186.922 163.758L186.223 163.744L186.226 163.557C186.226 162.51 186.014 161.485 185.609 160.591C185.503 160.357 185.389 160.131 185.263 159.91L185.872 159.567C186.008 159.807 186.134 160.053 186.246 160.304C186.69 161.287 186.924 162.412 186.924 163.557L186.922 163.758ZM148.972 163.026L148.436 162.577C149.341 161.496 150.343 160.48 151.41 159.556L151.868 160.083C150.829 160.982 149.854 161.974 148.972 163.026ZM167.412 161.253C167.334 160.591 167.292 159.913 167.292 159.234C167.292 158.494 167.34 157.741 167.434 156.992L168.127 157.079C168.035 157.799 167.99 158.525 167.99 159.234C167.99 159.885 168.029 160.536 168.105 161.169L167.412 161.253ZM155.196 157.64L154.827 157.045C156.011 156.311 157.276 155.655 158.586 155.091L158.862 155.733C157.586 156.283 156.352 156.925 155.196 157.64ZM182.577 156.92C181.56 156.146 180.36 155.479 179.011 154.934L179.271 154.287C180.681 154.853 181.935 155.554 182.998 156.364L182.577 156.92ZM162.769 154.37L162.584 153.697C163.947 153.326 165.346 153.05 166.739 152.876L166.826 153.569C165.466 153.739 164.101 154.01 162.769 154.37ZM175.057 153.792C173.734 153.541 172.354 153.396 170.953 153.362L170.969 152.664C172.407 152.701 173.826 152.849 175.186 153.108L175.057 153.792ZM169.09 153.086L168.434 152.851C168.912 151.528 169.531 150.238 170.277 149.018L170.872 149.383C170.151 150.562 169.551 151.807 169.09 153.086ZM173.36 146.105L172.849 145.631C173.052 145.413 173.259 145.198 173.474 144.986C174.253 144.212 175.113 143.481 176.029 142.813L176.442 143.377C175.554 144.028 174.722 144.734 173.966 145.485C173.756 145.686 173.555 145.896 173.36 146.105ZM179.966 141.238L179.656 140.613C180.918 139.987 182.245 139.46 183.599 139.046L183.803 139.714C182.482 140.119 181.192 140.63 179.966 141.238ZM187.84 138.675L187.667 137.999C189.032 137.65 190.389 137.285 191.702 136.91L191.892 137.581C190.574 137.958 189.211 138.323 187.84 138.675ZM195.915 136.38L195.706 135.713C197.052 135.288 198.386 134.847 199.671 134.397L199.903 135.056C198.61 135.509 197.27 135.953 195.915 136.38ZM203.843 133.607L203.591 132.957C204.898 132.448 206.199 131.918 207.456 131.376L207.732 132.016C206.464 132.563 205.158 133.096 203.843 133.607ZM211.555 130.276L211.253 129.648L215.02 127.819L215.324 128.447L211.555 130.276ZM219.091 126.615L218.787 125.987L222.553 124.155L222.858 124.784L219.091 126.615ZM226.624 122.952L226.32 122.324L230.087 120.492L230.391 121.12L226.624 122.952ZM234.158 119.289L233.854 118.66L237.62 116.829L237.925 117.457L234.158 119.289ZM241.691 115.628L241.387 115L245.154 113.168L245.458 113.796L241.691 115.628Z" fill="#339F5E"/>
<path d="M76.0942 200.333H0.396484L0.404861 200.062C0.605902 193.657 6.08429 188.639 12.875 188.639C14.8128 188.639 16.7339 189.069 18.4623 189.882C18.5126 184.979 21.0256 180.514 25.0939 178.154C28.1235 176.398 31.7059 175.946 35.1795 176.878C38.963 177.892 42.1545 180.38 44.1677 183.884C45.2846 185.833 45.9492 187.919 46.1474 190.094C49.3725 188.684 53.1559 187.941 57.1209 187.941C67.6086 187.941 76.1389 193.227 76.1389 199.722C76.1389 199.85 76.1389 199.973 76.1222 200.102L76.0942 200.333ZM0.940971 199.811H75.614C75.614 199.783 75.614 199.752 75.614 199.725C75.614 193.517 67.3182 188.469 57.1181 188.469C53.0889 188.469 49.2524 189.251 46.0218 190.728L45.6755 190.887L45.6504 190.51C45.5024 188.279 44.849 186.14 43.7098 184.152C41.7664 180.771 38.6865 178.369 35.0399 177.392C31.7003 176.496 28.2603 176.931 25.3536 178.615C21.3327 180.947 18.8923 185.428 18.9845 190.306L18.9928 190.745L18.6019 190.544C16.8512 189.645 14.8715 189.17 12.8722 189.17C6.46403 189.164 1.27604 193.819 0.940971 199.811Z" fill="#339F5E"/>
<mask id="mask0_6593_3548" style="mask-type:luminance" maskUnits="userSpaceOnUse" x="224" y="83" width="212" height="126">
<path d="M224.115 192.798C224.115 201.72 231.347 208.952 240.268 208.952H419.69C428.611 208.952 435.843 201.72 435.843 192.798V83.6328H224.115V192.798Z" fill="white"/>
</mask>
<g mask="url(#mask0_6593_3548)">
<path d="M224.115 192.798C224.115 201.72 231.347 208.952 240.268 208.952H419.69C428.611 208.952 435.843 201.72 435.843 192.798V83.6328H224.115V192.798Z" fill="white"/>
</g>
<mask id="mask1_6593_3548" style="mask-type:luminance" maskUnits="userSpaceOnUse" x="224" y="83" width="212" height="126">
<path d="M224.115 192.798C224.115 201.72 231.347 208.952 240.268 208.952H419.69C428.611 208.952 435.843 201.72 435.843 192.798V83.6328H224.115V192.798Z" fill="white"/>
</mask>
<g mask="url(#mask1_6593_3548)">
<path d="M213.036 111.468C215.51 103.533 223.342 97.4427 231.895 96.7977C240.451 96.1527 249.182 100.994 252.926 108.461C257.478 108.419 261.965 110.943 264.176 114.791C266.388 118.639 266.231 123.648 263.785 127.353C269.208 128.291 274.072 131.86 276.471 136.651C278.869 141.443 278.738 147.34 276.13 152.02C282.097 148.988 289.725 149.264 295.449 152.718C301.174 156.175 304.781 162.681 304.58 169.198C308.297 163.368 315.422 159.735 322.506 160.059C329.59 160.383 336.345 164.646 339.494 170.789C342.82 160.838 351.688 152.807 362.178 150.238C372.672 147.672 384.441 150.655 392.293 157.87C404.101 159.718 412.71 172.54 409.633 183.701C416.013 188.981 419.271 197.561 417.94 205.567C416.605 213.569 410.724 220.717 402.956 223.775L199.768 223.644L182.447 146.123L213.036 111.468Z" fill="#D1D1FF"/>
</g>
<mask id="mask2_6593_3548" style="mask-type:luminance" maskUnits="userSpaceOnUse" x="224" y="83" width="212" height="126">
<path d="M224.115 192.798C224.115 201.72 231.347 208.952 240.268 208.952H419.69C428.611 208.952 435.843 201.72 435.843 192.798V83.6328H224.115V192.798Z" fill="white"/>
</mask>
<g mask="url(#mask2_6593_3548)">
<g opacity="0.8">
<path d="M209.812 137.213C212.21 129.275 219.78 123.18 228.045 122.526C236.31 121.876 244.743 126.709 248.353 134.173C252.751 134.128 257.084 136.647 259.218 140.494C261.351 144.339 261.197 149.351 258.83 153.057C264.068 153.992 268.764 157.555 271.079 162.346C273.394 167.138 273.263 173.032 270.739 177.715C276.505 174.677 283.876 174.948 289.405 178.399C294.933 181.85 298.412 188.356 298.214 194.871C301.808 189.038 308.696 185.399 315.54 185.718C322.384 186.036 328.904 190.294 331.945 196.434C335.164 186.483 343.739 178.441 353.878 175.867C364.016 173.292 375.386 176.266 382.967 183.475C394.374 185.313 402.68 198.129 399.698 209.292C405.858 214.567 409.002 223.145 407.707 231.15C406.411 239.156 400.723 246.306 393.218 249.37L196.909 249.4L180.236 171.893L209.812 137.213Z" fill="white"/>
</g>
</g>
<mask id="mask3_6593_3548" style="mask-type:luminance" maskUnits="userSpaceOnUse" x="224" y="83" width="212" height="126">
<path d="M224.115 192.798C224.115 201.72 231.347 208.952 240.268 208.952H419.69C428.611 208.952 435.843 201.72 435.843 192.798V83.6328H224.115V192.798Z" fill="white"/>
</mask>
<g mask="url(#mask3_6593_3548)">
<path opacity="0.7" d="M365.882 87.125C307.074 142.428 265.372 157.339 212.836 162.672L209.346 218.517L264.493 237.365C312.659 235.968 358.907 166.24 387.474 106.422L365.882 87.125Z" fill="#FFF2E0"/>
<path d="M374.165 87.8457C364.604 99.1571 350.185 109.977 333.178 124.592L356.384 115.134C353.539 119.85 349.395 126.448 347.072 129.28C352.419 126.811 361.028 121.381 363.878 118.499C363.876 122.517 359.037 129.238 356.926 132.91C369.304 122.316 380.562 109.385 384.2 98.0234L374.165 87.8457Z" fill="#FFA121"/>
<path opacity="0.4" d="M376.875 88.418C371.221 95.9151 362.755 103.141 352.75 112.875L366.292 106.45C364.595 109.564 362.126 113.922 360.753 115.799C363.877 114.129 368.92 110.488 370.601 108.575C370.559 111.203 367.686 115.651 366.424 118.074C373.703 111.018 380.36 102.443 382.585 94.9742L376.875 88.418Z" fill="white"/>
</g>
<mask id="mask4_6593_3548" style="mask-type:luminance" maskUnits="userSpaceOnUse" x="224" y="83" width="212" height="126">
<path d="M224.115 192.798C224.115 201.72 231.347 208.952 240.268 208.952H419.69C428.611 208.952 435.843 201.72 435.843 192.798V83.6328H224.115V192.798Z" fill="white"/>
</mask>
<g mask="url(#mask4_6593_3548)">
<path d="M289.062 126.836C289.138 128.584 289.059 131.536 287.314 132.546C284.399 134.236 282.104 130.137 281.035 128.076C279.758 125.616 280.085 122.564 282.972 121.467C286.787 120.02 288.923 123.575 289.062 126.836Z" fill="#D1D1FF"/>
</g>
<mask id="mask5_6593_3548" style="mask-type:luminance" maskUnits="userSpaceOnUse" x="224" y="83" width="212" height="126">
<path d="M224.115 192.798C224.115 201.72 231.347 208.952 240.268 208.952H419.69C428.611 208.952 435.843 201.72 435.843 192.798V83.6328H224.115V192.798Z" fill="white"/>
</mask>
<g mask="url(#mask5_6593_3548)">
<path d="M427.312 179.92C427.388 181.668 427.309 184.62 425.564 185.63C422.649 187.32 420.354 183.221 419.285 181.16C418.008 178.7 418.335 175.648 421.222 174.551C425.037 173.104 427.173 176.659 427.312 179.92Z" fill="#D1D1FF"/>
</g>
<mask id="mask6_6593_3548" style="mask-type:luminance" maskUnits="userSpaceOnUse" x="224" y="83" width="212" height="126">
<path d="M224.115 192.798C224.115 201.72 231.347 208.952 240.268 208.952H419.69C428.611 208.952 435.843 201.72 435.843 192.798V83.6328H224.115V192.798Z" fill="white"/>
</mask>
<g mask="url(#mask6_6593_3548)">
<path d="M273.568 109.503C274.918 109.503 276.011 108.409 276.011 107.059C276.011 105.71 274.918 104.616 273.568 104.616C272.219 104.616 271.125 105.71 271.125 107.059C271.125 108.409 272.219 109.503 273.568 109.503Z" fill="#D1D1FF"/>
</g>
<mask id="mask7_6593_3548" style="mask-type:luminance" maskUnits="userSpaceOnUse" x="212" y="73" width="241" height="202">
<path d="M260.812 265.747C264.783 273.736 274.478 276.993 282.467 273.022L443.139 193.162C451.128 189.191 454.385 179.496 450.414 171.507L401.825 73.7493L212.223 167.989L260.812 265.747Z" fill="white"/>
</mask>
<g mask="url(#mask7_6593_3548)">
<path d="M399.489 154.468C401.329 153.553 402.079 151.321 401.164 149.482C400.25 147.642 398.018 146.892 396.178 147.806C394.339 148.721 393.589 150.953 394.503 152.793C395.417 154.632 397.65 155.382 399.489 154.468Z" fill="#D1D1FF"/>
</g>
<path d="M419.691 209.298H240.27C231.17 209.298 223.768 201.896 223.768 192.796V83.2812H436.193V192.796C436.193 201.893 428.791 209.298 419.691 209.298ZM224.466 83.9793V192.796C224.466 201.51 231.555 208.6 240.27 208.6H419.691C428.406 208.6 435.495 201.51 435.495 192.796V83.9793H224.466Z" fill="#339F5E"/>
<path d="M419.69 41.3369H240.268C231.347 41.3369 224.115 48.566 224.115 57.4901V83.6311H435.843V57.4901C435.843 48.566 428.611 41.3369 419.69 41.3369Z" fill="white"/>
<path d="M436.193 83.9805H223.768V57.4905C223.768 48.3905 231.17 40.9883 240.27 40.9883H419.691C428.791 40.9883 436.193 48.3905 436.193 57.4905V83.9805ZM224.466 83.2824H435.495V57.4905C435.495 48.7759 428.406 41.6863 419.691 41.6863H240.27C231.555 41.6863 224.466 48.7759 224.466 57.4905V83.2824Z" fill="#339F5E"/>
<path d="M254.123 64.2516C255.096 59.4579 251.999 54.7831 247.205 53.8101C242.411 52.8372 237.737 55.9346 236.764 60.7283C235.791 65.5221 238.888 70.1969 243.682 71.1699C248.476 72.1428 253.15 69.0454 254.123 64.2516Z" fill="#339F5E"/>
<path d="M277.792 68.7481C281.251 65.2893 281.251 59.6814 277.792 56.2225C274.333 52.7637 268.726 52.7637 265.267 56.2226C261.808 59.6814 261.808 65.2893 265.267 68.7481C268.726 72.207 274.333 72.207 277.792 68.7481Z" fill="white"/>
<path d="M271.532 71.6884C266.456 71.6884 262.326 67.5587 262.326 62.4824C262.326 57.4061 266.456 53.2764 271.532 53.2764C276.608 53.2764 280.738 57.4061 280.738 62.4824C280.735 67.5587 276.608 71.6884 271.532 71.6884ZM271.532 53.9772C266.841 53.9772 263.024 57.7942 263.024 62.4852C263.024 67.1762 266.841 70.9932 271.532 70.9932C276.223 70.9932 280.04 67.1762 280.04 62.4852C280.04 57.7942 276.223 53.9772 271.532 53.9772Z" fill="#339F5E"/>
<path d="M338.947 70.9374H303.687C299.018 70.9374 295.234 67.1539 295.234 62.4853C295.234 57.8167 299.018 54.0332 303.687 54.0332H338.947C343.616 54.0332 347.399 57.8167 347.399 62.4853C347.399 67.1512 343.616 70.9374 338.947 70.9374Z" fill="white"/>
<path d="M338.948 71.2878H303.688C298.835 71.2878 294.887 67.3396 294.887 62.4867C294.887 57.6338 298.835 53.6855 303.688 53.6855H338.948C343.801 53.6855 347.75 57.6338 347.75 62.4867C347.75 67.3396 343.801 71.2878 338.948 71.2878ZM303.685 54.3808C299.217 54.3808 295.582 58.0163 295.582 62.4839C295.582 66.9515 299.217 70.587 303.685 70.587H338.946C343.413 70.587 347.049 66.9515 347.049 62.4839C347.049 58.0163 343.413 54.3808 338.946 54.3808H303.685Z" fill="#339F5E"/>
<path d="M410.908 22.0693C396.768 34.4474 372.381 25.9143 364.803 35.7988L386.457 52.946L410.908 22.0693Z" fill="#3335CF"/>
<path d="M364.803 35.7988C363.719 38.6832 364.306 41.9278 366.333 44.2481L381.676 61.8225L386.457 52.946L364.803 35.7988Z" fill="#D1D1FF"/>
<path d="M442.958 47.4473C434.151 64.0472 448.045 85.8295 440.16 95.4711L418.506 78.3239L442.958 47.4473Z" fill="#3335CF"/>
<path d="M440.159 95.4704C437.602 97.1848 434.307 97.358 431.584 95.9172L410.961 85.0107L418.506 78.3232L440.159 95.4704Z" fill="#D1D1FF"/>
<path d="M453.96 0.794922L434.68 7.87047L451.489 21.1811L453.96 0.794922Z" fill="#1B1B43"/>
<path d="M451.488 21.1806C448.793 51.6859 426.254 80.1528 398.876 95.9625L373.928 76.2269C384.396 43.2924 403.891 19.7231 434.676 7.86719L451.488 21.1806Z" fill="#C5C5FF"/>
<path d="M373.93 76.2314L363.107 83.723L394.059 108.233L398.876 95.967L373.93 76.2314Z" fill="#3335CF"/>
<path d="M428.812 45.7591C435.162 45.0038 439.698 39.2436 438.942 32.8932C438.187 26.5428 432.427 22.0071 426.076 22.7624C419.726 23.5176 415.19 29.2779 415.946 35.6283C416.701 41.9787 422.461 46.5144 428.812 45.7591Z" fill="white"/>
<path d="M428.315 42.4868L428.242 41.7915C428.907 41.7217 429.558 41.5625 430.183 41.3196L430.434 41.9702C429.756 42.2355 429.041 42.4086 428.315 42.4868ZM426.137 42.4309C425.414 42.3165 424.713 42.107 424.049 41.8055L424.336 41.1688C424.945 41.4425 425.587 41.6351 426.246 41.7412L426.137 42.4309ZM432.344 40.9203L431.931 40.3591C432.464 39.9626 432.947 39.4963 433.363 38.9713L433.911 39.4041C433.456 39.9793 432.931 40.4903 432.344 40.9203ZM422.197 40.6523C421.63 40.186 421.131 39.6499 420.709 39.0579L421.279 38.653C421.664 39.1947 422.122 39.6861 422.641 40.1134L422.197 40.6523ZM434.762 38.0918L434.142 37.7707C434.45 37.1787 434.679 36.5477 434.821 35.8943L435.502 36.0423C435.349 36.7543 435.1 37.444 434.762 38.0918ZM419.695 37.1312C419.444 36.4471 419.285 35.7323 419.221 35.0036L419.916 34.9421C419.975 35.6095 420.12 36.2657 420.352 36.8911L419.695 37.1312ZM434.986 33.9034C434.952 33.2333 434.829 32.5743 434.623 31.9405L435.287 31.7255C435.513 32.4179 435.645 33.1383 435.684 33.8671L434.986 33.9034ZM420.003 32.9485L419.316 32.8256C419.444 32.1052 419.667 31.4072 419.98 30.7482L420.611 31.047C420.326 31.6501 420.12 32.2895 420.003 32.9485ZM433.763 30.1395C433.397 29.5838 432.959 29.0756 432.456 28.6289L432.919 28.1067C433.467 28.5926 433.947 29.1482 434.346 29.7569L433.763 30.1395ZM421.697 29.3716L421.167 28.9193C421.642 28.3636 422.186 27.8722 422.789 27.4617L423.183 28.0397C422.633 28.4139 422.133 28.8634 421.697 29.3716ZM430.803 27.5148C430.205 27.216 429.569 27.001 428.915 26.8725L429.049 26.1884C429.764 26.3308 430.459 26.5682 431.113 26.8921L430.803 27.5148ZM424.964 27.1434L424.735 26.4844C425.422 26.2471 426.143 26.0991 426.871 26.0488L426.922 26.7469C426.254 26.7916 425.595 26.9256 424.964 27.1434Z" fill="#9192FF"/>
<path d="M370.388 106.898L369.835 106.46C369.025 105.817 368.888 104.631 369.528 103.821L391.24 76.4011C391.882 75.5914 393.069 75.4546 393.879 76.094L394.432 76.5323C395.241 77.1746 395.378 78.3613 394.739 79.171L373.026 106.591C372.384 107.401 371.197 107.54 370.388 106.898Z" fill="#1B1B43"/>
<path d="M408.851 345.936H404.662V345.238H408.851V345.936ZM400.474 345.936H396.285V345.238H400.474V345.936ZM392.097 345.936H387.909V345.238H392.097V345.936ZM383.72 345.936H379.532V345.238H383.72V345.936ZM375.344 345.936H371.155V345.238H375.344V345.936ZM366.967 345.936H362.779V345.238H366.967V345.936ZM358.59 345.936H354.402V345.238H358.59V345.936ZM350.213 345.936H346.025V345.238H350.213V345.936ZM341.837 345.936H337.648V345.238H341.837V345.936ZM333.46 345.936H329.272V345.238H333.46V345.936ZM325.08 345.936C323.634 345.922 322.216 345.682 320.861 345.216L321.088 344.557C322.372 344.995 323.718 345.227 325.089 345.238L325.08 345.936ZM409.353 345.928L409.328 345.23C410.696 345.179 412.034 344.911 413.307 344.434L413.553 345.087C412.21 345.59 410.8 345.872 409.353 345.928ZM317.086 343.194C315.941 342.32 314.95 341.276 314.14 340.089L314.718 339.695C315.486 340.821 316.427 341.812 317.511 342.641L317.086 343.194ZM417.266 342.96L416.828 342.418C417.889 341.558 418.802 340.542 419.536 339.394L420.123 339.771C419.349 340.983 418.386 342.055 417.266 342.96ZM312.323 336.214C311.985 335.027 311.814 333.795 311.814 332.547V331.975H312.513V332.547C312.513 333.728 312.674 334.898 312.993 336.021L312.323 336.214ZM421.829 335.845L421.153 335.672C421.41 334.655 421.541 333.603 421.541 332.545V331.604H422.239V332.545C422.239 333.664 422.103 334.773 421.829 335.845ZM312.513 327.787H311.814V323.598H312.513V327.787ZM422.239 327.418H421.541V323.23H422.239V327.418ZM312.513 319.41H311.814V315.221H312.513V319.41ZM422.239 319.041H421.541V314.853H422.239V319.041ZM312.513 311.033H311.814V306.845H312.513V311.033ZM422.239 310.664H421.541V306.476H422.239V310.664ZM312.513 302.656H311.814V298.468H312.513V302.656ZM422.239 302.288H421.541V298.099H422.239V302.288ZM312.513 294.28H311.814V290.091H312.513V294.28ZM422.239 293.911H421.541V289.723H422.239V293.911ZM312.513 285.903H311.814V283.113C311.814 282.639 311.84 282.156 311.89 281.681L312.585 281.754C312.538 282.203 312.513 282.661 312.513 283.111V285.903ZM422.239 285.534H421.541V283.113C421.541 282.541 421.502 281.963 421.427 281.396L422.119 281.304C422.2 281.899 422.239 282.507 422.239 283.113V285.534ZM313.657 277.842L313.021 277.551C313.618 276.244 314.42 275.047 315.402 273.991L315.913 274.466C314.981 275.468 314.221 276.602 313.657 277.842ZM420.243 277.518C419.643 276.298 418.85 275.183 417.892 274.209L418.389 273.72C419.4 274.748 420.235 275.923 420.868 277.211L420.243 277.518ZM319.113 271.975L318.778 271.364C320.04 270.671 321.4 270.191 322.816 269.937L322.939 270.624C321.598 270.867 320.311 271.319 319.113 271.975ZM414.622 271.808C413.408 271.188 412.109 270.769 410.76 270.565L410.864 269.875C412.288 270.09 413.659 270.532 414.94 271.185L414.622 271.808ZM406.631 270.423H402.442V269.725H406.631V270.423ZM398.254 270.423H394.066V269.725H398.254V270.423ZM389.877 270.423H385.689V269.725H389.877V270.423ZM381.501 270.423H377.312V269.725H381.501V270.423ZM373.124 270.423H368.935V269.725H373.124V270.423ZM364.747 270.423H360.559V269.725H364.747V270.423ZM356.37 270.423H352.182V269.725H356.37V270.423ZM347.994 270.423H343.805V269.725H347.994V270.423ZM339.617 270.423H335.428V269.725H339.617V270.423ZM331.24 270.423H327.052V269.725H331.24V270.423Z" fill="#9192FF"/>
<path d="M401.21 333.837H312.095C306.402 333.837 301.789 329.221 301.789 323.531V266.552C301.789 260.859 306.405 256.246 312.095 256.246H401.21C406.903 256.246 411.516 260.862 411.516 266.552V323.531C411.516 329.221 406.903 333.837 401.21 333.837Z" fill="#339F5E"/>
<path d="M332.75 301.565H320.869V325.693H332.75V301.565Z" fill="white"/>
<path d="M352.645 302.34H340.764V325.694H352.645V302.34Z" fill="white"/>
<path d="M372.543 290.14H360.662V325.693H372.543V290.14Z" fill="white"/>
<path d="M392.44 279.711H380.559V325.694H392.44V279.711Z" fill="white"/>
<path d="M388.527 267.172H324.777V269.959H388.527V267.172Z" fill="white"/>
<path d="M130.674 180.493C128.655 173.49 124.377 167.35 118.511 163.025L116.154 161.288L118.154 202.68L133.623 190.713L130.674 180.493Z" fill="#FFA121"/>
<path d="M180.385 230.525L176.948 223.796C176.077 222.092 174.533 220.83 172.687 220.319L162.576 217.519L136.564 200.91L133.623 190.716L118.154 202.683L118.294 205.59C118.576 211.423 122.153 216.583 127.514 218.898L152.773 229.793L164.779 230.061C168.646 231.396 169.981 234.73 172.382 233.529C173.276 233.083 169.78 227.325 169.78 227.325L175.582 233.728L180.385 230.525Z" fill="#FFBC96"/>
<path d="M136.273 200.659L132.873 204.663L133.484 205.182L136.884 201.178L136.273 200.659Z" fill="#D28572"/>
<path d="M135.143 247.289L154.068 245.62C166.388 244.531 177.104 254.479 177.705 267.561L181.982 360.769L155.875 361.582L135.143 247.289Z" fill="#339F5E"/>
<path d="M157.975 360.654L158.773 386.401H197.46L178.383 370.527L177.182 358.121L157.975 360.654Z" fill="#1B1B43"/>
<path d="M177.902 369.909L169.764 376.179L170.74 377.446L178.878 371.177L177.902 369.909Z" fill="white"/>
<path d="M149.168 360.653L149.967 386.4H188.653L169.576 370.526L168.376 358.12L149.168 360.653Z" fill="#D1D1FF"/>
<path d="M169.095 369.908L160.957 376.178L161.933 377.445L170.071 371.176L169.095 369.908Z" fill="white"/>
<path d="M177.982 363.188H145.966L123.148 292.977L119.954 283.148L74.3312 282.947C71.5139 282.908 68.8166 281.602 66.5269 279.675C61.6768 275.584 59.443 269.156 60.3226 262.874L64.3238 234.323L132.103 243.136C144.958 244.808 155.337 254.43 157.979 267.115L177.982 363.188Z" fill="#339F5E"/>
<path d="M129.357 283.147L123.147 292.976L119.953 283.147H129.357Z" fill="#1B1B43"/>
<path d="M120.979 229.156C120.65 230.476 120.306 231.797 119.954 233.126L117.553 242.93L85.9365 241.617L63.1741 240.674C57.14 240.425 52.7702 234.824 54.0016 228.907L64.6149 177.834C65.9747 169.15 73.0279 162.466 81.776 161.561L107.749 158.889L116.154 161.29C124.358 165.693 124.366 173.671 124.757 178.898C126.477 201.772 124.355 215.627 120.979 229.156Z" fill="#FFA121"/>
<path opacity="0.3" d="M99.5419 227.521C99.2124 228.842 120.305 231.796 119.953 233.125L117.552 242.929L85.9353 241.616C74.8891 233.284 70.751 215.154 66.7246 192.439L99.5419 227.521Z" fill="#1B1B43"/>
<path d="M93.2605 173.663C94.6455 175.149 96.2231 176.441 97.985 177.407C99.7413 178.374 101.651 179.08 103.631 179.315C105.588 179.571 107.657 179.404 109.375 178.471C111.131 177.597 112.251 175.752 112.46 173.752L112.773 173.772C112.762 174.816 112.499 175.877 111.977 176.818C111.452 177.759 110.651 178.538 109.718 179.077C107.836 180.166 105.605 180.362 103.528 180.099C101.439 179.809 99.4286 179.08 97.6443 177.991C95.8489 176.922 94.2797 175.498 93.0176 173.861L93.2605 173.663Z" fill="#1B1B43"/>
<path d="M125.456 204.866L124.858 204.824C125.433 196.771 124.85 186.875 123.127 175.408L123.722 175.318C125.45 186.828 126.034 196.768 125.456 204.866Z" fill="#1B1B43"/>
<path d="M179.182 233.258H149.434V239.127H179.182V233.258Z" fill="#1C431B"/>
<path d="M230.673 239.128H170.91L198.391 186.569H258.154L230.673 239.128Z" fill="#339F5E"/>
<path d="M99.8448 116.868C92.8419 109.966 79.6346 112.867 79.8356 124.471C65.4276 128.274 64.6291 144.081 70.4313 152.184L75.435 152.584L76.5352 146.681L79.4363 152.684L93.4422 153.583L99.8448 116.868Z" fill="#1B1B43"/>
<path d="M111.549 142.68V164.73C111.549 164.931 111.541 165.121 111.524 165.313C111.181 169.851 106.786 173.062 102.296 171.9C95.6752 170.189 91.0736 164.199 91.1294 157.364L91.2411 142.677H111.549V142.68Z" fill="#FFBC96"/>
<path d="M111.551 152.213V164.73C111.551 164.931 111.542 165.121 111.525 165.314C105.625 164.345 98.8068 157.518 97.1426 150.082L111.551 152.213Z" fill="#1B1B43"/>
<path d="M123.484 144.312C123.18 146.066 122.772 147.858 122.227 149.562C120.465 155.157 117.305 159.798 111.645 158.991C98.3425 157.087 90.9375 143.383 90.9375 143.383L100.037 132.979L106.144 124.767L124.45 132.674C124.453 132.674 124.548 138.27 123.484 144.312Z" fill="#FFBC96"/>
<path d="M94.8748 139.879C100.713 139.692 105.228 136.718 107.147 128.274C107.147 128.274 120.753 140.013 127.424 133.745C133.008 128.495 123.534 116.416 107.85 114.975C102.137 114.45 96.4412 116.234 91.9652 119.822C84.3647 125.912 83.636 140.08 90.7422 144.983L94.8748 139.879Z" fill="#1B1B43"/>
<path d="M88.0386 125.073C87.656 123.693 87.9408 122.166 88.5579 120.848C89.1834 119.524 90.1467 118.368 91.2971 117.475C92.4475 116.579 93.799 115.939 95.2174 115.64C96.6331 115.35 98.1353 115.395 99.4421 115.964C98.0907 116.4 96.9235 116.861 95.8234 117.427C94.726 117.989 93.7152 118.639 92.7659 119.371C91.8193 120.105 90.9397 120.921 90.1495 121.845C89.3537 122.777 88.6557 123.797 88.0386 125.073Z" fill="#FFA121"/>
<path d="M95.1652 145.93C97.4989 144.996 98.4755 141.952 97.3466 139.132C96.2177 136.311 93.4107 134.782 91.077 135.716C88.7434 136.65 87.7667 139.694 88.8956 142.514C90.0245 145.335 92.8315 146.864 95.1652 145.93Z" fill="#FFBC96"/>
<path d="M93.1237 143.836C93.2242 142.861 93.2298 141.937 92.9478 141.091C92.6713 140.239 92.1324 139.496 91.5098 138.734L91.7052 138.491C92.6099 138.963 93.3778 139.806 93.7045 140.848C94.034 141.889 93.8915 143.023 93.4224 143.928L93.1237 143.836Z" fill="#1B1B43"/>
<path d="M114.988 140.884C114.988 141.711 114.382 142.381 113.637 142.381C112.891 142.381 112.285 141.711 112.285 140.884C112.285 140.058 112.891 139.388 113.637 139.388C114.382 139.388 114.988 140.058 114.988 140.884Z" fill="#1B1B43"/>
<path d="M122.087 142.063C121.997 142.792 121.389 143.319 120.73 143.238C120.071 143.157 119.607 142.498 119.697 141.77C119.786 141.041 120.395 140.513 121.054 140.594C121.715 140.675 122.176 141.331 122.087 142.063Z" fill="#1B1B43"/>
<path d="M114.921 137.129C114.974 137.827 113.857 137.894 112.21 137.944C110.563 137.994 109.423 138.503 109.412 138.061C109.401 137.62 110.618 136.484 112.244 136.21C113.916 135.923 114.854 136.297 114.921 137.129Z" fill="#1B1B43"/>
<path d="M120.185 137.802C120.065 138.492 120.886 138.667 122.104 138.882C123.321 139.095 124.109 139.715 124.17 139.279C124.231 138.843 123.458 137.592 122.282 137.157C121.071 136.705 120.331 136.981 120.185 137.802Z" fill="#1B1B43"/>
<path d="M118.226 143.306C118.539 143.688 118.885 144.018 119.243 144.358L119.782 144.861C119.969 145.031 120.17 145.216 120.351 145.498C120.441 145.64 120.511 145.824 120.522 146.031C120.538 146.24 120.471 146.441 120.388 146.598C120.203 146.908 119.983 147.089 119.743 147.248C119.265 147.564 118.746 147.692 118.246 147.79L118.129 147.5C118.559 147.22 118.989 146.972 119.321 146.684C119.48 146.542 119.637 146.369 119.692 146.238C119.754 146.103 119.737 146.059 119.662 145.902C119.483 145.612 119.031 145.221 118.735 144.816C118.411 144.414 118.12 143.956 117.947 143.454L118.226 143.306Z" fill="#1B1B43"/>
<path d="M111.451 148.23C112.269 149.163 113.121 150.026 114.146 150.576C115.162 151.14 116.324 151.299 117.549 151.165L117.633 151.467C117.041 151.729 116.374 151.872 115.698 151.832C115.022 151.805 114.355 151.601 113.769 151.274C112.588 150.618 111.716 149.557 111.191 148.398L111.451 148.23Z" fill="#1B1B43"/>
<path opacity="0.2" d="M106.651 147.382C108.475 147.382 109.954 145.903 109.954 144.079C109.954 142.254 108.475 140.775 106.651 140.775C104.827 140.775 103.348 142.254 103.348 144.079C103.348 145.903 104.827 147.382 106.651 147.382Z" fill="#FE5B52"/>
<path opacity="0.2" d="M123.485 144.313C123.18 146.067 122.773 147.86 122.228 149.563C121.717 148.979 121.404 148.217 121.404 147.377C121.404 145.986 122.267 144.802 123.485 144.313Z" fill="#FE5B52"/>
<path d="M85.8051 183.365L66.7285 192.437L72.7095 206.619L92.7131 197.396L85.8051 183.365Z" fill="#FFA121"/>
<path d="M156.465 232.553C155.938 232.288 155.605 232.112 155.605 232.112L155.795 231.735C155.795 231.735 156.147 231.906 156.658 232.179L156.465 232.553Z" fill="#C5C5FF"/>
<path d="M164.376 234.526C163.759 235.743 159.037 233.591 156.837 232.51C158.543 233.454 161.48 235.311 160.173 236.327C159.123 237.137 156.803 235.414 149.2 232.261C150.353 232.806 157.146 236.039 155.435 237.265C153.57 238.594 145.567 235.665 145.567 235.665L138.628 239.396H130.626L101.827 239.58C100.017 239.588 98.2245 239.356 96.4877 238.907C93.07 238.036 89.8534 236.338 87.1226 234.057C85.4025 232.616 83.9198 230.927 82.6801 229.07C81.7531 227.677 80.9601 226.18 80.3039 224.619L72.709 206.626L92.7098 197.397L103.147 218.585L137.564 226.06L147.17 223.659C149.236 223.139 152.157 224.01 153.974 225.124C158.406 227.836 164.951 233.364 164.376 234.526Z" fill="#FFBC96"/>
<path opacity="0.2" d="M97.0067 235.927C97.0067 236.977 96.8224 237.976 96.4873 238.903C93.0696 238.032 89.853 236.335 87.1221 234.053C85.4021 232.612 83.9194 230.923 82.6797 229.066C84.1931 227.849 86.1141 227.12 88.2027 227.12C93.0668 227.123 97.0067 231.06 97.0067 235.927Z" fill="#FE5B52"/>
<path d="M137.516 225.906C139.903 225.113 142.321 224.428 144.789 223.912C146.024 223.658 147.272 223.451 148.545 223.376C149.182 223.339 149.827 223.353 150.477 223.426C150.798 223.49 151.119 223.574 151.441 223.649C151.745 223.758 152.044 223.881 152.345 223.996C154.688 225.057 156.726 226.576 158.7 228.137C160.672 229.709 162.534 231.398 164.344 233.157L164.427 233.238L164.444 233.341C164.508 233.721 164.464 234.07 164.254 234.425C164.126 234.573 163.992 234.737 163.819 234.807C163.651 234.913 163.483 234.955 163.319 234.98C162.654 235.089 162.076 234.952 161.521 234.804C160.406 234.497 159.415 233.989 158.413 233.5C157.433 232.975 156.467 232.431 155.531 231.845C154.579 231.281 153.674 230.65 152.747 230.049L153.172 229.373C154.808 230.345 156.402 231.364 157.924 232.52C158.681 233.107 159.429 233.707 160.071 234.492C160.225 234.701 160.381 234.911 160.487 235.195C160.546 235.329 160.58 235.5 160.582 235.684C160.568 235.877 160.507 236.08 160.376 236.231C160.124 236.522 159.82 236.622 159.563 236.684C159.295 236.753 159.047 236.767 158.793 236.792L158.714 236.801L158.628 236.765L149.938 233.123L150.198 232.512C151.566 233.143 152.898 233.822 154.169 234.656C154.788 235.1 155.439 235.5 155.897 236.265C156 236.457 156.076 236.753 155.97 237.03C155.861 237.298 155.648 237.468 155.453 237.56C155.051 237.764 154.646 237.806 154.258 237.828C152.7 237.865 151.237 237.499 149.788 237.142C148.341 236.759 146.917 236.309 145.513 235.798L145.619 235.505C147.023 235.974 148.453 236.39 149.891 236.734C151.326 237.055 152.803 237.373 154.23 237.301C154.911 237.273 155.721 236.974 155.392 236.524C155.079 235.999 154.434 235.553 153.842 235.159C152.613 234.374 151.276 233.715 149.936 233.121L150.195 232.509L158.915 236.072L158.751 236.044C158.966 236.019 159.186 236.008 159.376 235.952C159.572 235.91 159.731 235.824 159.784 235.757C159.907 235.709 159.742 235.279 159.468 234.955C158.915 234.282 158.184 233.687 157.449 233.126C155.967 232.009 154.375 230.999 152.767 230.058L153.191 229.382C154.113 229.971 155.003 230.608 155.942 231.166C156.866 231.75 157.81 232.289 158.767 232.805C159.734 233.283 160.711 233.782 161.722 234.064C162.219 234.207 162.746 234.307 163.168 234.235L163.322 234.207C163.369 234.193 163.397 234.165 163.439 234.148C163.531 234.12 163.559 234.048 163.623 234.003C163.701 233.883 163.735 233.66 163.71 233.498L163.81 233.682C162.04 231.937 160.175 230.261 158.254 228.678C156.327 227.109 154.317 225.587 152.1 224.548L151.253 224.213C150.966 224.144 150.678 224.063 150.388 223.998C149.793 223.923 149.182 223.903 148.567 223.929C147.336 223.979 146.102 224.149 144.876 224.375C142.424 224.831 139.998 225.459 137.611 226.193L137.516 225.906Z" fill="#D28572"/>
<path d="M72.8333 206.895L72.582 206.351L92.3176 197.245L84.0973 178.007L84.6501 177.77L93.0994 197.544L72.8333 206.895Z" fill="#1B1B43"/>
<path d="M75.6545 291.156H74.6074V381.335H75.6545V291.156Z" fill="#1B1B43"/>
<path d="M100.344 295.158H49.9192C46.4931 295.158 43.7148 292.38 43.7148 288.953C43.7148 285.527 46.4931 282.749 49.9192 282.749H100.344C103.77 282.749 106.549 285.527 106.549 288.953C106.549 292.38 103.77 295.158 100.344 295.158Z" fill="#D5FFD1"/>
<path d="M96.3425 387.203H53.9199V386.179C53.9199 381.027 58.0971 376.853 63.246 376.853H87.0136C92.1653 376.853 96.3397 381.03 96.3397 386.179V387.203H96.3425Z" fill="#D1FFD8"/>
<path d="M136.157 244.647L135.271 245.206L224.653 386.883L225.539 386.325L136.157 244.647Z" fill="#1B1B43"/>
<path d="M224.644 244.662L135.229 386.306L136.114 386.865L225.529 245.221L224.644 244.662Z" fill="#1B1B43"/>
<path d="M258.69 239.129H102.078V250.94H258.69V239.129Z" fill="#D5FFD1"/>
<path d="M443.492 386.158H14.4805V387.205H443.492V386.158Z" fill="#1B1B43"/>
</svg>