<svg width="429" height="339" viewBox="0 0 429 339" fill="none" xmlns="http://www.w3.org/2000/svg">
<path d="M120.618 327.418H324.87C381.901 291.644 418.103 226.177 414.74 155.301C407.931 12.0799 285.616 -30.7708 211.505 21.3314C137.394 73.4336 61.0441 46.5411 21.8066 116.654C-36.4222 220.694 32.4876 273.945 105.064 318.339C110.257 321.598 115.442 324.619 120.618 327.418Z" fill="#339F5E" fill-opacity="0.33"/>
<path d="M223.64 338.361C336.821 338.361 428.572 332.23 428.572 324.668C428.572 317.106 336.821 310.976 223.64 310.976C110.459 310.976 18.707 317.106 18.707 324.668C18.707 332.23 110.459 338.361 223.64 338.361Z" fill="#D4E5CC"/>
<path d="M303.984 272.789H248.061V274.694H303.984V272.789Z" fill="#339F5E"/>
<path d="M315.624 279.381H287.658V281.285H315.624V279.381Z" fill="#339F5E"/>
<path d="M213.474 200.287L209.258 196.913C209.208 196.494 209.151 196.067 209.077 195.648C209.003 195.23 208.93 194.811 208.856 194.392L211.809 189.878C212.925 188.342 212.35 186.66 210.521 186.142L205.402 184.419C205.016 183.663 204.598 182.925 204.163 182.202L205.402 176.932C205.927 175.101 204.811 173.722 202.908 173.862L197.436 173.993C196.838 173.443 196.222 172.918 195.599 172.409L194.951 166.958C194.819 165.062 193.294 164.143 191.563 164.922L186.386 166.95C185.681 166.663 184.967 166.392 184.245 166.145L181.727 161.163C180.955 159.422 179.208 159.086 177.846 160.416L173.58 164.175C172.883 164.151 172.178 164.143 171.472 164.159L167.313 160.243C165.992 158.872 164.237 159.151 163.408 160.867L160.619 165.973C160.012 166.17 159.405 166.384 158.814 166.613L153.457 164.315C151.751 163.478 150.192 164.34 150.004 166.236L149.109 172.113C148.658 172.475 148.207 172.836 147.772 173.213L141.825 172.877C139.938 172.672 138.773 174.018 139.232 175.865L140.422 181.8C140.143 182.243 139.88 182.695 139.618 183.154L133.818 184.903C131.972 185.363 131.34 187.021 132.407 188.597L135.582 193.818C135.475 194.302 135.385 194.795 135.295 195.287L130.405 198.948C128.83 200.007 128.797 201.789 130.34 202.905L135.139 206.747C135.172 206.985 135.204 207.223 135.245 207.461C135.286 207.699 135.327 207.937 135.368 208.175L132.005 213.322C130.889 214.857 131.464 216.54 133.293 217.057L139.076 219.011C139.306 219.454 139.552 219.889 139.807 220.325L138.412 226.276C137.887 228.107 139.003 229.486 140.906 229.346L146.968 229.198C147.354 229.551 147.748 229.896 148.149 230.233L148.863 236.242C148.994 238.138 150.52 239.057 152.251 238.278L157.797 236.102C158.33 236.324 158.863 236.537 159.413 236.734L162.087 242.037C162.858 243.777 164.606 244.114 165.968 242.784L170.348 238.926C170.98 238.959 171.62 238.967 172.26 238.967L176.501 242.948C177.822 244.319 179.577 244.04 180.406 242.325L183.146 237.309C183.818 237.104 184.483 236.882 185.139 236.636L190.365 238.877C192.071 239.714 193.63 238.852 193.819 236.956L194.655 231.431C195.262 230.972 195.861 230.495 196.444 229.995L201.998 230.307C203.884 230.512 205.049 229.166 204.59 227.319L203.507 221.933C203.95 221.252 204.368 220.563 204.762 219.857L209.996 218.272C211.842 217.813 212.473 216.154 211.407 214.578L208.593 209.957C208.782 209.136 208.946 208.298 209.077 207.461L213.4 204.227C214.992 203.176 215.017 201.403 213.474 200.287ZM176.476 228.509C161.595 230.889 147.608 220.743 145.237 205.852C142.858 190.961 152.998 176.965 167.879 174.592C182.76 172.212 196.739 182.358 199.118 197.249C201.497 212.14 191.349 226.128 176.476 228.509Z" fill="#D1DEFD"/>
<path d="M293.582 203.035C293.598 202.609 293.606 202.182 293.614 201.755C293.614 201.328 293.606 200.901 293.598 200.474L297.24 196.501C298.594 195.163 298.29 193.415 296.576 192.602L291.81 190.065C291.547 189.253 291.26 188.456 290.948 187.676L293.024 182.677C293.836 180.962 292.958 179.418 291.063 179.246L285.649 178.491C285.148 177.85 284.632 177.235 284.09 176.627L284.336 171.144C284.517 169.247 283.155 168.098 281.317 168.591L275.878 169.748C275.23 169.346 274.566 168.968 273.893 168.607L272.22 163.279C271.744 161.441 270.07 160.825 268.512 161.909L263.696 164.921C263.007 164.782 262.318 164.667 261.621 164.56L258.151 160.029C257.068 158.461 255.296 158.453 254.196 160.012L250.62 164.601C249.988 164.7 249.356 164.806 248.733 164.938L243.819 161.802C242.269 160.702 240.595 161.301 240.103 163.14L238.273 168.796C237.765 169.075 237.264 169.362 236.772 169.666L230.956 168.369C229.126 167.86 227.756 169.001 227.921 170.897L228.134 176.947C227.789 177.341 227.453 177.744 227.125 178.154L221.12 178.942C219.225 179.098 218.331 180.633 219.126 182.357L221.415 188.021C221.235 188.489 221.062 188.957 220.898 189.425L215.484 192.241C213.753 193.037 213.441 194.785 214.778 196.132L218.897 200.696C218.888 200.934 218.888 201.172 218.88 201.418C218.88 201.656 218.88 201.903 218.888 202.141L214.737 206.672C213.384 208.01 213.687 209.759 215.402 210.571L220.8 213.436C220.956 213.912 221.128 214.38 221.308 214.848L218.97 220.488C218.158 222.203 219.036 223.755 220.931 223.919L226.936 224.756C227.264 225.167 227.592 225.577 227.937 225.971L227.666 232.021C227.486 233.917 228.848 235.067 230.685 234.574L236.51 233.335C237.002 233.638 237.494 233.934 238.003 234.221L239.783 239.894C240.259 241.732 241.932 242.348 243.491 241.264L248.438 238.17C249.061 238.301 249.685 238.424 250.324 238.523L253.86 243.144C254.943 244.712 256.715 244.72 257.814 243.161L261.325 238.654C262.023 238.564 262.72 238.449 263.401 238.317L268.192 241.379C269.742 242.479 271.416 241.88 271.908 240.041L273.631 234.73C274.303 234.377 274.976 234 275.624 233.606L281.055 234.812C282.884 235.321 284.254 234.18 284.09 232.284L283.893 226.8C284.435 226.201 284.96 225.585 285.468 224.953L290.891 224.239C292.786 224.083 293.68 222.548 292.884 220.824L290.858 215.809C291.178 215.029 291.473 214.232 291.744 213.428L296.535 210.932C298.266 210.144 298.578 208.388 297.24 207.041L293.582 203.035ZM283.516 201.714C283.45 216.785 271.178 228.959 256.116 228.894C241.046 228.828 228.889 216.547 228.954 201.476C229.02 186.396 241.292 174.23 256.354 174.296C271.424 174.362 283.582 186.634 283.516 201.714Z" fill="#D1DEFD"/>
<path d="M57.2214 243.22C57.2296 243.081 57.2296 242.941 57.2296 242.802C57.2296 242.662 57.2296 242.523 57.2214 242.383L58.4191 241.078C58.8621 240.643 58.7637 240.06 58.1976 239.797L56.6307 238.96C56.5487 238.697 56.4503 238.435 56.3436 238.172L57.0245 236.53C57.2952 235.964 56.9999 235.455 56.3764 235.397L54.5963 235.151C54.4322 234.938 54.2599 234.741 54.0794 234.535L54.1615 232.729C54.2189 232.106 53.7759 231.728 53.1688 231.892L51.3805 232.278C51.1672 232.147 50.9457 232.023 50.7242 231.9L50.1746 230.144C50.0187 229.536 49.469 229.331 48.9522 229.692L47.3689 230.685C47.1475 230.636 46.9178 230.603 46.6881 230.57L45.5478 229.076C45.195 228.559 44.6044 228.559 44.2516 229.068L43.0703 230.579C42.8652 230.611 42.6519 230.644 42.4468 230.694L40.8307 229.659C40.3221 229.298 39.7725 229.495 39.6084 230.094L39.0095 231.958C38.8455 232.048 38.6814 232.147 38.5173 232.245L36.6059 231.818C35.9988 231.654 35.5559 232.023 35.6051 232.647L35.6789 234.634C35.5641 234.765 35.4574 234.897 35.3426 235.028L33.3655 235.291C32.742 235.34 32.4467 235.849 32.7092 236.415L33.4639 238.279C33.4065 238.435 33.3491 238.582 33.2917 238.738L31.5115 239.666C30.9455 239.929 30.8388 240.503 31.2818 240.947L32.6354 242.449C32.6354 242.531 32.6354 242.605 32.6354 242.687C32.6354 242.769 32.6354 242.843 32.6354 242.925L31.2654 244.419C30.8224 244.862 30.9208 245.437 31.4869 245.7L33.2589 246.644C33.3081 246.8 33.3655 246.955 33.4229 247.111L32.6518 248.967C32.3811 249.533 32.6764 250.042 33.2999 250.1L35.2769 250.379C35.3836 250.51 35.4902 250.65 35.6051 250.781L35.5148 252.767C35.4574 253.391 35.9004 253.769 36.5075 253.605L38.4271 253.194C38.5912 253.293 38.7552 253.391 38.9193 253.482L39.5018 255.345C39.6576 255.952 40.2073 256.15 40.7241 255.797L42.3484 254.779C42.5535 254.82 42.7586 254.861 42.9719 254.894L44.1368 256.412C44.4895 256.929 45.0802 256.929 45.4329 256.42L46.5896 254.935C46.8193 254.902 47.049 254.869 47.2705 254.82L48.8456 255.829C49.3542 256.191 49.9038 255.994 50.0679 255.386L50.634 253.638C50.8555 253.523 51.077 253.4 51.2902 253.268L53.0786 253.662C53.6857 253.826 54.1287 253.457 54.0794 252.833L54.0138 251.027C54.1943 250.83 54.3666 250.625 54.5306 250.42L56.319 250.182C56.9425 250.132 57.2378 249.623 56.9753 249.057L56.3108 247.407C56.4174 247.153 56.5159 246.89 56.6061 246.627L58.1812 245.806C58.7473 245.544 58.8539 244.969 58.4109 244.526L57.2214 243.22Z" fill="#D1DEFD"/>
<path d="M143.244 159.545C143.252 159.405 143.252 159.266 143.252 159.126C143.252 158.986 143.252 158.847 143.244 158.707L144.441 157.402C144.884 156.967 144.786 156.384 144.22 156.122L142.653 155.284C142.571 155.022 142.473 154.759 142.366 154.496L143.047 152.854C143.317 152.288 143.022 151.779 142.399 151.722L140.619 151.475C140.454 151.262 140.282 151.065 140.102 150.86L140.184 149.054C140.241 148.43 139.798 148.052 139.191 148.216L137.403 148.602C137.189 148.471 136.968 148.348 136.746 148.225L136.197 146.468C136.041 145.86 135.491 145.655 134.974 146.016L133.391 147.01C133.17 146.96 132.94 146.927 132.71 146.895L131.57 145.401C131.217 144.883 130.627 144.883 130.266 145.392L129.084 146.903C128.879 146.936 128.666 146.969 128.461 147.018L126.845 145.983C126.336 145.622 125.787 145.819 125.622 146.419L125.015 148.282C124.851 148.372 124.687 148.471 124.523 148.569L122.612 148.142C122.005 147.978 121.562 148.348 121.611 148.972L121.685 150.958C121.57 151.089 121.463 151.221 121.348 151.352L119.371 151.615C118.748 151.664 118.453 152.173 118.715 152.739L119.47 154.603C119.412 154.759 119.355 154.907 119.298 155.063L117.517 155.99C116.951 156.253 116.845 156.827 117.288 157.271L118.641 158.773C118.641 158.855 118.641 158.929 118.641 159.011C118.641 159.093 118.641 159.167 118.641 159.249L117.271 160.743C116.828 161.186 116.927 161.761 117.493 162.024L119.265 162.968C119.314 163.124 119.371 163.28 119.429 163.436L118.658 165.291C118.387 165.857 118.682 166.366 119.306 166.424L121.283 166.703C121.389 166.834 121.496 166.974 121.611 167.105L121.521 169.092C121.463 169.716 121.906 170.093 122.513 169.929L124.433 169.519C124.597 169.617 124.761 169.716 124.925 169.806L125.508 171.669C125.663 172.277 126.213 172.474 126.73 172.121L128.354 171.103C128.559 171.144 128.764 171.185 128.978 171.218L130.143 172.736C130.495 173.254 131.086 173.254 131.439 172.745L132.595 171.259C132.825 171.226 133.055 171.193 133.276 171.144L134.851 172.154C135.36 172.515 135.91 172.318 136.074 171.71L136.64 169.962C136.861 169.847 137.083 169.724 137.296 169.592L139.084 169.986C139.683 170.151 140.135 169.781 140.085 169.157L140.02 167.351C140.2 167.154 140.372 166.949 140.536 166.744L142.325 166.506C142.948 166.457 143.244 165.948 142.981 165.381L142.317 163.731C142.423 163.477 142.522 163.214 142.604 162.951L144.179 162.13C144.745 161.868 144.852 161.293 144.409 160.85L143.244 159.545Z" fill="#D1DEFD"/>
<path d="M225.335 243.9C225.344 243.761 225.344 243.621 225.344 243.481C225.344 243.342 225.344 243.202 225.335 243.063L226.533 241.758C226.976 241.322 226.878 240.74 226.312 240.477L224.745 239.64C224.663 239.377 224.564 239.114 224.458 238.852L225.139 237.21C225.409 236.643 225.114 236.134 224.49 236.077L222.71 235.831C222.546 235.617 222.374 235.42 222.194 235.215L222.276 233.409C222.333 232.785 221.89 232.408 221.283 232.572L219.495 232.958C219.281 232.826 219.06 232.703 218.838 232.58L218.289 230.823C218.133 230.216 217.583 230.011 217.066 230.372L215.483 231.365C215.262 231.316 215.032 231.283 214.802 231.25L213.662 229.756C213.309 229.239 212.718 229.239 212.357 229.748L211.176 231.258C210.971 231.291 210.758 231.324 210.553 231.373L208.937 230.339C208.428 229.978 207.878 230.175 207.714 230.774L207.107 232.637C206.943 232.728 206.779 232.826 206.615 232.925L204.704 232.498C204.096 232.334 203.654 232.703 203.703 233.327L203.777 235.314C203.662 235.445 203.555 235.576 203.44 235.708L201.463 235.97C200.84 236.02 200.544 236.528 200.807 237.095L201.562 238.958C201.504 239.114 201.447 239.262 201.389 239.418L199.609 240.346C199.043 240.608 198.936 241.183 199.379 241.626L200.733 243.128C200.733 243.211 200.733 243.284 200.733 243.367C200.733 243.449 200.733 243.522 200.733 243.605L199.363 245.099C198.92 245.542 199.019 246.117 199.585 246.379L201.357 247.323C201.406 247.479 201.463 247.635 201.521 247.791L200.749 249.646C200.479 250.213 200.774 250.722 201.398 250.779L203.375 251.058C203.481 251.19 203.588 251.329 203.703 251.461L203.612 253.447C203.555 254.071 203.998 254.449 204.605 254.284L206.525 253.874C206.689 253.972 206.853 254.071 207.017 254.161L207.599 256.025C207.755 256.632 208.305 256.829 208.822 256.476L210.446 255.458C210.651 255.499 210.856 255.54 211.07 255.573L212.234 257.092C212.587 257.609 213.178 257.609 213.531 257.1L214.687 255.614C214.917 255.581 215.147 255.549 215.368 255.499L216.943 256.509C217.452 256.87 218.002 256.673 218.166 256.066L218.732 254.317C218.953 254.202 219.175 254.079 219.388 253.948L221.176 254.342C221.775 254.506 222.226 254.137 222.177 253.513L222.111 251.707C222.292 251.51 222.464 251.305 222.628 251.099L224.417 250.861C225.04 250.812 225.335 250.303 225.073 249.737L224.408 248.087C224.515 247.832 224.614 247.57 224.696 247.307L226.271 246.486C226.837 246.223 226.943 245.649 226.5 245.205L225.335 243.9Z" fill="#D1DEFD"/>
<path d="M393.452 243.9C393.46 243.761 393.46 243.621 393.46 243.481C393.46 243.342 393.46 243.202 393.452 243.063L394.65 241.758C395.093 241.322 394.994 240.74 394.428 240.477L392.861 239.64C392.779 239.377 392.681 239.114 392.574 238.852L393.255 237.21C393.526 236.643 393.23 236.134 392.607 236.077L390.827 235.831C390.663 235.617 390.49 235.42 390.31 235.215L390.392 233.409C390.449 232.785 390.006 232.408 389.399 232.572L387.611 232.958C387.398 232.826 387.176 232.703 386.955 232.58L386.405 230.823C386.249 230.216 385.7 230.011 385.183 230.372L383.599 231.365C383.378 231.316 383.148 231.283 382.919 231.25L381.778 229.756C381.425 229.239 380.835 229.239 380.482 229.748L379.301 231.258C379.096 231.291 378.882 231.324 378.677 231.373L377.061 230.339C376.553 229.978 376.003 230.175 375.839 230.774L375.24 232.637C375.076 232.728 374.912 232.826 374.748 232.925L372.836 232.498C372.229 232.334 371.786 232.703 371.836 233.327L371.909 235.314C371.794 235.445 371.688 235.576 371.573 235.708L369.596 235.97C368.973 236.02 368.677 236.528 368.94 237.095L369.694 238.958C369.637 239.114 369.58 239.262 369.522 239.418L367.742 240.346C367.176 240.608 367.069 241.183 367.512 241.626L368.866 243.128C368.866 243.211 368.866 243.284 368.866 243.367C368.866 243.449 368.866 243.522 368.866 243.605L367.496 245.099C367.053 245.542 367.151 246.117 367.717 246.379L369.489 247.323C369.539 247.479 369.596 247.635 369.653 247.791L368.882 249.646C368.612 250.213 368.907 250.722 369.53 250.779L371.507 251.058C371.614 251.19 371.721 251.329 371.836 251.461L371.745 253.447C371.688 254.071 372.131 254.449 372.738 254.284L374.658 253.874C374.822 253.972 374.986 254.071 375.15 254.161L375.74 256.025C375.896 256.632 376.446 256.829 376.963 256.476L378.587 255.458C378.792 255.499 378.997 255.54 379.211 255.573L380.375 257.092C380.728 257.609 381.319 257.609 381.672 257.1L382.828 255.614C383.058 255.581 383.288 255.549 383.509 255.499L385.084 256.509C385.593 256.87 386.143 256.673 386.307 256.066L386.873 254.317C387.094 254.202 387.316 254.079 387.529 253.948L389.317 254.342C389.924 254.506 390.367 254.137 390.318 253.513L390.252 251.707C390.433 251.51 390.605 251.305 390.769 251.099L392.558 250.861C393.181 250.812 393.476 250.303 393.214 249.737L392.549 248.087C392.656 247.832 392.755 247.57 392.845 247.307L394.42 246.486C394.986 246.223 395.093 245.649 394.65 245.205L393.452 243.9Z" fill="#D1DEFD"/>
<path d="M236.567 147.987C236.575 147.733 236.583 147.487 236.583 147.232C236.583 146.978 236.583 146.723 236.575 146.477L238.741 144.113C239.545 143.317 239.364 142.282 238.347 141.798L235.517 140.296C235.361 139.811 235.189 139.343 235 138.876L236.231 135.912C236.715 134.894 236.19 133.975 235.066 133.876L231.85 133.425C231.555 133.047 231.243 132.678 230.923 132.317L231.071 129.058C231.177 127.933 230.373 127.252 229.282 127.539L226.05 128.229C225.665 127.99 225.271 127.761 224.869 127.547L223.876 124.387C223.589 123.295 222.605 122.926 221.678 123.574L218.815 125.364C218.404 125.282 217.994 125.208 217.584 125.15L215.525 122.458C214.885 121.53 213.827 121.522 213.179 122.449L211.054 125.175C210.677 125.232 210.308 125.298 209.93 125.372L207.01 123.508C206.091 122.852 205.098 123.213 204.803 124.305L203.712 127.662C203.408 127.826 203.113 127.999 202.826 128.179L199.372 127.408C198.281 127.104 197.469 127.785 197.567 128.91L197.699 132.497C197.494 132.735 197.297 132.973 197.1 133.211L193.531 133.679C192.407 133.77 191.874 134.681 192.35 135.707L193.712 139.073C193.605 139.352 193.498 139.631 193.408 139.91L190.192 141.584C189.167 142.052 188.978 143.095 189.774 143.891L192.219 146.6C192.219 146.74 192.21 146.887 192.21 147.027C192.21 147.175 192.21 147.314 192.21 147.454L189.741 150.146C188.937 150.943 189.118 151.977 190.135 152.461L193.334 154.161C193.425 154.44 193.531 154.719 193.638 154.998L192.252 158.347C191.768 159.365 192.293 160.284 193.416 160.383L196.977 160.884C197.174 161.13 197.371 161.368 197.567 161.606L197.412 165.193C197.305 166.318 198.109 166.999 199.2 166.712L202.662 165.973C202.949 166.154 203.244 166.326 203.548 166.499L204.606 169.864C204.893 170.956 205.878 171.326 206.805 170.677L209.741 168.838C210.111 168.92 210.488 168.986 210.857 169.052L212.957 171.793C213.597 172.721 214.655 172.729 215.303 171.802L217.387 169.125C217.806 169.068 218.216 169.002 218.618 168.92L221.464 170.734C222.383 171.391 223.376 171.03 223.671 169.938L224.697 166.786C225.099 166.573 225.492 166.351 225.878 166.121L229.102 166.835C230.193 167.139 231.005 166.458 230.907 165.333L230.792 162.074C231.112 161.721 231.423 161.352 231.727 160.974L234.951 160.555C236.075 160.465 236.608 159.554 236.132 158.528L234.926 155.548C235.115 155.088 235.296 154.612 235.451 154.136L238.298 152.658C239.323 152.19 239.512 151.148 238.716 150.352L236.567 147.987ZM227.092 147.191C227.059 154.21 221.349 159.874 214.335 159.841C207.321 159.808 201.661 154.095 201.694 147.076C201.727 140.058 207.436 134.393 214.45 134.426C221.464 134.451 227.125 140.173 227.092 147.191Z" fill="#D1DEFD"/>
<path d="M320.048 257.862C320.056 257.608 320.064 257.362 320.064 257.107C320.064 256.853 320.064 256.598 320.056 256.352L322.221 253.988C323.025 253.2 322.845 252.157 321.828 251.673L318.997 250.171C318.842 249.686 318.669 249.218 318.481 248.751L319.711 245.787C320.195 244.769 319.67 243.85 318.546 243.751L315.331 243.3C315.035 242.922 314.723 242.553 314.403 242.192L314.551 238.933C314.658 237.808 313.854 237.127 312.763 237.414L309.531 238.104C309.145 237.865 308.751 237.636 308.349 237.422L307.357 234.262C307.07 233.17 306.085 232.801 305.158 233.449L302.295 235.239C301.885 235.157 301.475 235.083 301.065 235.025L299.005 232.333C298.366 231.405 297.307 231.397 296.659 232.324L294.535 235.05C294.157 235.107 293.788 235.173 293.411 235.247L290.49 233.383C289.571 232.727 288.579 233.088 288.283 234.18L287.192 237.537C286.889 237.701 286.593 237.874 286.306 238.054L282.853 237.283C281.762 236.979 280.949 237.66 281.048 238.785L281.179 242.372C280.974 242.61 280.777 242.848 280.58 243.086L277.012 243.554C275.888 243.645 275.355 244.556 275.83 245.582L277.192 248.948C277.086 249.227 276.979 249.506 276.889 249.785L273.673 251.459C272.647 251.927 272.459 252.97 273.255 253.766L275.699 256.475C275.699 256.615 275.691 256.762 275.691 256.902C275.691 257.05 275.691 257.189 275.691 257.329L273.222 260.021C272.418 260.818 272.598 261.852 273.615 262.336L276.815 264.036C276.905 264.315 277.012 264.594 277.118 264.873L275.732 268.222C275.248 269.24 275.773 270.159 276.897 270.258L280.457 270.759C280.654 271.005 280.851 271.243 281.048 271.481L280.892 275.068C280.785 276.193 281.589 276.874 282.68 276.587L286.142 275.848C286.429 276.029 286.725 276.201 287.028 276.374L288.087 279.739C288.374 280.831 289.358 281.201 290.285 280.552L293.222 278.713C293.591 278.795 293.968 278.861 294.338 278.927L296.438 281.668C297.078 282.596 298.136 282.604 298.784 281.677L300.868 279C301.286 278.943 301.696 278.877 302.098 278.795L304.945 280.609C305.864 281.266 306.856 280.905 307.152 279.813L308.177 276.661C308.579 276.448 308.973 276.226 309.358 275.996L312.582 276.71C313.673 277.014 314.486 276.333 314.387 275.208L314.272 271.949C314.592 271.596 314.904 271.227 315.207 270.849L318.431 270.43C319.555 270.34 320.089 269.429 319.613 268.403L318.407 265.423C318.596 264.963 318.776 264.487 318.932 264.011L321.778 262.533C322.804 262.065 322.993 261.023 322.197 260.227L320.048 257.862ZM310.572 257.066C310.54 264.085 304.83 269.749 297.816 269.716C290.802 269.683 285.141 263.97 285.174 256.951C285.207 249.933 290.917 244.268 297.931 244.301C304.937 244.326 310.597 250.048 310.572 257.066Z" fill="#D1DEFD"/>
<path d="M177.419 64.6836H111.75L81.2734 95.1798V208.644C81.2734 211.64 83.7181 214.086 86.7124 214.086H177.419C180.413 214.086 182.858 211.64 182.858 208.644V70.1261C182.858 67.1381 180.413 64.6836 177.419 64.6836Z" fill="#339F5E"/>
<path d="M106.311 95.1798C109.305 95.1798 111.75 92.7336 111.75 89.7373V64.6836L81.2734 95.1798H106.311Z" fill="#339F5E"/>
<path d="M118.215 109.356C118.215 109.849 118.617 110.251 119.109 110.251H145.787C146.279 110.251 146.673 109.849 146.673 109.356V106.385C146.673 105.892 146.271 105.498 145.787 105.498H119.109C118.617 105.498 118.215 105.9 118.215 106.385V109.356Z" fill="white"/>
<path d="M115.572 106.387C115.572 105.894 115.17 105.5 114.686 105.5H103.316C102.824 105.5 102.422 105.902 102.422 106.387V109.358C102.422 109.851 102.824 110.253 103.316 110.253H114.686C115.178 110.253 115.572 109.851 115.572 109.358V106.387Z" fill="white"/>
<path d="M156.327 106.387C156.327 105.894 155.925 105.5 155.433 105.5H150.191C149.699 105.5 149.297 105.902 149.297 106.387V109.358C149.297 109.851 149.699 110.253 150.191 110.253H155.433C155.925 110.253 156.327 109.851 156.327 109.358V106.387Z" fill="white"/>
<path d="M96.6968 107.871C96.6968 109.792 95.1382 111.352 93.2185 111.352C91.2989 111.352 89.7402 109.792 89.7402 107.871C89.7402 105.95 91.2989 104.391 93.2185 104.391C95.1382 104.382 96.6968 105.942 96.6968 107.871Z" fill="#192840"/>
<path d="M95.6781 106.148L95.555 106.024C95.3663 105.836 95.0628 105.836 94.8741 106.024L92.651 108.249L91.5353 107.133C91.3466 106.944 91.0431 106.944 90.8544 107.133L90.7314 107.256C90.5427 107.445 90.5427 107.748 90.7314 107.937L92.6428 109.85L95.6617 106.829C95.8668 106.64 95.8668 106.336 95.6781 106.148Z" fill="white"/>
<path d="M126.5 122.647C126.5 123.14 126.902 123.542 127.386 123.542H154.294C154.786 123.542 155.18 123.14 155.18 122.647V119.676C155.18 119.183 154.778 118.789 154.294 118.789H127.386C126.894 118.789 126.5 119.191 126.5 119.676V122.647Z" fill="white"/>
<path d="M123.858 119.668C123.858 119.175 123.456 118.781 122.964 118.781H103.316C102.824 118.781 102.422 119.183 102.422 119.668V122.639C102.422 123.132 102.824 123.534 103.316 123.534H122.972C123.464 123.534 123.866 123.132 123.866 122.639V119.668H123.858Z" fill="white"/>
<path d="M167.755 119.668C167.755 119.175 167.353 118.781 166.861 118.781H158.714C158.222 118.781 157.82 119.183 157.82 119.668V122.639C157.82 123.132 158.222 123.534 158.714 123.534H166.861C167.353 123.534 167.755 123.132 167.755 122.639V119.668Z" fill="white"/>
<path d="M96.6968 121.154C96.6968 123.075 95.1382 124.635 93.2185 124.635C91.2989 124.635 89.7402 123.075 89.7402 121.154C89.7402 119.234 91.2989 117.674 93.2185 117.674C95.1382 117.674 96.6968 119.234 96.6968 121.154Z" fill="#192840"/>
<path d="M95.6781 119.441L95.555 119.317C95.3663 119.129 95.0628 119.129 94.8741 119.317L92.651 121.542L91.5353 120.426C91.3466 120.237 91.0431 120.237 90.8544 120.426L90.7314 120.549C90.5427 120.738 90.5427 121.041 90.7314 121.23L92.6428 123.143L95.6617 120.122C95.8668 119.933 95.8668 119.629 95.6781 119.441Z" fill="white"/>
<path d="M115.016 135.929C115.016 136.421 115.418 136.823 115.91 136.823H139.799C140.291 136.823 140.693 136.421 140.693 135.929V132.957C140.693 132.464 140.291 132.07 139.799 132.07H115.91C115.418 132.07 115.016 132.473 115.016 132.957V135.929Z" fill="white"/>
<path d="M112.373 132.957C112.373 132.464 111.971 132.07 111.487 132.07H103.316C102.824 132.07 102.422 132.473 102.422 132.957V135.929C102.422 136.421 102.824 136.823 103.316 136.823H111.487C111.979 136.823 112.373 136.421 112.373 135.929V132.957Z" fill="white"/>
<path d="M160.734 132.957C160.734 132.464 160.332 132.07 159.848 132.07H144.22C143.728 132.07 143.326 132.473 143.326 132.957V135.929C143.326 136.421 143.728 136.823 144.22 136.823H159.848C160.34 136.823 160.734 136.421 160.734 135.929V132.957Z" fill="white"/>
<path d="M96.6968 134.443C96.6968 136.364 95.1382 137.924 93.2185 137.924C91.2989 137.924 89.7402 136.364 89.7402 134.443C89.7402 132.523 91.2989 130.963 93.2185 130.963C95.1382 130.963 96.6968 132.523 96.6968 134.443Z" fill="#192840"/>
<path d="M95.6781 132.728L95.555 132.604C95.3663 132.416 95.0628 132.416 94.8741 132.604L92.651 134.829L91.5353 133.713C91.3466 133.524 91.0431 133.524 90.8544 133.713L90.7314 133.836C90.5427 134.025 90.5427 134.328 90.7314 134.517L92.6428 136.43L95.6617 133.409C95.8668 133.22 95.8668 132.916 95.6781 132.728Z" fill="white"/>
<path d="M125.18 149.221C125.18 149.714 125.582 150.116 126.074 150.116H149.913C150.406 150.116 150.799 149.714 150.799 149.221V146.25C150.799 145.757 150.397 145.363 149.913 145.363H126.074C125.582 145.363 125.18 145.766 125.18 146.25V149.221Z" fill="white"/>
<path d="M122.537 146.25C122.537 145.757 122.135 145.363 121.651 145.363H103.316C102.824 145.363 102.422 145.766 102.422 146.25V149.221C102.422 149.714 102.824 150.116 103.316 150.116H121.651C122.143 150.116 122.537 149.714 122.537 149.221V146.25Z" fill="white"/>
<path d="M160.464 146.25C160.464 145.757 160.062 145.363 159.57 145.363H154.328C153.836 145.363 153.434 145.766 153.434 146.25V149.221C153.434 149.714 153.836 150.116 154.328 150.116H159.57C160.062 150.116 160.464 149.714 160.464 149.221V146.25Z" fill="white"/>
<path d="M96.6968 147.734C96.6968 149.655 95.1382 151.215 93.2185 151.215C91.2989 151.215 89.7402 149.655 89.7402 147.734C89.7402 145.814 91.2989 144.254 93.2185 144.254C95.1382 144.254 96.6968 145.814 96.6968 147.734Z" fill="#192840"/>
<path d="M95.6781 146.019L95.555 145.896C95.3663 145.707 95.0628 145.707 94.8741 145.896L92.651 148.12L91.5353 147.004C91.3466 146.815 91.0431 146.815 90.8544 147.004L90.7314 147.127C90.5427 147.316 90.5427 147.619 90.7314 147.808L92.6428 149.721L95.6617 146.7C95.8668 146.511 95.8668 146.199 95.6781 146.019Z" fill="white"/>
<path d="M129.166 162.511C129.166 163.003 129.568 163.405 130.052 163.405H134.507C134.999 163.405 135.401 163.003 135.401 162.511V159.539C135.401 159.046 134.999 158.652 134.507 158.652H130.052C129.56 158.652 129.166 159.055 129.166 159.539V162.511Z" fill="white"/>
<path d="M126.524 159.539C126.524 159.046 126.122 158.652 125.63 158.652H103.316C102.824 158.652 102.422 159.055 102.422 159.539V162.511C102.422 163.003 102.824 163.405 103.316 163.405H125.638C126.13 163.405 126.532 163.003 126.532 162.511V159.539H126.524Z" fill="white"/>
<path d="M156.329 159.537C156.329 159.044 155.927 158.65 155.434 158.65H138.937C138.445 158.65 138.043 159.053 138.043 159.537V162.509C138.043 163.001 138.445 163.403 138.937 163.403H155.434C155.927 163.403 156.329 163.001 156.329 162.509V159.537Z" fill="white"/>
<path d="M96.6968 161.024C96.6968 162.944 95.1382 164.504 93.2185 164.504C91.2989 164.504 89.7402 162.944 89.7402 161.024C89.7402 159.103 91.2989 157.543 93.2185 157.543C95.1382 157.543 96.6968 159.103 96.6968 161.024Z" fill="#192840"/>
<path d="M95.6781 159.308L95.555 159.185C95.3663 158.996 95.0628 158.996 94.8741 159.185L92.651 161.409L91.5353 160.293C91.3466 160.104 91.0431 160.104 90.8544 160.293L90.7314 160.416C90.5427 160.605 90.5427 160.908 90.7314 161.097L92.6428 163.01L95.6617 159.989C95.8668 159.8 95.8668 159.488 95.6781 159.308Z" fill="white"/>
<path d="M112.801 175.8C112.801 176.292 113.203 176.694 113.695 176.694H154.614C155.106 176.694 155.508 176.292 155.508 175.8V172.828C155.508 172.335 155.106 171.941 154.614 171.941H113.695C113.203 171.941 112.801 172.344 112.801 172.828V175.8Z" fill="white"/>
<path d="M110.158 172.828C110.158 172.335 109.756 171.941 109.272 171.941H103.316C102.824 171.941 102.422 172.344 102.422 172.828V175.8C102.422 176.292 102.824 176.694 103.316 176.694H109.272C109.764 176.694 110.158 176.292 110.158 175.8V172.828Z" fill="white"/>
<path d="M165.155 172.828C165.155 172.335 164.753 171.941 164.269 171.941H159.027C158.535 171.941 158.133 172.344 158.133 172.828V175.8C158.133 176.292 158.535 176.694 159.027 176.694H164.269C164.761 176.694 165.155 176.292 165.155 175.8V172.828Z" fill="white"/>
<path d="M96.6968 174.313C96.6968 176.234 95.1382 177.793 93.2185 177.793C91.2989 177.793 89.7402 176.234 89.7402 174.313C89.7402 172.392 91.2989 170.832 93.2185 170.832C95.1382 170.832 96.6968 172.392 96.6968 174.313Z" fill="#192840"/>
<path d="M95.6781 172.597L95.555 172.474C95.3663 172.285 95.0628 172.285 94.8741 172.474L92.651 174.698L91.5353 173.582C91.3466 173.393 91.0431 173.393 90.8544 173.582L90.7314 173.705C90.5427 173.894 90.5427 174.198 90.7314 174.386L92.6428 176.299L95.6617 173.278C95.8668 173.089 95.8668 172.777 95.6781 172.597Z" fill="white"/>
<path d="M124.885 189.093C124.885 189.585 125.287 189.987 125.779 189.987H159.889C160.381 189.987 160.775 189.585 160.775 189.093V186.121C160.775 185.628 160.373 185.234 159.889 185.234H125.779C125.287 185.234 124.885 185.637 124.885 186.121V189.093Z" fill="white"/>
<path d="M122.242 186.121C122.242 185.628 121.84 185.234 121.356 185.234H103.316C102.824 185.234 102.422 185.637 102.422 186.121V189.093C102.422 189.585 102.824 189.987 103.316 189.987H121.356C121.848 189.987 122.242 189.585 122.242 189.093V186.121Z" fill="white"/>
<path d="M170.429 186.121C170.429 185.628 170.027 185.234 169.535 185.234H164.293C163.8 185.234 163.398 185.637 163.398 186.121V189.093C163.398 189.585 163.8 189.987 164.293 189.987H169.535C170.027 189.987 170.429 189.585 170.429 189.093V186.121Z" fill="white"/>
<path d="M96.6968 187.606C96.6968 189.526 95.1382 191.086 93.2185 191.086C91.2989 191.086 89.7402 189.526 89.7402 187.606C89.7402 185.685 91.2989 184.125 93.2185 184.125C95.1382 184.125 96.6968 185.685 96.6968 187.606Z" fill="#192840"/>
<path d="M95.6781 185.882L95.555 185.759C95.3663 185.57 95.0628 185.57 94.8741 185.759L92.651 187.983L91.5353 186.867C91.3466 186.678 91.0431 186.678 90.8544 186.867L90.7314 186.99C90.5427 187.179 90.5427 187.483 90.7314 187.671L92.6428 189.584L95.6617 186.563C95.8668 186.374 95.8668 186.071 95.6781 185.882Z" fill="white"/>
<path d="M125 202.382C125 202.874 125.402 203.276 125.894 203.276H145.788C146.28 203.276 146.674 202.874 146.674 202.382V199.41C146.674 198.917 146.272 198.523 145.788 198.523H125.894C125.402 198.523 125 198.926 125 199.41V202.382Z" fill="white"/>
<path d="M122.356 199.41C122.356 198.917 121.955 198.523 121.47 198.523H103.316C102.824 198.523 102.422 198.926 102.422 199.41V202.382C102.422 202.874 102.824 203.276 103.316 203.276H121.47C121.963 203.276 122.356 202.874 122.356 202.382V199.41Z" fill="white"/>
<path d="M156.327 199.41C156.327 198.917 155.925 198.523 155.433 198.523H150.191C149.699 198.523 149.297 198.926 149.297 199.41V202.382C149.297 202.874 149.699 203.276 150.191 203.276H155.433C155.925 203.276 156.327 202.874 156.327 202.382V199.41Z" fill="white"/>
<path d="M96.6968 200.895C96.6968 202.816 95.1382 204.375 93.2185 204.375C91.2989 204.375 89.7402 202.816 89.7402 200.895C89.7402 198.974 91.2989 197.414 93.2185 197.414C95.1382 197.414 96.6968 198.974 96.6968 200.895Z" fill="#192840"/>
<path d="M95.6781 199.171L95.555 199.048C95.3663 198.859 95.0628 198.859 94.8741 199.048L92.651 201.272L91.5353 200.156C91.3466 199.967 91.0431 199.967 90.8544 200.156L90.7314 200.279C90.5427 200.468 90.5427 200.772 90.7314 200.961L92.6428 202.873L95.6617 199.852C95.8668 199.664 95.8668 199.36 95.6781 199.171Z" fill="white"/>
<path d="M412.812 242.375V219.143C412.812 214.398 408.973 210.557 404.231 210.557H273.655C268.913 210.557 265.074 214.398 265.074 219.143V242.375H412.812Z" fill="#E8BF2D"/>
<path d="M265.074 322.043C265.074 326.788 268.913 330.629 273.655 330.629H404.231C408.973 330.629 412.812 326.788 412.812 322.043V242.375H265.074V322.043Z" fill="white"/>
<path d="M290.784 251.166H276.551V265.409H290.784V251.166Z" fill="#339F5E" fill-opacity="0.1"/>
<path d="M309.233 251.166H295V265.409H309.233V251.166Z" fill="#339F5E" fill-opacity="0.1"/>
<path d="M327.682 251.166H313.449V265.409H327.682V251.166Z" fill="#339F5E" fill-opacity="0.1"/>
<path d="M346.134 251.166H331.9V265.409H346.134V251.166Z" fill="#339F5E" fill-opacity="0.1"/>
<path d="M364.585 251.166H350.352V265.409H364.585V251.166Z" fill="#339F5E" fill-opacity="0.1"/>
<path d="M383.042 251.166H368.809V265.409H383.042V251.166Z" fill="#339F5E" fill-opacity="0.1"/>
<path d="M401.491 251.166H387.258V265.409H401.491V251.166Z" fill="#E8BF2D"/>
<path d="M290.784 269.324H276.551V283.567H290.784V269.324Z" fill="#339F5E" fill-opacity="0.1"/>
<path d="M309.233 269.324H295V283.567H309.233V269.324Z" fill="#339F5E" fill-opacity="0.1"/>
<path d="M327.682 269.324H313.449V283.567H327.682V269.324Z" fill="#339F5E" fill-opacity="0.1"/>
<path d="M346.134 269.324H331.9V283.567H346.134V269.324Z" fill="#339F5E" fill-opacity="0.1"/>
<path d="M364.585 269.324H350.352V283.567H364.585V269.324Z" fill="#339F5E" fill-opacity="0.1"/>
<path d="M383.042 269.324H368.809V283.567H383.042V269.324Z" fill="#339F5E" fill-opacity="0.1"/>
<path d="M401.491 269.324H387.258V283.567H401.491V269.324Z" fill="#E8BF2D"/>
<path d="M290.784 287.482H276.551V301.725H290.784V287.482Z" fill="#339F5E" fill-opacity="0.1"/>
<path d="M309.233 287.482H295V301.725H309.233V287.482Z" fill="#339F5E" fill-opacity="0.1"/>
<path d="M327.682 287.482H313.449V301.725H327.682V287.482Z" fill="#339F5E" fill-opacity="0.1"/>
<path d="M346.134 287.482H331.9V301.725H346.134V287.482Z" fill="#339F5E" fill-opacity="0.1"/>
<path d="M364.585 287.482H350.352V301.725H364.585V287.482Z" fill="#339F5E" fill-opacity="0.1"/>
<path d="M383.042 287.482H368.809V301.725H383.042V287.482Z" fill="#339F5E" fill-opacity="0.1"/>
<path d="M401.491 287.482H387.258V301.725H401.491V287.482Z" fill="#E8BF2D"/>
<path d="M290.784 305.641H276.551V319.883H290.784V305.641Z" fill="#339F5E" fill-opacity="0.1"/>
<path d="M309.233 305.641H295V319.883H309.233V305.641Z" fill="#339F5E" fill-opacity="0.1"/>
<path d="M327.682 305.641H313.449V319.883H327.682V305.641Z" fill="#339F5E" fill-opacity="0.1"/>
<path d="M346.134 305.641H331.9V319.883H346.134V305.641Z" fill="#339F5E" fill-opacity="0.1"/>
<path d="M364.585 305.641H350.352V319.883H364.585V305.641Z" fill="#339F5E" fill-opacity="0.1"/>
<path d="M383.042 305.641H368.809V319.883H383.042V305.641Z" fill="#339F5E" fill-opacity="0.1"/>
<path d="M401.491 305.641H387.258V319.883H401.491V305.641Z" fill="#E8BF2D"/>
<path d="M220.767 120.618C220.628 127.473 214.902 132.973 208.052 132.825L205.788 132.776C198.938 132.636 193.441 126.907 193.581 120.052L194.065 96.5416C194.204 89.6872 199.93 84.1872 206.78 84.3349L209.044 84.3842C215.894 84.5237 221.391 90.2536 221.243 97.1081L220.767 120.618Z" fill="#339F5E"/>
<path d="M216.831 98.1583C216.938 93.077 212.91 88.874 207.832 88.7755C202.754 88.6688 198.554 92.6994 198.455 97.7807C198.349 102.862 202.376 107.065 207.454 107.164C212.524 107.27 216.724 103.231 216.831 98.1583Z" fill="white"/>
<path d="M310.392 220.259C311.598 162.098 265.453 113.977 207.331 112.779C149.208 111.572 101.119 157.748 99.9215 215.9C98.7156 274.06 144.861 322.181 202.974 323.38C261.097 324.586 309.186 278.419 310.392 220.259Z" fill="#339F5E"/>
<path d="M293.779 219.907C294.788 170.924 255.936 130.397 206.977 129.379C158.06 128.369 117.542 167.255 116.533 216.237C115.516 265.245 154.393 305.781 203.31 306.79C252.269 307.8 292.77 268.914 293.779 219.907Z" fill="white"/>
<path d="M209.019 139.163L204.557 139.065L204.647 134.812L209.11 134.903L209.019 139.163Z" fill="#339F5E"/>
<path d="M205.656 302.054L201.193 301.964L201.275 297.703L205.738 297.802L205.656 302.054Z" fill="#339F5E"/>
<path d="M168.89 147.84L164.985 149.999L162.926 146.264L166.839 144.113L168.89 147.84Z" fill="#339F5E"/>
<path d="M247.374 290.602L243.461 292.753L241.41 289.026L245.323 286.867L247.374 290.602Z" fill="#339F5E"/>
<path d="M138.477 175.438L136.164 179.264L132.521 177.055L134.835 173.238L138.477 175.438Z" fill="#339F5E"/>
<path d="M277.772 259.81L275.459 263.627L271.816 261.427L274.13 257.602L277.772 259.81Z" fill="#339F5E"/>
<path d="M125.926 214.563L125.836 219.029L121.578 218.938L121.668 214.473L125.926 214.563Z" fill="#339F5E"/>
<path d="M288.717 217.928L288.627 222.394L284.369 222.312L284.459 217.838L288.717 217.928Z" fill="#339F5E"/>
<path d="M134.606 254.721L136.755 258.628L133.022 260.68L130.873 256.773L134.606 254.721Z" fill="#339F5E"/>
<path d="M277.265 176.186L279.423 180.101L275.69 182.153L273.541 178.238L277.265 176.186Z" fill="#339F5E"/>
<path d="M162.185 285.15L166.008 287.465L163.793 291.11L159.979 288.795L162.185 285.15Z" fill="#339F5E"/>
<path d="M246.492 145.764L250.315 148.07L248.108 151.715L244.285 149.4L246.492 145.764Z" fill="#339F5E"/>
<path d="M200.535 134.943L198.611 135.072L199.315 145.547L201.239 145.418L200.535 134.943Z" fill="#CACACA"/>
<path d="M210.986 291.281L209.062 291.408L209.754 301.884L211.678 301.757L210.986 291.281Z" fill="#CACACA"/>
<path d="M194.91 146.05L192.999 146.345L191.391 135.969L193.302 135.674L194.91 146.05Z" fill="#CACACA"/>
<path d="M217.28 290.527L215.375 290.82L216.973 301.197L218.878 300.903L217.28 290.527Z" fill="#CACACA"/>
<path d="M186.128 137.024L184.256 137.484L186.759 147.68L188.631 147.22L186.128 137.024Z" fill="#CACACA"/>
<path d="M223.521 289.178L221.648 289.639L224.15 299.827L226.022 299.366L223.521 289.178Z" fill="#CACACA"/>
<path d="M179.125 138.987L177.301 139.609L180.688 149.547L182.512 148.924L179.125 138.987Z" fill="#CACACA"/>
<path d="M229.617 287.281L227.793 287.904L231.181 297.841L233.005 297.218L229.617 287.281Z" fill="#CACACA"/>
<path d="M172.318 141.563L170.555 142.342L174.788 151.94L176.552 151.161L172.318 141.563Z" fill="#CACACA"/>
<path d="M235.534 284.91L233.77 285.688L237.995 295.289L239.759 294.511L235.534 284.91Z" fill="#CACACA"/>
<path d="M159.464 148.432L157.861 149.504L163.692 158.233L165.295 157.161L159.464 148.432Z" fill="#CACACA"/>
<path d="M246.602 278.617L245 279.689L250.835 288.415L252.437 287.343L246.602 278.617Z" fill="#CACACA"/>
<path d="M153.545 152.694L152.043 153.904L158.619 162.076L160.12 160.866L153.545 152.694Z" fill="#CACACA"/>
<path d="M251.679 274.779L250.176 275.986L256.745 284.173L258.248 282.965L251.679 274.779Z" fill="#CACACA"/>
<path d="M148.005 157.45L146.613 158.785L153.876 166.362L155.267 165.027L148.005 157.45Z" fill="#CACACA"/>
<path d="M256.415 270.526L255.023 271.861L262.287 279.438L263.678 278.102L256.415 270.526Z" fill="#CACACA"/>
<path d="M142.918 162.665L141.648 164.117L149.539 171.026L150.808 169.574L142.918 162.665Z" fill="#CACACA"/>
<path d="M260.743 265.846L259.473 267.297L267.363 274.217L268.634 272.766L260.743 265.846Z" fill="#CACACA"/>
<path d="M138.273 168.311L137.137 169.869L145.612 176.057L146.749 174.499L138.273 168.311Z" fill="#CACACA"/>
<path d="M264.671 260.802L263.533 262.359L272.002 268.558L273.14 267.001L264.671 260.802Z" fill="#CACACA"/>
<path d="M130.597 180.671L129.746 182.402L139.162 187.035L140.012 185.303L130.597 180.671Z" fill="#CACACA"/>
<path d="M271.104 249.841L270.254 251.572L279.672 256.199L280.521 254.468L271.104 249.841Z" fill="#CACACA"/>
<path d="M127.606 187.334L126.91 189.133L136.687 192.922L137.383 191.123L127.606 187.334Z" fill="#CACACA"/>
<path d="M273.636 243.932L272.938 245.73L282.718 249.532L283.417 247.734L273.636 243.932Z" fill="#CACACA"/>
<path d="M125.178 194.202L124.641 196.055L134.709 198.981L135.246 197.128L125.178 194.202Z" fill="#CACACA"/>
<path d="M275.576 237.891L275.039 239.744L285.116 242.669L285.653 240.817L275.576 237.891Z" fill="#CACACA"/>
<path d="M123.379 201.262L123.006 203.154L133.3 205.187L133.673 203.294L123.379 201.262Z" fill="#CACACA"/>
<path d="M276.99 231.68L276.617 233.572L286.903 235.601L287.276 233.709L276.99 231.68Z" fill="#CACACA"/>
<path d="M122.202 208.465L121.994 210.383L132.426 211.513L132.633 209.595L122.202 208.465Z" fill="#CACACA"/>
<path d="M277.888 225.353L277.682 227.271L288.114 228.393L288.32 226.475L277.888 225.353Z" fill="#CACACA"/>
<path d="M132.192 222.334L121.73 223.027L121.858 224.952L132.319 224.259L132.192 222.334Z" fill="#CACACA"/>
<path d="M288.44 211.918L277.971 212.613L278.098 214.538L288.568 213.843L288.44 211.918Z" fill="#CACACA"/>
<path d="M132.813 228.657L122.445 230.27L122.741 232.176L133.109 230.563L132.813 228.657Z" fill="#CACACA"/>
<path d="M287.552 204.672L287.848 206.576L277.487 208.185L277.191 206.281L287.552 204.672Z" fill="#CACACA"/>
<path d="M133.982 234.942L123.801 237.445L124.261 239.319L134.442 236.816L133.982 234.942Z" fill="#CACACA"/>
<path d="M286.029 197.548L275.848 200.051L276.308 201.924L286.489 199.421L286.029 197.548Z" fill="#CACACA"/>
<path d="M135.69 241.106L125.76 244.498L126.383 246.324L136.313 242.931L135.69 241.106Z" fill="#CACACA"/>
<path d="M283.91 190.526L273.98 193.916L274.603 195.742L284.533 192.352L283.91 190.526Z" fill="#CACACA"/>
<path d="M137.939 247.078L128.338 251.312L129.115 253.078L138.717 248.843L137.939 247.078Z" fill="#CACACA"/>
<path d="M281.181 183.777L271.584 188.02L272.363 189.784L281.96 185.541L281.181 183.777Z" fill="#CACACA"/>
<path d="M143.917 258.316L144.992 259.917L136.28 265.762L135.205 264.153L143.917 258.316Z" fill="#CACACA"/>
<path d="M274.036 171.098L265.328 176.957L266.404 178.558L275.111 172.699L274.036 171.098Z" fill="#CACACA"/>
<path d="M147.608 263.497L139.439 270.086L140.649 271.588L148.818 264.998L147.608 263.497Z" fill="#CACACA"/>
<path d="M269.624 165.289L261.449 171.857L262.656 173.362L270.831 166.793L269.624 165.289Z" fill="#CACACA"/>
<path d="M151.79 268.347L144.223 275.621L145.558 277.012L153.125 269.738L151.79 268.347Z" fill="#CACACA"/>
<path d="M264.77 159.886L257.201 167.156L258.536 168.548L266.105 161.277L264.77 159.886Z" fill="#CACACA"/>
<path d="M156.315 272.82L149.402 280.719L150.859 281.995L157.771 274.096L156.315 272.82Z" fill="#CACACA"/>
<path d="M259.444 154.889L252.535 162.791L253.986 164.061L260.895 156.16L259.444 154.889Z" fill="#CACACA"/>
<path d="M161.238 276.862L155.043 285.336L156.599 286.475L162.794 278.001L161.238 276.862Z" fill="#CACACA"/>
<path d="M253.694 150.386L247.51 158.857L249.066 159.995L255.251 151.524L253.694 150.386Z" fill="#CACACA"/>
<path d="M172.045 283.607L173.776 284.461L169.149 293.877L167.418 293.023L172.045 283.607Z" fill="#CACACA"/>
<path d="M241.142 142.996L242.873 143.842L238.247 153.265L236.516 152.412L241.142 142.996Z" fill="#CACACA"/>
<path d="M177.865 286.249L174.074 296.04L175.872 296.737L179.663 286.946L177.865 286.249Z" fill="#CACACA"/>
<path d="M234.425 140.144L230.629 149.932L232.426 150.63L236.222 140.842L234.425 140.144Z" fill="#CACACA"/>
<path d="M183.859 288.369L180.949 298.457L182.801 298.992L185.711 288.904L183.859 288.369Z" fill="#CACACA"/>
<path d="M227.507 137.869L224.572 147.949L226.423 148.489L229.358 138.408L227.507 137.869Z" fill="#CACACA"/>
<path d="M190.019 289.965L187.98 300.256L189.88 300.632L191.918 290.342L190.019 289.965Z" fill="#CACACA"/>
<path d="M220.38 136.237L218.357 146.539L220.249 146.911L222.272 136.609L220.38 136.237Z" fill="#CACACA"/>
<path d="M196.341 291.004L195.217 301.443L197.134 301.65L198.257 291.211L196.341 291.004Z" fill="#CACACA"/>
<path d="M213.183 135.224L212.055 145.654L213.971 145.862L215.099 135.432L213.183 135.224Z" fill="#CACACA"/>
<path d="M231.449 280.546C228.841 280.488 227.741 278.124 227.782 275.267C227.84 272.329 229.12 270.063 231.72 270.112C234.403 270.17 235.42 272.591 235.371 275.358C235.305 278.461 234.009 280.595 231.466 280.546H231.449ZM231.515 278.756C232.426 278.773 232.951 277.632 233 275.341C233.049 273.108 232.59 271.91 231.646 271.893C230.76 271.877 230.178 273.002 230.129 275.284C230.063 277.615 230.596 278.74 231.499 278.756H231.515Z" fill="#339F5E"/>
<path d="M242.557 272.443L238.652 272.361L238.406 273.896C238.619 273.879 238.808 273.871 239.054 273.879C240.013 273.896 241.006 274.134 241.695 274.659C242.442 275.185 242.893 276.038 242.868 277.237C242.827 279.109 241.178 280.742 238.471 280.685C237.249 280.66 236.223 280.356 235.674 280.053L236.15 278.288C236.576 278.517 237.487 278.813 238.406 278.829C239.382 278.846 240.432 278.411 240.457 277.335C240.481 276.276 239.669 275.628 237.651 275.587C237.093 275.579 236.707 275.595 236.297 275.653L237.06 270.391L242.614 270.506L242.557 272.443Z" fill="#339F5E"/>
<path d="M168.733 279.241C166.124 279.183 165.025 276.819 165.066 273.963C165.131 271.032 166.403 268.758 169.003 268.816C171.686 268.873 172.711 271.303 172.654 274.061C172.588 277.164 171.292 279.298 168.749 279.241H168.733ZM168.806 277.46C169.717 277.476 170.242 276.343 170.291 274.045C170.34 271.812 169.881 270.621 168.938 270.597C168.052 270.58 167.469 271.697 167.42 273.987C167.354 276.319 167.888 277.443 168.79 277.46H168.806Z" fill="#339F5E"/>
<path d="M180.381 269.218L180.348 270.696L176.009 279.225L173.507 279.176L177.83 271.139V271.106L173.203 271.008L173.244 269.07L180.381 269.218Z" fill="#339F5E"/>
<path d="M254.434 257.243C251.825 257.185 250.726 254.821 250.767 251.965C250.824 249.034 252.104 246.76 254.704 246.809C257.387 246.867 258.412 249.288 258.355 252.055C258.289 255.158 256.993 257.292 254.45 257.243H254.434ZM254.499 255.453C255.418 255.47 255.935 254.337 255.984 252.038C256.033 249.806 255.574 248.615 254.631 248.591C253.745 248.574 253.162 249.691 253.113 251.973C253.047 254.304 253.589 255.429 254.483 255.445L254.499 255.453Z" fill="#ABABAB"/>
<path d="M262.818 257.242L262.867 254.837L258.396 254.746L258.429 253.203L262.359 247.137L265.263 247.194L265.14 253.105L266.338 253.129L266.296 254.894L265.099 254.87L265.05 257.275L262.818 257.242ZM262.9 253.072L262.949 250.831C262.966 250.231 263.007 249.608 263.048 248.959H262.999C262.654 249.608 262.367 250.19 262.014 250.814L260.636 252.998L260.62 253.031L262.9 253.072Z" fill="#ABABAB"/>
<path d="M146.262 255.001C143.653 254.943 142.554 252.579 142.603 249.731C142.661 246.792 143.94 244.518 146.541 244.575C149.223 244.633 150.249 247.054 150.191 249.829C150.126 252.932 148.83 255.066 146.287 255.009L146.262 255.001ZM146.336 253.219C147.255 253.236 147.771 252.103 147.821 249.796C147.87 247.563 147.41 246.373 146.467 246.357C145.581 246.34 144.999 247.457 144.949 249.739C144.884 252.07 145.417 253.203 146.319 253.219H146.336Z" fill="#ABABAB"/>
<path d="M154.424 244.731C156.778 244.78 157.73 246.168 157.705 247.399C157.689 248.261 157.205 249.115 156.188 249.591V249.632C157.172 250.026 158.025 250.88 158.001 252.177C157.96 254.007 156.401 255.214 154.055 255.165C151.495 255.115 150.347 253.646 150.371 252.283C150.396 251.077 151.11 250.248 152.225 249.788V249.755C151.257 249.221 150.798 248.392 150.814 247.506C150.847 245.798 152.406 244.698 154.408 244.731H154.424ZM154.203 253.539C155.023 253.556 155.589 253.022 155.605 252.308C155.622 251.421 154.965 250.88 154.055 250.617C153.276 250.814 152.816 251.364 152.8 252.095C152.767 252.825 153.317 253.523 154.186 253.539H154.203ZM154.317 246.332C153.513 246.316 153.095 246.849 153.087 247.473C153.07 248.154 153.669 248.606 154.465 248.869C155.015 248.729 155.507 248.245 155.515 247.621C155.532 246.989 155.187 246.357 154.334 246.34L154.317 246.332Z" fill="#ABABAB"/>
<path d="M263 224.495C260.391 224.437 259.292 222.065 259.333 219.217C259.391 216.286 260.67 214.012 263.271 214.061C265.953 214.119 266.971 216.54 266.913 219.307C266.848 222.418 265.551 224.544 263.008 224.495H263ZM263.066 222.714C263.985 222.73 264.501 221.589 264.551 219.29C264.6 217.058 264.14 215.867 263.197 215.851C262.311 215.834 261.729 216.951 261.688 219.233C261.622 221.564 262.155 222.697 263.058 222.714H263.066Z" fill="#339F5E"/>
<path d="M267.685 222.106C268.103 222.353 269.055 222.763 270.015 222.78C271.237 222.804 271.877 222.23 271.893 221.483C271.91 220.473 270.933 220.005 269.908 219.98L268.948 219.964L268.981 218.273L269.892 218.289C270.687 218.306 271.68 218.018 271.705 217.165C271.713 216.557 271.245 216.098 270.236 216.081C269.416 216.065 268.538 216.401 268.128 216.639L267.685 214.924C268.3 214.546 269.498 214.201 270.819 214.226C272.96 214.267 274.133 215.424 274.1 216.812C274.075 217.887 273.452 218.724 272.205 219.118V219.151C273.411 219.389 274.371 220.333 274.338 221.663C274.305 223.436 272.705 224.7 270.146 224.651C268.841 224.627 267.75 224.257 267.168 223.888L267.685 222.106Z" fill="#339F5E"/>
<path d="M139.602 221.942C136.993 221.885 135.894 219.52 135.935 216.664C135.992 213.733 137.272 211.459 139.872 211.517C142.555 211.574 143.58 213.996 143.515 216.762C143.449 219.865 142.153 222 139.61 221.95L139.602 221.942ZM139.667 220.161C140.578 220.177 141.103 219.044 141.152 216.746C141.201 214.513 140.742 213.323 139.799 213.306C138.913 213.29 138.33 214.406 138.281 216.688C138.215 219.02 138.757 220.144 139.651 220.161H139.667Z" fill="#339F5E"/>
<path d="M144.573 220.169C144.885 220.218 145.131 220.21 145.598 220.194C146.328 220.177 147.058 219.98 147.608 219.611C148.281 219.184 148.732 218.527 148.921 217.78L148.888 217.756C148.412 218.215 147.756 218.462 146.829 218.445C145.122 218.413 143.72 217.198 143.761 215.227C143.802 213.257 145.418 211.624 147.633 211.673C150.225 211.73 151.406 213.742 151.357 216.098C151.316 218.207 150.619 219.718 149.511 220.703C148.527 221.565 147.19 222.008 145.606 222.033C145.221 222.057 144.819 222.033 144.532 222.008L144.573 220.169ZM147.526 213.397C146.739 213.38 146.131 214.078 146.107 215.137C146.09 216.007 146.558 216.754 147.501 216.779C148.166 216.795 148.609 216.508 148.847 216.155C148.929 216.007 148.962 215.843 148.97 215.556C149.011 214.489 148.609 213.421 147.542 213.405L147.526 213.397Z" fill="#339F5E"/>
<path d="M254.393 191.552C251.784 191.494 250.685 189.13 250.726 186.273C250.783 183.343 252.063 181.061 254.663 181.118C257.346 181.176 258.363 183.606 258.306 186.372C258.24 189.475 256.944 191.609 254.393 191.552ZM254.458 189.77C255.369 189.787 255.894 188.646 255.943 186.356C255.992 184.115 255.533 182.932 254.59 182.908C253.704 182.891 253.121 184.016 253.08 186.298C253.014 188.629 253.556 189.754 254.45 189.77H254.458Z" fill="#ABABAB"/>
<path d="M258.617 191.47L258.65 190.042L259.963 188.909C262.227 186.971 263.318 185.855 263.359 184.673C263.375 183.852 262.908 183.187 261.743 183.162C260.873 183.146 260.102 183.565 259.569 183.942L258.937 182.251C259.692 181.693 260.898 181.25 262.243 181.274C264.54 181.324 265.754 182.686 265.713 184.517C265.68 186.208 264.442 187.538 262.94 188.81L261.997 189.565V189.598L265.812 189.68L265.771 191.618L258.617 191.47Z" fill="#ABABAB"/>
<path d="M145.597 181.126H145.565L143.62 182.004L143.268 180.223L145.975 179.041L147.911 179.082L147.706 189.171L145.425 189.122L145.597 181.126Z" fill="#ABABAB"/>
<path d="M153.891 189.475C151.282 189.418 150.183 187.054 150.232 184.197C150.289 181.266 151.561 178.993 154.17 179.042C156.852 179.099 157.87 181.521 157.812 184.287C157.746 187.39 156.45 189.525 153.907 189.475H153.891ZM153.956 187.686C154.875 187.702 155.392 186.569 155.441 184.271C155.491 182.03 155.031 180.84 154.088 180.823C153.202 180.807 152.619 181.923 152.578 184.213C152.513 186.537 153.046 187.669 153.948 187.686H153.956Z" fill="#ABABAB"/>
<path d="M236.188 169.637C233.579 169.58 232.48 167.216 232.521 164.359C232.578 161.429 233.858 159.155 236.458 159.204C239.141 159.261 240.166 161.691 240.109 164.449C240.043 167.552 238.747 169.687 236.204 169.629L236.188 169.637ZM236.253 167.856C237.172 167.873 237.689 166.74 237.738 164.441C237.787 162.2 237.328 161.01 236.384 160.993C235.499 160.977 234.916 162.093 234.867 164.384C234.801 166.715 235.334 167.84 236.237 167.856H236.253Z" fill="#339F5E"/>
<path d="M243.57 161.624H243.537L241.593 162.502L241.24 160.729L243.956 159.547L245.892 159.588L245.687 169.677L243.406 169.627L243.57 161.624Z" fill="#339F5E"/>
<path d="M169.166 160.253H169.133L167.189 161.131L166.836 159.35L169.543 158.168L171.487 158.209L171.282 168.298L169.002 168.249L169.166 160.253Z" fill="#339F5E"/>
<path d="M176.999 160.417H176.975L175.031 161.295L174.678 159.514L177.385 158.332L179.321 158.373L179.116 168.462L176.835 168.413L176.999 160.417Z" fill="#339F5E"/>
<path d="M199.766 285.784C197.157 285.727 196.058 283.362 196.099 280.506C196.156 277.575 197.436 275.301 200.036 275.35C202.727 275.408 203.744 277.83 203.687 280.596C203.621 283.707 202.325 285.833 199.782 285.784H199.766ZM199.831 284.003C200.742 284.019 201.267 282.886 201.316 280.588C201.365 278.347 200.906 277.165 199.963 277.14C199.077 277.124 198.494 278.24 198.445 280.522C198.379 282.845 198.921 283.978 199.815 283.994L199.831 284.003Z" fill="#ABABAB"/>
<path d="M210.585 277.419C210.322 277.394 210.043 277.411 209.666 277.427C207.566 277.542 206.614 278.609 206.327 279.767H206.377C206.885 279.282 207.599 279.003 208.534 279.02C210.224 279.053 211.627 280.276 211.586 282.377C211.545 284.38 209.978 285.997 207.804 285.948C205.105 285.891 203.825 283.863 203.874 281.45C203.915 279.553 204.646 277.985 205.769 276.984C206.778 276.089 208.107 275.638 209.674 275.588C210.109 275.556 210.404 275.58 210.618 275.597L210.585 277.419ZM207.812 284.216C208.632 284.232 209.182 283.477 209.199 282.459C209.215 281.532 208.739 280.711 207.73 280.686C207.09 280.67 206.557 281.056 206.327 281.548C206.245 281.688 206.212 281.868 206.204 282.147C206.229 283.223 206.721 284.191 207.788 284.216H207.812Z" fill="#ABABAB"/>
<path d="M201.693 152.06H201.66L199.716 152.93L199.363 151.149L202.07 149.967L204.015 150.008L203.81 160.097L201.529 160.047L201.693 152.06Z" fill="#ABABAB"/>
<path d="M206.369 160.154L206.402 158.725L207.715 157.584C209.979 155.647 211.07 154.53 211.111 153.357C211.127 152.536 210.66 151.871 209.495 151.846C208.625 151.83 207.854 152.248 207.321 152.626L206.689 150.935C207.444 150.368 208.65 149.933 210.003 149.958C212.3 150.007 213.514 151.362 213.473 153.201C213.441 154.892 212.202 156.213 210.701 157.494L209.749 158.249V158.274L213.564 158.356L213.523 160.301L206.369 160.154Z" fill="#ABABAB"/>
<path d="M250.826 196.215L249.456 193.982C249.243 193.629 248.775 193.522 248.431 193.736L217.183 213.035C217.175 213.018 217.159 213.01 217.15 212.994L195.542 185.215L201.564 183.015C202.852 182.547 202.86 181.751 201.588 181.25L184.336 174.477C183.065 173.977 181.916 174.683 181.793 176.054L180.111 194.515C179.988 195.878 180.702 196.231 181.703 195.287L186.371 190.887L200.727 221.039L198.2 241.323L193.68 239.221C192.433 238.639 191.867 239.197 192.417 240.453L199.825 257.445C200.374 258.701 201.687 259.013 202.737 258.135L216.978 246.273C218.028 245.395 217.766 244.639 216.404 244.606L211.424 244.459L218.865 223.468C219.128 222.894 219.349 222.286 219.497 221.654C219.907 219.914 219.8 218.165 219.283 216.581L250.605 197.233C250.933 197.027 251.039 196.568 250.826 196.215Z" fill="#339F5E"/>
<path d="M215.872 216.27C214.01 213.258 210.064 212.322 207.061 214.185C204.051 216.041 203.116 219.989 204.978 223.002C206.84 226.015 210.786 226.95 213.788 225.087C216.791 223.232 217.726 219.283 215.872 216.27Z" fill="#339F5E"/>
<path d="M157.215 311.493C157.215 312.732 156.206 313.742 154.967 313.742H135.902C134.663 313.742 133.654 312.732 133.654 311.493V286.234C133.654 284.994 134.663 283.984 135.902 283.984H154.967C156.206 283.984 157.215 284.994 157.215 286.234V311.493Z" fill="#273844"/>
<path d="M166.222 288.467C167.46 288.467 167.756 287.752 166.878 286.874L147.025 267.008C146.147 266.13 144.72 266.13 143.842 267.008L123.99 286.874C123.112 287.752 123.407 288.467 124.646 288.467H166.222Z" fill="#273844"/>
<path d="M97.6966 312.191L111.799 320.737C113.808 321.952 112.881 324.858 110.478 324.858H72.602C71.2484 324.858 70.1574 323.823 70.1902 322.568L70.4363 312.191H97.6966Z" fill="#273844"/>
<path d="M35.5785 313.711L44.0446 325.392C45.2505 327.059 43.5524 329.275 41.6328 328.536L11.3371 316.937C10.2542 316.526 9.72098 315.303 10.164 314.228L13.7735 305.362L35.5785 313.711Z" fill="#273844"/>
<path d="M15.5532 300.699L13.8223 305.337L32.7314 312.578L38.0309 301.389L15.5532 300.699Z" fill="#AD5C40"/>
<path d="M70.9785 301.167V312.192H92.3734V300.289L70.9785 301.167Z" fill="#AD5C40"/>
<path d="M105.293 301.028L100.879 301.184L100.559 301.193L91.5352 301.513L91.2071 301.529L83.5696 301.8L83.2496 301.808L74.4391 302.12L74.1109 302.137L67.3594 302.375L43.7168 207.816L61.8794 205.271L62.1912 205.23L67.4414 204.491L67.745 204.45L73.1019 203.695L73.4054 203.654L73.6597 203.621L105.293 301.028Z" fill="#339F5E"/>
<path d="M62.2243 207.471L57.8108 265.73L39.2462 302.374H32.0763L32.1009 302.309L29.5907 302.243L29.2051 302.235L22.3715 302.046L21.9614 302.038L12.9211 301.791L12.4863 301.783L6.41564 301.619L6.01367 301.611C12.5355 289.757 19.0491 277.912 25.5709 266.058L35.1444 207.495H62.2243V207.471Z" fill="#339F5E"/>
<path d="M116.59 208.629C115.966 208.588 115.384 207.964 114.933 207.594C114.883 207.553 114.834 207.512 114.785 207.471C114.252 207.028 113.735 206.576 113.218 206.117C113.3 206.223 113.382 206.33 113.456 206.437C113.612 206.675 113.751 206.921 113.833 207.184C113.973 207.611 113.997 208.21 113.595 208.514C113.259 208.768 112.791 208.67 112.463 208.481C111.717 208.062 111.175 207.422 110.568 206.839C109.945 206.24 109.354 205.608 108.739 205C108.444 204.705 108.14 204.417 107.82 204.147C107.459 203.843 107.074 203.572 106.647 203.375C105.851 202.989 105.056 202.538 104.481 201.832C103.989 201.224 103.677 200.461 103.612 199.664C103.571 199.18 103.62 198.679 103.751 198.203C103.866 197.801 104.022 197.3 104.284 196.972C104.58 196.594 104.974 196.348 105.4 196.135C105.851 195.905 106.327 195.724 106.754 195.478C107.935 194.78 109.116 194.164 110.495 194.288C112.053 194.419 113.636 194.501 115.195 194.263C115.761 194.173 116.434 194.033 116.893 194.452C117.517 195.018 116.713 195.814 116.253 196.184C115.81 196.545 115.31 196.775 114.793 196.98C114.293 197.177 113.784 197.35 113.3 197.588L113.276 197.596C113.152 197.661 113.029 197.727 112.906 197.801C113.046 197.916 113.193 198.031 113.341 198.146C113.456 198.236 113.579 198.318 113.702 198.408C114.711 199.123 115.778 199.73 116.803 200.42C117.312 200.764 117.804 201.126 118.271 201.536C118.698 201.905 119.264 202.357 119.477 202.907C119.592 203.202 119.576 203.58 119.346 203.81C119.338 203.818 119.322 203.835 119.313 203.843C119.166 203.982 118.952 204.04 118.755 204.032C118.542 204.023 118.337 203.949 118.14 203.859C118.091 203.835 118.042 203.81 118.001 203.794C118.001 203.794 118.001 203.794 117.993 203.794C117.911 203.752 117.828 203.703 117.746 203.654C117.787 203.695 117.837 203.736 117.878 203.777C118.337 204.22 118.772 204.697 119.092 205.255C119.198 205.444 119.297 205.641 119.338 205.854C119.338 205.862 119.338 205.879 119.346 205.887C119.404 206.338 119.108 206.741 118.69 206.872C118.362 206.97 118.066 206.855 117.787 206.699C117.533 206.552 117.287 206.396 117.041 206.24C117.008 206.215 116.975 206.199 116.934 206.174C116.901 206.149 116.877 206.133 116.844 206.117C116.582 205.936 116.319 205.755 116.057 205.567C116.532 206.059 116.984 206.601 117.361 207.176C117.591 207.529 117.705 207.98 117.385 208.341C117.361 208.374 117.328 208.399 117.303 208.423C117.09 208.563 116.836 208.645 116.59 208.629Z" fill="#AD5C40"/>
<path d="M112.998 205.715L112.383 205.157L111.759 204.615C111.546 204.434 111.341 204.254 111.119 204.081C110.906 203.909 110.701 203.745 110.488 203.572C110.709 203.441 110.914 203.293 111.119 203.129C111.439 202.866 111.743 202.571 112.005 202.242C112.169 202.39 112.342 202.538 112.506 202.686C112.743 202.899 112.99 203.104 113.236 203.31L113.974 203.925L114.721 204.524C114.975 204.721 115.221 204.918 115.475 205.115C115.984 205.501 116.501 205.879 117.034 206.24C116.575 205.789 116.099 205.362 115.615 204.935C115.377 204.721 115.131 204.516 114.885 204.311L114.146 203.695L113.4 203.096C113.145 202.899 112.899 202.702 112.645 202.505C112.465 202.374 112.292 202.234 112.112 202.103L112.268 201.898C112.333 201.807 112.399 201.709 112.456 201.618L112.629 201.331C112.686 201.233 112.735 201.134 112.785 201.036C112.899 200.814 112.998 200.584 113.08 200.346C113.293 200.518 113.515 200.691 113.728 200.863C113.958 201.044 114.187 201.216 114.417 201.389L115.114 201.898L115.82 202.398C116.058 202.563 116.296 202.727 116.534 202.883C117.009 203.203 117.502 203.515 118.002 203.794C117.567 203.408 117.124 203.047 116.665 202.694C116.435 202.513 116.205 202.341 115.976 202.168L115.278 201.66L114.573 201.159C114.335 200.995 114.097 200.83 113.859 200.674C113.621 200.51 113.375 200.354 113.129 200.198C113.17 200.059 113.211 199.911 113.244 199.771C113.178 199.895 113.113 200.026 113.047 200.149C113.022 200.19 113.006 200.223 112.99 200.264C112.867 200.486 112.744 200.707 112.604 200.929C112.547 201.019 112.481 201.11 112.424 201.208L112.243 201.479C112.177 201.569 112.112 201.651 112.054 201.742L111.899 201.947L111.858 201.996C111.841 202.013 111.825 202.037 111.808 202.062C111.554 202.374 111.283 202.677 110.988 202.965C110.799 203.154 110.602 203.326 110.405 203.507C110.373 203.531 110.34 203.564 110.307 203.589C110.209 203.671 110.11 203.753 110.012 203.843C110.135 203.786 110.258 203.728 110.373 203.663C110.578 203.868 110.783 204.065 110.988 204.27C111.185 204.467 111.39 204.648 111.595 204.836L112.21 205.395L112.834 205.936C113.047 206.117 113.252 206.298 113.474 206.47C113.9 206.823 114.335 207.168 114.794 207.488C114.417 207.077 114.023 206.683 113.621 206.298C113.408 206.084 113.203 205.904 112.998 205.715Z" fill="#AD5C40"/>
<path d="M111.964 198.072C111.669 198.253 111.39 198.442 111.103 198.622C110.536 198.992 109.954 199.328 109.339 199.574C109.027 199.698 108.715 199.788 108.387 199.845C108.059 199.903 107.731 199.911 107.395 199.878C107.714 199.969 108.059 200.001 108.395 199.985C108.74 199.969 109.076 199.895 109.404 199.788C109.733 199.689 110.052 199.542 110.356 199.386C110.66 199.23 110.955 199.049 111.25 198.869C111.824 198.499 112.382 198.105 112.965 197.777C113.539 197.448 114.187 197.243 114.819 196.98C114.162 197.128 113.498 197.268 112.874 197.572C112.555 197.719 112.259 197.892 111.964 198.072Z" fill="#AD5C40"/>
<path d="M99.3789 202.661L104.744 202.201L107.443 195.027L104.08 189.945L99.3789 202.661Z" fill="#324554"/>
<path d="M85.2763 180.53L69.7962 153.465L62.372 153.859L60.3047 173.675L75.1285 196.357L99.3781 202.661L104.079 189.945L85.2763 180.53Z" fill="#324554"/>
<path d="M75.3343 203.119C76.0316 202.856 78.0579 212.444 78.2712 213.372C78.468 214.217 78.4024 215.038 77.8692 215.736C77.2785 216.516 76.171 216.77 75.2851 217.066C73.1439 217.78 70.9208 218.166 68.6976 218.469C60.9945 219.536 53.1765 219.865 45.4406 219.036C42.8154 218.757 40.1821 218.404 37.6062 217.796C35.3748 217.271 30.5922 216.351 30.7152 213.166C30.7891 211.27 31.2731 209.423 31.8063 207.617C31.9458 207.149 33.2337 203.644 32.7169 203.365C36.2116 205.245 40.297 205.261 44.0542 205.253C49.3537 205.245 54.645 205.245 59.9444 205.237C62.3235 205.237 64.7189 205.228 67.0815 204.818C69.7149 204.35 72.7748 204.087 75.3343 203.119Z" fill="#324554"/>
<path d="M79.0091 203.572C78.9189 205.305 78.4759 207.012 77.352 208.309C77.2946 208.375 77.2289 208.449 77.1551 208.514C76.7039 208.999 76.1953 209.393 75.6457 209.713C73.4881 211.018 70.7235 211.305 68.3609 211.699C67.0483 211.929 65.7194 212.126 64.3986 212.299C63.5454 212.413 62.6841 212.52 61.8309 212.602C56.1951 213.21 50.4772 213.316 44.8906 212.537C41.6994 212.102 38.5492 211.371 35.4729 210.287C35.2186 210.197 34.9807 210.107 34.751 210C33.463 209.45 32.4376 208.695 31.7977 207.669C31.1989 206.708 30.9364 205.51 31.1086 204.016C32.0274 196.291 32.5689 188.337 34.2096 180.661C35.2924 175.646 36.8347 170.753 39.2711 166.14C40.0177 164.72 40.8626 163.267 41.8061 161.846C42.692 160.508 43.6765 159.187 44.7183 157.923C46.9907 155.222 49.6404 152.817 52.6347 151.142C54.5215 150.083 56.5396 149.311 58.7053 148.942C60.5511 148.622 62.5118 148.597 64.5463 148.934C65.9655 149.164 67.1304 149.812 68.0738 150.707C68.9516 151.528 69.6407 152.562 70.1739 153.662C70.4528 154.228 70.6907 154.811 70.8958 155.394C71.6587 157.414 72.1181 159.49 72.635 161.567C72.9221 162.741 73.2092 163.907 73.4799 165.081C74.4397 169.193 75.2765 173.339 75.9902 177.484C76.466 180.144 76.8762 182.812 77.2453 185.488C77.2946 185.808 77.3356 186.137 77.3848 186.457C77.8606 190.044 78.2298 193.656 78.5825 197.252C78.6974 198.393 78.8122 199.525 78.9271 200.667C79.0255 201.602 79.0665 202.596 79.0091 203.572Z" fill="#273844"/>
<path d="M75.267 130.388C74.9388 131.25 74.1677 131.866 73.2571 132.014C71.6164 132.285 68.6303 132.482 65.9231 131.062C64.4629 130.2 63.9789 129.609 63.6426 132.203C63.4539 133.45 61.846 133.828 61.6573 134.353C61.4686 134.879 61.1733 135.026 61.1323 134.353C61.0913 133.68 61.4276 133.606 60.476 133.196C59.5244 132.785 59.5572 136.315 60.2299 136.898C60.9026 137.481 60.8452 137.194 60.9026 137.481C60.96 137.768 58.0231 136.635 57.7606 132.112C57.4653 128.968 52.7893 123.279 60.7139 124.708C63.1421 125.266 61.0092 121.753 66.5138 122.541C68.3432 122.877 70.2136 118.912 74.0282 120.373C77.8429 121.835 73.6509 123.591 75.226 124.749C76.7928 125.906 77.3015 127.63 75.6854 129.65C75.5213 129.863 75.3736 130.117 75.267 130.388Z" fill="#4E3433"/>
<path d="M68.4103 150.485C64.4644 153.423 58.6973 150.263 58.6562 148.679C60.2231 145.017 60.3954 140.289 60.3954 140.289L69.2142 144.41C69.165 144.673 69.1158 144.944 69.0747 145.206C68.8532 146.438 68.6318 147.694 68.5415 149.04C68.4841 149.672 68.5087 149.877 68.4103 150.485Z" fill="#AD5C40"/>
<path d="M68.5355 149.029C63.8431 147.51 61.1934 142.281 61.1934 142.281L69.0688 145.195C68.8473 146.427 68.634 147.691 68.5355 149.029Z" fill="#302922"/>
<path d="M60.2068 141.005C60.9615 143.509 67.0567 146.834 69.7475 145.832C71.38 145.225 72.8812 143.862 73.9067 140.677C73.9149 140.661 73.9149 140.644 73.9231 140.628C73.9805 140.439 74.0379 140.25 74.0954 140.07C74.1938 139.741 74.2758 139.413 74.3497 139.101C74.3661 139.027 74.3825 138.953 74.3989 138.879C74.4399 138.682 74.4809 138.493 74.5055 138.313C74.5466 138.091 74.5794 137.878 74.5958 137.673C74.9403 134.422 75.3915 130.785 72.5695 128.528C69.7557 126.27 65.1699 125.376 62.2905 128.093C62.2905 128.093 60.1329 130.49 59.8622 135.193C59.5997 139.914 59.6571 139.191 60.2068 141.005Z" fill="#AD5C40"/>
<path d="M66.6712 140.321C66.7205 140.329 66.7697 140.37 66.8025 140.419C67.4752 141.602 69.1733 141.708 69.1979 141.708C69.3046 141.716 69.3948 141.807 69.3866 141.922C69.3784 142.028 69.2882 142.119 69.1733 142.111C69.0913 142.102 67.2373 141.987 66.4579 140.616C66.4005 140.518 66.4333 140.395 66.5318 140.346C66.5728 140.313 66.6302 140.313 66.6712 140.321Z" fill="#302922"/>
<path d="M64.8237 127.704C64.8237 127.704 62.9533 132.687 61.4029 133.598C59.8606 134.517 58.7695 131.956 58.7695 131.956C58.7695 131.956 62.2807 124.371 64.8237 127.704Z" fill="#4E3433"/>
<path d="M71.1414 128.288C71.1414 128.288 67.9995 132.294 64.4063 131.079C60.8214 129.864 63.4629 126.982 63.4629 126.982C63.4629 126.982 70.4277 124.626 71.1414 128.288Z" fill="#4E3433"/>
<path d="M70.1915 127.877C70.1915 127.877 71.66 133.426 75.2941 132.712C78.9201 132.006 74.2277 126.326 71.8322 126.391C69.4204 126.465 70.1915 127.877 70.1915 127.877Z" fill="#4E3433"/>
<path d="M69.5255 139.509C69.4107 139.509 69.2958 139.5 69.1728 139.476C69.0579 139.451 68.9759 139.336 69.0005 139.213C69.0251 139.098 69.1399 139.016 69.263 139.041C69.7306 139.139 70.0915 138.95 70.2802 138.819C69.6896 137.826 69.5501 135.47 69.5419 135.363C69.5337 135.24 69.6239 135.142 69.747 135.133C69.8701 135.125 69.9685 135.215 69.9767 135.339C70.0177 136.069 70.2392 138.105 70.7396 138.721C70.8135 138.803 70.8053 138.934 70.7232 139.008C70.715 139.041 70.2474 139.509 69.5255 139.509Z" fill="#302922"/>
<path d="M73.9141 140.619C73.9715 140.43 74.0289 140.241 74.0863 140.061C74.1848 139.732 74.2668 139.404 74.3407 139.092C74.3571 139.018 74.3735 138.944 74.3899 138.87C74.3325 138.862 74.2832 138.854 74.2258 138.846C73.0035 138.706 71.9698 138.994 71.9206 139.486C71.8632 139.97 72.7492 140.471 73.9141 140.619Z" fill="#964E3B"/>
<path d="M62.438 138.216C62.3806 138.708 63.324 139.217 64.5464 139.357C65.7687 139.496 66.8023 139.209 66.8515 138.716C66.909 138.224 65.9656 137.715 64.7432 137.575C63.5291 137.444 62.4955 137.723 62.438 138.216Z" fill="#964E3B"/>
<path d="M68.2137 132.53C68.2137 132.53 67.0078 131.931 65.8757 132.678C65.244 133.097 65.5804 133.753 66.3925 133.466C66.9586 133.269 67.2703 133.195 67.9102 133.277C68.5418 133.359 68.5172 132.637 68.2137 132.53Z" fill="#302922"/>
<path d="M72.7492 132.884C72.7492 132.884 74.0946 132.802 74.8493 133.927C75.2759 134.559 74.7017 135.035 74.07 134.452C73.627 134.05 73.3645 133.861 72.7492 133.689C72.1258 133.516 72.4293 132.868 72.7492 132.884Z" fill="#302922"/>
<path d="M61.0935 134.713C61.0935 134.713 60.1829 132.726 58.1894 133.383C56.196 134.04 56.4257 140.771 60.2649 140.377L61.0935 134.713Z" fill="#AD5C40"/>
<path d="M60.0072 137.746C60.0236 137.845 59.9579 137.935 59.8595 137.951C59.8431 137.951 59.8349 137.951 59.8185 137.951C59.7364 137.943 59.6626 137.886 59.6544 137.795C59.6544 137.787 59.5478 137.139 59.1458 136.523C58.7438 136.818 58.4239 137.097 58.4157 137.097C58.3747 137.13 58.3336 137.147 58.2844 137.139C58.2352 137.139 58.1942 137.114 58.1614 137.073C58.0957 136.999 58.1039 136.884 58.1778 136.818C58.1942 136.802 58.5141 136.531 58.9243 136.227C58.6618 135.924 58.3172 135.653 57.8578 135.513C57.7594 135.489 57.7102 135.382 57.7348 135.292C57.7594 135.193 57.866 135.144 57.9563 135.168C59.6626 135.686 59.9908 137.664 60.0072 137.746Z" fill="#302922"/>
<path d="M66.992 136.293C66.9345 136.728 67.0986 137.114 67.3447 137.147C67.599 137.179 67.8451 136.851 67.8944 136.408C67.9518 135.973 67.7877 135.587 67.5416 135.554C67.2955 135.529 67.0412 135.858 66.992 136.293Z" fill="#302922"/>
<path d="M71.8865 137.011C71.8291 137.446 71.9931 137.831 72.2392 137.864C72.4935 137.897 72.7397 137.569 72.7889 137.126C72.8463 136.69 72.6822 136.305 72.4361 136.272C72.19 136.239 71.9357 136.567 71.8865 137.011Z" fill="#302922"/>
<path d="M129.403 241.653L118.968 244.239C117.016 244.723 113.513 242.77 113.513 242.77L92.1836 192.621L117.688 188.738C117.688 188.738 125.67 214.982 132.931 232.902C134.424 236.572 133.259 240.693 129.403 241.653Z" fill="#F3DF97"/>
<path d="M186.755 147.676L184.975 142.357L183.646 138.376C183.039 136.561 181.078 135.585 179.273 136.192L176.656 137.07L179.158 144.549L181.964 152.93L184.581 152.052C186.394 151.444 187.362 149.482 186.755 147.676Z" fill="#339F5E"/>
<path d="M168.689 148.49L154.719 106.764C132.118 131.317 100.378 157.446 72.8227 167.411C70.0089 168.429 68.9916 171.976 69.9842 174.808L73.3559 184.404L76.7275 194C77.7448 196.881 80.8375 198.958 83.7252 197.957C118.475 185.906 147.36 186.743 183.283 192.096L168.689 148.49Z" fill="#E8BF2D"/>
<path d="M70.8133 176.393L68.1964 177.271C66.3834 177.878 65.4071 179.84 66.0142 181.646L67.6549 186.539L69.1316 190.947C69.7386 192.761 71.6993 193.738 73.504 193.131L76.121 192.252L73.4712 184.347L70.8133 176.393Z" fill="#F3DF97"/>
<path d="M194.424 188.854L179.871 145.387L179.543 144.402L165.318 101.921C164.974 100.887 164.35 100.033 163.579 99.3761C163.587 99.3761 163.595 99.3761 163.604 99.3761C163.563 99.3433 163.522 99.3187 163.481 99.2858C163.382 99.2038 163.284 99.1299 163.185 99.056C162.988 98.9164 162.791 98.7933 162.586 98.6784C162.496 98.6291 162.406 98.5799 162.307 98.5306C162.053 98.4075 161.791 98.309 161.52 98.2269C161.421 98.194 161.315 98.1694 161.216 98.1448C160.937 98.0709 160.65 98.0217 160.355 97.997C160.322 97.997 160.289 97.9888 160.257 97.9806C159.928 97.956 159.6 97.9724 159.264 98.0052C159.174 98.0134 159.092 98.0217 159.001 98.0381C158.665 98.0873 158.321 98.153 157.984 98.2679C154.949 99.2858 153.316 102.569 154.334 105.607L168.698 148.49L183.448 192.539C184.465 195.577 187.747 197.21 190.782 196.192C193.809 195.175 195.442 191.891 194.424 188.854Z" fill="#F3DF97"/>
<path d="M88.22 204.147C88.6384 203.088 89.1552 202.029 89.992 201.233C91.1815 200.092 92.896 200.083 94.4465 199.936C96.3415 199.755 98.2611 199.689 100.156 199.928C101.198 200.059 102.232 200.239 103.274 200.33C104.004 200.395 105.267 200.166 105.776 200.872C106.481 201.84 105.013 202.727 104.283 202.94C103.249 203.244 102.1 203.293 101.026 203.507C101.518 204.057 102.1 204.525 102.716 204.919C104.069 205.781 105.612 206.495 107.17 206.848C107.884 207.004 108.614 207.086 109.336 207.225C109.902 207.332 110.558 207.521 110.714 208.186C110.862 208.842 110.23 209.319 109.697 209.45C109.311 209.548 108.918 209.589 108.516 209.589C108.868 209.745 109.196 209.959 109.311 210.336C109.525 211.051 108.483 211.354 107.982 211.338C107.572 211.322 107.17 211.297 106.76 211.256C106.908 211.371 107.031 211.519 107.08 211.716C107.269 212.364 106.333 212.627 105.874 212.61C104.939 212.578 104.02 212.446 103.109 212.249C103.118 212.29 103.126 212.323 103.134 212.364C103.224 213.029 102.256 213.144 101.805 213.062C97.6459 212.249 93.9625 209.721 90.9846 206.733C90.7631 206.667 90.5498 206.593 90.3365 206.519C89.7295 206.298 88.4989 205.986 88.138 205.296C88.0724 205.173 88.0395 205.042 88.0395 204.902C88.0313 204.631 88.1298 204.385 88.22 204.147Z" fill="#AD5C40"/>
<path d="M96.5077 198.013L94.4486 201.371L93.4888 202.93L91.0605 206.871L89.748 209.013C89.1573 208.759 88.5831 208.48 88.0334 208.192C85.0227 206.674 82.0449 205.065 79.0178 203.571L78.5994 203.366C74.6371 201.42 70.7978 199.236 67.098 196.839C65.3096 195.69 63.7428 194.483 62.2825 192.932C60.8879 191.454 59.641 189.845 58.4679 188.204C56.2529 185.125 54.3415 181.858 52.5449 178.55C49.0092 172.048 45.8344 165.235 44.7188 157.929C46.9911 155.228 49.6409 152.823 52.6352 151.148C53.2422 151.469 53.8247 151.813 54.3415 152.166C57.1553 154.038 59.6164 156.222 61.8806 158.635C67.2293 164.34 71.3556 171.219 75.9988 177.491C76.4336 178.082 76.8848 178.681 77.336 179.256C77.4263 179.379 77.5329 179.51 77.6396 179.625C80.7159 183.566 84.1532 187.26 87.8366 190.683C87.8366 190.683 87.8366 190.691 87.8448 190.683C89.9531 192.653 92.168 194.533 94.4404 196.322C94.5799 196.429 94.7193 196.528 94.8588 196.642C95.4002 197.078 95.9663 197.529 96.5077 198.013Z" fill="#324554"/>
<path d="M61.0934 220.16L57.812 265.728L39.2556 302.373L6.03125 301.585" stroke="#273844" stroke-miterlimit="10"/>
<path d="M67.3594 302.374L105.293 301.027" stroke="#273844" stroke-miterlimit="10"/>
<path d="M96.5062 198.014L89.7383 209.014" stroke="#273844" stroke-miterlimit="10"/>
<path d="M309.472 280.014L303.869 282.781C303.278 283.076 302.917 283.749 303.097 284.381C303.245 284.882 303.721 285.35 304.968 285.366C307.741 285.416 320.005 283.503 320.005 283.503V284.792L325.698 284.151C325.698 284.151 326.092 277.642 324.361 276.689L309.472 280.014Z" fill="#324554"/>
<path d="M318.503 274.285L309.471 280.014C309.471 280.014 310.439 282.502 314.713 280.844C318.987 279.185 324.352 276.69 324.352 276.69L323.573 272.799L318.503 274.285Z" fill="#E79B89"/>
<path d="M324.354 276.689L325.715 252.547L316.691 254.197L317.512 276.616L324.354 276.689Z" fill="#E79B89"/>
<path d="M365.502 283.701L359.833 286.328C359.234 286.607 358.857 287.272 359.021 287.912C359.152 288.421 359.62 288.897 360.867 288.946C363.631 289.07 375.945 287.461 375.945 287.461L375.912 288.749L381.613 288.249C381.613 288.249 382.171 281.747 380.465 280.754L365.502 283.701Z" fill="#324554"/>
<path d="M374.674 278.199L365.502 283.699C365.502 283.699 366.404 286.211 370.728 284.659C375.043 283.108 380.465 280.752 380.465 280.752L379.784 276.836L374.674 278.199Z" fill="#E79B89"/>
<path d="M380.465 280.752L382.434 256.65L373.369 258.062L373.623 280.506L380.465 280.752Z" fill="#E79B89"/>
<path d="M402.385 134.855C402.385 134.855 405.116 134.995 409.522 136.111C413.935 137.22 414.501 139.617 412.795 140.323C412.795 140.323 415.65 140.79 419.489 142.752C423.328 144.706 422.459 148.031 419.169 148.326C419.169 148.326 420.974 149.073 422.869 150.978C424.764 152.882 425.026 155.879 420.67 156.149C420.67 156.149 422.016 158.579 421.048 161.231C420.08 163.882 414.214 162.938 411.663 159.942C411.663 159.942 402.598 164.293 398.832 152.209C398.832 152.209 393 152.882 393.476 144.23C393.476 144.23 390.867 144.665 390.801 141.02C390.736 137.376 397.741 132.754 397.741 132.754L402.385 134.855Z" fill="#324554"/>
<path d="M373.805 213.865H329.292L330.966 264.456H308.841L306.38 215.047C305.83 204.038 314.6 194.812 325.617 194.812H370.343C371.311 192.981 372.271 191.142 373.239 189.312C384.305 188.236 395.364 187.169 406.43 186.094L393.37 213.93L373.805 213.865Z" fill="#324554"/>
<path d="M406.683 189.313C407.643 191.045 408.857 193.729 409.39 197.202C409.735 199.451 409.694 201.429 409.538 202.972C409.538 203.925 409.439 208.472 405.822 212.273C403.516 214.703 400.317 216.271 396.724 216.452L389.177 216.837L387.118 266.14H364.41V209.556C364.41 204.015 368.389 199.27 373.844 198.302L383.008 195.593V188.984C390.899 189.083 398.791 189.198 406.683 189.313Z" fill="#324554"/>
<path d="M364.411 213.998C364.337 213.998 364.279 213.941 364.279 213.867V210.575C364.279 204.96 368.291 200.174 373.82 199.198L382.983 197.515C383.049 197.506 383.123 197.548 383.131 197.621C383.147 197.687 383.098 197.761 383.024 197.769L373.861 199.452C368.455 200.404 364.534 205.083 364.534 210.575V213.867C364.542 213.941 364.484 213.998 364.411 213.998Z" fill="black"/>
<path d="M381.655 262.274C381.581 262.274 381.523 262.208 381.523 262.134L384.042 212.635C384.239 208.702 387.479 205.624 391.409 205.624H395.994C398.16 205.624 399.916 203.859 399.916 201.7V197.645C399.916 197.571 399.973 197.514 400.047 197.514C400.121 197.514 400.178 197.571 400.178 197.645V201.7C400.178 204.007 398.3 205.887 395.994 205.887H391.409C387.61 205.887 384.485 208.858 384.296 212.651L381.778 262.151C381.778 262.217 381.72 262.274 381.655 262.274Z" fill="black"/>
<path d="M365.748 166.459L363.254 177.837L348.291 178.132L349.981 185.594L373.853 184.839L374.19 169.11L365.748 166.459Z" fill="#E79B89"/>
<path d="M386.323 135.273C386.323 135.273 378.03 136.792 372.747 140.544C367.455 144.295 364.379 166.032 364.379 166.032L374.19 169.111L373.231 189.313H406.685L407.546 138.902C407.546 138.902 401.205 135.487 397.718 135.487C392.525 135.487 386.323 135.273 386.323 135.273Z" fill="#E8BF2D"/>
<path d="M393.828 166.633L389.652 177.493L358.479 176.672L357.938 183.305L388.98 187.713C393.483 188.354 397.881 185.94 399.759 181.795L404.73 170.86L393.828 166.633Z" fill="#E79B89"/>
<path d="M407.546 138.902C407.546 138.902 418.793 147.949 407.259 171.993L393.461 166.657C393.461 166.657 395.93 155.903 399.441 149.558C402.961 143.212 407.546 138.902 407.546 138.902Z" fill="#E8BF2D"/>
<path d="M374.189 169.111L374.764 156.699" stroke="#191641" stroke-width="0.358" stroke-miterlimit="10" stroke-linecap="round" stroke-linejoin="round"/>
<path d="M393.773 166.78L393.461 166.657L397.03 154.91" stroke="#191641" stroke-width="0.358" stroke-miterlimit="10" stroke-linecap="round" stroke-linejoin="round"/>
<path d="M404.664 170.992L406.977 171.887" stroke="#191641" stroke-width="0.358" stroke-miterlimit="10" stroke-linecap="round" stroke-linejoin="round"/>
<path d="M403.723 132.328C404.502 133.33 408.415 134.364 402.73 136.81C399.375 138.255 396.61 136.433 397.308 134.454C398.005 132.476 403.723 132.328 403.723 132.328Z" fill="#E8BF2D"/>
<path d="M399.143 113.972C399.143 113.972 404.541 115.326 403.13 120.588C403.13 120.588 405.829 121.557 406.518 123.65C407.207 125.743 406.329 127.016 403.975 127.483C403.975 127.483 409.365 128.017 408.479 131.875C407.593 135.733 401.85 133.722 401.85 133.722C401.85 133.722 402.827 135.11 401.366 135.709C399.906 136.3 398.159 134.683 398.159 134.683C398.159 134.683 398.151 135.684 396.994 136.119C395.829 136.554 392.613 132.466 392.498 130.915C392.498 130.915 389.447 133.747 387.584 131.58C387.584 131.58 384.098 133.024 383.278 129.856C383.278 129.856 379.742 129.38 380.267 125.366C380.267 125.366 376.493 124.348 376.305 120.416C376.116 116.483 379.471 116.483 379.471 116.483C379.471 116.483 377.551 114.825 379.151 112.075C380.751 109.325 385.698 109.21 388.109 109.859C388.109 109.859 388.758 108.447 390.612 108.455C392.466 108.463 394.516 109.596 394.229 111.41C394.229 111.41 396.575 110.179 398.421 111.098C400.267 112.042 399.143 113.972 399.143 113.972Z" fill="#324554"/>
<path d="M387.349 137.003C391.114 139.803 396.627 136.798 396.668 135.28C395.167 131.782 395.003 127.268 395.003 127.268L386.586 131.2C386.627 131.454 386.676 131.709 386.725 131.963C386.939 133.137 387.144 134.335 387.234 135.624C387.275 136.232 387.25 136.421 387.349 137.003Z" fill="#E79B89"/>
<path d="M387.224 135.63C391.703 134.185 394.23 129.186 394.23 129.186L386.707 131.968C386.929 133.142 387.134 134.341 387.224 135.63Z" fill="#302922"/>
<path d="M384.066 124.917C384.066 124.917 383.197 122.831 381.499 123.472C379.801 124.112 380.244 129.924 383.542 129.456L384.066 124.917Z" fill="#D17363"/>
<path d="M395.183 127.958C394.461 130.355 388.645 133.524 386.077 132.564C384.519 131.981 383.083 130.684 382.107 127.638C382.099 127.622 382.099 127.605 382.091 127.589C382.033 127.408 381.976 127.236 381.926 127.055C381.836 126.735 381.754 126.431 381.68 126.128C381.664 126.054 381.648 125.988 381.631 125.922C381.59 125.734 381.557 125.561 381.524 125.381C381.483 125.167 381.459 124.962 381.434 124.773C381.106 121.67 380.68 118.198 383.37 116.039C386.061 113.888 390.442 113.034 393.19 115.628C393.19 115.628 395.257 117.919 395.503 122.409C395.758 126.916 395.7 126.226 395.183 127.958Z" fill="#E79B89"/>
<path d="M389.007 127.304C388.957 127.312 388.908 127.345 388.884 127.394C388.244 128.527 386.619 128.626 386.603 128.626C386.496 128.634 386.414 128.724 386.422 128.823C386.431 128.93 386.521 129.012 386.619 129.003C386.693 129.003 388.465 128.889 389.212 127.575C389.261 127.485 389.228 127.37 389.138 127.312C389.097 127.304 389.048 127.296 389.007 127.304Z" fill="#302922"/>
<path d="M386.272 126.53C386.378 126.53 386.493 126.522 386.608 126.498C386.723 126.473 386.797 126.366 386.772 126.251C386.748 126.136 386.641 126.063 386.526 126.087C386.083 126.177 385.73 125.997 385.55 125.874C386.116 124.921 386.247 122.672 386.255 122.574C386.264 122.459 386.173 122.36 386.058 122.352C385.944 122.344 385.845 122.434 385.837 122.549C385.796 123.247 385.583 125.192 385.107 125.783C385.041 125.866 385.041 125.989 385.115 126.063C385.148 126.079 385.591 126.53 386.272 126.53Z" fill="#302922"/>
<path d="M382.088 127.591C382.031 127.41 381.973 127.238 381.924 127.057C381.834 126.737 381.752 126.433 381.678 126.13C381.662 126.056 381.645 125.99 381.629 125.925C381.678 125.916 381.736 125.908 381.785 125.908C382.95 125.777 383.934 126.048 383.992 126.516C384.041 126.967 383.196 127.443 382.088 127.591Z" fill="#D17363"/>
<path d="M393.039 125.297C393.097 125.765 392.195 126.257 391.03 126.389C389.865 126.52 388.88 126.249 388.823 125.781C388.765 125.313 389.668 124.821 390.833 124.689C392.006 124.558 392.99 124.829 393.039 125.297Z" fill="#D17363"/>
<path d="M387.536 119.867C387.536 119.867 388.684 119.292 389.767 120.007C390.374 120.401 390.054 121.033 389.275 120.762C388.733 120.573 388.438 120.499 387.823 120.581C387.224 120.655 387.24 119.974 387.536 119.867Z" fill="#302922"/>
<path d="M383.197 120.212C383.197 120.212 381.917 120.13 381.195 121.206C380.793 121.805 381.335 122.265 381.942 121.706C382.368 121.321 382.614 121.14 383.205 120.976C383.796 120.812 383.509 120.188 383.197 120.212Z" fill="#302922"/>
<path d="M394.328 121.961C394.328 121.961 395.198 120.065 397.101 120.688C399.004 121.321 398.783 127.74 395.124 127.371L394.328 121.961Z" fill="#E79B89"/>
<path d="M395.37 124.847C395.353 124.937 395.419 125.027 395.509 125.044C395.526 125.044 395.534 125.044 395.55 125.044C395.632 125.035 395.698 124.978 395.706 124.896C395.706 124.888 395.813 124.272 396.19 123.681C396.576 123.96 396.879 124.231 396.887 124.231C396.92 124.264 396.969 124.272 397.01 124.272C397.051 124.272 397.101 124.247 397.133 124.215C397.199 124.141 397.183 124.034 397.117 123.968C397.101 123.96 396.797 123.689 396.403 123.402C396.649 123.106 396.986 122.852 397.421 122.72C397.511 122.696 397.56 122.597 397.535 122.507C397.511 122.417 397.412 122.359 397.322 122.392C395.698 122.876 395.378 124.765 395.37 124.847Z" fill="#302922"/>
<path d="M388.703 123.462C388.752 123.881 388.604 124.242 388.366 124.275C388.129 124.308 387.891 123.988 387.841 123.569C387.792 123.15 387.94 122.789 388.178 122.756C388.416 122.723 388.654 123.044 388.703 123.462Z" fill="#302922"/>
<path d="M384.025 124.141C384.074 124.56 383.927 124.921 383.689 124.954C383.451 124.986 383.213 124.666 383.164 124.248C383.115 123.829 383.262 123.468 383.5 123.435C383.738 123.41 383.968 123.722 384.025 124.141Z" fill="#302922"/>
<path d="M381.449 114.071C381.449 114.071 384.575 119.497 391.966 117.822C391.966 117.822 392.048 121.689 395.182 123.79C395.182 123.79 397.077 121.171 395.732 117.666C394.378 114.153 390.457 109.129 381.449 114.071Z" fill="#324554"/>
<path d="M412.862 237.728L336.151 265.203C335.462 263.266 336.052 261.288 337.48 260.779L409.023 235.158C410.459 234.641 412.173 235.799 412.862 237.728Z" fill="#339F5E"/>
<path d="M304.205 138.771L314.353 167.141C319.152 180.554 332.688 188.32 346.256 186.317C346.412 186.292 346.56 186.292 346.708 186.317C347.421 186.251 348.086 186.686 348.332 187.368C348.578 188.049 348.332 188.804 347.741 189.206C347.643 189.313 347.528 189.412 347.389 189.494C335.633 196.562 330.095 211.157 334.895 224.571L345.042 252.941L400.334 233.141L390.186 204.771C385.387 191.357 371.851 183.592 358.283 185.595C358.127 185.619 357.979 185.619 357.832 185.595C357.118 185.66 356.453 185.225 356.207 184.544C355.961 183.862 356.207 183.107 356.798 182.705C356.896 182.598 357.011 182.5 357.151 182.418C368.906 175.35 374.444 160.754 369.645 147.341L359.497 118.971L304.205 138.771Z" fill="white"/>
<path d="M346.79 252.308L336.643 223.938C332.237 211.625 337.159 197.809 348.349 191.086C348.571 190.955 348.776 190.79 348.964 190.61C350.129 189.707 350.589 188.139 350.08 186.735C349.58 185.331 348.234 184.412 346.758 184.445C346.495 184.42 346.232 184.428 345.978 184.469C333.074 186.374 320.506 178.822 316.101 166.508L305.953 138.138L357.75 119.586L367.898 147.956C372.303 160.269 367.381 174.085 356.192 180.808C355.97 180.94 355.765 181.104 355.576 181.284C354.411 182.187 353.952 183.755 354.461 185.159C354.961 186.563 356.306 187.482 357.783 187.449C358.046 187.474 358.308 187.466 358.562 187.425C371.467 185.52 384.034 193.072 388.44 205.386L398.588 233.756L346.79 252.308Z" fill="#E2E9F7"/>
<path d="M366.274 107.453L289.562 134.928C290.252 136.866 291.974 138.015 293.402 137.506L364.945 111.886C366.364 111.377 366.963 109.39 366.274 107.453Z" fill="#339F5E"/>
<path d="M345.708 182.631C346.069 182.573 346.446 182.565 346.816 182.582C349.063 182.565 351.073 183.969 351.836 186.103C352.599 188.229 358.095 203.613 358.095 203.613L358.973 203.301C358.973 203.301 353.469 187.917 352.714 185.791C351.951 183.665 352.615 181.301 354.363 179.881C354.634 179.626 354.929 179.405 355.249 179.216C365.675 172.944 370.269 160.064 366.16 148.58C353.157 160.795 335.659 167.058 317.865 165.876C321.959 177.369 333.673 184.412 345.708 182.631Z" fill="#E8BF2D"/>
<path d="M384.068 215.301C383.953 215.284 383.839 215.276 383.724 215.26L367.472 213.684C364.002 213.347 360.565 214.578 358.096 217.041L346.537 228.575C346.455 228.657 346.373 228.739 346.291 228.821C343.625 231.653 342.845 235.774 344.15 239.435L348.53 251.675L355.356 249.228L389.999 236.816L396.825 234.37L392.444 222.131C391.148 218.486 387.924 215.785 384.068 215.301Z" fill="#E8BF2D"/>
<path d="M365.068 111.836L293.525 137.456L294.165 139.246C295.059 141.741 297.799 143.038 300.285 142.143L362.813 119.749C365.306 118.855 366.603 116.113 365.708 113.625L365.068 111.836Z" fill="#339F5E"/>
<path d="M409.03 235.152L337.487 260.772L336.847 258.983C335.953 256.487 337.249 253.745 339.743 252.859L402.271 230.465C404.764 229.57 407.504 230.867 408.39 233.362L409.03 235.152Z" fill="#339F5E"/>
<path d="M369.235 180.997C369.038 180.028 368.751 179.043 368.16 178.239C367.315 177.09 365.847 176.819 364.55 176.457C362.959 176.014 361.326 175.669 359.669 175.587C358.759 175.546 357.848 175.538 356.946 175.464C356.314 175.407 355.272 175.029 354.731 175.546C353.984 176.269 355.108 177.245 355.699 177.541C356.536 177.951 357.512 178.173 358.398 178.518C357.897 178.912 357.331 179.224 356.741 179.47C355.453 180.004 354.033 180.381 352.647 180.447C352.015 180.48 351.376 180.439 350.744 180.439C350.243 180.447 349.653 180.513 349.423 181.054C349.193 181.588 349.669 182.089 350.104 182.294C350.424 182.442 350.752 182.532 351.088 182.59C350.76 182.672 350.449 182.803 350.293 183.107C349.997 183.69 350.842 184.1 351.277 184.166C351.63 184.215 351.983 184.256 352.335 184.281C352.188 184.354 352.065 184.469 351.991 184.625C351.736 185.151 352.491 185.52 352.885 185.569C353.689 185.676 354.501 185.709 355.305 185.684C355.289 185.717 355.28 185.75 355.264 185.783C355.092 186.341 355.896 186.587 356.289 186.579C359.965 186.513 363.5 184.904 366.486 182.795C366.683 182.77 366.88 182.745 367.077 182.704C367.627 182.606 368.726 182.524 369.136 181.99C369.21 181.9 369.259 181.793 369.284 181.67C369.325 181.432 369.284 181.21 369.235 180.997Z" fill="#E79B89"/>
</svg>