<svg width="483" height="342" viewBox="0 0 483 342" fill="none" xmlns="http://www.w3.org/2000/svg">
<path d="M453.68 214.617C465.23 190.371 468.262 161.038 458.235 135.944C448.207 110.851 423.98 91.3453 397.754 91.1478C379.871 91.02 363.116 99.2335 345.768 103.59C328.419 107.946 307.539 107.354 295.733 93.4016C286.461 82.4348 285.589 66.6004 279.942 53.2637C270.972 32.0621 250.37 18.4467 229.35 10.4888C189.703 -4.52077 144.642 -3.37067 105.96 13.6138C67.2666 30.61 35.3472 63.2662 18.5452 103.067C4.50856 136.293 1.18533 175.513 15.0825 208.982C28.9797 242.452 61.9215 268.3 97.0827 267.522C116.778 267.08 135.358 258.867 153.996 252.396C172.634 245.925 193.085 241.104 211.85 247.447C226.363 252.35 238.076 263.34 250.893 271.948C301.357 305.859 373.562 299.562 418.774 259.61C432.997 247.052 445.383 232.043 453.68 214.617Z" fill="#339F5E" fill-opacity="0.33"/>
<path d="M470.853 116.659H198.406V321.763H470.853V116.659Z" fill="#339F5E"/>
<path d="M466.648 122.131H202.625V316.291H466.648V122.131Z" fill="white"/>
<path d="M288.727 191.429H380.545" stroke="#383138" stroke-miterlimit="10"/>
<path d="M229.047 220.229H440.223" stroke="#383138" stroke-miterlimit="10"/>
<path d="M229.047 249.015H440.223" stroke="#383138" stroke-miterlimit="10"/>
<path d="M365.113 300.806H438.527" stroke="#383138" stroke-miterlimit="10"/>
<path d="M374.176 287.701C382.53 287.782 390.711 282.682 394.313 275.154C395.37 272.958 396.056 270.484 395.614 268.079C395.173 265.686 393.372 263.432 390.966 263.026C388.282 262.584 385.633 264.571 384.564 267.08C383.483 269.578 383.657 272.436 384.145 275.119C384.471 276.908 384.924 278.686 385.761 280.301C388.294 285.18 393.987 287.759 399.472 288.038C401.947 288.165 404.468 287.887 406.757 286.934C409.906 285.621 412.486 283.007 413.764 279.847C415.042 276.688 414.996 273.016 413.636 269.88C413.357 269.241 412.997 268.59 412.393 268.265C411.545 267.8 410.418 268.114 409.732 268.811C409.047 269.496 408.721 270.472 408.558 271.425C407.617 276.873 411.231 282.38 416.123 284.971C421.003 287.561 426.848 287.689 432.309 286.829" stroke="#383138" stroke-miterlimit="10"/>
<path d="M219.718 156.053C219.532 146.317 227.283 138.278 237.008 138.104C246.746 137.918 254.786 145.667 254.961 155.39C255.147 165.126 247.396 173.165 237.671 173.339C227.945 173.525 219.904 165.788 219.718 156.053Z" fill="#339F5E"/>
<path d="M219.718 156.053C219.532 146.318 227.283 138.279 237.008 138.104" stroke="#383138" stroke-width="0.75" stroke-miterlimit="10"/>
<path d="M224.272 155.972C224.133 148.758 229.884 142.787 237.1 142.659C244.316 142.519 250.289 148.27 250.416 155.484C250.556 162.699 244.804 168.67 237.588 168.798C230.372 168.925 224.411 163.187 224.272 155.972Z" fill="#7A9197"/>
<path d="M224.272 155.971C224.133 148.756 229.884 142.785 237.1 142.657" stroke="#383138" stroke-width="0.75" stroke-miterlimit="10"/>
<path d="M228.141 170.748C228.141 170.748 222.796 189.452 210.34 194.041L225.794 191.043L226.015 202.545C226.015 202.545 242.515 191.926 241.678 172.793L228.141 170.748Z" fill="#339F5E"/>
<path d="M228.141 170.748C228.141 170.748 222.796 189.452 210.34 194.041" stroke="#383138" stroke-width="0.75" stroke-miterlimit="10"/>
<path d="M241.678 172.804C241.678 172.804 253.239 190.939 250.16 202.103L257.271 189.277L265.847 191.891C265.847 191.891 263.732 174.163 251.961 165.578L241.678 172.804Z" fill="#339F5E"/>
<path d="M241.678 172.805C241.678 172.805 253.239 190.939 250.16 202.104" stroke="#383138" stroke-width="0.75" stroke-miterlimit="10"/>
<path d="M254.378 283.066L242.12 281.579V252.768L254.378 251.281C259.282 250.689 258.84 243.451 253.902 243.451H23.7274C10.6204 243.451 0 254.069 0 267.174C0 280.278 10.6204 290.896 23.7274 290.896H253.902C258.84 290.896 259.27 283.659 254.378 283.066Z" fill="#726D72"/>
<path d="M44.7821 243.451H58.6096C45.5025 243.451 34.8821 254.069 34.8821 267.174C34.8821 280.278 45.5025 290.896 58.6096 290.896H44.7821C31.6751 290.896 21.0547 280.278 21.0547 267.174C21.0547 254.069 31.6751 243.451 44.7821 243.451Z" fill="#9F9C9F"/>
<path d="M72.3915 243.451H86.2189C73.1119 243.451 62.4915 254.069 62.4915 267.174C62.4915 280.278 73.1119 290.896 86.2189 290.896H72.3915C59.2845 290.896 48.6641 280.278 48.6641 267.174C48.6641 254.069 59.2845 243.451 72.3915 243.451Z" fill="#9F9C9F"/>
<path d="M250.335 282.787H124.888C116.267 282.787 109.271 275.793 109.271 267.173C109.271 258.553 116.267 251.56 124.888 251.56H250.335V282.787Z" fill="white"/>
<path d="M110.328 246.263C105.424 249.353 101.729 254.302 100.149 259.878C98.5685 265.454 99.1263 271.612 101.683 276.805" stroke="white" stroke-width="0.75" stroke-miterlimit="10" stroke-linecap="round" stroke-linejoin="round"/>
<path d="M223.899 258.729H171.285" stroke="#270504" stroke-width="0.75" stroke-miterlimit="10" stroke-linecap="round" stroke-linejoin="round"/>
<path d="M188.077 267.174H135.672" stroke="#270504" stroke-width="0.75" stroke-miterlimit="10" stroke-linecap="round" stroke-linejoin="round"/>
<path d="M211.27 274.899H192.957" stroke="#270504" stroke-width="0.75" stroke-miterlimit="10" stroke-linecap="round" stroke-linejoin="round"/>
<path d="M229.965 295.741L222.179 296.682V314.979L229.965 315.92C233.079 316.292 232.8 320.892 229.662 320.892H24.8071C16.4874 320.892 9.73633 314.142 9.73633 305.824C9.73633 297.506 16.4874 290.757 24.8071 290.757H229.662C232.8 290.768 233.067 295.369 229.965 295.741Z" fill="#339F5E"/>
<path d="M227.395 295.915H104.517C99.0442 295.915 94.6055 300.353 94.6055 305.825C94.6055 311.296 99.0442 315.734 104.517 315.734H227.384V295.915H227.395Z" fill="white"/>
<path d="M93.0724 292.406C90.0164 294.706 87.8203 298.11 86.972 301.84C86.1238 305.569 86.6467 309.588 88.4012 312.981" stroke="white" stroke-width="0.75" stroke-miterlimit="10" stroke-linecap="round" stroke-linejoin="round"/>
<path d="M123.203 301.434H196.361" stroke="#270504" stroke-width="0.75" stroke-miterlimit="10" stroke-linecap="round" stroke-linejoin="round"/>
<path d="M209.584 307.788H171.285" stroke="#270504" stroke-width="0.75" stroke-miterlimit="10" stroke-linecap="round" stroke-linejoin="round"/>
<path d="M48.8486 294.08C39.4134 294.278 29.9782 294.475 20.543 294.673" stroke="white" stroke-width="0.75" stroke-miterlimit="10" stroke-linecap="round" stroke-linejoin="round"/>
<path d="M297.875 317.709V289.815H160.658V317.709H297.875Z" fill="#F8CF59"/>
<path d="M314.047 317.72H144.504V333.786H314.047V317.72Z" fill="#F5B500"/>
<path d="M306.308 298.283H152.23V308.053H306.308V298.283Z" fill="#F5B500"/>
<path d="M149.211 333.786H275.424" stroke="#383138" stroke-width="0.75" stroke-miterlimit="10"/>
<path d="M179.121 317.719H305.334" stroke="#383138" stroke-width="0.75" stroke-miterlimit="10"/>
<path d="M238.043 308.055H289.03" stroke="#383138" stroke-width="0.75" stroke-miterlimit="10"/>
<path d="M169.719 298.284H220.694" stroke="#383138" stroke-width="0.75" stroke-miterlimit="10"/>
<path d="M220.893 289.432H271.88" stroke="#383138" stroke-width="0.75" stroke-miterlimit="10"/>
<path d="M5.56641 320.868H482.16" stroke="#383138" stroke-miterlimit="10"/>
<path d="M243.095 224.55L230.895 242.499L278.803 275.039L290.992 257.09L318.693 216.337L270.785 183.797L243.095 224.55Z" fill="#339F5E"/>
<path d="M281.941 171.772C282.964 170.262 285.02 169.867 286.531 170.901L324.899 196.959C326.41 197.981 326.805 200.037 325.771 201.548L320.251 209.657L276.422 179.881L281.941 171.772Z" fill="#339F5E"/>
<path d="M271.065 173.433L267.59 178.533C266.405 180.276 266.858 182.657 268.601 183.842L319.402 218.357C321.145 219.542 323.527 219.089 324.713 217.347L328.187 212.247C329.372 210.504 328.919 208.122 327.176 206.937L276.375 172.422C274.632 171.226 272.25 171.69 271.065 173.433Z" fill="#F5B500"/>
<path d="M267.614 287.04C266.591 288.551 264.534 288.946 263.024 287.912L224.656 261.854C223.145 260.832 222.75 258.775 223.784 257.265L229.303 249.156L273.133 278.931L267.614 287.04Z" fill="#339F5E"/>
<path d="M278.49 285.379L281.964 280.279C283.15 278.536 282.696 276.154 280.953 274.969L230.152 240.454C228.409 239.269 226.027 239.723 224.842 241.465L221.368 246.565C220.182 248.308 220.636 250.689 222.379 251.874L273.18 286.389C274.923 287.574 277.305 287.121 278.49 285.379Z" fill="#F5B500"/>
<path d="M298.592 245.589L289.947 258.31L297.43 263.387L306.075 250.666L314.72 237.945L307.237 232.868L298.592 245.589Z" fill="#F5B500"/>
<path d="M311.188 243.138L306.076 250.666L300.963 258.194L413.128 338.678C418.973 342.884 427.141 341.432 431.197 335.472C435.24 329.512 433.579 321.392 427.525 317.5L311.188 243.138Z" fill="#339F5E"/>
<path d="M317.184 269.847L413.127 338.691" stroke="#383138" stroke-width="0.75" stroke-miterlimit="10"/>
<path d="M310.966 253.803L303.762 264.386L312.465 270.3L319.657 259.705L326.862 249.121L318.159 243.208L310.966 253.803Z" fill="#F5B500"/>
<path d="M297.432 263.387L311.189 243.138" stroke="#383138" stroke-width="0.75" stroke-miterlimit="10"/>
<path d="M312.469 270.298L321.579 256.892" stroke="#383138" stroke-width="0.75" stroke-miterlimit="10"/>
<path d="M271.473 285.226L223.355 252.547" stroke="#383138" stroke-width="0.75" stroke-miterlimit="10"/>
<path d="M252.219 255.44L232.582 242.104" stroke="#383138" stroke-width="0.75" stroke-miterlimit="10"/>
<path d="M237.496 232.775L264.779 192.648" stroke="#383138" stroke-width="0.75" stroke-miterlimit="10"/>
<path d="M316.175 216.161L274.391 187.78" stroke="#383138" stroke-width="0.75" stroke-miterlimit="10"/>
<path d="M314.117 198.062L282.941 176.872" stroke="#383138" stroke-width="0.75" stroke-miterlimit="10"/>
<path d="M257.505 284.159L224.668 261.854" stroke="#383138" stroke-width="0.75" stroke-miterlimit="10"/>
<path d="M67.1504 120.133C118.963 124.78 182.592 120.133 182.592 120.133C128.839 107.946 67.1504 120.133 67.1504 120.133Z" fill="#383138"/>
<path d="M67.9883 230.683C121.857 241.162 181.745 231.496 181.745 231.496C128.004 219.322 67.9883 230.683 67.9883 230.683Z" fill="#383138"/>
<path opacity="0.2" d="M173.981 230.73C163.059 231.961 151.172 232.879 138.413 233.274C133.614 233.413 128.676 233.495 123.621 233.472C106.18 233.425 90.1451 232.333 75.7599 230.718C73.5057 211.236 92.0042 192.335 106.936 180.462C112.699 175.873 112.699 167.125 106.936 162.548C91.9926 150.663 73.4941 131.762 75.7599 112.28L124.865 111.664L137.914 111.827L173.97 112.28C176.259 132.018 157.237 151.163 142.201 163.013C136.554 167.462 136.322 175.919 141.725 180.659C170.751 206.031 172.866 224.213 173.981 230.73Z" fill="white"/>
<path d="M173.981 230.73C163.059 231.961 151.172 232.879 138.413 233.274C133.614 233.413 128.676 233.495 123.621 233.472C106.18 233.425 90.1451 232.333 75.7599 230.718C73.5057 211.236 92.0042 192.335 106.936 180.462C112.699 175.873 112.699 167.125 106.936 162.548C91.9926 150.663 73.4941 131.762 75.7599 112.28L124.865 111.664L137.914 111.827L173.97 112.28C176.259 132.018 157.237 151.163 142.201 163.013C136.554 167.462 136.322 175.919 141.725 180.659C170.751 206.031 172.866 224.213 173.981 230.73Z" stroke="#383138" stroke-width="0.75" stroke-miterlimit="10"/>
<path d="M137.275 185.748C133.185 182.17 130.919 177.001 131.059 171.575C131.198 166.127 133.731 161.073 138.019 157.704C143.562 153.336 151.382 145.971 157.645 137.571C151.939 137.351 146.234 137.025 140.541 136.607C122.483 135.294 104.438 133.006 86.7994 128.858C92.83 140.998 103.857 151.454 111.154 157.251C115.523 160.725 118.033 165.918 118.033 171.506C118.033 177.093 115.523 182.286 111.154 185.76C100.79 193.997 84.3825 216.07 82.5117 231.428C98.5934 234.251 141.61 234.506 167.603 231.393C165.256 223.075 157.203 203.163 137.275 185.748Z" fill="white"/>
<path d="M86.8008 128.859C117.244 140.151 157.646 137.572 157.646 137.572C136.673 127.523 86.8008 128.859 86.8008 128.859Z" fill="#E7E6E7"/>
<path opacity="0.07" d="M173.982 230.73C163.059 231.962 151.173 232.88 138.414 233.275C140.052 219.613 136.694 205.393 129.037 193.962C125.261 188.304 120.264 182.751 120.171 175.943C120.09 169.809 124.041 164.488 127.224 159.249C135.765 145.146 139.588 128.231 137.914 111.827L173.97 112.28C176.259 132.018 157.238 151.163 142.202 163.013C136.555 167.462 136.323 175.92 141.726 180.66C170.752 206.032 172.866 224.213 173.982 230.73Z" fill="#383138"/>
<path d="M182.592 106.657H67.1504V120.133H182.592V106.657Z" fill="#F5B500"/>
<path d="M182.592 230.719H67.1504V244.195H182.592V230.719Z" fill="#F5B500"/>
</svg>