<svg width="251" height="353" viewBox="0 0 251 353" fill="none" xmlns="http://www.w3.org/2000/svg">
<path d="M95.0247 88.5898H78.5449V116.868C78.5449 116.868 85.378 132.414 95.0247 132.414C104.376 132.414 111.493 117.731 111.493 117.731V88.5898H95.0247Z" fill="#E9A57A"/>
<path d="M133.882 55.1806C132.971 54.956 132.238 55.2279 131.635 55.7244C131.647 55.1452 131.659 54.5659 131.659 53.9866C131.659 39.9067 127.533 30.9811 122.131 25.3184H69.641C63.2453 31.6076 59.4032 41.4317 58.9894 56.3274C58.3038 55.4762 57.3935 54.9087 56.1758 55.2043C52.5701 56.0673 52.8893 65.9386 56.1758 70.7856C58.4456 74.1312 60.0416 74.4504 60.7982 74.3204C66.7092 97.9761 85.4352 112.103 97.2216 112.103C108.748 112.103 124.318 100.53 129.72 74.3204C130.583 74.2495 131.99 73.5638 133.87 70.7856C137.133 65.915 137.475 56.0436 133.882 55.1806Z" fill="#FAB182"/>
<path d="M111.457 114.988L95.0123 120.616L78.5325 114.988C78.5325 114.988 65.0909 121.632 60.7168 122.342V189.845H94.965H95.0714H129.32V122.342C124.934 121.632 111.457 114.988 111.457 114.988Z" fill="#E9A57A"/>
<path d="M142.052 215.829L142.122 121.573L111.575 115.153L95.012 146.399L78.2957 115.035L49.5684 121.573L49.6393 215.829H142.052Z" fill="#3D3D3E"/>
<path d="M98.0868 167.217L111.576 115.035L95.1313 126.136L78.2969 115.035L92.1758 167.217H98.0868Z" fill="white"/>
<path d="M103.229 180.41C102.898 169.818 102.118 134.789 102.118 134.789H95.5682H89.0306C89.0306 134.789 86.6663 166.531 87.0327 180.41L95.0007 190.435L103.229 180.41Z" fill="#BE1E2D"/>
<path d="M95.2486 144.14C91.3 141.314 89.5504 139.565 86.6895 135.687C89.5385 131.786 91.3237 130.036 95.2722 127.223C99.2207 130.048 100.994 131.798 103.843 135.699C100.982 139.577 99.1971 141.326 95.2486 144.14Z" fill="#7F0814"/>
<path d="M91.5354 190.436H95.7913L78.4367 115.035L58.2803 119.598L57.5 132.118L68.388 136.87L57.5 146.694L91.5354 190.436Z" fill="#282829"/>
<path d="M98.7714 190.436L132.866 146.694L121.99 136.87L132.866 132.118L132.287 119.516L111.575 115.035L94.5273 190.436H98.7714Z" fill="#282829"/>
<path d="M111.577 115.035C100.299 122.601 95.1562 126.148 95.1562 126.148V128.725L110.052 135.629L114.863 115.65L111.577 115.035Z" fill="#D1D3D4"/>
<path d="M78.345 115.035C89.6231 122.377 95.1558 126.148 95.1558 126.148V128.725L80.2602 135.629L75.0703 115.65L78.345 115.035Z" fill="#D1D3D4"/>
<path d="M128.966 61.0321C128.966 61.0321 133.045 56.8117 135.456 39.5043C138.684 16.4042 122.559 14.891 122.559 14.891C127.583 13.8862 132.891 8.77907 132.891 8.77907C119.012 9.78393 121.873 2.19424 100.759 0.172681C79.6448 -1.83705 71.6886 14.359 71.6886 14.359C67.4091 11.8646 64.0516 13.4133 62.6566 14.6664C49.3096 26.6657 59.0155 61.0321 59.0155 61.0321C59.0155 61.0321 62.5148 61.5168 62.5857 56.989C62.6566 52.4612 63.0349 34.2081 96.9049 34.2081C120.892 34.2081 129.049 45.1907 127.004 53.2178C125.396 59.5189 128.966 61.0321 128.966 61.0321Z" fill="#3C2415"/>
<path d="M174.385 215.829C173.168 201.642 169.834 146.599 168.569 140.44C167.162 133.607 142.135 121.572 142.135 121.572L142.1 169.9L149.287 215.829H174.385Z" fill="#282829"/>
<path d="M42.6407 207.589L49.7812 169.912L49.7457 121.584C49.7457 121.584 24.7068 133.607 23.3118 140.452C22.0351 146.611 19.6825 193.414 18.4648 207.601H42.6407V207.589Z" fill="#282829"/>
<path d="M87.1973 170.93C87.1973 170.93 71.0367 172.396 65.6222 175.02C60.1959 177.645 54.3086 187.386 54.3086 187.386L77.9762 182.078L87.1973 170.93Z" fill="#FAB182"/>
<path d="M111.445 172.36C111.445 172.36 122.605 171.154 128.256 173.258C135.669 176.024 143.885 185.387 143.885 185.387L113.892 182.065L111.445 172.36Z" fill="#FAB182"/>
<path d="M19.577 191.689C19.577 191.689 47.1931 187.776 57.3364 186.062C69.1702 184.076 112.273 171.391 112.273 171.391L117.049 190.873C117.049 190.873 64.7724 215.475 58.554 218.631L27.9352 222.804L18.1348 213.737L19.577 191.689Z" fill="#282829"/>
<path d="M172.091 193.711L84.2771 167.289C84.2771 167.289 78.1888 169.24 75.4461 174.642C72.9044 179.631 73.2591 187.41 73.2591 187.41C73.2591 187.41 116.551 209.612 134.745 218.892L167.255 222.817L174.384 215.842L172.091 193.711Z" fill="#383839"/>
<path d="M119.341 183.91H73.1885C65.4806 183.91 59.2031 190.188 59.2031 197.896V218.986H71.6871V197.896C71.6871 197.068 72.361 196.394 73.1885 196.394H119.341C120.169 196.394 120.843 197.068 120.843 197.896V218.986H133.327V197.896C133.327 190.188 127.061 183.91 119.341 183.91Z" fill="#383839"/>
<path opacity="0.1" d="M119.341 183.91H73.1885C65.4806 183.91 59.2031 190.188 59.2031 197.896V218.986H71.6871V197.896C71.6871 197.068 72.361 196.394 73.1885 196.394L119.341 183.91Z" fill="#939598"/>
<path d="M192.532 208.725H0V344.949H192.532V208.725Z" fill="#339F5E"/>
<path d="M0 255.989C19.1516 272.681 55.0903 283.912 96.2662 283.912C137.442 283.912 173.381 272.681 192.532 255.989V208.725H0V255.989Z" fill="#339F5E"/>
<path d="M0 255.988V265.978C19.1516 282.67 55.0903 293.901 96.2662 293.901C137.442 293.901 173.381 282.67 192.532 265.978V255.988C173.381 272.681 137.442 283.912 96.2662 283.912C55.0903 283.912 19.1516 272.669 0 255.988Z" fill="white"/>
<path d="M85.2719 292.235C80.6731 292.235 76.9492 288.511 76.9492 283.912C76.9492 279.314 80.6731 275.59 85.2719 275.59H107.261C111.859 275.59 115.583 279.314 115.583 283.912C115.583 288.511 111.859 292.235 107.261 292.235H85.2719Z" fill="#FFCD03"/>
<path opacity="0.4" d="M85.2719 292.235C80.6731 292.235 76.9492 288.511 76.9492 283.912C76.9492 279.314 80.6731 275.59 85.2719 275.59H107.261L85.2719 292.235Z" fill="white"/>
<path opacity="0.05" d="M0 352.017V215.793H192.532L0 352.017Z" fill="white"/>
<path d="M160.416 250.12L151.518 272.496L187.109 286.649L196.007 264.273L160.416 250.12Z" fill="#3D3D3E"/>
<path d="M154.045 263.277L152.027 268.352L189.585 283.286L191.603 278.211L154.045 263.277Z" fill="#6D6E71"/>
<path d="M153.372 264.953L152.699 266.645L190.257 281.579L190.93 279.888L153.372 264.953Z" fill="#939598"/>
<path d="M157.41 257.715C162.056 262.077 167.589 265.671 173.866 268.165C180.156 270.66 186.634 271.842 193.006 271.866L196.032 264.276L160.437 250.113L157.41 257.715Z" fill="#808285"/>
<path d="M195.098 162.441C201.529 162.441 208.079 163.635 214.427 166.165C241.287 176.84 254.397 207.282 243.722 234.129C235.565 254.64 215.881 267.148 195.075 267.148C188.644 267.148 182.094 265.954 175.746 263.424C148.886 252.737 135.776 222.307 146.451 195.448C154.62 174.937 174.292 162.441 195.098 162.441ZM195.11 158.906C184.057 158.906 173.322 162.157 164.089 168.317C154.632 174.618 147.397 183.543 143.188 194.148C131.804 222.768 145.836 255.326 174.457 266.711C181.077 269.347 188.017 270.683 195.087 270.683C206.14 270.683 216.874 267.432 226.119 261.273C235.577 254.971 242.812 246.034 247.02 235.442C252.529 221.574 252.317 206.395 246.406 192.693C240.495 178.992 229.607 168.399 215.739 162.89C209.119 160.242 202.168 158.906 195.11 158.906Z" fill="#414042"/>
<path d="M195.075 265.375C188.68 265.375 182.402 264.169 176.409 261.781C150.495 251.473 137.798 222.012 148.107 196.11C155.815 176.734 174.257 164.215 195.111 164.215C201.507 164.215 207.784 165.421 213.79 167.809C226.344 172.798 236.192 182.373 241.548 194.786C246.891 207.188 247.092 220.937 242.103 233.48C234.372 252.856 215.929 265.375 195.075 265.375Z" fill="#339F5E" fill-opacity="0.25"/>
<path d="M195.11 165.976C201.281 165.976 207.346 167.147 213.127 169.44C225.244 174.252 234.749 183.496 239.915 195.472C245.07 207.436 245.259 220.7 240.447 232.818C233.011 251.52 215.208 263.602 195.087 263.602C188.916 263.602 182.851 262.432 177.07 260.138C152.066 250.196 139.819 221.764 149.761 196.761C157.185 178.058 174.989 165.976 195.11 165.976ZM195.098 162.441C174.292 162.441 154.608 174.937 146.451 195.448C135.764 222.308 148.886 252.738 175.746 263.425C182.094 265.943 188.632 267.148 195.075 267.148C215.881 267.148 235.565 254.653 243.722 234.13C254.397 207.282 241.287 176.841 214.427 166.165C208.091 163.635 201.541 162.441 195.098 162.441Z" fill="#6D6E71"/>
<g opacity="0.5">
<path d="M227.089 175.99L144.902 218.289C145.423 225.536 147.515 232.546 150.967 238.848L240.306 192.86C237.196 186.429 232.728 180.648 227.089 175.99Z" fill="white"/>
<path d="M157.6 248.233L244.09 203.723C243.569 201.429 242.896 199.171 242.068 196.984L153.285 242.676C154.597 244.615 156.028 246.471 157.6 248.233Z" fill="white"/>
</g>
<path d="M151.831 271.734L131.119 323.834C127.678 332.499 132.856 342.678 142.68 346.591C152.505 350.504 163.274 346.65 166.715 337.996L187.427 285.897L151.831 271.734Z" fill="#2E2E2F"/>
<path d="M162.318 275.906L142.647 325.381C141.984 327.048 142.978 329.01 144.869 329.767C146.761 330.524 148.829 329.779 149.491 328.112L169.163 278.649L162.318 275.906Z" fill="#464547"/>
<path d="M154.112 272.645L133.4 324.744C129.96 333.409 134.511 343.34 143.567 346.946C143.567 346.946 135.634 337.488 140.978 324.046C146.889 309.186 150.589 299.882 160.425 275.151L154.112 272.645Z" fill="#414042"/>
</svg>