<svg width="476" height="340" viewBox="0 0 476 340" fill="none" xmlns="http://www.w3.org/2000/svg">
<path opacity="0.35" d="M403.437 118.565C403.984 114.449 404.285 110.246 404.285 105.98C404.285 54.1882 362.337 12.1983 310.598 12.1983C286.333 12.1983 264.226 21.4302 247.585 36.584C224.909 13.9823 193.634 0 159.105 0C89.8542 0 33.702 56.1979 33.702 125.529C33.702 137.169 35.291 148.443 38.2543 159.147C15.0526 176.214 0 203.727 0 234.755C0 286.546 41.9477 328.536 93.6871 328.536H367.491C427.111 328.536 475.436 280.162 475.436 220.482C475.425 173.419 445.374 133.396 403.437 118.565Z" fill="#339F5E"/>
<path d="M240.525 339.768C354.756 339.768 447.358 332.015 447.358 322.452C447.358 312.888 354.756 305.136 240.525 305.136C126.294 305.136 33.6914 312.888 33.6914 322.452C33.6914 332.015 126.294 339.768 240.525 339.768Z" fill="#339F5E" fill-opacity="0.4"/>
<path d="M183.465 142.774C184.818 140.647 184.206 137.823 182.079 136.469L136.868 107.578L131.949 115.268L177.161 144.159C179.287 145.523 182.111 144.901 183.465 142.774Z" fill="url(#paint0_linear_6593_3943)"/>
<path d="M182.081 136.469L136.869 107.578L134.41 111.423L183.466 142.774C184.83 140.647 184.207 137.823 182.081 136.469Z" fill="url(#paint1_linear_6593_3943)"/>
<path d="M131.027 116.718L137.793 106.128C138.727 104.657 138.297 102.713 136.837 101.768L129.685 97.1924L119.525 113.088L126.678 117.663C128.138 118.608 130.093 118.179 131.027 116.718Z" fill="#339F5E"/>
<path d="M134.41 111.423L137.793 106.128C138.727 104.657 138.298 102.713 136.837 101.768L129.685 97.1924L124.605 105.14L134.41 111.423Z" fill="#339F5E"/>
<path d="M91.614 129.048C116.453 129.048 136.589 108.91 136.589 84.0681C136.589 59.2262 116.453 39.0879 91.614 39.0879C66.7748 39.0879 46.6387 59.2262 46.6387 84.0681C46.6387 108.91 66.7748 129.048 91.614 129.048Z" fill="url(#paint2_linear_6593_3943)"/>
<path d="M115.83 46.1658C94.8992 32.7942 67.0957 38.9161 53.7148 59.8489L129.511 108.287C142.881 87.3547 136.76 59.5482 115.83 46.1658Z" fill="url(#paint3_linear_6593_3943)"/>
<path d="M91.6147 119.597C111.235 119.597 127.14 103.69 127.14 84.0678C127.14 64.4458 111.235 48.5391 91.6147 48.5391C71.9949 48.5391 56.0898 64.4458 56.0898 84.0678C56.0898 103.69 71.9949 119.597 91.6147 119.597Z" fill="url(#paint4_linear_6593_3943)"/>
<path d="M110.741 54.1249C94.2025 43.5565 72.2411 48.4003 61.6738 64.9296L121.544 103.197C132.111 86.6679 127.279 64.6933 110.741 54.1249Z" fill="url(#paint5_linear_6593_3943)"/>
<path d="M58.4956 71.2021L125.744 74.2309C126.345 76.336 126.764 78.4948 126.968 80.6751L56.6914 77.5067C57.0995 75.3694 57.6901 73.2643 58.4956 71.2021Z" fill="url(#paint6_linear_6593_3943)"/>
<path d="M72.457 71.8252L83.2068 78.699L126.969 80.6752C126.915 80.1274 126.85 79.5904 126.775 79.0427C126.7 78.5056 126.603 77.9686 126.507 77.4316C126.507 77.4209 126.507 77.4209 126.507 77.4101C126.41 76.8839 126.292 76.3576 126.163 75.8313C126.163 75.8206 126.163 75.8098 126.152 75.7991C126.024 75.2728 125.895 74.7465 125.744 74.231L72.457 71.8252Z" fill="url(#paint7_linear_6593_3943)"/>
<path d="M124.411 97.6986L57.7103 94.6913C56.572 91.0504 56.0136 87.2376 56.0887 83.4033L127.053 86.6039C126.784 90.3523 125.914 94.1006 124.411 97.6986Z" fill="url(#paint8_linear_6593_3943)"/>
<path d="M93.1816 85.0781L112.061 97.1394L124.411 97.6979C125.12 95.9795 125.689 94.2396 126.129 92.4674C126.161 92.3493 126.194 92.2311 126.215 92.113C126.29 91.7908 126.355 91.4686 126.419 91.1464C126.462 90.9316 126.505 90.706 126.548 90.4912C126.602 90.2227 126.645 89.9435 126.688 89.675C126.731 89.385 126.773 89.095 126.816 88.805C126.849 88.5902 126.881 88.3754 126.902 88.1498C126.956 87.6987 126.999 87.2476 127.031 86.7966C127.031 86.7321 127.042 86.6569 127.053 86.5925L93.1816 85.0781Z" fill="url(#paint9_linear_6593_3943)"/>
<path d="M103.351 158.895L41.4406 174.34C37.7678 175.253 35.1797 178.561 35.1797 182.352V242.476C35.1797 262.732 45.7792 281.506 63.1228 291.967L103.641 316.401C104.694 317.035 106.004 317.035 107.046 316.401L147.564 291.967C164.908 281.506 175.507 262.732 175.507 242.476V182.352C175.507 178.561 172.93 175.263 169.246 174.34L107.336 158.895C106.036 158.562 104.672 158.562 103.351 158.895Z" fill="#339F5E"/>
<path d="M107.057 316.401L147.576 291.967C164.919 281.506 175.519 262.732 175.519 242.476V182.352C175.519 178.561 172.941 175.264 169.258 174.34L107.347 158.895C106.692 158.734 106.015 158.648 105.35 158.648V316.874C105.94 316.874 106.531 316.713 107.057 316.401Z" fill="#339F5E"/>
<path d="M66.6882 286.058C51.5031 276.908 42.0742 260.207 42.0742 242.474V182.35C42.0742 181.728 42.5038 181.18 43.1052 181.029L105.016 165.585C105.123 165.553 105.231 165.542 105.349 165.542C105.456 165.542 105.574 165.553 105.682 165.585L167.593 181.029C168.205 181.18 168.624 181.728 168.624 182.35V242.474C168.624 260.207 159.195 276.908 144.01 286.058L105.349 309.376L66.6882 286.058Z" fill="url(#paint10_linear_6593_3943)"/>
<path d="M105.35 165.532V309.377L144.01 286.059C159.195 276.909 168.624 260.208 168.624 242.475V182.351C168.624 181.729 168.195 181.181 167.593 181.03L105.683 165.586C105.575 165.554 105.468 165.532 105.35 165.532Z" fill="url(#paint11_linear_6593_3943)"/>
<path d="M122.36 221.308C122.36 211.641 114.305 203.865 104.533 204.317C95.6302 204.735 88.4028 212.254 88.3384 221.168C88.2847 228.278 92.5911 234.379 98.7446 236.967C99.3245 237.214 99.6466 237.848 99.4319 238.449L89.9492 265.944C89.1546 268.232 90.8621 270.616 93.2784 270.616H105.338H117.398C119.825 270.616 121.522 268.232 120.727 265.944L111.245 238.449C111.052 237.88 111.309 237.225 111.868 236.999C118.043 234.432 122.36 228.385 122.36 221.308Z" fill="url(#paint12_linear_6593_3943)"/>
<path d="M111.89 237C118.032 234.433 122.36 228.386 122.36 221.308C122.36 211.911 114.746 204.328 105.35 204.317V270.617H117.41C119.837 270.617 121.533 268.233 120.739 265.945L111.256 238.45C111.074 237.881 111.331 237.236 111.89 237Z" fill="url(#paint13_linear_6593_3943)"/>
<path d="M319.047 316.873H151.475C148.103 316.873 145.375 314.145 145.375 310.772V124.375L187.751 81.9941H319.047C322.42 81.9941 325.147 84.7222 325.147 88.0946V310.783C325.147 314.145 322.42 316.873 319.047 316.873Z" fill="url(#paint14_linear_6593_3943)"/>
<path d="M319.048 81.9844H235.262V316.874H319.048C322.42 316.874 325.148 314.146 325.148 310.773V88.0849C325.148 84.7232 322.42 81.9844 319.048 81.9844Z" fill="url(#paint15_linear_6593_3943)"/>
<path d="M299.964 114.774H170.558C168.732 114.774 167.25 113.292 167.25 111.466C167.25 109.64 168.732 108.158 170.558 108.158H299.964C301.789 108.158 303.271 109.64 303.271 111.466C303.271 113.292 301.789 114.774 299.964 114.774Z" fill="url(#paint16_linear_6593_3943)"/>
<path d="M299.964 144.095H170.558C168.732 144.095 167.25 142.612 167.25 140.787C167.25 138.961 168.732 137.479 170.558 137.479H299.964C301.789 137.479 303.271 138.961 303.271 140.787C303.271 142.612 301.789 144.095 299.964 144.095Z" fill="url(#paint17_linear_6593_3943)"/>
<path d="M299.964 173.416H170.558C168.732 173.416 167.25 171.934 167.25 170.108C167.25 168.282 168.732 166.8 170.558 166.8H299.964C301.789 166.8 303.271 168.282 303.271 170.108C303.271 171.934 301.789 173.416 299.964 173.416Z" fill="url(#paint18_linear_6593_3943)"/>
<path d="M299.964 202.737H170.558C168.732 202.737 167.25 201.255 167.25 199.429C167.25 197.603 168.732 196.121 170.558 196.121H299.964C301.789 196.121 303.271 197.603 303.271 199.429C303.271 201.255 301.789 202.737 299.964 202.737Z" fill="url(#paint19_linear_6593_3943)"/>
<path d="M299.964 232.058H170.558C168.732 232.058 167.25 230.576 167.25 228.75C167.25 226.925 168.732 225.442 170.558 225.442H299.964C301.789 225.442 303.271 226.925 303.271 228.75C303.271 230.576 301.789 232.058 299.964 232.058Z" fill="url(#paint20_linear_6593_3943)"/>
<path d="M299.964 261.379H170.558C168.732 261.379 167.25 259.897 167.25 258.071C167.25 256.245 168.732 254.763 170.558 254.763H299.964C301.789 254.763 303.271 256.245 303.271 258.071C303.271 259.907 301.789 261.379 299.964 261.379Z" fill="url(#paint21_linear_6593_3943)"/>
<path d="M299.964 290.71H170.558C168.732 290.71 167.25 289.228 167.25 287.402C167.25 285.576 168.732 284.094 170.558 284.094H299.964C301.789 284.094 303.271 285.576 303.271 287.402C303.271 289.228 301.789 290.71 299.964 290.71Z" fill="url(#paint22_linear_6593_3943)"/>
<path d="M299.963 114.774H235.26V108.158H299.963C301.788 108.158 303.27 109.64 303.27 111.466C303.27 113.292 301.788 114.774 299.963 114.774Z" fill="url(#paint23_linear_6593_3943)"/>
<path d="M299.963 144.095H235.26V137.479H299.963C301.788 137.479 303.27 138.961 303.27 140.787C303.27 142.612 301.788 144.095 299.963 144.095Z" fill="url(#paint24_linear_6593_3943)"/>
<path d="M299.963 173.416H235.26V166.8H299.963C301.788 166.8 303.27 168.282 303.27 170.108C303.27 171.934 301.788 173.416 299.963 173.416Z" fill="url(#paint25_linear_6593_3943)"/>
<path d="M299.963 202.737H235.26V196.121H299.963C301.788 196.121 303.27 197.603 303.27 199.429C303.27 201.255 301.788 202.737 299.963 202.737Z" fill="url(#paint26_linear_6593_3943)"/>
<path d="M299.963 232.058H235.26V225.442H299.963C301.788 225.442 303.27 226.925 303.27 228.75C303.27 230.576 301.788 232.058 299.963 232.058Z" fill="url(#paint27_linear_6593_3943)"/>
<path d="M299.963 261.379H235.26V254.763H299.963C301.788 254.763 303.27 256.245 303.27 258.071C303.27 259.907 301.788 261.379 299.963 261.379Z" fill="url(#paint28_linear_6593_3943)"/>
<path d="M299.963 290.71H235.26V284.094H299.963C301.788 284.094 303.27 285.576 303.27 287.402C303.27 289.228 301.788 290.71 299.963 290.71Z" fill="url(#paint29_linear_6593_3943)"/>
<path d="M145.375 124.376H183.692C185.937 124.376 187.762 122.55 187.762 120.306V81.9844L145.375 124.376Z" fill="url(#paint30_linear_6593_3943)"/>
<path d="M138.07 258.512L127.32 250.145C126.149 249.232 125.623 247.728 125.967 246.289L134.784 209.59L154.189 214.251L144.062 256.428C143.418 259.092 140.239 260.198 138.07 258.512Z" fill="#339F5E"/>
<path d="M169.471 258.512L180.221 250.145C181.391 249.232 181.918 247.728 181.574 246.289L172.757 209.59L153.352 214.251L163.479 256.428C164.123 259.092 167.302 260.198 169.471 258.512Z" fill="#339F5E"/>
<path d="M192.132 186.595C192.132 189.334 186.859 191.45 186.269 194.017C185.667 196.669 189.49 200.858 188.341 203.242C187.171 205.67 181.5 205.283 179.836 207.377C178.161 209.472 179.793 214.917 177.699 216.593C175.615 218.257 170.675 215.465 168.238 216.636C165.843 217.785 164.962 223.402 162.31 224.003C159.743 224.583 156.511 219.922 153.772 219.922C151.034 219.922 147.801 224.583 145.235 224.003C142.582 223.402 141.701 217.785 139.307 216.636C136.88 215.465 131.94 218.257 129.845 216.593C127.751 214.917 129.384 209.472 127.708 207.377C126.044 205.294 120.374 205.68 119.203 203.242C118.054 200.847 121.877 196.659 121.276 194.017C120.696 191.45 115.412 189.334 115.412 186.595C115.412 183.856 120.685 181.74 121.276 179.173C121.877 176.521 118.054 172.332 119.203 169.948C120.374 167.52 126.044 167.907 127.708 165.813C129.384 163.718 127.751 158.273 129.845 156.597C131.929 154.933 136.869 157.725 139.307 156.554C141.701 155.405 142.582 149.788 145.235 149.187C147.801 148.607 151.034 153.268 153.772 153.268C156.511 153.268 159.743 148.607 162.31 149.187C164.962 149.788 165.843 155.405 168.238 156.554C170.665 157.725 175.605 154.933 177.699 156.597C179.793 158.273 178.161 163.718 179.836 165.813C181.5 167.896 187.171 167.51 188.341 169.948C189.49 172.343 185.667 176.531 186.269 179.173C186.859 181.73 192.132 183.845 192.132 186.595Z" fill="url(#paint31_linear_6593_3943)"/>
<path d="M186.28 179.173C185.678 176.521 189.501 172.332 188.352 169.948C187.182 167.52 181.512 167.907 179.847 165.813C178.172 163.718 179.804 158.273 177.71 156.597C175.626 154.933 170.687 157.725 168.249 156.554C165.854 155.405 164.973 149.788 162.321 149.187C159.754 148.607 156.522 153.268 153.783 153.268V219.933C156.522 219.933 159.754 224.594 162.321 224.014C164.973 223.413 165.854 217.795 168.249 216.646C170.676 215.476 175.616 218.268 177.71 216.603C179.804 214.928 178.172 209.482 179.847 207.388C181.512 205.305 187.182 205.691 188.352 203.253C189.501 200.858 185.678 196.669 186.28 194.027C186.86 191.46 192.143 189.344 192.143 186.606C192.143 183.867 186.86 181.73 186.28 179.173Z" fill="url(#paint32_linear_6593_3943)"/>
<path d="M153.771 215.766C169.88 215.766 182.938 202.706 182.938 186.595C182.938 170.485 169.88 157.425 153.771 157.425C137.662 157.425 124.604 170.485 124.604 186.595C124.604 202.706 137.662 215.766 153.771 215.766Z" fill="url(#paint33_linear_6593_3943)"/>
<path d="M153.77 157.425V215.755C169.878 215.755 182.937 202.695 182.937 186.585C182.937 170.474 169.878 157.425 153.77 157.425Z" fill="url(#paint34_linear_6593_3943)"/>
<path d="M153.772 210.126C140.8 210.126 130.232 199.569 130.232 186.584C130.232 173.599 140.789 163.041 153.772 163.041C166.745 163.041 177.313 173.599 177.313 186.584C177.313 199.569 166.745 210.126 153.772 210.126ZM153.772 165.565C142.185 165.565 132.756 174.995 132.756 186.584C132.756 198.172 142.185 207.602 153.772 207.602C165.36 207.602 174.789 198.172 174.789 186.584C174.789 174.995 165.36 165.565 153.772 165.565Z" fill="#339F5E"/>
<path d="M177.312 186.594C177.312 173.62 166.755 163.052 153.771 163.052V165.565C165.359 165.565 174.788 174.995 174.788 186.584C174.788 198.172 165.359 207.602 153.771 207.602V210.116C166.744 210.126 177.312 199.569 177.312 186.594Z" fill="#339F5E"/>
<path d="M305.301 64.6719V65.5203V229.331H417.277H418.351L419.199 228.482V65.5203V64.6719H305.301Z" fill="#339F5E"/>
<path d="M359.705 229.331H417.277H418.351L419.2 228.482V65.5203V64.6719H359.705V229.331Z" fill="#339F5E"/>
<path d="M414.111 65.5205H310.404H296.98C295.745 65.5205 294.746 66.5194 294.746 67.7545V68.7748C294.746 70.0099 295.745 71.0088 296.98 71.0088H310.404V228.482H414.111V232.499L418.353 228.257V65.5205H414.111Z" fill="url(#paint35_linear_6593_3943)"/>
<path d="M359.707 65.5205V228.482H414.111V232.499L418.353 228.257V65.5205H414.111H359.707Z" fill="url(#paint36_linear_6593_3943)"/>
<path d="M305.301 70.6542V70.1494H304.453H302.617H297.333C296.055 70.1494 295.024 69.1076 295.024 67.8403C295.024 66.5622 296.066 65.5311 297.333 65.5311H302.617H304.453H305.301V64.6826H297.333C295.583 64.6826 294.176 66.1003 294.176 67.8403V230.233C294.176 232.08 295.701 233.584 297.569 233.584H305.312L305.301 70.6542Z" fill="url(#paint37_linear_6593_3943)"/>
<path d="M305.301 70.1494V70.9979V233.584H414.109V70.9979V70.1494H305.301Z" fill="#339F5E"/>
<path d="M359.705 233.584H414.109V70.9979V70.1494H359.705V233.584Z" fill="#339F5E"/>
<path d="M400.16 108.256H319.241C318.027 108.256 317.039 107.268 317.039 106.054C317.039 104.841 318.027 103.853 319.241 103.853H400.16C401.373 103.853 402.361 104.841 402.361 106.054C402.372 107.268 401.384 108.256 400.16 108.256Z" fill="url(#paint38_linear_6593_3943)"/>
<path d="M400.16 199.644H319.241C318.027 199.644 317.039 198.656 317.039 197.442C317.039 196.228 318.027 195.24 319.241 195.24H400.16C401.373 195.24 402.361 196.228 402.361 197.442C402.372 198.656 401.384 199.644 400.16 199.644Z" fill="url(#paint39_linear_6593_3943)"/>
<path d="M400.16 212.598H319.241C318.027 212.598 317.039 211.61 317.039 210.396C317.039 209.172 318.027 208.194 319.241 208.194H400.16C401.373 208.194 402.361 209.182 402.361 210.396C402.372 211.61 401.384 212.598 400.16 212.598Z" fill="url(#paint40_linear_6593_3943)"/>
<path d="M393.866 96.3976H325.534C324.32 96.3976 323.332 95.4095 323.332 94.1959C323.332 92.9822 324.32 91.9941 325.534 91.9941H393.866C395.08 91.9941 396.068 92.9822 396.068 94.1959C396.079 95.4095 395.091 96.3976 393.866 96.3976Z" fill="url(#paint41_linear_6593_3943)"/>
<path d="M388.732 178.121H330.676C329.549 178.121 328.646 177.208 328.646 176.091V127.406C328.646 126.278 329.559 125.376 330.676 125.376H388.732C389.859 125.376 390.761 126.289 390.761 127.406V176.091C390.761 177.208 389.849 178.121 388.732 178.121Z" fill="url(#paint42_linear_6593_3943)"/>
<path d="M393.867 91.9844H359.695V96.3986H393.867C395.081 96.3986 396.069 95.4105 396.069 94.1969C396.079 92.9725 395.091 91.9844 393.867 91.9844Z" fill="url(#paint43_linear_6593_3943)"/>
<path d="M400.159 103.842H359.705V108.256H400.159C401.373 108.256 402.361 107.268 402.361 106.054C402.361 104.841 401.383 103.842 400.159 103.842Z" fill="url(#paint44_linear_6593_3943)"/>
<path d="M388.733 125.365H359.705V178.121H388.733C389.86 178.121 390.763 177.208 390.763 176.091V127.406C390.763 126.278 389.85 125.365 388.733 125.365Z" fill="url(#paint45_linear_6593_3943)"/>
<path d="M400.159 195.23H359.705V199.645H400.159C401.373 199.645 402.361 198.657 402.361 197.443C402.371 196.219 401.383 195.23 400.159 195.23Z" fill="url(#paint46_linear_6593_3943)"/>
<path d="M400.159 208.184H359.705V212.598H400.159C401.373 212.598 402.361 211.61 402.361 210.396C402.371 209.172 401.383 208.184 400.159 208.184Z" fill="url(#paint47_linear_6593_3943)"/>
<path d="M250.669 315.039C252.312 317.122 255.33 317.487 257.424 315.855L314.813 270.81L308.875 263.249L251.485 308.294C249.391 309.926 249.026 312.944 250.669 315.039Z" fill="url(#paint48_linear_6593_3943)"/>
<path d="M311.838 267.019L250.668 315.028C252.311 317.111 255.329 317.476 257.423 315.844L314.813 270.799L311.838 267.019Z" fill="url(#paint49_linear_6593_3943)"/>
<path d="M305.288 258.673L318.379 275.363C319.872 277.264 322.632 277.597 324.533 276.104L353.915 253.045C355.816 251.552 356.149 248.792 354.656 246.891L341.576 230.2C340.083 228.299 337.323 227.966 335.422 229.459L306.04 252.519C304.129 254.012 303.796 256.772 305.288 258.673Z" fill="url(#paint50_linear_6593_3943)"/>
<path d="M306.158 245.914L309.315 249.941L332.136 232.037L328.968 227.999L306.158 245.914Z" fill="url(#paint51_linear_6593_3943)"/>
<path d="M297.201 248.362C298.425 249.93 300.691 250.199 302.259 248.975L332.876 224.949C334.444 223.724 334.713 221.458 333.489 219.89C332.264 218.322 329.998 218.053 328.43 219.278L297.813 243.304C296.245 244.528 295.966 246.794 297.201 248.362Z" fill="url(#paint52_linear_6593_3943)"/>
<path d="M330.998 277.565L327.83 273.527L350.64 255.623L353.808 259.651L330.998 277.565Z" fill="url(#paint53_linear_6593_3943)"/>
<path d="M326.488 285.685C325.263 284.117 325.532 281.861 327.1 280.626L357.717 256.6C359.285 255.376 361.551 255.644 362.775 257.212C363.999 258.78 363.731 261.036 362.163 262.271L331.546 286.297C329.978 287.521 327.712 287.242 326.488 285.685Z" fill="url(#paint54_linear_6593_3943)"/>
<path d="M294.496 269.156L305.643 283.365C306.674 284.686 308.586 284.912 309.907 283.881C311.228 282.85 311.453 280.938 310.422 279.617L299.275 265.408C298.244 264.087 296.333 263.861 295.012 264.892C293.691 265.934 293.455 267.846 294.496 269.156Z" fill="#339F5E"/>
<path d="M305.643 283.365C306.674 284.686 308.585 284.912 309.906 283.881C311.227 282.85 311.453 280.938 310.422 279.617L304.848 272.518L300.08 276.266L305.643 283.365Z" fill="#339F5E"/>
<path d="M318.391 275.364C319.883 277.265 322.643 277.597 324.544 276.105L353.926 253.045C355.827 251.552 356.16 248.792 354.667 246.891L348.116 238.546L311.84 267.018L318.391 275.364Z" fill="url(#paint55_linear_6593_3943)"/>
<path d="M317.841 304.78H379.666C383.424 304.78 386.464 307.82 386.464 311.579V314.146C386.464 315.649 385.25 316.863 383.747 316.863H313.76C312.256 316.863 311.043 315.649 311.043 314.146V311.579C311.043 307.83 314.082 304.78 317.841 304.78Z" fill="url(#paint56_linear_6593_3943)"/>
<path d="M379.665 304.78H348.758V316.863H383.746C385.249 316.863 386.463 315.649 386.463 314.146V311.579C386.463 307.83 383.424 304.78 379.665 304.78Z" fill="url(#paint57_linear_6593_3943)"/>
<path d="M321.846 304.782H375.659V302.666C375.659 299.358 372.974 296.673 369.667 296.673H327.838C324.53 296.673 321.846 299.358 321.846 302.666V304.782Z" fill="#339F5E"/>
<path d="M369.666 296.683H348.746V304.792H375.658V302.676C375.658 299.357 372.973 296.683 369.666 296.683Z" fill="#339F5E"/>
<defs>
<linearGradient id="paint0_linear_6593_3943" x1="155.541" y1="131.786" x2="162.074" y2="122.456" gradientUnits="userSpaceOnUse">
<stop offset="0.00266617" stop-color="#3F47AF"/>
<stop offset="0.9973" stop-color="#6265D7"/>
</linearGradient>
<linearGradient id="paint1_linear_6593_3943" x1="158.156" y1="128.049" x2="162.074" y2="122.454" gradientUnits="userSpaceOnUse">
<stop offset="0.00266617" stop-color="#3F47AF"/>
<stop offset="0.9973" stop-color="#6265D7"/>
</linearGradient>
<linearGradient id="paint2_linear_6593_3943" x1="65.8142" y1="120.912" x2="117.414" y2="47.2275" gradientUnits="userSpaceOnUse">
<stop offset="0.00130208" stop-color="#8348B8"/>
<stop offset="0.9973" stop-color="#5D2A93"/>
</linearGradient>
<linearGradient id="paint3_linear_6593_3943" x1="91.3009" y1="84.4722" x2="117.183" y2="47.5133" gradientUnits="userSpaceOnUse">
<stop offset="0.00266617" stop-color="#5D2A93"/>
<stop offset="0.9987" stop-color="#8348B8"/>
</linearGradient>
<linearGradient id="paint4_linear_6593_3943" x1="71.2326" y1="113.173" x2="111.996" y2="54.9641" gradientUnits="userSpaceOnUse">
<stop offset="0.00266617" stop-color="#EAB328"/>
<stop offset="0.9987" stop-color="#FFD664"/>
</linearGradient>
<linearGradient id="paint5_linear_6593_3943" x1="90.7372" y1="85.2871" x2="111.979" y2="54.9538" gradientUnits="userSpaceOnUse">
<stop offset="0.00266617" stop-color="#EAB328"/>
<stop offset="0.9987" stop-color="#FFD664"/>
</linearGradient>
<linearGradient id="paint6_linear_6593_3943" x1="80.1379" y1="93.9199" x2="104.395" y2="59.281" gradientUnits="userSpaceOnUse">
<stop offset="0.00266617" stop-color="#E2C6AA"/>
<stop offset="0.9987" stop-color="#FFF1E3"/>
</linearGradient>
<linearGradient id="paint7_linear_6593_3943" x1="92.8259" y1="86.0894" x2="109.229" y2="62.6659" gradientUnits="userSpaceOnUse">
<stop offset="0.00266617" stop-color="#E2C6AA"/>
<stop offset="0.9987" stop-color="#FFF1E3"/>
</linearGradient>
<linearGradient id="paint8_linear_6593_3943" x1="77.6006" y1="108.619" x2="104.218" y2="70.6097" gradientUnits="userSpaceOnUse">
<stop offset="0.00266617" stop-color="#E2C6AA"/>
<stop offset="0.9987" stop-color="#FFF1E3"/>
</linearGradient>
<linearGradient id="paint9_linear_6593_3943" x1="106.628" y1="94.488" x2="117.055" y2="79.5988" gradientUnits="userSpaceOnUse">
<stop offset="0.00266617" stop-color="#E2C6AA"/>
<stop offset="0.9987" stop-color="#FFF1E3"/>
</linearGradient>
<linearGradient id="paint10_linear_6593_3943" x1="42.0763" y1="237.457" x2="168.633" y2="237.457" gradientUnits="userSpaceOnUse">
<stop offset="0.00266617" stop-color="#3F47AF"/>
<stop offset="0.9973" stop-color="#6265D7"/>
</linearGradient>
<linearGradient id="paint11_linear_6593_3943" x1="105.355" y1="237.458" x2="168.633" y2="237.458" gradientUnits="userSpaceOnUse">
<stop offset="0.00266617" stop-color="#3F47AF"/>
<stop offset="0.9973" stop-color="#6265D7"/>
</linearGradient>
<linearGradient id="paint12_linear_6593_3943" x1="88.3452" y1="237.459" x2="122.364" y2="237.459" gradientUnits="userSpaceOnUse">
<stop offset="0.00266617" stop-color="#EAB328"/>
<stop offset="0.9987" stop-color="#FFD664"/>
</linearGradient>
<linearGradient id="paint13_linear_6593_3943" x1="105.355" y1="237.472" x2="122.364" y2="237.472" gradientUnits="userSpaceOnUse">
<stop offset="0.00266617" stop-color="#EAB328"/>
<stop offset="0.9987" stop-color="#FFD664"/>
</linearGradient>
<linearGradient id="paint14_linear_6593_3943" x1="145.375" y1="199.429" x2="325.149" y2="199.429" gradientUnits="userSpaceOnUse">
<stop offset="0.00266617" stop-color="#EAB328"/>
<stop offset="0.9987" stop-color="#FFD664"/>
</linearGradient>
<linearGradient id="paint15_linear_6593_3943" x1="235.263" y1="199.43" x2="325.149" y2="199.43" gradientUnits="userSpaceOnUse">
<stop offset="0.00266617" stop-color="#EAB328"/>
<stop offset="0.9987" stop-color="#FFD664"/>
</linearGradient>
<linearGradient id="paint16_linear_6593_3943" x1="167.25" y1="111.461" x2="303.273" y2="111.461" gradientUnits="userSpaceOnUse">
<stop offset="0.00266617" stop-color="#3F47AF"/>
<stop offset="0.9973" stop-color="#6265D7"/>
</linearGradient>
<linearGradient id="paint17_linear_6593_3943" x1="167.25" y1="140.784" x2="303.273" y2="140.784" gradientUnits="userSpaceOnUse">
<stop offset="0.00266617" stop-color="#3F47AF"/>
<stop offset="0.9973" stop-color="#6265D7"/>
</linearGradient>
<linearGradient id="paint18_linear_6593_3943" x1="167.25" y1="170.107" x2="303.273" y2="170.107" gradientUnits="userSpaceOnUse">
<stop offset="0.00266617" stop-color="#3F47AF"/>
<stop offset="0.9973" stop-color="#6265D7"/>
</linearGradient>
<linearGradient id="paint19_linear_6593_3943" x1="167.25" y1="199.43" x2="303.273" y2="199.43" gradientUnits="userSpaceOnUse">
<stop offset="0.00266617" stop-color="#3F47AF"/>
<stop offset="0.9973" stop-color="#6265D7"/>
</linearGradient>
<linearGradient id="paint20_linear_6593_3943" x1="167.25" y1="228.753" x2="303.273" y2="228.753" gradientUnits="userSpaceOnUse">
<stop offset="0.00266617" stop-color="#3F47AF"/>
<stop offset="0.9973" stop-color="#6265D7"/>
</linearGradient>
<linearGradient id="paint21_linear_6593_3943" x1="167.25" y1="258.076" x2="303.273" y2="258.076" gradientUnits="userSpaceOnUse">
<stop offset="0.00266617" stop-color="#3F47AF"/>
<stop offset="0.9973" stop-color="#6265D7"/>
</linearGradient>
<linearGradient id="paint22_linear_6593_3943" x1="167.25" y1="287.398" x2="303.273" y2="287.398" gradientUnits="userSpaceOnUse">
<stop offset="0.00266617" stop-color="#3F47AF"/>
<stop offset="0.9973" stop-color="#6265D7"/>
</linearGradient>
<linearGradient id="paint23_linear_6593_3943" x1="235.261" y1="111.461" x2="303.272" y2="111.461" gradientUnits="userSpaceOnUse">
<stop offset="0.00266617" stop-color="#3F47AF"/>
<stop offset="0.9973" stop-color="#6265D7"/>
</linearGradient>
<linearGradient id="paint24_linear_6593_3943" x1="235.261" y1="140.784" x2="303.272" y2="140.784" gradientUnits="userSpaceOnUse">
<stop offset="0.00266617" stop-color="#3F47AF"/>
<stop offset="0.9973" stop-color="#6265D7"/>
</linearGradient>
<linearGradient id="paint25_linear_6593_3943" x1="235.261" y1="170.107" x2="303.272" y2="170.107" gradientUnits="userSpaceOnUse">
<stop offset="0.00266617" stop-color="#3F47AF"/>
<stop offset="0.9973" stop-color="#6265D7"/>
</linearGradient>
<linearGradient id="paint26_linear_6593_3943" x1="235.261" y1="199.43" x2="303.272" y2="199.43" gradientUnits="userSpaceOnUse">
<stop offset="0.00266617" stop-color="#3F47AF"/>
<stop offset="0.9973" stop-color="#6265D7"/>
</linearGradient>
<linearGradient id="paint27_linear_6593_3943" x1="235.261" y1="228.753" x2="303.272" y2="228.753" gradientUnits="userSpaceOnUse">
<stop offset="0.00266617" stop-color="#3F47AF"/>
<stop offset="0.9973" stop-color="#6265D7"/>
</linearGradient>
<linearGradient id="paint28_linear_6593_3943" x1="235.261" y1="258.076" x2="303.272" y2="258.076" gradientUnits="userSpaceOnUse">
<stop offset="0.00266617" stop-color="#3F47AF"/>
<stop offset="0.9973" stop-color="#6265D7"/>
</linearGradient>
<linearGradient id="paint29_linear_6593_3943" x1="235.261" y1="287.398" x2="303.272" y2="287.398" gradientUnits="userSpaceOnUse">
<stop offset="0.00266617" stop-color="#3F47AF"/>
<stop offset="0.9973" stop-color="#6265D7"/>
</linearGradient>
<linearGradient id="paint30_linear_6593_3943" x1="145.375" y1="103.18" x2="187.756" y2="103.18" gradientUnits="userSpaceOnUse">
<stop offset="0.00266617" stop-color="#5D2A93"/>
<stop offset="0.9987" stop-color="#8348B8"/>
</linearGradient>
<linearGradient id="paint31_linear_6593_3943" x1="115.409" y1="186.591" x2="192.136" y2="186.591" gradientUnits="userSpaceOnUse">
<stop offset="0.00266617" stop-color="#5D2A93"/>
<stop offset="0.9987" stop-color="#8348B8"/>
</linearGradient>
<linearGradient id="paint32_linear_6593_3943" x1="153.773" y1="186.591" x2="192.136" y2="186.591" gradientUnits="userSpaceOnUse">
<stop offset="0.00266617" stop-color="#5D2A93"/>
<stop offset="0.9987" stop-color="#8348B8"/>
</linearGradient>
<linearGradient id="paint33_linear_6593_3943" x1="124.608" y1="186.591" x2="182.934" y2="186.591" gradientUnits="userSpaceOnUse">
<stop offset="0.00266617" stop-color="#EAB328"/>
<stop offset="0.9987" stop-color="#FFD664"/>
</linearGradient>
<linearGradient id="paint34_linear_6593_3943" x1="153.77" y1="186.591" x2="182.933" y2="186.591" gradientUnits="userSpaceOnUse">
<stop offset="0.00266617" stop-color="#EAB328"/>
<stop offset="0.9987" stop-color="#FFD664"/>
</linearGradient>
<linearGradient id="paint35_linear_6593_3943" x1="294.747" y1="149.012" x2="418.354" y2="149.012" gradientUnits="userSpaceOnUse">
<stop offset="0.00266617" stop-color="#E2C6AA"/>
<stop offset="0.9987" stop-color="#FFF1E3"/>
</linearGradient>
<linearGradient id="paint36_linear_6593_3943" x1="359.706" y1="149.012" x2="418.354" y2="149.012" gradientUnits="userSpaceOnUse">
<stop offset="0.00266617" stop-color="#E2C6AA"/>
<stop offset="0.9987" stop-color="#FFF1E3"/>
</linearGradient>
<linearGradient id="paint37_linear_6593_3943" x1="294.168" y1="149.127" x2="305.303" y2="149.127" gradientUnits="userSpaceOnUse">
<stop offset="0.00266617" stop-color="#5D2A93"/>
<stop offset="0.9987" stop-color="#8348B8"/>
</linearGradient>
<linearGradient id="paint38_linear_6593_3943" x1="317.039" y1="106.052" x2="402.37" y2="106.052" gradientUnits="userSpaceOnUse">
<stop offset="0.00266617" stop-color="#5D2A93"/>
<stop offset="0.9987" stop-color="#8348B8"/>
</linearGradient>
<linearGradient id="paint39_linear_6593_3943" x1="317.039" y1="197.439" x2="402.37" y2="197.439" gradientUnits="userSpaceOnUse">
<stop offset="0.00266617" stop-color="#5D2A93"/>
<stop offset="0.9987" stop-color="#8348B8"/>
</linearGradient>
<linearGradient id="paint40_linear_6593_3943" x1="317.039" y1="210.389" x2="402.37" y2="210.389" gradientUnits="userSpaceOnUse">
<stop offset="0.00266617" stop-color="#5D2A93"/>
<stop offset="0.9987" stop-color="#8348B8"/>
</linearGradient>
<linearGradient id="paint41_linear_6593_3943" x1="323.331" y1="94.189" x2="396.078" y2="94.189" gradientUnits="userSpaceOnUse">
<stop offset="0.00266617" stop-color="#5D2A93"/>
<stop offset="0.9987" stop-color="#8348B8"/>
</linearGradient>
<linearGradient id="paint42_linear_6593_3943" x1="328.642" y1="151.746" x2="390.764" y2="151.746" gradientUnits="userSpaceOnUse">
<stop offset="0.00266617" stop-color="#5D2A93"/>
<stop offset="0.9987" stop-color="#8348B8"/>
</linearGradient>
<linearGradient id="paint43_linear_6593_3943" x1="359.705" y1="94.1899" x2="396.079" y2="94.1899" gradientUnits="userSpaceOnUse">
<stop offset="0.00266617" stop-color="#5D2A93"/>
<stop offset="0.9987" stop-color="#8348B8"/>
</linearGradient>
<linearGradient id="paint44_linear_6593_3943" x1="359.704" y1="106.052" x2="402.37" y2="106.052" gradientUnits="userSpaceOnUse">
<stop offset="0.00266617" stop-color="#5D2A93"/>
<stop offset="0.9987" stop-color="#8348B8"/>
</linearGradient>
<linearGradient id="paint45_linear_6593_3943" x1="359.704" y1="151.746" x2="390.765" y2="151.746" gradientUnits="userSpaceOnUse">
<stop offset="0.00266617" stop-color="#5D2A93"/>
<stop offset="0.9987" stop-color="#8348B8"/>
</linearGradient>
<linearGradient id="paint46_linear_6593_3943" x1="359.704" y1="197.44" x2="402.37" y2="197.44" gradientUnits="userSpaceOnUse">
<stop offset="0.00266617" stop-color="#5D2A93"/>
<stop offset="0.9987" stop-color="#8348B8"/>
</linearGradient>
<linearGradient id="paint47_linear_6593_3943" x1="359.704" y1="210.389" x2="402.37" y2="210.389" gradientUnits="userSpaceOnUse">
<stop offset="0.00266617" stop-color="#5D2A93"/>
<stop offset="0.9987" stop-color="#8348B8"/>
</linearGradient>
<linearGradient id="paint48_linear_6593_3943" x1="277.506" y1="286.441" x2="285.22" y2="295.633" gradientUnits="userSpaceOnUse">
<stop offset="0.00266617" stop-color="#5D2A93"/>
<stop offset="0.9987" stop-color="#8348B8"/>
</linearGradient>
<linearGradient id="paint49_linear_6593_3943" x1="281.515" y1="291.342" x2="284.377" y2="294.752" gradientUnits="userSpaceOnUse">
<stop offset="0.00266617" stop-color="#5D2A93"/>
<stop offset="1" stop-color="#8348B8"/>
</linearGradient>
<linearGradient id="paint50_linear_6593_3943" x1="319.957" y1="240.835" x2="340.007" y2="264.727" gradientUnits="userSpaceOnUse">
<stop offset="0.00266617" stop-color="#3F47AF"/>
<stop offset="0.9973" stop-color="#6265D7"/>
</linearGradient>
<linearGradient id="paint51_linear_6593_3943" x1="306.153" y1="238.972" x2="332.135" y2="238.972" gradientUnits="userSpaceOnUse">
<stop offset="0.00266617" stop-color="#5D2A93"/>
<stop offset="0.9987" stop-color="#8348B8"/>
</linearGradient>
<linearGradient id="paint52_linear_6593_3943" x1="296.428" y1="234.122" x2="334.246" y2="234.122" gradientUnits="userSpaceOnUse">
<stop offset="0.00266617" stop-color="#3F47AF"/>
<stop offset="0.9973" stop-color="#6265D7"/>
</linearGradient>
<linearGradient id="paint53_linear_6593_3943" x1="327.827" y1="266.592" x2="353.809" y2="266.592" gradientUnits="userSpaceOnUse">
<stop offset="0.00266617" stop-color="#5D2A93"/>
<stop offset="0.9987" stop-color="#8348B8"/>
</linearGradient>
<linearGradient id="paint54_linear_6593_3943" x1="325.716" y1="271.442" x2="363.533" y2="271.442" gradientUnits="userSpaceOnUse">
<stop offset="0.00266617" stop-color="#3F47AF"/>
<stop offset="0.9973" stop-color="#6265D7"/>
</linearGradient>
<linearGradient id="paint55_linear_6593_3943" x1="329.363" y1="252.316" x2="339.873" y2="264.841" gradientUnits="userSpaceOnUse">
<stop offset="0.00266617" stop-color="#3F47AF"/>
<stop offset="0.9973" stop-color="#6265D7"/>
</linearGradient>
<linearGradient id="paint56_linear_6593_3943" x1="311.044" y1="310.829" x2="386.463" y2="310.829" gradientUnits="userSpaceOnUse">
<stop offset="0.00266617" stop-color="#3F47AF"/>
<stop offset="0.9973" stop-color="#6265D7"/>
</linearGradient>
<linearGradient id="paint57_linear_6593_3943" x1="348.752" y1="310.829" x2="386.462" y2="310.829" gradientUnits="userSpaceOnUse">
<stop offset="0.00266617" stop-color="#3F47AF"/>
<stop offset="0.9973" stop-color="#6265D7"/>
</linearGradient>
</defs>
</svg>