<svg width="518" height="340" viewBox="0 0 518 340" fill="none" xmlns="http://www.w3.org/2000/svg">
<path d="M138.125 297.57H110.722V340H90.643V297.57H0.857422V279.259L88.4963 154.367H110.722V278.501H138.125V297.57ZM90.643 278.501V217.129C90.643 205.09 91.064 191.494 91.9058 176.34H90.8956C86.8546 184.422 83.0662 191.115 79.5303 196.419L21.82 278.501H90.643Z" fill="#111111"/>
<path d="M517.14 297.57H489.737V340H469.659V297.57H379.873V279.259L467.512 154.367H489.737V278.501H517.14V297.57ZM469.659 278.501V217.129C469.659 205.09 470.08 191.494 470.921 176.34H469.911C465.87 184.422 462.082 191.115 458.546 196.419L400.836 278.501H469.659Z" fill="#111111"/>
<rect x="133.514" y="152.721" width="257.508" height="56.8525" rx="28.4262" fill="#111111"/>
<ellipse cx="320.794" cy="181.704" rx="21.1803" ry="12.2623" fill="white"/>
<ellipse cx="203.745" cy="181.704" rx="21.1803" ry="12.2623" fill="white"/>
<path d="M144.66 99.2131C144.66 44.4192 189.079 0 243.873 0H283.873C336.893 0 379.873 42.9807 379.873 96V99.2131H144.66Z" fill="#111111"/>
<rect x="144.66" y="101.443" width="18.0933" height="42.3607" fill="#111111"/>
<rect x="203.465" y="101.443" width="19.2241" height="42.3607" fill="#111111"/>
<rect x="163.883" y="101.443" width="19.2241" height="42.3607" fill="#111111"/>
<rect x="223.818" y="101.443" width="18.0933" height="42.3607" fill="#111111"/>
<rect x="282.621" y="101.443" width="18.0933" height="42.3607" fill="#111111"/>
<rect x="341.426" y="101.443" width="18.0933" height="42.3607" fill="#111111"/>
<rect x="184.238" y="101.443" width="18.0933" height="42.3607" fill="#111111"/>
<rect x="243.043" y="101.443" width="19.2241" height="42.3607" fill="#111111"/>
<rect x="301.846" y="101.443" width="19.2241" height="42.3607" fill="#111111"/>
<rect x="360.648" y="101.443" width="19.2241" height="42.3607" fill="#111111"/>
<rect x="263.398" y="101.443" width="18.0933" height="42.3607" fill="#111111"/>
<rect x="322.199" y="101.443" width="18.0933" height="42.3607" fill="#111111"/>
<path d="M360.922 220.163C360.922 275.265 316.253 319.934 261.151 319.934C206.05 319.934 161.381 275.265 161.381 220.163L161.381 218.491L360.922 218.491L360.922 220.163Z" fill="#339F5E"/>
<ellipse cx="261.154" cy="260.295" rx="26.1967" ry="15.0195" fill="white"/>
</svg>