<svg width="20" height="20" viewBox="0 0 20 20" fill="none" xmlns="http://www.w3.org/2000/svg">
<g clip-path="url(#clip0_10067_10967)">
<path d="M6.66698 14.1686L10.0003 17.5019M10.0003 17.5019L13.3336 14.1686M10.0003 17.5019V10.0019M17.4003 15.0769C18.1248 14.5674 18.6681 13.8404 18.9514 13.0012C19.2347 12.162 19.2432 11.2544 18.9756 10.4101C18.7081 9.56576 18.1785 8.82864 17.4637 8.3057C16.7489 7.78276 15.886 7.5012 15.0003 7.5019H13.9503C13.6997 6.52512 13.2307 5.61794 12.5787 4.84863C11.9268 4.07932 11.1088 3.46795 10.1863 3.06053C9.26387 2.6531 8.26101 2.46025 7.25325 2.49649C6.24548 2.53274 5.25907 2.79712 4.36827 3.26975C3.47747 3.74238 2.7055 4.41094 2.11047 5.22509C1.51544 6.03924 1.11285 6.97777 0.933028 7.97002C0.753202 8.96228 0.800819 9.98239 1.07229 10.9536C1.34377 11.9248 1.83203 12.8217 2.50031 13.5769" stroke="#324A51" stroke-width="1.66667" stroke-linecap="round" stroke-linejoin="round"/>
</g>
<defs>
<clipPath id="clip0_10067_10967">
<rect width="20" height="20" fill="white"/>
</clipPath>
</defs>
</svg>
