<svg width="40" height="40" viewBox="0 0 40 40" fill="none" xmlns="http://www.w3.org/2000/svg">
<rect width="40" height="40" rx="20" fill="#339F5E" fill-opacity="0.08"/>
<path d="M21.6663 11.8926V15.3347C21.6663 15.8014 21.6663 16.0348 21.7572 16.213C21.8371 16.3698 21.9645 16.4973 22.1213 16.5772C22.2996 16.668 22.533 16.668 22.9997 16.668H26.4418M23.333 20.8346H16.6663M23.333 24.168H16.6663M18.333 17.5013H16.6663M21.6663 11.668H17.333C15.9329 11.668 15.2328 11.668 14.698 11.9405C14.2276 12.1801 13.8452 12.5626 13.6055 13.033C13.333 13.5678 13.333 14.2678 13.333 15.668V24.3346C13.333 25.7348 13.333 26.4348 13.6055 26.9696C13.8452 27.44 14.2276 27.8225 14.698 28.0622C15.2328 28.3346 15.9329 28.3346 17.333 28.3346H22.6663C24.0665 28.3346 24.7665 28.3346 25.3013 28.0622C25.7717 27.8225 26.1542 27.44 26.3939 26.9696C26.6663 26.4348 26.6663 25.7348 26.6663 24.3346V16.668L21.6663 11.668Z" stroke="#339F5E" stroke-width="1.66667" stroke-linecap="round" stroke-linejoin="round"/>
</svg>
