<svg width="40" height="40" viewBox="0 0 40 40" fill="none" xmlns="http://www.w3.org/2000/svg">
<rect width="40" height="40" rx="20" fill="#339F5E" fill-opacity="0.08"/>
<path d="M11.667 26.6654V14.9987C11.667 14.0782 12.4132 13.332 13.3337 13.332H15.9766C16.4187 13.332 16.8426 13.5076 17.1551 13.8202L17.8455 14.5105C18.1581 14.8231 18.582 14.9987 19.024 14.9987H25.0003C25.9208 14.9987 26.667 15.7449 26.667 16.6654V18.332M11.7475 26.3972L13.8107 19.5198C14.0222 18.8148 14.671 18.332 15.407 18.332H26.199C27.2833 18.332 28.0789 19.351 27.8159 20.4029L26.5659 25.4029C26.3805 26.1449 25.7138 26.6654 24.949 26.6654H11.947C11.8074 26.6654 11.7074 26.5308 11.7475 26.3972Z" stroke="#339F5E" stroke-width="1.66667" stroke-linecap="round"/>
</svg>
