<svg width="16" height="16" viewBox="0 0 16 16" fill="none" xmlns="http://www.w3.org/2000/svg">
<path d="M9.35312 11.75C9.54687 11.3094 9.9875 11 10.5 11C11.0125 11 11.4531 11.3094 11.6469 11.75H14C14.275 11.75 14.5 11.975 14.5 12.25C14.5 12.525 14.275 12.75 14 12.75H11.6469C11.4531 13.1906 11.0125 13.5 10.5 13.5C9.9875 13.5 9.54687 13.1906 9.35312 12.75H2C1.725 12.75 1.5 12.525 1.5 12.25C1.5 11.975 1.725 11.75 2 11.75H9.35312ZM4.35313 7.5C4.54688 7.05937 4.9875 6.75 5.5 6.75C6.0125 6.75 6.45312 7.05937 6.64687 7.5H14C14.275 7.5 14.5 7.725 14.5 8C14.5 8.275 14.275 8.5 14 8.5H6.64687C6.45312 8.94063 6.0125 9.25 5.5 9.25C4.9875 9.25 4.54688 8.94063 4.35313 8.5H2C1.725 8.5 1.5 8.275 1.5 8C1.5 7.725 1.725 7.5 2 7.5H4.35313ZM9.35312 3.25C9.54687 2.80937 9.9875 2.5 10.5 2.5C11.0125 2.5 11.4531 2.80937 11.6469 3.25H14C14.275 3.25 14.5 3.475 14.5 3.75C14.5 4.025 14.275 4.25 14 4.25H11.6469C11.4531 4.69063 11.0125 5 10.5 5C9.9875 5 9.54687 4.69063 9.35312 4.25H2C1.725 4.25 1.5 4.025 1.5 3.75C1.5 3.475 1.725 3.25 2 3.25H9.35312Z" fill="#768F97"/>
</svg>
