<svg width="158" height="111" viewBox="0 0 158 111" fill="none" xmlns="http://www.w3.org/2000/svg">
<g filter="url(#filter0_d_6461_604)">
<rect x="19" y="11" width="120" height="76" rx="16" fill="white"/>
<path d="M74.7539 70.7463C70.9053 69.9504 67.3142 68.1754 64.495 65.6754C57.2572 59.2571 55.0204 49.1743 58.8439 40.2031C59.7829 37.9999 61.3094 35.7639 63.2007 33.8214L64.8682 32.1089L64.9859 42.1321C65.0984 51.7263 65.1239 52.2094 65.5781 53.4184C66.4876 55.8373 67.4623 57.377 69.1405 59.0457C73.4754 63.3563 79.834 64.4323 85.2396 61.7696C90.3201 59.267 93.523 53.825 93.1509 48.3281C92.9008 44.6358 91.6571 41.9284 88.9724 39.2307C86.9419 37.1909 84.5533 35.8583 81.953 35.3151C79.307 34.7624 79.4341 34.6817 79.4341 36.9177V38.8482L80.8845 39.1151C86.5021 40.1486 90.2174 45.6565 89.0464 51.2152C88.6725 52.9904 87.8382 54.5583 86.4992 56.0024C84.4644 58.1969 81.6014 59.2458 79.1016 59.2412C74.9679 59.2331 71.5164 56.8879 69.8436 53.4195C69.8436 53.4195 69.4055 52.4284 69.2645 51.8156C68.4363 48.2131 68.9659 40.6296 68.9659 40.6296L68.9018 29.5409L69.5573 29.2023C69.9179 29.0162 70.2637 28.8638 70.3259 28.8638C70.3879 28.8638 70.4668 33.9569 70.5012 40.1817C70.5012 40.1817 69.705 48.3415 70.6887 51.4685C70.8306 51.9197 71.1002 52.6915 71.1002 52.6915C71.9626 54.4459 73.3449 55.9891 75.141 56.8385C76.5042 57.4832 77.1907 57.7752 79.2076 57.7752C80.5255 57.7752 81.693 57.3597 83.0363 56.7429C84.6199 56.0157 86.4364 54.0877 87.1077 52.3273C88.9572 47.4771 86.3818 42.2589 81.4205 40.8039C79.3929 40.2092 79.4343 40.1766 79.4343 42.3781V44.3009L80.4074 44.561C83.9159 45.4979 84.9864 50.1932 82.2322 52.6057C81.2591 53.4582 80.3823 53.8348 78.8486 53.8348C77.2095 53.8348 75.6364 52.8443 74.8275 51.3252C74.3417 50.4126 74.3008 49.5472 74.3008 49.1504C74.3008 45.4885 74.2212 38.902 74.2212 38.902L74.1555 27.6045L74.6593 27.4796C74.9362 27.4105 76.0561 27.2406 77.1473 27.1015C80.849 26.63 86.3253 27.8394 90.0045 29.9413C95.0204 32.8068 98.8156 37.7293 100.396 43.4191C100.94 45.3763 101 45.9451 101 49.0936C101 52.2278 100.938 52.8159 100.406 54.73C98.2568 62.4631 92.7895 67.991 84.9721 70.3355C83.3267 70.8291 82.5562 70.9232 79.6531 70.9851C77.3103 71.0349 75.7917 70.961 74.7539 70.7463Z" fill="#C60C30"/>
</g>
<defs>
<filter id="filter0_d_6461_604" x="0" y="0" width="158" height="114" filterUnits="userSpaceOnUse" color-interpolation-filters="sRGB">
<feFlood flood-opacity="0" result="BackgroundImageFix"/>
<feColorMatrix in="SourceAlpha" type="matrix" values="0 0 0 0 0 0 0 0 0 0 0 0 0 0 0 0 0 0 127 0" result="hardAlpha"/>
<feMorphology radius="11" operator="erode" in="SourceAlpha" result="effect1_dropShadow_6461_604"/>
<feOffset dy="8"/>
<feGaussianBlur stdDeviation="15"/>
<feComposite in2="hardAlpha" operator="out"/>
<feColorMatrix type="matrix" values="0 0 0 0 0 0 0 0 0 0 0 0 0 0 0 0 0 0 0.15 0"/>
<feBlend mode="normal" in2="BackgroundImageFix" result="effect1_dropShadow_6461_604"/>
<feBlend mode="normal" in="SourceGraphic" in2="effect1_dropShadow_6461_604" result="shape"/>
</filter>
</defs>
</svg>