<svg width="254" height="111" viewBox="0 0 254 111" fill="none" xmlns="http://www.w3.org/2000/svg">
<g filter="url(#filter0_d_6461_616)">
<rect x="19" y="11" width="216" height="76" rx="16" fill="white"/>
<path d="M105.25 51.3761L104.367 53.8989H104.294C104.147 53.33 103.877 52.4643 103.436 51.4256L98.7061 39.43H94.0742V58.5487H97.1376V46.751C97.1376 46.009 97.1376 45.1681 97.1131 44.1293C97.0886 43.6099 97.0396 43.2141 97.0151 42.9173H97.0886C97.2357 43.6593 97.4072 44.2035 97.5297 44.5497L103.215 58.4992H105.372L111.009 44.4261C111.131 44.1045 111.254 43.4615 111.376 42.9173H111.45C111.376 44.3271 111.327 45.5885 111.303 46.3552V58.4745H114.562V39.3805H110.102L105.25 51.3761ZM117.65 44.7723H120.836V58.4745H117.65V44.7723ZM119.268 38.9848C118.729 38.9848 118.287 39.1826 117.92 39.5289C117.552 39.8752 117.356 40.3204 117.356 40.8645C117.356 41.3839 117.552 41.8291 117.92 42.1753C118.287 42.5216 118.729 42.6947 119.268 42.6947C119.807 42.6947 120.272 42.4969 120.616 42.1753C120.983 41.8291 121.179 41.3839 121.179 40.8645C121.179 40.3451 120.983 39.8999 120.616 39.5289C120.297 39.1826 119.831 38.9848 119.268 38.9848ZM132.134 44.6487C131.546 44.525 130.933 44.4508 130.345 44.4508C128.899 44.4508 127.576 44.7723 126.473 45.4154C125.37 46.0585 124.488 46.9488 123.924 48.0618C123.336 49.1996 123.042 50.5104 123.042 52.0191C123.042 53.33 123.336 54.4925 123.9 55.556C124.463 56.5948 125.247 57.4357 126.301 58.0046C127.306 58.5734 128.482 58.8702 129.806 58.8702C131.325 58.8702 132.624 58.5487 133.653 57.9551L133.678 57.9304V54.9624L133.555 55.0613C133.09 55.4076 132.551 55.7044 132.011 55.8775C131.448 56.0754 130.933 56.1743 130.492 56.1743C129.218 56.1743 128.213 55.8033 127.502 54.9871C126.767 54.1957 126.399 53.1074 126.399 51.7471C126.399 50.3373 126.767 49.2243 127.527 48.4081C128.286 47.5919 129.291 47.1714 130.517 47.1714C131.546 47.1714 132.6 47.5177 133.555 48.2102L133.678 48.3092V45.1681L133.653 45.1433C133.237 44.9702 132.771 44.7723 132.134 44.6487ZM142.648 44.5497C141.863 44.5497 141.128 44.7971 140.491 45.3165C139.952 45.7617 139.584 46.4047 139.266 47.1714H139.241V44.7723H136.055V58.4745H139.241V51.475C139.241 50.2878 139.486 49.2985 140.025 48.5812C140.565 47.8392 141.251 47.4682 142.084 47.4682C142.378 47.4682 142.672 47.5424 143.04 47.5919C143.383 47.6908 143.628 47.7898 143.799 47.9134L143.922 48.0124V44.7971L143.849 44.7723C143.628 44.6239 143.187 44.5497 142.648 44.5497ZM151.323 44.4755C149.093 44.4755 147.304 45.1433 146.054 46.4542C144.78 47.765 144.167 49.5706 144.167 51.846C144.167 53.9731 144.804 55.7044 146.03 56.9658C147.255 58.2024 148.922 58.8455 151.005 58.8455C153.186 58.8455 154.926 58.1777 156.176 56.8421C157.45 55.5065 158.063 53.7257 158.063 51.5245C158.063 49.348 157.475 47.6166 156.274 46.3552C155.122 45.0939 153.431 44.4755 151.323 44.4755ZM153.872 55.0119C153.284 55.7786 152.353 56.1496 151.201 56.1496C150.049 56.1496 149.118 55.7786 148.456 54.9624C147.794 54.1957 147.476 53.0827 147.476 51.6729C147.476 50.2136 147.819 49.1006 148.456 48.3092C149.118 47.5177 150.024 47.122 151.176 47.122C152.304 47.122 153.186 47.493 153.823 48.2597C154.46 49.0264 154.803 50.1394 154.803 51.5987C154.754 53.0827 154.485 54.2451 153.872 55.0119ZM165.17 50.461C164.165 50.0405 163.528 49.719 163.234 49.4469C162.989 49.1996 162.866 48.8533 162.866 48.4081C162.866 48.0371 163.013 47.6661 163.381 47.4188C163.748 47.1714 164.165 47.0478 164.778 47.0478C165.317 47.0478 165.881 47.1467 166.42 47.2951C166.959 47.4435 167.449 47.6661 167.841 47.9629L167.964 48.0618V45.0444L167.89 45.0197C167.523 44.8713 167.032 44.7229 166.444 44.5992C165.856 44.5003 165.317 44.4508 164.876 44.4508C163.356 44.4508 162.106 44.8218 161.126 45.638C160.146 46.4047 159.68 47.4435 159.68 48.6554C159.68 49.2985 159.778 49.8674 159.999 50.3373C160.219 50.8072 160.538 51.2524 160.979 51.6234C161.42 51.9697 162.057 52.3654 162.94 52.7364C163.675 53.0579 164.239 53.3053 164.582 53.5031C164.925 53.701 165.145 53.9236 165.317 54.0967C165.439 54.2946 165.513 54.5419 165.513 54.8635C165.513 55.7786 164.827 56.2238 163.43 56.2238C162.891 56.2238 162.327 56.1249 161.665 55.9023C161.004 55.6797 160.391 55.3581 159.876 54.9871L159.754 54.8882V58.0293L159.827 58.054C160.293 58.2766 160.857 58.425 161.543 58.5982C162.229 58.7218 162.842 58.8208 163.381 58.8208C165.023 58.8208 166.371 58.4498 167.326 57.6336C168.307 56.8421 168.821 55.8281 168.821 54.5172C168.821 53.6021 168.576 52.7859 168.037 52.1675C167.326 51.5739 166.444 50.9556 165.17 50.461ZM177.227 44.4755C174.997 44.4755 173.208 45.1433 171.958 46.4542C170.708 47.765 170.071 49.5706 170.071 51.846C170.071 53.9731 170.708 55.7044 171.934 56.9658C173.159 58.2024 174.826 58.8455 176.909 58.8455C179.09 58.8455 180.83 58.1777 182.08 56.8421C183.354 55.5065 183.967 53.7257 183.967 51.5245C183.967 49.348 183.379 47.6166 182.178 46.3552C181.026 45.0939 179.335 44.4755 177.227 44.4755ZM179.752 55.0119C179.163 55.7786 178.232 56.1496 177.08 56.1496C175.904 56.1496 174.997 55.7786 174.336 54.9624C173.674 54.1957 173.355 53.0827 173.355 51.6729C173.355 50.2136 173.698 49.1006 174.336 48.3092C174.997 47.5177 175.904 47.122 177.056 47.122C178.159 47.122 179.065 47.493 179.703 48.2597C180.34 49.0264 180.683 50.1394 180.683 51.5987C180.683 53.0827 180.364 54.2451 179.752 55.0119ZM200.999 47.4188V44.7723H197.789V40.7161L197.691 40.7408L194.652 41.6559L194.579 41.6807V44.7723H189.775V43.041C189.775 42.2495 189.971 41.6312 190.314 41.2355C190.657 40.8398 191.172 40.6419 191.809 40.6419C192.25 40.6419 192.716 40.7408 193.231 40.9634L193.353 41.0376V38.2428L193.28 38.218C192.839 38.0696 192.25 37.9707 191.491 37.9707C190.535 37.9707 189.702 38.1933 188.942 38.5643C188.182 38.9848 187.618 39.5536 187.202 40.3204C186.785 41.0623 186.565 41.9033 186.565 42.8679V44.7723H184.335V47.394H186.565V58.4745H189.775V47.4188H194.579V54.4677C194.579 57.3615 195.926 58.8208 198.622 58.8208C199.063 58.8208 199.529 58.7466 199.97 58.6724C200.436 58.5734 200.779 58.4498 200.975 58.3508L200.999 58.3261V55.6797L200.877 55.7786C200.681 55.9023 200.509 56.0012 200.215 56.0754C199.97 56.1496 199.75 56.1743 199.578 56.1743C198.941 56.1743 198.5 56.0259 198.181 55.6549C197.887 55.3087 197.74 54.7398 197.74 53.8989V47.4188H200.999Z" fill="#737373"/>
<path d="M53 33H68.023V48.1614H53V33Z" fill="#F25022"/>
<path d="M69.5918 33H84.6148V48.1614H69.5918V33Z" fill="#7FBA00"/>
<path d="M53 49.7441H68.023V64.9056H53V49.7441Z" fill="#00A4EF"/>
<path d="M69.5918 49.7441H84.6148V64.9056H69.5918V49.7441Z" fill="#FFB900"/>
</g>
<defs>
<filter id="filter0_d_6461_616" x="0" y="0" width="254" height="114" filterUnits="userSpaceOnUse" color-interpolation-filters="sRGB">
<feFlood flood-opacity="0" result="BackgroundImageFix"/>
<feColorMatrix in="SourceAlpha" type="matrix" values="0 0 0 0 0 0 0 0 0 0 0 0 0 0 0 0 0 0 127 0" result="hardAlpha"/>
<feMorphology radius="11" operator="erode" in="SourceAlpha" result="effect1_dropShadow_6461_616"/>
<feOffset dy="8"/>
<feGaussianBlur stdDeviation="15"/>
<feComposite in2="hardAlpha" operator="out"/>
<feColorMatrix type="matrix" values="0 0 0 0 0 0 0 0 0 0 0 0 0 0 0 0 0 0 0.15 0"/>
<feBlend mode="normal" in2="BackgroundImageFix" result="effect1_dropShadow_6461_616"/>
<feBlend mode="normal" in="SourceGraphic" in2="effect1_dropShadow_6461_616" result="shape"/>
</filter>
</defs>
</svg>