<svg width="289" height="111" viewBox="0 0 289 111" fill="none" xmlns="http://www.w3.org/2000/svg">
<g filter="url(#filter0_d_6461_639)">
<rect x="12" y="11" width="258" height="76" rx="16" fill="white"/>
<path d="M48.4438 48.9592L46.5322 54.8677H44L50.405 36.0996H53.2848L59.6897 54.8429H57.1079L55.097 48.9344H48.4438V48.9592ZM54.6005 47.0973L52.7882 41.7102C52.391 40.4937 52.0931 39.3518 51.82 38.2843H51.7207C51.4725 39.4014 51.1746 40.5434 50.8022 41.6605L48.9899 47.0973H54.6005Z" fill="#00AAF2"/>
<path d="M71.5796 54.3966C70.3631 54.9428 69.0474 55.1911 67.7068 55.1911C63.6851 55.1911 61.0039 52.4106 61.0039 48.3392C61.0039 44.2678 63.8837 41.1895 68.2033 41.1895C69.3701 41.1895 70.5121 41.3881 71.5796 41.8846L71.0334 43.7465C70.1645 43.2996 69.1715 43.101 68.1537 43.101C65.0753 43.101 63.412 45.4098 63.412 48.1903C63.412 51.3183 65.4229 53.2298 68.104 53.2298C69.1219 53.2298 70.1645 53.0312 71.0831 52.5844L71.5796 54.3966Z" fill="#00AAF2"/>
<path d="M77.7892 37.5645V41.4372H81.2648V43.2495H77.7892V50.4986C77.7892 52.1619 78.236 53.1301 79.6014 53.1301C80.0483 53.1301 80.5696 53.0804 81.0165 52.9811L81.1158 54.7934C80.6689 55.0416 79.8993 55.1409 78.9063 55.1409C77.8885 55.1906 76.9451 54.7934 76.2748 54.1231C75.6293 53.3287 75.3563 52.2115 75.3563 50.5979V43.2495H73.2461V41.4372H75.3066V38.1603L77.7892 37.5645Z" fill="#00AAF2"/>
<path d="M86.7513 37.6617C86.7513 38.4561 86.1555 39.1264 85.3362 39.176H85.2369C84.4425 39.176 83.7722 38.5802 83.7722 37.8106V37.7113C83.7226 36.9169 84.368 36.197 85.1873 36.197H85.2866C86.1058 36.0977 86.7513 36.7928 86.7513 37.6617C86.7513 37.612 86.7513 37.612 86.7513 37.6617ZM84.0453 54.8906V41.4352H86.4534V54.841H84.0453V54.8906Z" fill="#00AAF2"/>
<path d="M91.4906 41.4355L94.1221 49.0073C94.569 50.2238 94.9165 51.3658 95.2393 52.4829H95.3386C95.6365 51.3658 96.0337 50.2238 96.4557 49.0073L99.0872 41.4355H101.669L96.3813 54.8413H94.0228L88.9336 41.4355H91.4906Z" fill="#00AAF2"/>
<path d="M104.997 48.5869C105.046 51.9135 107.156 53.2789 109.589 53.2789C111.352 53.2789 112.469 52.981 113.313 52.5838L113.71 54.3464C112.295 54.9422 110.781 55.265 109.217 55.2153C105.096 55.2153 102.613 52.4349 102.613 48.4131C102.613 44.3417 104.972 41.1641 108.969 41.1641C113.363 41.1641 114.505 44.9872 114.505 47.4698C114.505 47.867 114.455 48.2145 114.405 48.6366H104.997V48.5869ZM112.146 46.8243C112.196 45.3099 111.501 42.9019 108.77 42.9019C106.312 42.9019 105.195 45.161 104.997 46.8243H112.146Z" fill="#00AAF2"/>
<path d="M123.491 36.3972C125.204 36.149 126.917 36 128.68 36C132.155 36 134.638 36.7944 136.251 38.3584C137.915 39.8728 138.883 42.0823 138.883 45.0613C138.883 48.1397 137.915 50.5974 136.152 52.36C134.389 54.1227 131.51 55.0908 127.885 55.0908C126.42 55.0908 124.906 55.0412 123.441 54.8426L123.491 36.3972ZM125.974 52.9807C126.768 53.08 127.587 53.1296 128.382 53.1296C133.57 53.1296 136.4 50.2499 136.4 45.1606C136.45 40.7169 133.943 37.9612 128.829 37.9612C127.86 37.9612 126.917 38.0605 125.949 38.2095L125.974 52.9807Z" fill="#00AAF2"/>
<path d="M144.767 37.6617C144.767 38.4561 144.171 39.1264 143.352 39.176H143.253C142.458 39.176 141.788 38.5802 141.788 37.8106V37.7113C141.738 36.9169 142.384 36.197 143.203 36.197H143.302C144.072 36.0977 144.767 36.7928 144.767 37.6617C144.767 37.612 144.767 37.612 144.767 37.6617ZM142.011 54.8906V41.4352H144.419V54.841H142.011V54.8906Z" fill="#00AAF2"/>
<path d="M148.49 45.6321C148.49 44.0681 148.44 42.7027 148.391 41.4366H150.55L150.65 44.0681H150.749C151.395 42.2558 152.909 41.1387 154.523 41.1387C154.771 41.1387 154.969 41.1387 155.168 41.1883V43.4971C154.92 43.4474 154.671 43.3978 154.374 43.3978C152.611 43.3978 151.444 44.7136 151.097 46.5258C150.997 46.8734 150.997 47.2706 150.997 47.643V54.8424H148.589L148.49 45.6321Z" fill="#00AAF2"/>
<path d="M158.694 48.5869C158.743 51.9135 160.854 53.2789 163.287 53.2789C165.049 53.2789 166.166 52.981 167.01 52.5838L167.408 54.3464C165.993 54.9422 164.478 55.265 162.914 55.2153C158.793 55.2153 156.311 52.4349 156.311 48.4131C156.311 44.3417 158.669 41.1641 162.666 41.1641C167.06 41.1641 168.202 44.9872 168.202 47.4698C168.202 47.867 168.152 48.2145 168.103 48.6366H158.694V48.5869ZM165.844 46.8243C165.893 45.3099 165.198 42.9019 162.467 42.9019C160.01 42.9019 158.892 45.161 158.694 46.8243H165.844Z" fill="#00AAF2"/>
<path d="M180.814 54.3966C179.598 54.9428 178.282 55.1911 176.941 55.1911C172.919 55.1911 170.238 52.4106 170.238 48.3392C170.238 44.2678 173.118 41.1895 177.438 41.1895C178.604 41.1895 179.746 41.3881 180.814 41.8846L180.268 43.7465C179.399 43.2996 178.406 43.101 177.388 43.101C174.31 43.101 172.646 45.4098 172.646 48.1903C172.646 51.3183 174.657 53.2298 177.338 53.2298C178.356 53.2298 179.399 53.0312 180.317 52.5844L180.814 54.3966Z" fill="#00AAF2"/>
<path d="M187.021 37.5645V41.4372H190.496V43.2495H187.021V50.4986C187.021 52.1619 187.468 53.1301 188.833 53.1301C189.28 53.1301 189.801 53.0804 190.248 52.9811L190.347 54.7934C189.901 55.0416 189.131 55.1409 188.138 55.1409C187.12 55.1906 186.177 54.7934 185.506 54.1231C184.861 53.3287 184.588 52.2115 184.588 50.5979V43.2495H182.527V41.4372H184.588V38.1603L187.021 37.5645Z" fill="#00AAF2"/>
<path d="M205.267 48.1395C205.267 53.0798 201.642 55.1899 198.514 55.1899C194.989 55.1899 192.109 52.5584 192.109 48.1891C192.109 43.6957 195.188 41.1387 198.812 41.1387C202.586 41.1387 205.267 43.8198 205.267 48.1395ZM194.617 48.1891C194.617 50.9199 195.982 53.328 198.688 53.328C201.369 53.328 202.809 50.9199 202.809 48.1395C202.809 45.781 201.692 42.9013 198.688 42.9013C195.684 42.9013 194.617 45.781 194.617 48.1891Z" fill="#00AAF2"/>
<path d="M208.345 45.6321C208.345 44.0681 208.296 42.7027 208.246 41.4366H210.406L210.505 44.0681H210.605C211.25 42.2558 212.764 41.1387 214.378 41.1387C214.626 41.1387 214.825 41.1387 215.023 41.1883V43.4971C214.775 43.4474 214.527 43.3978 214.229 43.3978C212.466 43.3978 211.3 44.7136 210.952 46.5258C210.853 46.8734 210.853 47.2706 210.853 47.643V54.8424H208.445L208.345 45.6321Z" fill="#00AAF2"/>
<path d="M219.02 41.4355L221.95 49.3549C222.248 50.2238 222.595 51.2665 222.818 52.1354H222.868C223.116 51.3409 223.365 50.3231 223.737 49.3549L226.418 41.4355H229L225.326 51.0182C223.563 55.6109 222.396 58.019 220.733 59.4837C219.864 60.2285 218.871 60.7498 217.754 61.0477L217.158 58.9872C217.953 58.739 218.673 58.3417 219.318 57.7708C220.187 57.026 220.882 56.1074 221.329 55.0399C221.428 54.8413 221.528 54.6427 221.528 54.4441C221.528 54.1959 221.428 53.9973 221.329 53.7987L216.389 41.4604H219.02V41.4355Z" fill="#00AAF2"/>
</g>
<defs>
<filter id="filter0_d_6461_639" x="-7" y="0" width="296" height="114" filterUnits="userSpaceOnUse" color-interpolation-filters="sRGB">
<feFlood flood-opacity="0" result="BackgroundImageFix"/>
<feColorMatrix in="SourceAlpha" type="matrix" values="0 0 0 0 0 0 0 0 0 0 0 0 0 0 0 0 0 0 127 0" result="hardAlpha"/>
<feMorphology radius="11" operator="erode" in="SourceAlpha" result="effect1_dropShadow_6461_639"/>
<feOffset dy="8"/>
<feGaussianBlur stdDeviation="15"/>
<feComposite in2="hardAlpha" operator="out"/>
<feColorMatrix type="matrix" values="0 0 0 0 0 0 0 0 0 0 0 0 0 0 0 0 0 0 0.15 0"/>
<feBlend mode="normal" in2="BackgroundImageFix" result="effect1_dropShadow_6461_639"/>
<feBlend mode="normal" in="SourceGraphic" in2="effect1_dropShadow_6461_639" result="shape"/>
</filter>
</defs>
</svg>