<svg width="258" height="111" viewBox="0 0 258 111" fill="none" xmlns="http://www.w3.org/2000/svg">
<g filter="url(#filter0_d_6461_623)">
<rect x="19" y="11" width="220" height="76" rx="16" fill="white"/>
<path fill-rule="evenodd" clip-rule="evenodd" d="M172.172 42.2961C172.703 43.2059 172.877 44.2409 172.934 45.4046L173.01 46.9555V57.801L173.087 59.3536C173.241 61.8892 175.125 63.764 177.7 63.9235L179.256 64V46.9555L179.333 45.4046C179.397 44.2539 179.569 43.1993 180.109 42.2831C180.659 41.3433 181.448 40.5635 182.397 40.0222C183.347 39.4808 184.423 39.1969 185.518 39.1988C186.613 39.2008 187.688 39.4887 188.636 40.0334C189.583 40.5782 190.369 41.3608 190.916 42.3026C191.447 43.2124 191.613 44.267 191.677 45.4046L191.754 46.9507V57.801L191.831 59.3536C191.991 61.9022 193.861 63.777 196.444 63.9235L198 64V45.4046C198 42.1164 196.684 38.9628 194.342 36.6372C191.999 34.3117 188.822 33.0046 185.509 33.0033C183.736 33.0014 181.982 33.3751 180.366 34.0995C178.75 34.8239 177.308 35.8822 176.137 37.2038C174.965 35.8827 173.524 34.8247 171.908 34.1001C170.291 33.3755 168.538 33.001 166.765 33.0016C164.171 33.0016 161.763 33.7828 159.769 35.132C158.553 33.7844 155.83 33.0016 154.268 33.0016V64L155.83 63.9235C158.444 63.7526 160.333 61.9282 160.435 59.3536L160.519 57.801V46.9555L160.596 45.4046C160.661 44.2344 160.825 43.2059 161.358 42.2896C161.909 41.3504 162.697 40.5708 163.646 40.0288C164.595 39.4868 165.67 39.2012 166.765 39.2007C167.861 39.2009 168.937 39.487 169.886 40.0303C170.835 40.5736 171.623 41.355 172.172 42.2961ZM65.2463 63.9251L66.8091 64H90.2349L90.1578 62.4539C89.9463 59.9053 88.1277 58.0435 85.5514 57.8775L83.9886 57.801H69.9348L88.6721 39.199L88.595 37.6546C88.4737 35.0799 86.578 33.2197 83.9886 33.0781L82.4258 33.0081L59 33.0016L59.0771 34.5526C59.2821 37.0768 61.1269 38.9777 63.6819 39.1242L65.2463 39.2007H79.3001L60.5628 57.8026L60.6399 59.3536C60.794 61.9087 62.652 63.7591 65.2463 63.9235V63.9251ZM148.136 37.539C149.586 38.9782 150.737 40.6869 151.522 42.5675C152.307 44.448 152.711 46.4636 152.711 48.4992C152.711 50.5347 152.307 52.5504 151.522 54.4309C150.737 56.3115 149.586 58.0202 148.136 59.4594C145.206 62.3653 141.232 63.9976 137.09 63.9976C132.947 63.9976 128.974 62.3653 126.043 59.4594C119.945 53.4068 119.945 43.5916 126.043 37.539C127.493 36.1003 129.213 34.9589 131.107 34.1801C133 33.4013 135.03 33.0003 137.08 33C139.133 32.9986 141.166 33.3989 143.063 34.178C144.961 34.9571 146.684 36.0998 148.136 37.5406V37.539ZM143.716 41.9283C145.473 43.673 146.46 46.0385 146.46 48.5049C146.46 50.9713 145.473 53.3368 143.716 55.0815C141.959 56.8248 139.575 57.8041 137.09 57.8041C134.604 57.8041 132.221 56.8248 130.463 55.0815C128.706 53.3368 127.72 50.9713 127.72 48.5049C127.72 46.0385 128.706 43.673 130.463 41.9283C132.221 40.1849 134.604 39.2056 137.09 39.2056C139.575 39.2056 141.959 40.1849 143.716 41.9283ZM104.302 33C106.352 33.0005 108.382 33.4018 110.275 34.1809C112.169 34.96 113.889 36.1016 115.338 37.5406C121.439 43.5916 121.439 53.4084 115.338 59.4594C112.408 62.3653 108.435 63.9976 104.292 63.9976C100.149 63.9976 96.1762 62.3653 93.2457 59.4594C87.147 53.4068 87.147 43.5916 93.2457 37.539C94.6949 36.1003 96.4154 34.9589 98.3091 34.1801C100.203 33.4013 102.232 33.0003 104.282 33H104.302ZM110.919 41.925C112.676 43.6698 113.663 46.0356 113.663 48.5024C113.663 50.9693 112.676 53.3351 110.919 55.0799C109.161 56.8232 106.777 57.8025 104.292 57.8025C101.807 57.8025 99.4232 56.8232 97.6652 55.0799C95.9086 53.3352 94.9218 50.9697 94.9218 48.5033C94.9218 46.0368 95.9086 43.6713 97.6652 41.9267C99.4232 40.1833 101.807 39.204 104.292 39.204C106.777 39.204 109.161 40.1817 110.919 41.925Z" fill="#2D8CFF"/>
</g>
<defs>
<filter id="filter0_d_6461_623" x="0" y="0" width="258" height="114" filterUnits="userSpaceOnUse" color-interpolation-filters="sRGB">
<feFlood flood-opacity="0" result="BackgroundImageFix"/>
<feColorMatrix in="SourceAlpha" type="matrix" values="0 0 0 0 0 0 0 0 0 0 0 0 0 0 0 0 0 0 127 0" result="hardAlpha"/>
<feMorphology radius="11" operator="erode" in="SourceAlpha" result="effect1_dropShadow_6461_623"/>
<feOffset dy="8"/>
<feGaussianBlur stdDeviation="15"/>
<feComposite in2="hardAlpha" operator="out"/>
<feColorMatrix type="matrix" values="0 0 0 0 0 0 0 0 0 0 0 0 0 0 0 0 0 0 0.15 0"/>
<feBlend mode="normal" in2="BackgroundImageFix" result="effect1_dropShadow_6461_623"/>
<feBlend mode="normal" in="SourceGraphic" in2="effect1_dropShadow_6461_623" result="shape"/>
</filter>
</defs>
</svg>