<svg width="210" height="111" viewBox="0 0 210 111" fill="none" xmlns="http://www.w3.org/2000/svg">
<g filter="url(#filter0_d_6461_656)">
<rect x="19" y="11" width="172" height="76" rx="16" fill="white"/>
<path d="M76.4389 31.1953H69.9375V35.7746H76.4389V67.0113H81.047V31.1953H76.4389Z" fill="white"/>
<path d="M81.0456 31.0762H69.8164V35.8937H76.3174V67.1304H81.1653V31.0762H81.0456ZM80.9256 66.8918H76.5571V35.6555H70.0561V31.3144H80.9256V66.8918Z" fill="#1D1D1B"/>
<path d="M69.6088 38.5566H65V43.1359H69.6088V67.0132H74.217V38.5566H69.6088Z" fill="#312782"/>
<path d="M102.721 38.4434C100.65 38.4434 92.8809 40.2822 92.8809 48.7774C92.8809 53.7283 96.0794 56.6793 98.5657 57.9861C100.082 58.7411 101.912 58.7024 101.912 58.7024H143.847V53.7342H102.293C101.664 53.7342 100.797 53.5876 100.24 53.2042C99.1933 52.4844 97.8786 51.1393 97.8786 48.7774C97.8786 43.9454 102.517 43.4361 102.753 43.4136C103.399 43.4171 105.34 43.5343 106.617 44.8017C107.548 45.7261 108.02 47.1736 108.02 49.1044H113.02C113.02 45.8074 112.054 43.1772 110.15 41.2868C107.562 38.7161 104.392 38.4434 102.721 38.4434Z" fill="white"/>
<path d="M102.294 53.6143C101.72 53.6143 100.856 53.4809 100.311 53.1054C99.2572 52.3794 98.0009 51.0419 98.0009 48.7764C98.0009 44.0402 102.572 43.55 102.767 43.5313C103.485 43.5358 105.316 43.6751 106.535 44.8851C107.443 45.7864 107.903 47.2059 107.903 49.1028V49.2217H113.141V49.1028C113.141 45.7732 112.164 43.1147 110.237 41.2012C108.309 39.2877 105.784 38.3228 102.722 38.3228C101.73 38.3228 99.2488 38.7411 96.9573 40.3252C95.0428 41.6492 92.7617 44.1885 92.7617 48.7764C92.7617 54.6151 97.1622 57.3815 98.5106 58.0906C100.038 58.8511 101.839 58.8221 101.915 58.8204H143.968V53.6143H102.294ZM143.728 58.5822H101.911C101.891 58.5822 100.09 58.6109 98.6191 57.8786C97.3027 57.1872 93 54.482 93 48.7764C93 44.2915 95.2265 41.8117 97.0923 40.5215C99.1723 39.0834 101.597 38.5613 102.72 38.5613C105.717 38.5613 108.189 39.5065 110.066 41.3702C111.923 43.2143 112.872 45.7774 112.896 48.9842H108.138C108.119 47.0828 107.638 45.6443 106.703 44.7164C105.422 43.4442 103.516 43.299 102.756 43.2938C102.54 43.3138 97.7609 43.8262 97.7609 48.7764C97.7609 51.1452 99.0735 52.5447 100.174 53.3011C100.766 53.7076 101.656 53.8542 102.294 53.8542H143.728V58.5822ZM129.41 32.7299H130.384C130.613 32.7299 130.78 32.7769 130.886 32.8706C130.937 32.9152 130.978 32.9705 131.006 33.0326C131.033 33.0947 131.046 33.162 131.045 33.2298C131.045 33.328 131.017 33.4242 130.962 33.5064C130.905 33.5925 130.821 33.6573 130.723 33.6906C130.618 33.7293 130.472 33.7487 130.286 33.7487H129.409L129.41 32.7299ZM129.41 35.4655V34.0996H129.882C129.958 34.0975 130.034 34.1023 130.109 34.1141C130.175 34.131 130.238 34.159 130.295 34.1967C130.374 34.254 130.444 34.3235 130.502 34.4024C130.579 34.4999 130.678 34.641 130.797 34.8252L131.205 35.4641H131.716L131.182 34.6285C131.087 34.4782 130.974 34.3407 130.844 34.2196C130.769 34.1577 130.686 34.1063 130.597 34.0668C130.892 34.026 131.111 33.9308 131.252 33.7812C131.323 33.7074 131.378 33.6206 131.414 33.5257C131.451 33.4308 131.468 33.3296 131.465 33.2281C131.467 33.0648 131.423 32.9043 131.339 32.7645C131.261 32.6312 131.14 32.5279 130.996 32.4713C130.852 32.4162 130.644 32.3887 130.37 32.3887H129.004V35.4655H129.41Z" fill="#1D1D1B"/>
<path d="M127.238 33.9893C127.238 34.5748 127.413 35.1473 127.74 35.6341C128.068 36.121 128.533 36.5005 129.077 36.7246C129.622 36.9487 130.221 37.0073 130.799 36.893C131.377 36.7788 131.907 36.4967 132.324 36.0826C132.741 35.6685 133.024 35.141 133.139 34.5666C133.254 33.9923 133.195 33.397 132.969 32.8561C132.744 32.3152 132.362 31.8529 131.872 31.5277C131.382 31.2025 130.805 31.0291 130.216 31.0293C129.427 31.0304 128.67 31.3426 128.111 31.8975C127.553 32.4524 127.239 33.2046 127.238 33.9893ZM127.659 33.9893C127.659 33.4865 127.809 32.995 128.09 32.577C128.372 32.1591 128.771 31.8334 129.239 31.6411C129.706 31.4489 130.221 31.3987 130.717 31.497C131.213 31.5953 131.669 31.8375 132.027 32.1932C132.384 32.5489 132.628 33.0019 132.726 33.4951C132.825 33.9883 132.774 34.4995 132.58 34.9639C132.386 35.4284 132.058 35.8254 131.638 36.1046C131.217 36.3838 130.722 36.5328 130.216 36.5327C129.538 36.5319 128.887 36.2637 128.408 35.7869C127.928 35.31 127.658 34.6635 127.658 33.9893H127.659Z" fill="#1D1D1B"/>
<path d="M100.72 61.3368C99.2809 61.146 90.2117 59.4963 90.2117 48.3661C90.2117 36.11 102.866 35.9153 103.593 35.9153C104.426 35.9153 115.427 36.3326 115.57 49.1014H120.569C120.43 34.3396 107.975 31 103.592 31C98.4804 31 85.2129 34.1197 85.2129 48.3661C85.2129 61.2539 95.0676 65.726 100.279 66.2898L100.412 66.3044L143.992 66.3735L144.001 61.4053L100.72 61.3368Z" fill="#312782"/>
</g>
<defs>
<filter id="filter0_d_6461_656" x="0" y="0" width="210" height="114" filterUnits="userSpaceOnUse" color-interpolation-filters="sRGB">
<feFlood flood-opacity="0" result="BackgroundImageFix"/>
<feColorMatrix in="SourceAlpha" type="matrix" values="0 0 0 0 0 0 0 0 0 0 0 0 0 0 0 0 0 0 127 0" result="hardAlpha"/>
<feMorphology radius="11" operator="erode" in="SourceAlpha" result="effect1_dropShadow_6461_656"/>
<feOffset dy="8"/>
<feGaussianBlur stdDeviation="15"/>
<feComposite in2="hardAlpha" operator="out"/>
<feColorMatrix type="matrix" values="0 0 0 0 0 0 0 0 0 0 0 0 0 0 0 0 0 0 0.15 0"/>
<feBlend mode="normal" in2="BackgroundImageFix" result="effect1_dropShadow_6461_656"/>
<feBlend mode="normal" in="SourceGraphic" in2="effect1_dropShadow_6461_656" result="shape"/>
</filter>
</defs>
</svg>