<svg width="61" height="60" viewBox="0 0 61 60" fill="none" xmlns="http://www.w3.org/2000/svg">
<rect x="0.5" width="60" height="60" rx="30" fill="#339F5E"/>
<path fill-rule="evenodd" clip-rule="evenodd" d="M27.3283 30.1406L22.6705 31.6767L21 41.7549H28.7756L27.3283 30.1406ZM26.2558 23.2084C26.2558 20.873 28.1746 19 30.5 19C32.8254 19 34.7442 20.873 34.7442 23.2084V25.4613C34.7442 27.7194 32.9014 30.2598 30.5 30.2598C28.0983 30.2598 26.2558 27.7196 26.2558 25.4613V23.2084ZM33.3357 22.9473L32.2168 22.2703C32.2168 22.2703 29.5197 23.6846 27.6523 24.0209V25.4613C27.6523 26.9452 28.8773 28.8634 30.5 28.8634C32.1224 28.8634 33.3477 26.9449 33.3477 25.4613C33.3477 24.6773 33.405 23.7092 33.3357 22.9473ZM31.1234 32.5414L31.9088 39.1571L30.5 40.5908L29.0912 39.1571L29.8766 32.5414L29.2529 31.3008H31.7471L31.1234 32.5414ZM32.2244 41.7549H40L38.3295 31.6767L33.6717 30.1406L32.2244 41.7549Z" fill="white"/>
</svg>