<svg width="61" height="60" viewBox="0 0 61 60" fill="none" xmlns="http://www.w3.org/2000/svg">
<rect x="0.5" width="60" height="60" rx="30" fill="#339F5E"/>
<path d="M25.1553 23.8382C25.3837 23.4293 25.7553 22.7435 26.0617 22.078C26.0617 22.078 26.0617 22.078 26.0617 22.0755C26.2603 21.6636 26.6113 20.836 26.609 20.4779C26.609 19.6651 25.9562 19.0047 25.1553 19.0047C24.3543 19.0047 23.7015 19.6651 23.7015 20.4779C23.7015 20.9376 24.2237 22.1542 25.0975 23.7315C25.1144 23.7685 25.1385 23.8043 25.1553 23.8382ZM25.1553 19.7463C26.2956 19.7762 26.2929 21.4622 25.1553 21.4913C24.0209 21.4614 24.0186 19.7767 25.1553 19.7463ZM24.7962 20.6175C24.804 20.1388 25.5096 20.1414 25.5168 20.6175C25.5101 21.0974 24.8034 21.0998 24.7962 20.6175ZM26.7044 22.1796C26.4383 21.6615 27.3372 20.9325 27.7063 20.6582C29.8982 19.0072 32.9162 18.5475 35.4923 19.4669C34.5246 19.9425 34.417 21.3779 35.299 21.9993C34.3675 21.5167 33.1547 21.6513 32.3463 22.3269C32.0148 22.6038 31.6734 22.9873 31.249 22.9187C30.8749 22.8578 30.6565 22.4717 30.3627 22.2279C30.0087 21.9383 29.5015 21.857 29.0772 22.0247C28.801 22.1314 28.57 22.3295 28.3013 22.4489C27.9147 22.6216 26.9455 22.652 26.7044 22.1796ZM35.7786 29.2051C36.2682 28.1587 36.341 27.7294 36.341 27.5668C36.341 26.7566 35.6882 26.0962 34.8897 26.0962C34.0863 26.0962 33.4335 26.7566 33.4335 27.5668C33.5463 28.5493 34.4368 30.0701 34.8897 30.9297C35.1628 30.4262 35.4721 29.8639 35.7786 29.2051ZM34.8898 26.8379C36.0253 26.8685 36.025 28.5499 34.8897 28.5803C33.7507 28.5504 33.7509 26.8676 34.8898 26.8379ZM34.5282 27.7091C34.5354 27.2329 35.241 27.2304 35.2488 27.7091C35.241 28.1879 34.5353 28.1852 34.5282 27.7091ZM37.5914 24.5443C38.3146 24.0583 39.5532 24.2286 39.9516 23.3099C40.63 24.3407 41.0008 25.7558 40.991 26.9776C40.9584 27.0385 40.8856 27.0639 40.8203 27.0843C40.4227 27.2209 39.8769 27.3352 39.5775 26.9573C39.4092 26.7363 39.4268 26.4264 39.4042 26.147C39.2569 24.7321 38.0298 25.3946 37.1872 25.7305C36.9536 25.3342 37.2097 24.7983 37.5914 24.5443ZM40.5466 30.2109C39.6935 32.6801 37.6241 34.689 35.1483 35.4458C35.0823 34.7389 34.2073 34.697 33.667 34.8311C33.6067 34.1123 33.2401 33.4265 32.6802 32.982C32.1284 32.5495 31.3028 32.2732 31.1084 31.5216C31.003 31.0898 31.1863 30.6427 31.2465 30.2008C31.4131 28.959 30.6417 27.8159 29.8128 26.9674C29.7225 26.8709 29.3559 26.6093 29.3408 26.4823C29.3157 26.274 29.6095 26.302 29.7601 26.302C30.5083 26.3045 31.2541 26.7541 31.5754 27.4424C31.7512 27.8234 31.814 28.2653 32.0927 28.5778C32.3814 28.8978 32.8811 29.0019 33.2702 28.819C33.6745 29.741 34.1315 30.6402 34.6412 31.5063C34.6864 31.58 34.7366 31.6587 34.8169 31.6892C34.9801 31.7451 35.1207 31.5647 35.2036 31.4123C35.4999 30.8561 35.7961 30.2998 36.0924 29.7461C37.2736 30.9037 39.0941 30.6276 40.5466 30.2109ZM21.9364 29.1645C22.0638 27.1745 24.0146 25.849 25.8232 26.7998C26.1639 27.0323 26.5345 27.1586 26.9354 27.2366C28.0782 27.5479 28.7216 28.9241 28.2386 30.0154C27.9949 29.2296 26.7661 29.5821 26.3856 28.9384C26.2525 28.7175 26.1721 28.3568 25.916 28.3923C25.803 28.4076 25.7202 28.5092 25.6474 28.6006C25.2507 29.0781 24.6857 29.4134 24.0781 29.5277C23.3963 29.6507 22.4749 29.5461 22.072 30.2414C22.1498 30.0992 21.9138 29.388 21.9364 29.1645ZM40.9961 27.5313C41.0212 28.2425 40.9258 28.9562 40.7149 29.6344C39.2968 30.0818 37.4534 30.4635 36.3109 29.2559C36.5971 28.6768 36.8658 28.052 36.8206 27.4068C36.7377 26.2689 35.5099 25.3673 34.4152 25.6416C33.3205 25.9159 32.6501 27.2925 33.102 28.339C32.8761 28.4838 32.5597 28.3492 32.399 28.1307C32.2383 27.9123 32.1806 27.638 32.0851 27.384C31.6935 26.3502 30.556 25.6619 29.4714 25.8016C29.2203 25.8346 28.9441 25.9337 28.8386 26.1673C28.688 26.4975 28.9642 26.8582 29.2203 27.1147C29.9283 27.8234 30.6941 28.6209 30.7494 29.6267C30.7871 30.3532 30.4405 31.0999 30.6691 31.7908C31.0735 33.0452 33.2024 33.3182 33.1397 34.8057C31.9872 34.8083 30.8373 34.8108 29.6873 34.8159C28.7826 34.8984 28.0412 34.514 27.4075 33.8786C27.8469 33.4595 28.1758 32.9236 28.354 32.3394C28.3942 32.2048 28.4294 32.0651 28.5122 31.9534C28.6152 31.8111 28.7809 31.7324 28.909 31.613C29.2956 31.2523 29.2002 30.5081 28.7357 30.2592C29.0696 29.2051 28.8286 27.9275 27.9799 27.229C27.5481 26.876 27.0082 26.6956 26.481 26.5204C26.3996 26.3467 24.8035 26.0703 24.6255 25.8499C24.5351 25.7406 24.5979 25.6162 24.6531 25.4053C24.741 25.0853 24.8289 24.7653 24.9167 24.4427C24.9418 24.5799 25.1276 24.6281 25.2507 24.5672C25.3737 24.5062 25.444 24.3767 25.5093 24.2522C25.8055 23.696 26.1044 23.1372 26.4006 22.5784C26.9455 23.0915 27.8092 23.2286 28.4846 22.9086C28.8587 22.7308 29.2128 22.4209 29.622 22.4666C30.1894 22.5276 30.4858 23.2185 31.0256 23.4013C31.4775 23.5537 31.9646 23.3099 32.3438 23.0153C33.4469 22.0043 34.054 21.9916 35.3945 22.6165C35.5325 22.6749 35.6857 22.7308 35.8288 22.6825C36.1075 22.586 36.11 22.1644 35.9418 21.918C35.771 21.6742 35.4974 21.5192 35.3342 21.2678C35.0002 20.7623 35.3366 19.9597 35.9267 19.8479C37.0487 19.6803 38.8884 21.684 39.5222 22.5529C39.671 22.718 39.6646 22.9471 39.5197 23.1169C39.0577 23.7417 38.1061 23.6502 37.4307 24.0287C36.7505 24.381 36.2065 25.5951 36.9184 26.1471C37.373 26.4086 37.8776 25.921 38.3823 25.7813C38.4777 25.7559 38.5857 25.7406 38.6761 25.7838C38.8995 25.8854 38.882 26.2029 38.8945 26.4518C38.9244 27.488 40.1476 28.1154 40.9961 27.5313ZM26.0516 34.6635C26.0993 34.8514 26.147 35.0419 26.1947 35.2299C26.2073 35.2731 26.1671 35.3137 26.0943 35.3467C25.8081 35.4763 25.0247 35.5296 24.9268 35.5194C24.7209 35.4966 24.4472 35.4509 24.2715 35.3289C24.0254 35.1562 24.176 34.9454 24.2463 34.6635C24.8314 34.8311 25.4666 34.8311 26.0516 34.6635ZM26.7321 33.777C25.2025 34.8124 22.9647 34.0415 22.4185 32.253C22.2063 31.6298 22.0823 30.7234 22.7122 30.3024C23.0135 30.0992 23.4052 30.1246 23.7668 30.0941C24.5652 30.0306 25.3361 29.6649 25.896 29.0883C26.0843 29.4591 26.4483 29.7385 26.8526 29.8198C27.0258 29.8553 27.2066 29.8579 27.3723 29.9214C27.7791 30.0763 27.9724 30.5487 28.0251 30.9856C28.1482 32.06 27.6284 33.1852 26.7321 33.777ZM25.6825 40.7416H34.3373L34.2947 40.9346H25.6399L25.6825 40.7416ZM34.6336 35.4458C34.6336 35.4483 34.6361 35.4509 34.6336 35.4534L34.5784 35.7582C34.5824 35.766 33.7797 40.2247 33.7799 40.2336H26.6843C26.8841 39.1115 27.3489 36.5027 27.5456 35.4102C27.5556 35.3543 27.6033 35.3137 27.6586 35.3137H28.6855L28.688 35.3162H34.5206C34.6077 35.3275 34.6316 35.3626 34.6336 35.4458ZM25.3059 40.3276C25.1578 40.48 25.208 40.7365 25.1251 40.9346C23.0911 40.8934 21.0288 41.0699 19.0012 40.9676C18.9811 40.6984 19.2171 40.2666 19.2824 39.9796C19.524 38.948 19.6293 37.7792 20.4123 36.9951C21.3056 36.1144 22.6757 36.1214 23.7517 35.588C24.4246 36.0909 25.3712 36.1874 26.1269 35.8293C26.3783 35.6964 26.7271 35.5099 26.9756 35.7379C26.707 37.2364 26.4408 38.735 26.1721 40.231C25.8834 40.3123 25.5168 40.1117 25.3059 40.3276Z" fill="white"/>
</svg>