<svg width="61" height="60" viewBox="0 0 61 60" fill="none" xmlns="http://www.w3.org/2000/svg">
<rect x="0.5" width="60" height="60" rx="30" fill="#339F5E"/>
<path d="M34.3963 28.7641L28.7701 27.0359C28.1189 26.8391 27.6657 26.1992 27.6657 25.4883C27.6657 24.5969 28.3533 23.875 29.2025 23.875H32.6563C33.2919 23.875 33.917 24.0773 34.438 24.4492C34.7557 24.6734 35.1829 24.6187 35.4538 24.3398L37.2667 22.4805C37.6366 22.1031 37.5845 21.4742 37.1729 21.1406C35.8966 20.0906 34.3025 19.5055 32.6667 19.5V16.875C32.6667 16.3937 32.2917 16 31.8332 16H30.1662C29.7078 16 29.3327 16.3937 29.3327 16.875V19.5H29.2025C25.884 19.5 23.2168 22.4914 23.5241 26.0406C23.7429 28.5617 25.5767 30.6125 27.8897 31.3234L33.2294 32.9641C33.8805 33.1664 34.3338 33.8008 34.3338 34.5117C34.3338 35.4031 33.6461 36.125 32.797 36.125H29.3431C28.7076 36.125 28.0824 35.9227 27.5615 35.5508C27.2437 35.3266 26.8165 35.3813 26.5456 35.6602L24.7327 37.5195C24.3629 37.8969 24.415 38.5258 24.8265 38.8594C26.1028 39.9094 27.6969 40.4945 29.3327 40.5V43.125C29.3327 43.6063 29.7078 44 30.1662 44H31.8332C32.2917 44 32.6667 43.6063 32.6667 43.125V40.4891C35.0943 40.4398 37.3709 38.925 38.1731 36.5133C39.2932 33.1445 37.4125 29.6883 34.3963 28.7641Z" fill="white"/>
</svg>