<svg width="81" height="80" viewBox="0 0 81 80" fill="none" xmlns="http://www.w3.org/2000/svg">
<g filter="url(#filter0_d_28_4716)">
<circle cx="40.5" cy="38" r="32" fill="#111111"/>
<path d="M40.5512 30.8977H36.794C35.2909 30.8977 34.5394 30.8977 33.9653 31.1902C33.4604 31.4475 33.0498 31.858 32.7925 32.363C32.5 32.9371 32.5 33.6886 32.5 35.1916V42.706C32.5 44.2091 32.5 44.9606 32.7925 45.5347C33.0498 46.0396 33.4604 46.4502 33.9653 46.7075C34.5394 47 35.2909 47 36.794 47H44.3084C45.8114 47 46.5629 47 47.137 46.7075C47.642 46.4502 48.0525 46.0396 48.3098 45.5347C48.6023 44.9606 48.6023 44.2091 48.6023 42.706V38.9488M37.8674 41.6326H39.3654C39.803 41.6326 40.0218 41.6326 40.2277 41.5831C40.4103 41.5393 40.5848 41.467 40.7449 41.3689C40.9255 41.2583 41.0802 41.1035 41.3896 40.7941L49.9442 32.2395C50.6853 31.4984 50.6853 30.2969 49.9442 29.5558C49.2031 28.8147 48.0016 28.8147 47.2605 29.5558L38.7059 38.1104C38.3964 38.4198 38.2417 38.5745 38.1311 38.7551C38.033 38.9152 37.9607 39.0897 37.9169 39.2723C37.8674 39.4782 37.8674 39.697 37.8674 40.1346V41.6326Z" stroke="white" stroke-width="1.5" stroke-linecap="round" stroke-linejoin="round"/>
</g>
<defs>
<filter id="filter0_d_28_4716" x="0.5" y="0" width="80" height="80" filterUnits="userSpaceOnUse" color-interpolation-filters="sRGB">
<feFlood flood-opacity="0" result="BackgroundImageFix"/>
<feColorMatrix in="SourceAlpha" type="matrix" values="0 0 0 0 0 0 0 0 0 0 0 0 0 0 0 0 0 0 127 0" result="hardAlpha"/>
<feOffset dy="2"/>
<feGaussianBlur stdDeviation="4"/>
<feComposite in2="hardAlpha" operator="out"/>
<feColorMatrix type="matrix" values="0 0 0 0 0 0 0 0 0 0 0 0 0 0 0 0 0 0 0.04 0"/>
<feBlend mode="normal" in2="BackgroundImageFix" result="effect1_dropShadow_28_4716"/>
<feBlend mode="normal" in="SourceGraphic" in2="effect1_dropShadow_28_4716" result="shape"/>
</filter>
</defs>
</svg>