<svg width="81" height="80" viewBox="0 0 81 80" fill="none" xmlns="http://www.w3.org/2000/svg">
<g filter="url(#filter0_d_28_1230)">
<circle cx="40.5" cy="38" r="32" fill="#111111"/>
<path d="M38.6769 35.4275C40.9059 35.4275 42.7192 33.136 42.7192 30.3189C42.7192 27.6952 41.1777 26 38.7923 26C36.7227 26 34.6345 27.3354 34.6345 30.3189C34.6348 33.136 36.4481 35.4275 38.6769 35.4275ZM38.7923 26.7501C40.7797 26.7501 41.9661 28.0842 41.9661 30.3189C41.9661 32.7222 40.4905 34.6775 38.6766 34.6775C36.8627 34.6775 35.3873 32.7222 35.3873 30.3189C35.3876 27.6848 37.2219 26.7501 38.7923 26.7501ZM52.3336 35.6667H51.4136C51.3724 34.3424 50.2807 33.2772 48.9412 33.2772H46.152C44.8124 33.2772 43.7208 34.3424 43.6795 35.6667H42.7596C42.1165 35.6667 41.5935 36.1877 41.5935 36.8284V36.8368H35.2124C32.0625 36.8368 29.5 39.3893 29.5 42.5265V49.625C29.5 49.832 29.6684 50 29.8765 50H47.5711C47.779 50 47.9476 49.8323 47.9476 49.625V44.2894H52.3339C52.9769 44.2894 53.5 43.7684 53.5 43.1277V36.8284C53.5 36.1877 52.9766 35.6667 52.3336 35.6667ZM46.1517 34.0272H48.9409C49.8653 34.0272 50.6196 34.7561 50.6606 35.6667H50.1629C50.1611 34.9366 49.5642 34.343 48.8305 34.343H46.2623C45.5287 34.343 44.9318 34.9363 44.93 35.6667H44.4323C44.473 34.7561 45.2275 34.0272 46.1517 34.0272ZM49.4098 35.6667H45.683C45.6851 35.3501 45.9438 35.093 46.2623 35.093H48.8305C49.149 35.093 49.4077 35.3501 49.4098 35.6667ZM42.7593 36.4168H52.3336C52.5615 36.4168 52.7469 36.6015 52.7469 36.8284V37.742L48.6532 39.7843V39.7682C48.6532 39.5156 48.4468 39.3101 48.1935 39.3101H46.8994C46.6458 39.3101 46.4397 39.5156 46.4397 39.7682V39.784L42.3459 37.7417V37.2303C42.3462 37.224 42.3477 37.2178 42.3477 37.2112C42.3477 37.2047 42.3462 37.1987 42.3459 37.1922V36.8279C42.3459 36.6015 42.5314 36.4168 42.7593 36.4168ZM47.9001 40.0604V40.9636H47.1925V40.0604H47.9001ZM30.2528 42.5262C30.2528 39.8025 32.4776 37.5865 35.2124 37.5865H41.5929V43.1277C41.5929 43.7681 42.1159 44.2894 42.759 44.2894H42.8547V49.2496H34.5921V43.5095C34.5921 43.3025 34.4237 43.1345 34.2155 43.1345C34.0077 43.1345 33.839 43.3022 33.839 43.5095V49.2499H30.2528V42.5262ZM47.1943 49.2499H43.6077V44.2894H47.1943V49.2499ZM52.3336 43.5396H47.6336C47.613 43.5361 47.5923 43.5334 47.5708 43.5334C47.5493 43.5334 47.5286 43.5364 47.508 43.5396H42.7593C42.5314 43.5396 42.3459 43.3549 42.3459 43.128V38.5809L46.4397 40.6231V41.2558C46.4397 41.5084 46.6461 41.7136 46.8994 41.7136H48.1935C48.4471 41.7136 48.6532 41.5081 48.6532 41.2558V40.6237L52.7469 38.5815V43.1283C52.7469 43.3549 52.5615 43.5396 52.3336 43.5396Z" stroke="white" stroke-width="0.75"/>
</g>
<defs>
<filter id="filter0_d_28_1230" x="0.5" y="0" width="80" height="80" filterUnits="userSpaceOnUse" color-interpolation-filters="sRGB">
<feFlood flood-opacity="0" result="BackgroundImageFix"/>
<feColorMatrix in="SourceAlpha" type="matrix" values="0 0 0 0 0 0 0 0 0 0 0 0 0 0 0 0 0 0 127 0" result="hardAlpha"/>
<feOffset dy="2"/>
<feGaussianBlur stdDeviation="4"/>
<feComposite in2="hardAlpha" operator="out"/>
<feColorMatrix type="matrix" values="0 0 0 0 0 0 0 0 0 0 0 0 0 0 0 0 0 0 0.04 0"/>
<feBlend mode="normal" in2="BackgroundImageFix" result="effect1_dropShadow_28_1230"/>
<feBlend mode="normal" in="SourceGraphic" in2="effect1_dropShadow_28_1230" result="shape"/>
</filter>
</defs>
</svg>