<svg width="81" height="80" viewBox="0 0 81 80" fill="none" xmlns="http://www.w3.org/2000/svg">
<g filter="url(#filter0_d_28_738)">
<circle cx="40.5" cy="38" r="32" fill="#111111"/>
<path d="M30.0435 46.4415H53.9565V45.0676C45.9837 45.0676 38.0163 45.0676 30.0435 45.0676V46.4415ZM54.2283 47H29.7717C29.625 47 29.5 46.8771 29.5 46.7208V44.7884C29.5 44.632 29.6196 44.5092 29.7717 44.5092H30.6141V42.856C30.6141 42.6997 30.7337 42.5768 30.8859 42.5768H32.2065V39.1198C32.2065 37.8129 33.2446 36.7462 34.5163 36.7462C34.7065 36.7462 34.8315 36.7462 34.9565 36.7406C35.8913 36.7183 36.7717 36.6959 37.5054 37.5057L39.3859 39.2873L42.0054 39.8346L44.625 39.2873L46.5054 37.5057C47.2337 36.6959 48.1196 36.7183 49.0489 36.7406C49.1739 36.7462 49.2989 36.7462 49.4891 36.7462C50.7609 36.7462 51.7935 37.8129 51.7935 39.1198V42.5768H53.1141C53.2609 42.5768 53.3859 42.6997 53.3859 42.856V44.5092H54.2283C54.3804 44.5092 54.5 44.632 54.5 44.7884V46.7208C54.5 46.8771 54.3804 47 54.2283 47ZM37.0707 42.5768H46.9293L46.8804 40.4099L45.288 41.4598C45.25 41.4877 45.212 41.5045 45.163 41.5101L42.0489 41.901H41.9565L38.8424 41.5101C38.7935 41.5045 38.7554 41.4877 38.7174 41.4598L37.1196 40.4043L37.0707 42.5768ZM52.837 43.1353H31.1576V44.5092H52.837V43.1353ZM43.0272 29.9829C43.3967 30.117 43.7337 30.318 44.0326 30.5805L44.7446 30.3404C44.875 30.2957 45.0163 30.3571 45.0707 30.48L45.6739 31.5523C45.7391 31.6696 45.712 31.8148 45.6196 31.8985L45.0598 32.4123C45.0978 32.6078 45.1141 32.8089 45.1141 33.0099C45.1141 33.2054 45.0978 33.4065 45.0598 33.6019L45.6196 34.1157C45.7228 34.2107 45.7391 34.3615 45.6685 34.4787L45.0652 35.5455C45 35.6627 44.8641 35.713 44.7446 35.6683L44.0326 35.4282C43.7391 35.6851 43.3967 35.8917 43.0272 36.0258L42.875 36.7797C42.8478 36.9137 42.7337 37.0031 42.6087 37.0031H41.3859C41.25 37.0031 41.1359 36.897 41.1141 36.763L40.9674 36.0258C40.5978 35.8917 40.2609 35.6907 39.962 35.4282L39.25 35.6683C39.1196 35.713 38.9837 35.6516 38.9239 35.5287L38.3207 34.4564C38.2554 34.3391 38.2826 34.1939 38.375 34.1101L38.9348 33.5963C38.8641 33.1998 38.8641 32.8033 38.9348 32.4068L38.375 31.893C38.2717 31.798 38.2554 31.6472 38.3261 31.5299L38.9293 30.4576C38.9946 30.3404 39.1304 30.2901 39.25 30.3348L39.962 30.5749C40.2554 30.3124 40.5978 30.1114 40.9674 29.9774L41.1196 29.2234C41.1467 29.0894 41.2609 29 41.3859 29H42.6087C42.75 29 42.8587 29.1061 42.8804 29.2401L43.0272 29.9829ZM43.2826 30.7146C43.1087 30.614 42.9239 30.5303 42.7283 30.4688C42.6304 30.4409 42.5489 30.3627 42.5272 30.251L42.3859 29.5585H41.6033L41.462 30.251C41.4457 30.3515 41.375 30.4353 41.2717 30.4632C40.9076 30.5749 40.4891 30.8095 40.2283 31.0832C40.1576 31.1613 40.0489 31.1948 39.9457 31.1613L39.2935 30.9379L38.9022 31.6305L39.413 32.0996C39.4837 32.1666 39.5217 32.2671 39.4946 32.3733C39.4076 32.7474 39.3913 33.2445 39.4891 33.6131C39.5217 33.7136 39.4946 33.8309 39.413 33.9035L38.9022 34.3726L39.2935 35.0652L39.9457 34.8418C40.038 34.8083 40.1413 34.8306 40.2174 34.9032C40.4946 35.1769 40.8913 35.4282 41.2663 35.5287C41.3641 35.551 41.4457 35.6348 41.4674 35.7409L41.6087 36.4334H42.3913L42.5326 35.7409C42.5543 35.6404 42.6196 35.5622 42.7228 35.5287C43.087 35.417 43.5054 35.1824 43.7717 34.9088C43.8424 34.8306 43.9511 34.7971 44.0543 34.8306L44.7065 35.054L45.0978 34.3615L44.587 33.8923C44.5163 33.8253 44.4783 33.7248 44.5054 33.6187C44.5543 33.412 44.5815 33.1998 44.5815 32.9876C44.5815 32.7809 44.5598 32.5743 44.5109 32.3733C44.4783 32.2727 44.5054 32.1554 44.587 32.0828L45.0978 31.6137L44.7065 30.9212L44.0543 31.1446C43.962 31.1781 43.8587 31.1558 43.7826 31.0832C43.6304 30.9491 43.4674 30.8207 43.2826 30.7146ZM42 31.1167C43.0163 31.1167 43.837 31.96 43.837 33.0043C43.837 34.0487 43.0163 34.892 42 34.892C40.9837 34.892 40.163 34.0487 40.163 33.0043C40.163 31.96 40.9837 31.1167 42 31.1167ZM42.913 32.0661C42.1033 31.2339 40.7065 31.8259 40.7065 33.0043C40.7065 34.1827 42.1033 34.7747 42.913 33.9426C43.4185 33.4232 43.4185 32.5855 42.913 32.0661ZM49.8696 39.4828C49.8696 39.1142 50.413 39.1142 50.413 39.4828V42.5768H51.2446V39.1198C51.2446 38.1257 50.4511 37.3047 49.4837 37.3047C48.5598 37.3047 47.5652 37.1371 46.8913 37.8967C46.8859 37.9023 46.8804 37.9078 46.875 37.9134L44.9293 39.7564C44.8859 39.7955 44.837 39.8179 44.788 39.8235L42.2717 40.3484V41.3034L45.038 40.9572L46.9946 39.6671C47.1685 39.5554 47.413 39.6727 47.413 39.9128L47.4783 42.5768H49.8804V39.4828H49.8696ZM48.1902 32.7028C46.8207 32.7028 46.1304 34.4117 47.1033 35.4058C48.0707 36.3999 49.7337 35.6907 49.7337 34.2833C49.7283 33.412 49.038 32.7028 48.1902 32.7028ZM46.712 32.7698C47.5272 31.9321 48.8478 31.9321 49.663 32.7698C50.4783 33.6075 50.4783 34.9646 49.663 35.8024C48.8478 36.6401 47.5272 36.6401 46.712 35.8024C45.9022 34.9646 45.9022 33.6075 46.712 32.7698ZM37.0109 39.6727L38.962 40.9628L41.7228 41.309V40.3484L39.2065 39.8235C39.1522 39.8179 39.1033 39.7899 39.0652 39.7564L37.1196 37.9134C37.1141 37.9078 37.1087 37.9023 37.1033 37.8967C36.4239 37.1371 35.4293 37.3047 34.5109 37.3047C33.538 37.3047 32.7446 38.1201 32.7446 39.1198V42.5768H36.5217L36.5815 40.0524L34.9891 38.9801C34.8641 38.8964 34.8315 38.7232 34.913 38.5948C34.9946 38.4663 35.163 38.4272 35.288 38.5166L37.0109 39.6727ZM35.8098 32.1443C36.962 32.1443 37.8967 33.1049 37.8967 34.2889C37.8967 35.4729 36.962 36.4334 35.8098 36.4334C34.6576 36.4334 33.7228 35.4729 33.7228 34.2889C33.7283 33.1049 34.6576 32.1443 35.8098 32.1443ZM36.9022 33.1663C35.9348 32.1722 34.2717 32.8759 34.2717 34.2833C34.2717 35.6907 35.9348 36.3999 36.9022 35.4058C37.5 34.7859 37.5 33.7862 36.9022 33.1663Z" fill="white" stroke="white" stroke-width="0.5"/>
</g>
<defs>
<filter id="filter0_d_28_738" x="0.5" y="0" width="80" height="80" filterUnits="userSpaceOnUse" color-interpolation-filters="sRGB">
<feFlood flood-opacity="0" result="BackgroundImageFix"/>
<feColorMatrix in="SourceAlpha" type="matrix" values="0 0 0 0 0 0 0 0 0 0 0 0 0 0 0 0 0 0 127 0" result="hardAlpha"/>
<feOffset dy="2"/>
<feGaussianBlur stdDeviation="4"/>
<feComposite in2="hardAlpha" operator="out"/>
<feColorMatrix type="matrix" values="0 0 0 0 0 0 0 0 0 0 0 0 0 0 0 0 0 0 0.04 0"/>
<feBlend mode="normal" in2="BackgroundImageFix" result="effect1_dropShadow_28_738"/>
<feBlend mode="normal" in="SourceGraphic" in2="effect1_dropShadow_28_738" result="shape"/>
</filter>
</defs>
</svg>