<svg width="81" height="80" viewBox="0 0 81 80" fill="none" xmlns="http://www.w3.org/2000/svg">
<g filter="url(#filter0_d_28_2168)">
<circle cx="40.5" cy="38" r="32" fill="#111111"/>
<path d="M40.9213 47.2273H39.0705V45.5788C39.0705 45.5082 39.0414 45.4405 38.9897 45.3905C38.9379 45.3406 38.8678 45.3125 38.7946 45.3125H30.9058C30.8327 45.3125 30.7625 45.3406 30.7108 45.3905C30.659 45.4405 30.63 45.5082 30.63 45.5788V47.2273H28.8481C28.7749 47.2273 28.7048 47.2554 28.6531 47.3054C28.6013 47.3553 28.5723 47.423 28.5723 47.4937V49.7015C28.5723 49.7721 28.6013 49.8398 28.6531 49.8898C28.7048 49.9397 28.7749 49.9678 28.8481 49.9678H40.9213C40.9944 49.9678 41.0646 49.9397 41.1163 49.8898C41.1681 49.8398 41.1971 49.7721 41.1971 49.7015V47.4963C41.1975 47.4611 41.1906 47.4262 41.1769 47.3936C41.1632 47.361 41.143 47.3313 41.1173 47.3063C41.0917 47.2813 41.0611 47.2614 41.0275 47.2479C40.9938 47.2343 40.9577 47.2273 40.9213 47.2273ZM31.1954 45.7892H38.5022V47.2273H31.1954V45.7892ZM40.7089 49.4192H29.1405V47.776H40.7089V49.4192Z" fill="white" stroke="white" stroke-width="0.5"/>
<path d="M52.1741 42.8304C52.1484 42.8054 52.1179 42.7856 52.0843 42.7721C52.0507 42.7586 52.0146 42.7516 51.9782 42.7516C51.9418 42.7516 51.9058 42.7586 51.8722 42.7721C51.8385 42.7856 51.808 42.8054 51.7824 42.8304L51.7355 42.8756L46.0396 37.3575C45.9736 37.2928 45.8951 37.2414 45.8084 37.2062C45.7218 37.171 45.6288 37.1527 45.5348 37.1524C45.4771 37.1526 45.4196 37.1598 45.3638 37.1737L42.5061 34.4066L44.3928 32.577C44.6186 32.7104 44.8784 32.7805 45.1431 32.7794C45.3348 32.7798 45.5246 32.7435 45.7017 32.6727C45.8788 32.6018 46.0395 32.4978 46.1747 32.3666L46.754 31.802C46.7798 31.7773 46.8003 31.7478 46.8143 31.7153C46.8283 31.6829 46.8356 31.6481 46.8356 31.6129C46.8356 31.5778 46.8283 31.543 46.8143 31.5105C46.8003 31.4781 46.7798 31.4486 46.754 31.4238L41.2373 26.0788C41.2117 26.0538 41.1812 26.034 41.1476 26.0205C41.1139 26.007 41.0779 26 41.0415 26C41.0051 26 40.969 26.007 40.9354 26.0205C40.9018 26.034 40.8713 26.0538 40.8456 26.0788L40.2636 26.6407C40.0339 26.8641 39.8878 27.155 39.8483 27.4675C39.8088 27.78 39.8783 28.0963 40.0457 28.3665L34.6642 33.5837C34.3857 33.4211 34.0587 33.3535 33.7356 33.3916C33.4126 33.4297 33.1121 33.5715 32.8823 33.7941L32.3003 34.3587C32.2745 34.3835 32.254 34.4129 32.24 34.4454C32.226 34.4778 32.2188 34.5126 32.2188 34.5478C32.2188 34.5829 32.226 34.6178 32.24 34.6502C32.254 34.6827 32.2745 34.7121 32.3003 34.7369L37.817 40.0846C37.8427 40.11 37.8734 40.1301 37.9072 40.1439C37.9411 40.1576 37.9775 40.1647 38.0142 40.1647C38.051 40.1647 38.0873 40.1576 38.1212 40.1439C38.1551 40.1301 38.1857 40.11 38.2114 40.0846L38.7934 39.52C39.0221 39.2965 39.1673 39.0059 39.2063 38.694C39.2452 38.3821 39.1757 38.0665 39.0086 37.7969L40.8953 35.9673L43.7419 38.737C43.7124 38.8526 43.7142 38.9735 43.7471 39.0882C43.7799 39.203 43.8427 39.3076 43.9294 39.3922L49.6337 44.9077C49.6078 44.9324 49.5873 44.9619 49.5733 44.9943C49.5593 45.0268 49.5521 45.0616 49.5521 45.0968C49.5521 45.1319 49.5593 45.1667 49.5733 45.1992C49.5873 45.2316 49.6078 45.2611 49.6337 45.2858L50.5467 46.17C50.6448 46.2653 50.7615 46.3409 50.89 46.3925C51.0186 46.444 51.1564 46.4706 51.2955 46.4706C51.4347 46.4706 51.5725 46.444 51.701 46.3925C51.8296 46.3409 51.9463 46.2653 52.0444 46.17L53.0871 45.174C53.2845 44.9811 53.3952 44.7208 53.3952 44.4496C53.3952 44.1784 53.2845 43.9181 53.0871 43.7252L52.1741 42.8304ZM40.6553 27.0189L41.0415 26.646L46.1664 31.6129L45.7803 31.9884C45.6967 32.0694 45.5974 32.1337 45.4881 32.1776C45.3787 32.2214 45.2615 32.244 45.1431 32.244C45.0247 32.244 44.9075 32.2214 44.7981 32.1776C44.6888 32.1337 44.5895 32.0694 44.5059 31.9884L40.6443 28.2599C40.4763 28.0935 40.3832 27.8697 40.3853 27.6372C40.3873 27.4048 40.4844 27.1826 40.6553 27.0189ZM40.4071 28.7766L43.9708 32.2388L38.65 37.3868L35.0862 33.9246L40.4071 28.7766ZM38.399 39.1418L38.0156 39.5147L32.8879 34.5478L33.2768 34.1723C33.3589 34.0887 33.4577 34.0221 33.5672 33.9763C33.6767 33.9305 33.7946 33.9066 33.914 33.906C34.0332 33.9072 34.1509 33.9314 34.2603 33.9771C34.3697 34.0229 34.4686 34.0892 34.5511 34.1723L34.5925 34.2122L38.399 37.9034C38.5683 38.0681 38.6633 38.2906 38.6633 38.5226C38.6633 38.7546 38.5683 38.9772 38.399 39.1418ZM42.1145 34.7875L44.8976 37.4826L44.5997 37.7703C44.5563 37.7835 44.5166 37.8063 44.4839 37.8369C44.4497 37.8676 44.4257 37.9075 44.4149 37.9514L44.0674 38.2843L41.287 35.5864L42.1145 34.7875ZM44.3211 39.0167C44.2908 38.9868 44.2738 38.9466 44.2738 38.9048C44.2738 38.863 44.2908 38.8228 44.3211 38.7929L44.6935 38.4307L49.7081 43.2778C49.7337 43.303 49.7641 43.323 49.7978 43.3367C49.8314 43.3504 49.8675 43.3575 49.904 43.3577C49.9403 43.3579 49.9763 43.3512 50.0099 43.3379C50.0435 43.3247 50.074 43.3051 50.0998 43.2805C50.1261 43.2556 50.147 43.226 50.1612 43.1933C50.1755 43.1606 50.1828 43.1255 50.1828 43.09C50.1828 43.0546 50.1755 43.0194 50.1612 42.9867C50.147 42.954 50.1261 42.9244 50.0998 42.8996L45.0962 38.0499L45.2562 37.8954L45.4189 37.7356C45.4342 37.7211 45.4523 37.7096 45.4722 37.7018C45.4921 37.6941 45.5133 37.6902 45.5348 37.6904C45.5772 37.6904 45.6179 37.7067 45.6479 37.7356L51.3438 43.2538L50.0253 44.5322L44.3211 39.0167ZM52.6926 44.7852L51.65 45.7945C51.6035 45.8401 51.5481 45.8763 51.4871 45.901C51.426 45.9257 51.3604 45.9384 51.2942 45.9384C51.2279 45.9384 51.1624 45.9257 51.1013 45.901C51.0402 45.8763 50.9848 45.8401 50.9383 45.7945L50.2212 45.0994L51.5424 43.8211L51.9313 43.4429L51.9782 43.3976L52.6926 44.0901C52.7878 44.1824 52.8412 44.3074 52.8412 44.4376C52.8412 44.5679 52.7878 44.6928 52.6926 44.7852Z" fill="white" stroke="white" stroke-width="0.5"/>
<path d="M41.0179 29.5085C40.9923 29.4835 40.9617 29.4637 40.9281 29.4502C40.8945 29.4366 40.8585 29.4297 40.8221 29.4297C40.7856 29.4297 40.7496 29.4366 40.716 29.4502C40.6824 29.4637 40.6519 29.4835 40.6262 29.5085L35.9371 34.0519C35.9112 34.0767 35.8907 34.1061 35.8767 34.1386C35.8627 34.171 35.8555 34.2058 35.8555 34.241C35.8555 34.2761 35.8627 34.311 35.8767 34.3434C35.8907 34.3759 35.9112 34.4053 35.9371 34.4301C35.9628 34.4548 35.9934 34.4743 36.027 34.4875C36.0606 34.5008 36.0966 34.5075 36.1329 34.5073C36.1692 34.5075 36.2052 34.5008 36.2388 34.4875C36.2724 34.4743 36.303 34.4548 36.3287 34.4301L41.0179 29.8866C41.0437 29.8619 41.0643 29.8324 41.0783 29.8C41.0923 29.7675 41.0995 29.7327 41.0995 29.6976C41.0995 29.6624 41.0923 29.6276 41.0783 29.5951C41.0643 29.5627 41.0437 29.5332 41.0179 29.5085Z" fill="white" stroke="white" stroke-width="0.5"/>
<path d="M44.8743 31.6838C44.8999 31.709 44.9303 31.729 44.964 31.7427C44.9976 31.7564 45.0337 31.7636 45.0702 31.7637C45.1067 31.7636 45.1428 31.7564 45.1764 31.7427C45.21 31.729 45.2405 31.709 45.266 31.6838C45.2919 31.6591 45.3124 31.6296 45.3264 31.5971C45.3404 31.5647 45.3476 31.5299 45.3476 31.4947C45.3476 31.4596 45.3404 31.4248 45.3264 31.3923C45.3124 31.3598 45.2919 31.3304 45.266 31.3056L41.4595 27.6144C41.4076 27.5639 41.337 27.5354 41.2633 27.5352C41.1896 27.5349 41.1188 27.5629 41.0665 27.6131C41.0142 27.6632 40.9846 27.7314 40.9844 27.8026C40.9841 27.8737 41.0132 27.9421 41.0651 27.9926L44.8743 31.6838Z" fill="white" stroke="white" stroke-width="0.5"/>
<path d="M35.167 42.8392V40.1148C35.167 40.0424 35.1372 39.9729 35.0842 39.9218C35.0312 39.8706 34.9593 39.8418 34.8843 39.8418C34.8093 39.8418 34.7374 39.8706 34.6844 39.9218C34.6313 39.9729 34.6016 40.0424 34.6016 40.1148V42.8366C34.6016 42.909 34.6313 42.9784 34.6844 43.0296C34.7374 43.0808 34.8093 43.1096 34.8843 43.1096C34.9593 43.1096 35.0312 43.0808 35.0842 43.0296C35.1372 42.9784 35.167 42.909 35.167 42.8366V42.8392Z" fill="white" stroke="white" stroke-width="0.5"/>
<path d="M37.862 41.3032L35.9091 43.194C35.8832 43.2185 35.8625 43.2477 35.8483 43.2799C35.8341 43.3121 35.8266 43.3466 35.8262 43.3816C35.8258 43.4166 35.8326 43.4514 35.8461 43.4838C35.8596 43.5163 35.8796 43.5459 35.905 43.5709C35.9303 43.5959 35.9605 43.6158 35.9939 43.6296C36.0272 43.6433 36.063 43.6506 36.0992 43.6509C36.1355 43.6513 36.1715 43.6448 36.2051 43.6317C36.2387 43.6187 36.2694 43.5994 36.2953 43.5749L38.2482 41.684C38.3001 41.6335 38.3291 41.5651 38.3289 41.494C38.3286 41.4228 38.2991 41.3546 38.2468 41.3045C38.1945 41.2543 38.1237 41.2263 38.05 41.2266C37.9762 41.2268 37.9057 41.2553 37.8537 41.3058L37.862 41.3032Z" fill="white" stroke="white" stroke-width="0.5"/>
<path d="M33.3046 43.5764C33.3305 43.6018 33.3614 43.622 33.3955 43.6358C33.4296 43.6495 33.4663 43.6565 33.5032 43.6562C33.5395 43.6564 33.5755 43.6497 33.6091 43.6365C33.6427 43.6232 33.6733 43.6037 33.6991 43.579C33.7253 43.5542 33.7462 43.5246 33.7605 43.4919C33.7747 43.4592 33.782 43.4241 33.782 43.3886C33.782 43.3531 33.7747 43.318 33.7605 43.2853C33.7462 43.2526 33.7253 43.223 33.6991 43.1982L31.7462 41.3073C31.7205 41.2823 31.69 41.2625 31.6564 41.249C31.6228 41.2355 31.5867 41.2285 31.5503 41.2285C31.5139 41.2285 31.4779 41.2355 31.4442 41.249C31.4106 41.2625 31.3801 41.2823 31.3545 41.3073C31.3282 41.3321 31.3073 41.3617 31.2931 41.3944C31.2788 41.4271 31.2715 41.4622 31.2715 41.4977C31.2715 41.5332 31.2788 41.5683 31.2931 41.601C31.3073 41.6337 31.3282 41.6633 31.3545 41.6881L33.3046 43.5764Z" fill="white" stroke="white" stroke-width="0.5"/>
<path d="M36.3497 44.8297H39.1604C39.2213 44.8324 39.2813 44.8156 39.3312 44.7818C39.3811 44.7481 39.4181 44.6994 39.4363 44.6433C39.4525 44.6016 39.4577 44.5567 39.4513 44.5127C39.4449 44.4686 39.4272 44.4268 39.3997 44.391C39.3723 44.3552 39.336 44.3267 39.2942 44.308C39.2524 44.2892 39.2064 44.2809 39.1604 44.2837H36.3442C36.271 44.2837 36.2009 44.3118 36.1491 44.3618C36.0974 44.4117 36.0684 44.4794 36.0684 44.5501C36.0684 44.6207 36.0974 44.6884 36.1491 44.7384C36.2009 44.7883 36.271 44.8164 36.3442 44.8164L36.3497 44.8297Z" fill="white" stroke="white" stroke-width="0.5"/>
<path d="M30.407 44.8295H33.226C33.2992 44.8295 33.3694 44.8015 33.4211 44.7515C33.4728 44.7016 33.5019 44.6338 33.5019 44.5632C33.5019 44.4926 33.4728 44.4248 33.4211 44.3749C33.3694 44.3249 33.2992 44.2969 33.226 44.2969H30.4126C30.3394 44.2969 30.2692 44.3249 30.2175 44.3749C30.1658 44.4248 30.1367 44.4926 30.1367 44.5632C30.1367 44.6338 30.1658 44.7016 30.2175 44.7515C30.2692 44.8015 30.3394 44.8295 30.4126 44.8295H30.407Z" fill="white" stroke="white" stroke-width="0.5"/>
</g>
<defs>
<filter id="filter0_d_28_2168" x="0.5" y="0" width="80" height="80" filterUnits="userSpaceOnUse" color-interpolation-filters="sRGB">
<feFlood flood-opacity="0" result="BackgroundImageFix"/>
<feColorMatrix in="SourceAlpha" type="matrix" values="0 0 0 0 0 0 0 0 0 0 0 0 0 0 0 0 0 0 127 0" result="hardAlpha"/>
<feOffset dy="2"/>
<feGaussianBlur stdDeviation="4"/>
<feComposite in2="hardAlpha" operator="out"/>
<feColorMatrix type="matrix" values="0 0 0 0 0 0 0 0 0 0 0 0 0 0 0 0 0 0 0.04 0"/>
<feBlend mode="normal" in2="BackgroundImageFix" result="effect1_dropShadow_28_2168"/>
<feBlend mode="normal" in="SourceGraphic" in2="effect1_dropShadow_28_2168" result="shape"/>
</filter>
</defs>
</svg>