<svg width="311" height="35" viewBox="0 0 311 35" fill="none" xmlns="http://www.w3.org/2000/svg">
<path fill-rule="evenodd" clip-rule="evenodd" d="M233.726 0.14013C190.143 0.538013 177.682 0.796844 153.5 1.80721C128.44 2.85427 110.506 3.90385 82.0503 5.98875C75.4537 6.47207 68.3903 6.93076 60.1098 7.41341C29.6918 9.18638 23.7726 9.65882 13.9392 11.0979C9.06706 11.8111 4.85352 12.3046 2.49196 12.4391C0.39234 12.5586 0.0117188 12.6338 0.0117188 12.9292C0.0117188 13.1902 3.36977 13.4188 5.20648 13.2828C5.8647 13.2342 7.64799 13.1151 9.16952 13.0184C10.691 12.9216 14.0394 12.6618 16.6102 12.441C22.6641 11.9208 25.5708 11.7568 35.9752 11.3482C53.466 10.6613 66.679 10.0012 82.9089 9.0036C88.8901 8.63588 96.8316 8.1477 100.557 7.91869C128.809 6.18158 163.32 4.63259 184.408 4.1553C209.998 3.57582 289.443 3.06352 288.101 3.48636C287.569 3.65406 278.478 4.90131 273.029 5.55434C268.023 6.15427 259.659 7.01955 249.371 8.00195C244.492 8.46801 237.795 9.11301 234.49 9.43533C222.072 10.6464 217.982 11.022 210.927 11.5998C178.426 14.2613 156.958 16.5806 127.076 20.6579C109.315 23.0814 94.7568 25.8636 78.5105 29.9394C69.2737 32.2567 68.3737 32.6683 69.2828 34.1602C69.8745 35.1308 74.535 35.2566 83.9351 34.5555C101.114 33.2744 117.257 32.2808 132.895 31.542C142.704 31.0786 144.004 31.0009 153.977 30.2815C157.702 30.013 164.141 29.6203 168.286 29.4092L175.822 29.0254L165.806 28.8741C150.628 28.6448 134.346 28.6587 128.984 28.9056C111.232 29.7231 101.576 30.3524 85.8041 31.7192C82.0448 32.0451 78.8733 32.2837 78.7562 32.2495C77.6267 31.9188 102.907 26.922 114.968 25.0923C142.192 20.9615 170.228 17.8795 213.312 14.2806C217.247 13.9519 225.146 13.2329 230.865 12.6829C236.583 12.1327 245.598 11.2666 250.897 10.7578C271.293 8.79989 277.37 8.07063 296.972 5.2285C309.527 3.40812 309.594 3.39255 309.936 2.19538C310.312 0.879103 309.307 0.281865 306.425 0.111152C303.688 -0.0511838 252.439 -0.0307496 233.726 0.14013ZM176.635 28.8925C176.873 28.9326 177.216 28.9311 177.399 28.8892C177.581 28.8473 177.387 28.8145 176.967 28.8163C176.547 28.8181 176.398 28.8525 176.635 28.8925Z" fill="#339F5E"/>
</svg>