<svg width="234" height="234" viewBox="0 0 234 234" fill="none" xmlns="http://www.w3.org/2000/svg">
<path d="M9.16133 61.7313C36.2628 34.6298 102.962 39.8589 122.002 67.1444C125.051 71.5138 127.031 83.0957 117.5 83.6465C107.969 84.1972 107.906 66.0129 122.001 67.1456C136.096 68.2783 193.163 113.447 193.165 198.445" stroke="#339F5E" stroke-width="1.3" stroke-linecap="round" stroke-linejoin="round" stroke-dasharray="10 10"/>
<path d="M197.134 200.596C197.033 200.496 196.914 200.445 196.777 200.445H189.67C189.532 200.445 189.413 200.496 189.313 200.596C189.212 200.697 189.162 200.816 189.162 200.953C189.162 201.09 189.212 201.209 189.313 201.31L192.866 204.863C192.967 204.964 193.086 205.014 193.223 205.014C193.361 205.014 193.48 204.964 193.58 204.863L197.134 201.31C197.234 201.209 197.284 201.09 197.284 200.953C197.284 200.816 197.234 200.697 197.134 200.596Z" fill="#111111"/>
<path d="M9.0454 67.906C9.03824 67.7641 8.98356 67.6471 8.88151 67.5549L3.60724 62.7914C3.50514 62.6992 3.38323 62.6568 3.2413 62.664C3.0993 62.6713 2.98233 62.7259 2.89017 62.828C2.79804 62.93 2.75558 63.0519 2.76278 63.1938L3.01819 68.2127C3.02549 68.3547 3.08003 68.4718 3.18205 68.5639C3.28406 68.656 3.40613 68.6985 3.548 68.6912L8.5669 68.4358C8.70875 68.4285 8.82586 68.374 8.91802 68.272C9.01015 68.17 9.05247 68.0479 9.0454 67.906Z" fill="#111111"/>
</svg>