<svg width="92" height="15" viewBox="0 0 92 15" fill="none" xmlns="http://www.w3.org/2000/svg">
<path d="M5.6766 7.02798e-05L13.2441 7.06381L5.36129 14.4219L0.000952721 14.4219L7.8838 7.06381L0.316266 7.07484e-05L5.6766 7.02798e-05Z" fill="#339F5E"/>
<path d="M18.7918 7.02798e-05L26.3594 7.06381L18.4134 14.4219L13.1162 14.4219L20.999 7.06381L13.4315 7.07484e-05L18.7918 7.02798e-05Z" fill="#339F5E"/>
<path d="M31.8465 7.02798e-05L39.4141 7.06381L31.5312 14.4219L26.1709 14.4219L34.0537 7.06381L26.4862 7.07484e-05L31.8465 7.02798e-05Z" fill="#339F5E"/>
<path d="M44.9676 7.02798e-05L52.5352 7.06381L44.5892 14.4219L39.292 14.4219L47.1748 7.06381L39.6073 7.07484e-05L44.9676 7.02798e-05Z" fill="#339F5E"/>
<path d="M58.2084 7.02743e-05L65.7129 7.06381L57.83 14.4219L52.5328 14.4219L60.4156 7.06381L52.8481 7.07429e-05L58.2084 7.02743e-05Z" fill="#339F5E"/>
<path d="M71.2606 7.02798e-05L78.8281 7.06381L70.9453 14.4219L65.5849 14.4219L73.4678 7.06381L65.9003 7.07484e-05L71.2606 7.02798e-05Z" fill="#339F5E"/>
</svg>