<svg width="115" height="62" viewBox="0 0 115 62" fill="none" xmlns="http://www.w3.org/2000/svg">
<g opacity="0.5">
<circle cx="4.97824" cy="4.73605" r="4.73605" fill="#339F5E"/>
<circle cx="22.4509" cy="4.73605" r="4.73605" fill="#339F5E"/>
<circle cx="39.9216" cy="4.73605" r="4.73605" fill="#339F5E"/>
<circle cx="57.3943" cy="4.73605" r="4.73605" fill="#339F5E"/>
<circle cx="74.8669" cy="4.73605" r="4.73605" fill="#339F5E"/>
<circle cx="92.3396" cy="4.73605" r="4.73605" fill="#339F5E"/>
<circle cx="109.81" cy="4.73605" r="4.73605" fill="#339F5E"/>
<circle cx="4.97824" cy="22.2087" r="4.73605" fill="#339F5E"/>
<circle cx="22.4509" cy="22.2087" r="4.73605" fill="#339F5E"/>
<circle cx="39.9216" cy="22.2087" r="4.73605" fill="#339F5E"/>
<circle cx="57.3943" cy="22.2087" r="4.73605" fill="#339F5E"/>
<circle cx="74.8669" cy="22.2087" r="4.73605" fill="#339F5E"/>
<circle cx="92.3396" cy="22.2087" r="4.73605" fill="#339F5E"/>
<circle cx="109.81" cy="22.2087" r="4.73605" fill="#339F5E"/>
<circle cx="4.97824" cy="39.6794" r="4.73605" fill="#339F5E"/>
<circle cx="22.4509" cy="39.6794" r="4.73605" fill="#339F5E"/>
<circle cx="39.9216" cy="39.6794" r="4.73605" fill="#339F5E"/>
<circle cx="57.3943" cy="39.6794" r="4.73605" fill="#339F5E"/>
<circle cx="74.8669" cy="39.6794" r="4.73605" fill="#339F5E"/>
<circle cx="92.3396" cy="39.6794" r="4.73605" fill="#339F5E"/>
<circle cx="109.81" cy="39.6794" r="4.73605" fill="#339F5E"/>
<circle cx="4.97824" cy="57.1521" r="4.73605" fill="#339F5E"/>
<circle cx="22.4509" cy="57.1521" r="4.73605" fill="#339F5E"/>
<circle cx="39.9216" cy="57.1521" r="4.73605" fill="#339F5E"/>
<circle cx="57.3943" cy="57.1521" r="4.73605" fill="#339F5E"/>
<circle cx="74.8669" cy="57.1521" r="4.73605" fill="#339F5E"/>
<circle cx="92.3396" cy="57.1521" r="4.73605" fill="#339F5E"/>
<circle cx="109.81" cy="57.1521" r="4.73605" fill="#339F5E"/>
</g>
</svg>