<svg width="50" height="51" viewBox="0 0 50 51" fill="none" xmlns="http://www.w3.org/2000/svg">
<path d="M1.5625 48.9375H6.25C6.67318 48.9375 7.03939 48.7829 7.34863 48.4736C7.65788 48.1644 7.8125 47.7982 7.8125 47.375V45.8125H25.4883C27.4414 45.8125 29.362 45.5439 31.25 45.0068C33.138 44.4697 34.9121 43.6803 36.5723 42.6387C37.8092 41.8574 38.9648 40.946 40.0391 39.9043C41.0807 38.8952 42.0085 37.7884 42.8223 36.584C43.6361 35.3796 44.3197 34.0938 44.873 32.7266C45.4264 31.3919 45.8333 29.9922 46.0938 28.5273L46.4355 26.623C46.5007 26.1673 46.4762 25.736 46.3623 25.3291C46.2484 24.9222 46.0449 24.556 45.752 24.2305C45.4915 23.8724 45.166 23.6038 44.7754 23.4248C44.3848 23.2458 43.9616 23.1562 43.5059 23.1562C43.278 23.1562 43.0501 23.1807 42.8223 23.2295C42.5944 23.2783 42.3828 23.3678 42.1875 23.498V20.0312H42.9688C43.1315 20.0312 43.278 19.9906 43.4082 19.9092C43.5384 19.8278 43.6361 19.7057 43.7012 19.543C43.7663 19.4128 43.7826 19.2663 43.75 19.1035C43.7174 18.9408 43.6361 18.8105 43.5059 18.7129L37.2559 12.4629C37.1257 12.3001 36.9466 12.2188 36.7188 12.2188C36.4909 12.2188 36.3118 12.3001 36.1816 12.4629L34.375 14.2207V3.625C34.375 3.39714 34.3018 3.20996 34.1553 3.06348C34.0088 2.91699 33.8216 2.84375 33.5938 2.84375H25.7812C25.5534 2.84375 25.3662 2.91699 25.2197 3.06348C25.0732 3.20996 25 3.39714 25 3.625V12.2188H21.8262C21.5332 11.5677 21.2728 11.0387 21.0449 10.6318C20.8171 10.2249 20.6217 9.90755 20.459 9.67969L22.4121 4.89453C22.5423 4.63411 22.5749 4.36556 22.5098 4.08887C22.4447 3.81218 22.2982 3.57617 22.0703 3.38086C21.875 3.18555 21.639 3.06348 21.3623 3.01465C21.0856 2.96582 20.8171 3.00651 20.5566 3.13672L19.0918 3.86914L18.1641 2.64844C18.0339 2.48568 17.8874 2.35547 17.7246 2.25781C17.5618 2.16016 17.3828 2.11133 17.1875 2.11133C16.9922 2.07878 16.7969 2.10319 16.6016 2.18457C16.4062 2.26595 16.2435 2.37175 16.1133 2.50195L14.9414 3.67383L14.1602 2.64844C14.0299 2.48568 13.8835 2.35547 13.7207 2.25781C13.5579 2.16016 13.3789 2.11133 13.1836 2.11133C12.9557 2.07878 12.7523 2.10319 12.5732 2.18457C12.3942 2.26595 12.2396 2.37175 12.1094 2.50195L10.5957 4.01562L8.34961 3.33203C8.08919 3.26693 7.82878 3.27507 7.56836 3.35645C7.30794 3.43782 7.09635 3.59245 6.93359 3.82031C6.77083 4.01562 6.67318 4.25163 6.64062 4.52832C6.60807 4.80501 6.6569 5.05729 6.78711 5.28516L9.13086 9.67969C8.31706 10.4284 7.50326 11.7223 6.68945 13.5615C5.87565 15.4007 5.46875 17.2806 5.46875 19.2012V21.5938C5.46875 22.8958 5.92448 24.0026 6.83594 24.9141C7.7474 25.8255 8.85417 26.2812 10.1562 26.2812H40.1367L38.4766 29.6016L34.1797 31.4082C33.9518 30.627 33.4961 29.9678 32.8125 29.4307C32.1289 28.8936 31.3477 28.625 30.4688 28.625H19.2383C17.1875 28.625 15.2018 28.9017 13.2812 29.4551C11.3607 30.0085 9.53776 30.806 7.8125 31.8477V30.1875C7.8125 29.7643 7.65788 29.3981 7.34863 29.0889C7.03939 28.7796 6.67318 28.625 6.25 28.625H1.5625C1.13932 28.625 0.773112 28.7796 0.463867 29.0889C0.154622 29.3981 0 29.7643 0 30.1875V47.375C0 47.7982 0.154622 48.1644 0.463867 48.4736C0.773112 48.7829 1.13932 48.9375 1.5625 48.9375ZM10.3027 5.5293C10.5306 5.5944 10.7666 5.5944 11.0107 5.5293C11.2549 5.46419 11.4583 5.35026 11.6211 5.1875L13.0371 3.77148L13.8184 4.79688C13.9486 4.95964 14.0951 5.08984 14.2578 5.1875C14.4206 5.28516 14.5996 5.33398 14.7949 5.33398C14.9902 5.36654 15.1855 5.35026 15.3809 5.28516C15.5762 5.22005 15.7389 5.10612 15.8691 4.94336L17.041 3.77148L17.9199 4.94336C18.1152 5.20378 18.3757 5.37468 18.7012 5.45605C19.0267 5.53743 19.3359 5.51302 19.6289 5.38281L20.752 4.79688L18.9941 9.09375H16.8945L17.8711 7.0918L16.5039 6.4082L15.1367 9.09375H13.7695L12.6953 6.84766L11.2793 7.48242L12.0605 9.09375H10.6445L8.39844 4.99219L10.3027 5.5293ZM17.9688 13V24.7188H10.1562C9.3099 24.7188 8.57747 24.4095 7.95898 23.791C7.34049 23.1725 7.03125 22.4401 7.03125 21.5938V19.2012C7.03125 17.1178 7.49512 15.2298 8.42285 13.5371C9.35059 11.8444 9.99349 10.8841 10.3516 10.6562H19.1895C19.2546 10.7214 19.3604 10.876 19.5068 11.1201C19.6533 11.3643 19.8568 11.7305 20.1172 12.2188H18.75C18.5221 12.2188 18.335 12.292 18.1885 12.4385C18.042 12.585 17.9688 12.7721 17.9688 13ZM19.5312 13.7812H25V24.7188H19.5312V13.7812ZM36.7188 14.123L41.0645 18.4688H32.373L36.7188 14.123ZM26.5625 4.40625H32.8125V15.7832L29.9316 18.7129C29.8014 18.8105 29.7201 18.9408 29.6875 19.1035C29.6549 19.2663 29.6712 19.4128 29.7363 19.543C29.8014 19.7057 29.8991 19.8278 30.0293 19.9092C30.1595 19.9906 30.306 20.0312 30.4688 20.0312H31.25V24.7188H26.5625V4.40625ZM32.8125 20.0312H40.625V24.7188H39.0625V21.5938C39.0625 21.3659 38.9893 21.1787 38.8428 21.0322C38.6963 20.8857 38.5091 20.8125 38.2812 20.8125H35.1562C34.9284 20.8125 34.7412 20.8857 34.5947 21.0322C34.4482 21.1787 34.375 21.3659 34.375 21.5938V24.7188H32.8125V20.0312ZM37.5 24.7188H35.9375V22.375H37.5V24.7188ZM19.2383 30.1875H30.4688C31.1198 30.1875 31.6732 30.4154 32.1289 30.8711C32.5846 31.3268 32.8125 31.8802 32.8125 32.5312C32.8125 33.1823 32.5846 33.7357 32.1289 34.1914C31.6732 34.6471 31.1198 34.875 30.4688 34.875H17.9688V36.4375H30.4688C31.4453 36.4375 32.2998 36.112 33.0322 35.4609C33.7646 34.8099 34.196 34.0124 34.3262 33.0684L39.3555 30.9199C39.4531 30.8874 39.5345 30.8385 39.5996 30.7734C39.6647 30.7083 39.7135 30.627 39.7461 30.5293L42.2852 25.5C42.4154 25.2396 42.5863 25.0443 42.7979 24.9141C43.0094 24.7839 43.2454 24.7188 43.5059 24.7188C43.7337 24.7188 43.9372 24.7594 44.1162 24.8408C44.2952 24.9222 44.4499 25.0443 44.5801 25.207C44.7103 25.3698 44.7998 25.5488 44.8486 25.7441C44.8975 25.9395 44.9056 26.1348 44.873 26.3301L44.5312 28.2344C44.3034 29.6016 43.929 30.9036 43.4082 32.1406C42.8874 33.4102 42.2526 34.5983 41.5039 35.7051C40.7552 36.8118 39.8926 37.8372 38.916 38.7812C37.9395 39.7253 36.8815 40.5716 35.7422 41.3203C34.2122 42.2643 32.5684 42.9886 30.8105 43.4932C29.0527 43.9977 27.2786 44.25 25.4883 44.25H7.8125V33.752C9.50521 32.5801 11.32 31.693 13.2568 31.0908C15.1937 30.4886 17.1875 30.1875 19.2383 30.1875ZM1.5625 30.1875H6.25V47.375H1.5625V30.1875ZM3.125 32.5312H4.6875V34.875H3.125V32.5312ZM28.125 5.96875H28.9062V7.53125H28.125V5.96875ZM30.4688 5.96875H31.25V7.53125H30.4688V5.96875ZM28.125 9.09375H28.9062V10.6562H28.125V9.09375ZM30.4688 9.09375H31.25V10.6562H30.4688V9.09375ZM28.125 12.2188H28.9062V13.7812H28.125V12.2188ZM30.4688 12.2188H31.25V13.7812H30.4688V12.2188ZM21.0938 15.3438H21.875V16.9062H21.0938V15.3438ZM23.4375 15.3438H24.2188V16.9062H23.4375V15.3438ZM21.0938 18.4688H21.875V20.0312H21.0938V18.4688ZM23.4375 18.4688H24.2188V20.0312H23.4375V18.4688ZM21.0938 21.5938H21.875V23.1562H21.0938V21.5938ZM23.4375 21.5938H24.2188V23.1562H23.4375V21.5938ZM28.125 15.3438H28.9062V16.9062H28.125V15.3438ZM30.4688 15.3438H31.25V16.9062H30.4688V15.3438ZM15.625 14.5625H14.8438V13.7812H13.2812V14.5625H12.5C12.2721 14.5625 12.085 14.6357 11.9385 14.7822C11.792 14.9287 11.7188 15.1159 11.7188 15.3438V17.6875C11.7188 17.9154 11.792 18.1025 11.9385 18.249C12.085 18.3955 12.2721 18.4688 12.5 18.4688H14.8438V19.25H11.7188V20.0312C11.7188 20.2591 11.792 20.4463 11.9385 20.5928C12.085 20.7393 12.2721 20.8125 12.5 20.8125H13.2812V21.5938H14.8438V20.8125H15.625C15.8529 20.8125 16.04 20.7393 16.1865 20.5928C16.333 20.4463 16.4062 20.2591 16.4062 20.0312V17.6875C16.4062 17.4596 16.333 17.2725 16.1865 17.126C16.04 16.9795 15.8529 16.9062 15.625 16.9062H13.2812V16.125H16.4062V15.3438C16.4062 15.1159 16.333 14.9287 16.1865 14.7822C16.04 14.6357 15.8529 14.5625 15.625 14.5625ZM39.8438 3.625H41.4062V5.1875H39.8438V3.625ZM41.4062 2.0625H42.9688V3.625H41.4062V2.0625ZM42.9688 3.625H44.5312V5.1875H42.9688V3.625ZM41.4062 5.1875H42.9688V6.75H41.4062V5.1875ZM45.3125 7.53125H46.875V9.09375H45.3125V7.53125ZM39.8438 9.875H41.4062V11.4375H39.8438V9.875ZM0 9.09375H1.5625V10.6562H0V9.09375ZM1.5625 7.53125H3.125V9.09375H1.5625V7.53125ZM3.125 9.09375H4.6875V10.6562H3.125V9.09375ZM1.5625 10.6562H3.125V12.2188H1.5625V10.6562ZM0 15.3438H1.5625V16.9062H0V15.3438ZM3.125 2.0625H4.6875V3.625H3.125V2.0625Z" fill="white"/>
</svg>