<svg width="19" height="16" viewBox="0 0 19 16" fill="none" xmlns="http://www.w3.org/2000/svg">
<path d="M1.66602 14.6654V2.9987C1.66602 2.07822 2.41221 1.33203 3.33268 1.33203H5.97566C6.41769 1.33203 6.84161 1.50763 7.15417 1.82019L7.84453 2.51054C8.15709 2.8231 8.58101 2.9987 9.02304 2.9987H14.9993C15.9198 2.9987 16.666 3.74489 16.666 4.66536V6.33203M1.74647 14.3972L3.80969 7.51978C4.02118 6.81481 4.67005 6.33203 5.40607 6.33203H16.1981C17.2823 6.33203 18.0779 7.35101 17.815 8.40292L16.565 13.4029C16.3795 14.1449 15.7128 14.6654 14.9481 14.6654H1.94602C1.80647 14.6654 1.70637 14.5308 1.74647 14.3972Z" stroke="#339F5E" stroke-width="1.66667" stroke-linecap="round"/>
</svg>
