<svg width="20" height="20" viewBox="0 0 20 20" fill="none" xmlns="http://www.w3.org/2000/svg">
<path d="M8.24088 16.1854H6.93079C6.50217 16.1854 6.15356 16.5378 6.15356 16.9711C6.15356 17.4044 6.50217 17.7569 6.93079 17.7569H8.24088C8.66951 17.7569 9.01812 17.4044 9.01812 16.9711C9.01812 16.538 8.66951 16.1854 8.24088 16.1854ZM8.24088 17.1763H6.93079C6.82071 17.1763 6.7278 17.0824 6.7278 16.9711C6.7278 16.86 6.82071 16.7659 6.93079 16.7659H8.24088C8.35273 16.7659 8.44388 16.8578 8.44388 16.9711C8.44388 17.0844 8.35273 17.1763 8.24088 17.1763ZM4.10411 4.4226C4.10411 4.26218 4.23274 4.13234 4.39123 4.13234H10.7805C10.9391 4.13234 11.0676 4.26238 11.0676 4.4226C11.0676 4.58303 10.9389 4.71287 10.7805 4.71287H4.39123C4.23254 4.71287 4.10411 4.58303 4.10411 4.4226ZM4.10411 5.85479C4.10411 5.69437 4.23274 5.56453 4.39123 5.56453H10.7805C10.9391 5.56453 11.0676 5.69456 11.0676 5.85479C11.0676 6.01522 10.9389 6.14506 10.7805 6.14506H4.39123C4.23254 6.14506 4.10411 6.01502 4.10411 5.85479ZM4.10411 7.28678C4.10411 7.12635 4.23274 6.99651 4.39123 6.99651H10.7805C10.9391 6.99651 11.0676 7.12655 11.0676 7.28678C11.0676 7.44701 10.9389 7.57704 10.7805 7.57704H4.39123C4.23254 7.57704 4.10411 7.4472 4.10411 7.28678ZM4.10411 8.71897C4.10411 8.55854 4.23274 8.4287 4.39123 8.4287H10.7805C10.9391 8.4287 11.0676 8.55874 11.0676 8.71897C11.0676 8.87939 10.9389 9.00923 10.7805 9.00923H4.39123C4.23254 9.00923 4.10411 8.87919 4.10411 8.71897ZM18 6.47143C18 6.1859 17.8905 5.91793 17.6914 5.71666L17.474 5.49684C17.2749 5.29557 17.0098 5.18487 16.7274 5.18487C16.445 5.18487 16.1799 5.29577 15.9808 5.49684L13.1715 8.33714V2.04464C13.1715 1.46865 12.7079 1 12.1382 1H3.03332C2.46357 1 2 1.46865 2 2.04464V17.9554C2 18.5314 2.46357 19 3.03332 19H12.1382C12.7079 19 13.1715 18.5314 13.1715 17.9554V11.7955L17.6914 7.226C17.8905 7.02493 18 6.75696 18 6.47143ZM10.8111 11.8452L11.4119 12.4526L10.5911 12.6749L10.8111 11.8452ZM11.9668 12.1923L11.7207 11.9435L16.5053 7.10642L16.7514 7.35505L11.9668 12.1923ZM11.3147 11.533L11.0687 11.2844L15.8533 6.44736L16.0993 6.69599L11.3147 11.533ZM9.82697 1.58073L9.67902 1.98505H5.49227L5.34432 1.58073H9.82697ZM12.5972 17.9554C12.5972 18.2111 12.3913 18.4193 12.1384 18.4193H3.03332C2.78035 18.4193 2.57443 18.2111 2.57443 17.9554V2.04464C2.57443 1.78891 2.78035 1.58073 3.03332 1.58073H4.73222L5.02304 2.37615C5.06481 2.4902 5.17217 2.56577 5.2924 2.56577H9.87908C9.99932 2.56577 10.1067 2.4902 10.1484 2.37615L10.4393 1.58073H12.1382C12.3913 1.58073 12.5971 1.78891 12.5971 2.04464V8.91787L10.4594 11.079C10.4238 11.1151 10.3981 11.1599 10.385 11.209L10.0208 12.583C9.031 11.9188 8.30705 12.5538 7.76287 13.0313C7.27705 13.4577 6.95832 13.7095 6.55389 13.5136C6.54472 13.5059 6.48382 13.4457 6.41765 13.1797C6.36397 12.9638 6.32591 12.6927 6.28922 12.4303C6.18733 11.7021 6.10672 11.1269 5.67165 11.0569C5.36423 11.0073 5.11927 11.2812 4.94009 11.5251C4.71953 11.8257 4.45564 12.2941 4.13339 12.9575C4.06351 13.1014 4.12226 13.2754 4.26455 13.346C4.40684 13.4167 4.579 13.3573 4.64887 13.2134C5.17002 12.1404 5.44191 11.7921 5.56117 11.6792C5.6291 11.859 5.68492 12.2572 5.72064 12.5118C5.81648 13.1959 5.90704 13.8421 6.30093 14.0349C6.48636 14.1257 6.66183 14.164 6.82793 14.164C7.34849 14.164 7.77751 13.7875 8.13939 13.47C8.74954 12.9346 9.19027 12.5477 9.98936 13.2983C9.99014 13.2991 9.99112 13.2995 9.9919 13.3001C10.0452 13.349 10.1141 13.3758 10.1847 13.3758C10.2095 13.3758 10.2345 13.3727 10.2591 13.366L12.0408 12.8833C12.0894 12.8701 12.1339 12.8442 12.1696 12.8081L12.5969 12.3762V17.9554H12.5972ZM17.2852 6.81557L17.1574 6.94481L16.2591 6.03672L16.387 5.90748C16.4775 5.81592 16.5984 5.7656 16.7274 5.7656C16.8564 5.7656 16.9772 5.81592 17.0678 5.90748L17.2852 6.1273C17.473 6.31693 17.473 6.62574 17.2852 6.81557Z" fill="#536C73"/>
</svg>
