<svg width="15" height="14" viewBox="0 0 15 14" fill="none" xmlns="http://www.w3.org/2000/svg">
<path d="M6.76366 1.87875C8.01616 0.62625 8.64241 0 9.42016 0C10.1987 0 10.8249 0.62625 12.0774 1.87875C13.3299 3.13125 13.9562 3.7575 13.9562 4.536C13.9562 5.31375 13.3299 5.94 12.0774 7.1925L8.93266 10.338L3.61816 5.0235L6.76366 1.87875Z" fill="#768F97"/>
<path d="M2.82305 5.82031L8.1368 11.1341L7.6493 11.6216C7.3658 11.9058 7.11455 12.1571 6.8858 12.3761H13.9561C14.1052 12.3761 14.2483 12.4353 14.3538 12.5408C14.4593 12.6463 14.5186 12.7894 14.5186 12.9386C14.5186 13.0877 14.4593 13.2308 14.3538 13.3363C14.2483 13.4418 14.1052 13.5011 13.9561 13.5011H4.95605C4.19405 13.4823 3.56855 12.8561 2.3348 11.6223C1.0823 10.3698 0.456055 9.74356 0.456055 8.96506C0.456055 8.18731 1.0823 7.56106 2.3348 6.30856L2.82305 5.82031Z" fill="#768F97"/>
</svg>
