<svg width="20" height="20" viewBox="0 0 20 20" fill="none" xmlns="http://www.w3.org/2000/svg">
<path d="M17.3261 10.5052C17.5296 10.3308 17.6313 10.2436 17.6686 10.1399C17.7013 10.0488 17.7013 9.94922 17.6686 9.85816C17.6313 9.75441 17.5296 9.66722 17.3261 9.49285L10.2672 3.44233C9.917 3.14217 9.74191 2.99209 9.59367 2.98841C9.46483 2.98521 9.34177 3.04181 9.26035 3.14171C9.16667 3.25666 9.16667 3.48727 9.16667 3.9485V7.52788C7.38777 7.83909 5.75966 8.74049 4.54976 10.0939C3.23069 11.5694 2.50103 13.479 2.5 15.4582V15.9682C3.37445 14.9147 4.46626 14.0628 5.70063 13.4706C6.78891 12.9485 7.96535 12.6393 9.16667 12.5578V16.0495C9.16667 16.5108 9.16667 16.7414 9.26035 16.8563C9.34177 16.9562 9.46483 17.0128 9.59367 17.0096C9.74191 17.006 9.917 16.8559 10.2672 16.5557L17.3261 10.5052Z" stroke="#536C73" stroke-linecap="round" stroke-linejoin="round"/>
</svg>
