<svg width="72" height="72" viewBox="0 0 72 72" fill="none" xmlns="http://www.w3.org/2000/svg">
<path d="M30.816 11.115C31.1292 11.6161 31.3406 12.174 31.4382 12.7569C31.5358 13.3397 31.5177 13.9361 31.3848 14.5119C31.2519 15.0877 31.0069 15.6317 30.6638 16.1128C30.3207 16.594 29.8861 17.0028 29.385 17.316C23.9053 20.7242 19.5534 25.674 16.875 31.545C19.5835 31.3185 22.2973 31.9148 24.6613 33.256C27.0253 34.5971 28.9295 36.6205 30.1247 39.0616C31.3199 41.5026 31.7504 44.2476 31.36 46.9374C30.9695 49.6271 29.7763 52.1364 27.9364 54.1369C26.0965 56.1374 23.6956 57.5359 21.0478 58.1495C18.4 58.7631 15.6287 58.5632 13.0964 57.576C10.5641 56.5888 8.38873 54.8601 6.85495 52.6163C5.32117 50.3725 4.50039 47.718 4.5 45V44.8785C4.50352 44.5301 4.51853 44.1819 4.545 43.8345C4.5855 43.1595 4.6665 42.2145 4.824 41.0535C5.139 38.745 5.7555 35.5635 7.002 31.9905C9.486 24.8355 14.517 15.993 24.615 9.68401C25.1161 9.37081 25.674 9.15938 26.2569 9.06179C26.8397 8.9642 27.4361 8.98236 28.0119 9.11524C28.5877 9.24812 29.1317 9.49312 29.6128 9.83624C30.094 10.1794 30.5028 10.6139 30.816 11.115ZM62.316 11.115C62.6292 11.6161 62.8406 12.174 62.9382 12.7569C63.0358 13.3397 63.0177 13.9361 62.8848 14.5119C62.7519 15.0877 62.5069 15.6317 62.1638 16.1128C61.8207 16.594 61.3861 17.0028 60.885 17.316C55.4051 20.7239 51.0532 25.6738 48.375 31.545C51.0835 31.3185 53.7973 31.9148 56.1613 33.256C58.5253 34.5971 60.4295 36.6205 61.6247 39.0616C62.8199 41.5026 63.2504 44.2476 62.86 46.9374C62.4695 49.6271 61.2763 52.1364 59.4364 54.1369C57.5965 56.1374 55.1956 57.5359 52.5478 58.1495C49.9 58.7631 47.1287 58.5632 44.5964 57.576C42.0641 56.5888 39.8887 54.8601 38.355 52.6163C36.8212 50.3725 36.0004 47.718 36 45V44.8785C36.0035 44.5301 36.0185 44.1819 36.045 43.8345C36.0855 43.1595 36.1665 42.2145 36.324 41.0535C36.639 38.745 37.2555 35.5635 38.502 31.9905C40.986 24.8355 46.017 15.993 56.115 9.68401C56.6161 9.37081 57.174 9.15938 57.7569 9.06179C58.3397 8.9642 58.9361 8.98236 59.5119 9.11524C60.0877 9.24812 60.6317 9.49312 61.1128 9.83624C61.594 10.1794 62.0028 10.6139 62.316 11.115Z" fill="#339e5e"/>
</svg>