<svg width="143" height="143" viewBox="0 0 143 143" fill="none" xmlns="http://www.w3.org/2000/svg">
<g opacity="0.5">
<path d="M76.0406 3.292C75.4319 3.90076 74.4482 3.90407 73.8435 3.29938C73.2388 2.6947 73.2421 1.71101 73.8509 1.10225C74.4596 0.493496 75.4433 0.490192 76.048 1.09487C76.6527 1.69956 76.6494 2.68325 76.0406 3.292Z" fill="#339F5E"/>
<path d="M82.6099 9.86125C82.0011 10.47 81.0174 10.4733 80.4127 9.86863C79.8081 9.26395 79.8114 8.28026 80.4201 7.6715C81.0289 7.06275 82.0126 7.05944 82.6173 7.66413C83.2219 8.26881 83.2186 9.2525 82.6099 9.86125Z" fill="#339F5E"/>
<path d="M89.1791 16.4305C88.5704 17.0393 87.5867 17.0426 86.982 16.4379C86.3773 15.8332 86.3806 14.8495 86.9894 14.2408C87.5981 13.632 88.5818 13.6287 89.1865 14.2334C89.7912 14.8381 89.7879 15.8217 89.1791 16.4305Z" fill="#339F5E"/>
<path d="M95.7484 22.9998C95.1396 23.6085 94.1559 23.6118 93.5512 23.0071C92.9466 22.4025 92.9499 21.4188 93.5586 20.81C94.1674 20.2012 95.1511 20.1979 95.7558 20.8026C96.3604 21.4073 96.3571 22.391 95.7484 22.9998Z" fill="#339F5E"/>
<path d="M102.318 29.569C101.709 30.1778 100.725 30.1811 100.12 29.5764C99.5158 28.9717 99.5191 27.988 100.128 27.3793C100.737 26.7705 101.72 26.7672 102.325 27.3719C102.93 27.9766 102.926 28.9602 102.318 29.569Z" fill="#339F5E"/>
<path d="M108.887 36.1383C108.278 36.747 107.294 36.7503 106.69 36.1456C106.085 35.541 106.088 34.5573 106.697 33.9485C107.306 33.3397 108.29 33.3364 108.894 33.9411C109.499 34.5458 109.496 35.5295 108.887 36.1383Z" fill="#339F5E"/>
<path d="M115.456 42.7075C114.847 43.3163 113.864 43.3196 113.259 42.7149C112.654 42.1102 112.658 41.1265 113.266 40.5178C113.875 39.909 114.859 39.9057 115.463 40.5104C116.068 41.1151 116.065 42.0987 115.456 42.7075Z" fill="#339F5E"/>
<path d="M122.025 49.2768C121.417 49.8855 120.433 49.8888 119.828 49.2841C119.224 48.6795 119.227 47.6958 119.836 47.087C120.444 46.4782 121.428 46.4749 122.033 47.0796C122.637 47.6843 122.634 48.668 122.025 49.2768Z" fill="#339F5E"/>
<path d="M128.595 55.846C127.986 56.4548 127.002 56.4581 126.397 55.8534C125.793 55.2487 125.796 54.265 126.405 53.6563C127.014 53.0475 127.997 53.0442 128.602 53.6489C129.207 54.2536 129.203 55.2372 128.595 55.846Z" fill="#339F5E"/>
<path d="M135.164 62.4153C134.555 63.024 133.571 63.0273 132.967 62.4226C132.362 61.8179 132.365 60.8343 132.974 60.2255C133.583 59.6167 134.567 59.6134 135.171 60.2181C135.776 60.8228 135.773 61.8065 135.164 62.4153Z" fill="#339F5E"/>
<path d="M141.733 68.9845C141.124 69.5933 140.141 69.5966 139.536 68.9919C138.931 68.3872 138.935 67.4035 139.543 66.7948C140.152 66.186 141.136 66.1827 141.741 66.7874C142.345 67.3921 142.342 68.3757 141.733 68.9845Z" fill="#339F5E"/>
<path d="M69.4271 9.90553C68.8183 10.5143 67.8346 10.5176 67.23 9.91291C66.6253 9.30823 66.6286 8.32454 67.2373 7.71578C67.8461 7.10702 68.8298 7.10372 69.4345 7.7084C70.0392 8.31309 70.0359 9.29677 69.4271 9.90553Z" fill="#339F5E"/>
<path d="M75.9963 16.4748C75.3876 17.0835 74.4039 17.0868 73.7992 16.4822C73.1945 15.8775 73.1978 14.8938 73.8066 14.285C74.4154 13.6763 75.399 13.673 76.0037 14.2777C76.6084 14.8823 76.6051 15.866 75.9963 16.4748Z" fill="#339F5E"/>
<path d="M82.5656 23.044C81.9568 23.6528 80.9731 23.6561 80.3685 23.0514C79.7638 22.4467 79.7671 21.463 80.3758 20.8543C80.9846 20.2455 81.9683 20.2422 82.573 20.8469C83.1777 21.4516 83.1744 22.4353 82.5656 23.044Z" fill="#339F5E"/>
<path d="M89.1348 29.6133C88.5261 30.222 87.5424 30.2253 86.9377 29.6207C86.333 29.016 86.3363 28.0323 86.9451 27.4235C87.5539 26.8148 88.5375 26.8115 89.1422 27.4162C89.7469 28.0208 89.7436 29.0045 89.1348 29.6133Z" fill="#339F5E"/>
<path d="M95.7041 36.1825C95.0953 36.7913 94.1116 36.7946 93.507 36.1899C92.9023 35.5852 92.9056 34.6015 93.5143 33.9928C94.1231 33.384 95.1068 33.3807 95.7115 33.9854C96.3162 34.5901 96.3129 35.5738 95.7041 36.1825Z" fill="#339F5E"/>
<path d="M102.273 42.7518C101.665 43.3605 100.681 43.3638 100.076 42.7592C99.4715 42.1545 99.4748 41.1708 100.084 40.562C100.692 39.9533 101.676 39.95 102.281 40.5547C102.885 41.1593 102.882 42.143 102.273 42.7518Z" fill="#339F5E"/>
<path d="M108.843 49.321C108.234 49.9298 107.25 49.9331 106.645 49.3284C106.041 48.7237 106.044 47.74 106.653 47.1313C107.262 46.5225 108.245 46.5192 108.85 47.1239C109.455 47.7286 109.451 48.7123 108.843 49.321Z" fill="#339F5E"/>
<path d="M115.412 55.8903C114.803 56.499 113.819 56.5023 113.215 55.8977C112.61 55.293 112.613 54.3093 113.222 53.7005C113.831 53.0918 114.815 53.0885 115.419 53.6932C116.024 54.2978 116.021 55.2815 115.412 55.8903Z" fill="#339F5E"/>
<path d="M121.981 62.4595C121.372 63.0683 120.389 63.0716 119.784 62.4669C119.179 61.8622 119.183 60.8785 119.791 60.2698C120.4 59.661 121.384 59.6577 121.988 60.2624C122.593 60.8671 122.59 61.8508 121.981 62.4595Z" fill="#339F5E"/>
<path d="M128.55 69.0288C127.942 69.6375 126.958 69.6408 126.353 69.0362C125.749 68.4315 125.752 67.4478 126.361 66.839C126.969 66.2303 127.953 66.227 128.558 66.8317C129.162 67.4363 129.159 68.42 128.55 69.0288Z" fill="#339F5E"/>
<path d="M135.12 75.598C134.511 76.2068 133.527 76.2101 132.922 75.6054C132.318 75.0007 132.321 74.017 132.93 73.4083C133.539 72.7995 134.522 72.7962 135.127 73.4009C135.732 74.0056 135.728 74.9893 135.12 75.598Z" fill="#339F5E"/>
<path d="M62.8136 16.5191C62.2048 17.1278 61.2211 17.1311 60.6164 16.5264C60.0118 15.9218 60.0151 14.9381 60.6238 14.3293C61.2326 13.7206 62.2163 13.7172 62.8209 14.3219C63.4256 14.9266 63.4223 15.9103 62.8136 16.5191Z" fill="#339F5E"/>
<path d="M69.3828 23.0883C68.7741 23.6971 67.7904 23.7004 67.1857 23.0957C66.581 22.491 66.5843 21.5073 67.1931 20.8986C67.8018 20.2898 68.7855 20.2865 69.3902 20.8912C69.9949 21.4959 69.9916 22.4796 69.3828 23.0883Z" fill="#339F5E"/>
<path d="M75.9521 29.6576C75.3433 30.2663 74.3596 30.2696 73.7549 29.6649C73.1503 29.0603 73.1536 28.0766 73.7623 27.4678C74.3711 26.8591 75.3548 26.8557 75.9594 27.4604C76.5641 28.0651 76.5608 29.0488 75.9521 29.6576Z" fill="#339F5E"/>
<path d="M82.5213 36.2268C81.9126 36.8356 80.9289 36.8389 80.3242 36.2342C79.7195 35.6295 79.7228 34.6458 80.3316 34.0371C80.9403 33.4283 81.924 33.425 82.5287 34.0297C83.1334 34.6344 83.1301 35.6181 82.5213 36.2268Z" fill="#339F5E"/>
<path d="M89.0906 42.7961C88.4818 43.4048 87.4981 43.4081 86.8934 42.8034C86.2888 42.1988 86.2921 41.2151 86.9008 40.6063C87.5096 39.9976 88.4933 39.9942 89.0979 40.5989C89.7026 41.2036 89.6993 42.1873 89.0906 42.7961Z" fill="#339F5E"/>
<path d="M95.6598 49.3653C95.0511 49.9741 94.0674 49.9774 93.4627 49.3727C92.858 48.768 92.8613 47.7843 93.4701 47.1756C94.0788 46.5668 95.0625 46.5635 95.6672 47.1682C96.2719 47.7729 96.2686 48.7566 95.6598 49.3653Z" fill="#339F5E"/>
<path d="M102.229 55.9346C101.62 56.5433 100.637 56.5466 100.032 55.9419C99.4273 55.3373 99.4306 54.3536 100.039 53.7448C100.648 53.1361 101.632 53.1327 102.236 53.7374C102.841 54.3421 102.838 55.3258 102.229 55.9346Z" fill="#339F5E"/>
<path d="M108.798 62.5038C108.19 63.1126 107.206 63.1159 106.601 62.5112C105.997 61.9065 106 60.9228 106.609 60.3141C107.217 59.7053 108.201 59.702 108.806 60.3067C109.41 60.9114 109.407 61.8951 108.798 62.5038Z" fill="#339F5E"/>
<path d="M115.368 69.0731C114.759 69.6818 113.775 69.6851 113.17 69.0804C112.566 68.4758 112.569 67.4921 113.178 66.8833C113.787 66.2746 114.77 66.2712 115.375 66.8759C115.98 67.4806 115.976 68.4643 115.368 69.0731Z" fill="#339F5E"/>
<path d="M121.937 75.6423C121.328 76.2511 120.344 76.2544 119.74 75.6497C119.135 75.045 119.138 74.0613 119.747 73.4526C120.356 72.8438 121.34 72.8405 121.944 73.4452C122.549 74.0499 122.546 75.0336 121.937 75.6423Z" fill="#339F5E"/>
<path d="M128.506 82.2116C127.897 82.8203 126.914 82.8236 126.309 82.2189C125.704 81.6143 125.708 80.6306 126.316 80.0218C126.925 79.4131 127.909 79.4098 128.513 80.0144C129.118 80.6191 129.115 81.6028 128.506 82.2116Z" fill="#339F5E"/>
<path d="M56.2 23.1326C55.5913 23.7413 54.6076 23.7447 54.0029 23.14C53.3982 22.5353 53.4015 21.5516 54.0103 20.9428C54.619 20.3341 55.6027 20.3308 56.2074 20.9355C56.8121 21.5401 56.8088 22.5238 56.2 23.1326Z" fill="#339F5E"/>
<path d="M62.7693 29.7018C62.1605 30.3106 61.1768 30.3139 60.5722 29.7092C59.9675 29.1045 59.9708 28.1208 60.5795 27.5121C61.1883 26.9033 62.172 26.9 62.7767 27.5047C63.3813 28.1094 63.378 29.0931 62.7693 29.7018Z" fill="#339F5E"/>
<path d="M69.3385 36.2711C68.7298 36.8798 67.7461 36.8832 67.1414 36.2785C66.5367 35.6738 66.54 34.6901 67.1488 34.0813C67.7575 33.4726 68.7412 33.4693 69.3459 34.074C69.9506 34.6786 69.9473 35.6623 69.3385 36.2711Z" fill="#339F5E"/>
<path d="M75.9078 42.8403C75.299 43.4491 74.3153 43.4524 73.7107 42.8477C73.106 42.243 73.1093 41.2593 73.718 40.6506C74.3268 40.0418 75.3105 40.0385 75.9152 40.6432C76.5198 41.2479 76.5165 42.2316 75.9078 42.8403Z" fill="#339F5E"/>
<path d="M82.477 49.4096C81.8683 50.0183 80.8846 50.0217 80.2799 49.417C79.6752 48.8123 79.6785 47.8286 80.2873 47.2198C80.896 46.6111 81.8797 46.6078 82.4844 47.2125C83.0891 47.8171 83.0858 48.8008 82.477 49.4096Z" fill="#339F5E"/>
<path d="M89.0463 55.9788C88.4375 56.5876 87.4538 56.5909 86.8492 55.9862C86.2445 55.3815 86.2478 54.3978 86.8565 53.7891C87.4653 53.1803 88.449 53.177 89.0537 53.7817C89.6583 54.3864 89.655 55.3701 89.0463 55.9788Z" fill="#339F5E"/>
<path d="M95.6155 62.5481C95.0068 63.1568 94.0231 63.1602 93.4184 62.5555C92.8137 61.9508 92.817 60.9671 93.4258 60.3583C94.0345 59.7496 95.0182 59.7463 95.6229 60.351C96.2276 60.9556 96.2243 61.9393 95.6155 62.5481Z" fill="#339F5E"/>
<path d="M102.185 69.1173C101.576 69.7261 100.592 69.7294 99.9877 69.1247C99.383 68.52 99.3863 67.5363 99.995 66.9276C100.604 66.3188 101.587 66.3155 102.192 66.9202C102.797 67.5249 102.794 68.5086 102.185 69.1173Z" fill="#339F5E"/>
<path d="M108.754 75.6866C108.145 76.2954 107.162 76.2987 106.557 75.694C105.952 75.0893 105.956 74.1056 106.564 73.4968C107.173 72.8881 108.157 72.8848 108.761 73.4895C109.366 74.0941 109.363 75.0778 108.754 75.6866Z" fill="#339F5E"/>
<path d="M115.323 82.2558C114.715 82.8646 113.731 82.8679 113.126 82.2632C112.521 81.6585 112.525 80.6749 113.134 80.0661C113.742 79.4573 114.726 79.454 115.331 80.0587C115.935 80.6634 115.932 81.6471 115.323 82.2558Z" fill="#339F5E"/>
<path d="M121.893 88.8251C121.284 89.4338 120.3 89.4372 119.695 88.8325C119.091 88.2278 119.094 87.2441 119.703 86.6353C120.312 86.0266 121.295 86.0233 121.9 86.628C122.505 87.2326 122.501 88.2163 121.893 88.8251Z" fill="#339F5E"/>
<path d="M49.5865 29.7461C48.9777 30.3549 47.9941 30.3582 47.3894 29.7535C46.7847 29.1488 46.788 28.1651 47.3968 27.5564C48.0055 26.9476 48.9892 26.9443 49.5939 27.549C50.1986 28.1537 50.1953 29.1374 49.5865 29.7461Z" fill="#339F5E"/>
<path d="M56.1558 36.3154C55.547 36.9241 54.5633 36.9274 53.9586 36.3227C53.3539 35.7181 53.3572 34.7344 53.966 34.1256C54.5748 33.5169 55.5585 33.5136 56.1631 34.1182C56.7678 34.7229 56.7645 35.7066 56.1558 36.3154Z" fill="#339F5E"/>
<path d="M62.725 42.8846C62.1162 43.4934 61.1326 43.4967 60.5279 42.892C59.9232 42.2873 59.9265 41.3036 60.5353 40.6949C61.144 40.0861 62.1277 40.0828 62.7324 40.6875C63.3371 41.2922 63.3338 42.2759 62.725 42.8846Z" fill="#339F5E"/>
<path d="M69.2943 49.4539C68.6855 50.0626 67.7018 50.0659 67.0971 49.4612C66.4924 48.8566 66.4957 47.8729 67.1045 47.2641C67.7133 46.6554 68.697 46.6521 69.3016 47.2567C69.9063 47.8614 69.903 48.8451 69.2943 49.4539Z" fill="#339F5E"/>
<path d="M75.8635 56.0231C75.2547 56.6319 74.2711 56.6352 73.6664 56.0305C73.0617 55.4258 73.065 54.4421 73.6738 53.8334C74.2825 53.2246 75.2662 53.2213 75.8709 53.826C76.4756 54.4307 76.4723 55.4144 75.8635 56.0231Z" fill="#339F5E"/>
<path d="M82.4328 62.5924C81.824 63.2011 80.8403 63.2044 80.2356 62.5997C79.6309 61.9951 79.6342 61.0114 80.243 60.4026C80.8518 59.7939 81.8355 59.7906 82.4401 60.3952C83.0448 60.9999 83.0415 61.9836 82.4328 62.5924Z" fill="#339F5E"/>
<path d="M89.002 69.1616C88.3932 69.7704 87.4096 69.7737 86.8049 69.169C86.2002 68.5643 86.2035 67.5806 86.8123 66.9719C87.421 66.3631 88.4047 66.3598 89.0094 66.9645C89.6141 67.5692 89.6108 68.5529 89.002 69.1616Z" fill="#339F5E"/>
<path d="M95.5713 75.7309C94.9625 76.3396 93.9788 76.3429 93.3741 75.7382C92.7694 75.1336 92.7727 74.1499 93.3815 73.5411C93.9903 72.9324 94.974 72.9291 95.5786 73.5337C96.1833 74.1384 96.18 75.1221 95.5713 75.7309Z" fill="#339F5E"/>
<path d="M102.141 82.3001C101.532 82.9089 100.548 82.9122 99.9434 82.3075C99.3387 81.7028 99.342 80.7191 99.9508 80.1104C100.56 79.5016 101.543 79.4983 102.148 80.103C102.753 80.7077 102.749 81.6914 102.141 82.3001Z" fill="#339F5E"/>
<path d="M108.71 88.8694C108.101 89.4781 107.117 89.4814 106.513 88.8767C105.908 88.2721 105.911 87.2884 106.52 86.6796C107.129 86.0709 108.112 86.0676 108.717 86.6722C109.322 87.2769 109.319 88.2606 108.71 88.8694Z" fill="#339F5E"/>
<path d="M115.279 95.4386C114.67 96.0474 113.687 96.0507 113.082 95.446C112.477 94.8413 112.481 93.8576 113.089 93.2489C113.698 92.6401 114.682 92.6368 115.286 93.2415C115.891 93.8462 115.888 94.8299 115.279 95.4386Z" fill="#339F5E"/>
<path d="M42.973 36.3596C42.3642 36.9684 41.3805 36.9717 40.7758 36.367C40.1712 35.7623 40.1745 34.7787 40.7832 34.1699C41.392 33.5611 42.3757 33.5578 42.9804 34.1625C43.585 34.7672 43.5817 35.7509 42.973 36.3596Z" fill="#339F5E"/>
<path d="M49.5422 42.9289C48.9335 43.5377 47.9498 43.541 47.3451 42.9363C46.7404 42.3316 46.7437 41.3479 47.3525 40.7391C47.9612 40.1304 48.9449 40.1271 49.5496 40.7318C50.1543 41.3365 50.151 42.3201 49.5422 42.9289Z" fill="#339F5E"/>
<path d="M56.1115 49.4981C55.5027 50.1069 54.519 50.1102 53.9143 49.5055C53.3097 48.9008 53.313 47.9172 53.9217 47.3084C54.5305 46.6996 55.5142 46.6963 56.1189 47.301C56.7235 47.9057 56.7202 48.8894 56.1115 49.4981Z" fill="#339F5E"/>
<path d="M62.6807 56.0674C62.072 56.6762 61.0883 56.6795 60.4836 56.0748C59.8789 55.4701 59.8822 54.4864 60.491 53.8776C61.0997 53.2689 62.0834 53.2656 62.6881 53.8703C63.2928 54.475 63.2895 55.4586 62.6807 56.0674Z" fill="#339F5E"/>
<path d="M69.25 62.6366C68.6412 63.2454 67.6575 63.2487 67.0529 62.644C66.4482 62.0393 66.4515 61.0557 67.0602 60.4469C67.669 59.8381 68.6527 59.8348 69.2574 60.4395C69.862 61.0442 69.8587 62.0279 69.25 62.6366Z" fill="#339F5E"/>
<path d="M75.8192 69.2059C75.2105 69.8147 74.2268 69.818 73.6221 69.2133C73.0174 68.6086 73.0207 67.6249 73.6295 67.0161C74.2382 66.4074 75.2219 66.4041 75.8266 67.0088C76.4313 67.6135 76.428 68.5971 75.8192 69.2059Z" fill="#339F5E"/>
<path d="M82.3885 75.7751C81.7797 76.3839 80.796 76.3872 80.1913 75.7825C79.5867 75.1778 79.59 74.1942 80.1987 73.5854C80.8075 72.9766 81.7912 72.9733 82.3959 73.578C83.0005 74.1827 82.9972 75.1664 82.3885 75.7751Z" fill="#339F5E"/>
<path d="M88.9577 82.3444C88.349 82.9532 87.3653 82.9565 86.7606 82.3518C86.1559 81.7471 86.1592 80.7634 86.768 80.1546C87.3767 79.5459 88.3604 79.5426 88.9651 80.1473C89.5698 80.752 89.5665 81.7356 88.9577 82.3444Z" fill="#339F5E"/>
<path d="M95.527 88.9136C94.9182 89.5224 93.9345 89.5257 93.3299 88.921C92.7252 88.3163 92.7285 87.3327 93.3372 86.7239C93.946 86.1151 94.9297 86.1118 95.5344 86.7165C96.139 87.3212 96.1357 88.3049 95.527 88.9136Z" fill="#339F5E"/>
<path d="M102.096 95.4829C101.487 96.0917 100.504 96.095 99.8991 95.4903C99.2944 94.8856 99.2977 93.9019 99.9065 93.2931C100.515 92.6844 101.499 92.6811 102.104 93.2858C102.708 93.8905 102.705 94.8741 102.096 95.4829Z" fill="#339F5E"/>
<path d="M108.665 102.052C108.057 102.661 107.073 102.664 106.468 102.06C105.864 101.455 105.867 100.471 106.476 99.8624C107.084 99.2536 108.068 99.2503 108.673 99.855C109.278 100.46 109.274 101.443 108.665 102.052Z" fill="#339F5E"/>
<path d="M36.3595 42.9732C35.7507 43.5819 34.767 43.5852 34.1623 42.9806C33.5576 42.3759 33.5609 41.3922 34.1697 40.7834C34.7785 40.1747 35.7621 40.1714 36.3668 40.776C36.9715 41.3807 36.9682 42.3644 36.3595 42.9732Z" fill="#339F5E"/>
<path d="M42.9287 49.5424C42.3199 50.1512 41.3363 50.1545 40.7316 49.5498C40.1269 48.9451 40.1302 47.9614 40.739 47.3527C41.3477 46.7439 42.3314 46.7406 42.9361 47.3453C43.5408 47.95 43.5375 48.9337 42.9287 49.5424Z" fill="#339F5E"/>
<path d="M49.498 56.1117C48.8892 56.7204 47.9055 56.7237 47.3008 56.1191C46.6961 55.5144 46.6994 54.5307 47.3082 53.9219C47.917 53.3132 48.9006 53.3099 49.5053 53.9145C50.11 54.5192 50.1067 55.5029 49.498 56.1117Z" fill="#339F5E"/>
<path d="M56.0672 62.6809C55.4584 63.2897 54.4748 63.293 53.8701 62.6883C53.2654 62.0836 53.2687 61.0999 53.8775 60.4912C54.4862 59.8824 55.4699 59.8791 56.0746 60.4838C56.6793 61.0885 56.676 62.0722 56.0672 62.6809Z" fill="#339F5E"/>
<path d="M62.6365 69.2502C62.0277 69.8589 61.044 69.8622 60.4393 69.2576C59.8346 68.6529 59.8379 67.6692 60.4467 67.0604C61.0555 66.4517 62.0391 66.4484 62.6438 67.053C63.2485 67.6577 63.2452 68.6414 62.6365 69.2502Z" fill="#339F5E"/>
<path d="M69.2057 75.8194C68.5969 76.4282 67.6133 76.4315 67.0086 75.8268C66.4039 75.2221 66.4072 74.2384 67.016 73.6297C67.6247 73.0209 68.6084 73.0176 69.2131 73.6223C69.8178 74.227 69.8145 75.2107 69.2057 75.8194Z" fill="#339F5E"/>
<path d="M75.775 82.3887C75.1662 82.9974 74.1825 83.0007 73.5778 82.3961C72.9731 81.7914 72.9764 80.8077 73.5852 80.1989C74.194 79.5902 75.1776 79.5869 75.7823 80.1915C76.387 80.7962 76.3837 81.7799 75.775 82.3887Z" fill="#339F5E"/>
<path d="M82.3442 88.9579C81.7354 89.5667 80.7518 89.57 80.1471 88.9653C79.5424 88.3606 79.5457 87.3769 80.1545 86.7682C80.7632 86.1594 81.7469 86.1561 82.3516 86.7608C82.9563 87.3655 82.953 88.3492 82.3442 88.9579Z" fill="#339F5E"/>
<path d="M88.9135 95.5272C88.3047 96.1359 87.321 96.1392 86.7163 95.5346C86.1116 94.9299 86.1149 93.9462 86.7237 93.3374C87.3325 92.7287 88.3161 92.7254 88.9208 93.33C89.5255 93.9347 89.5222 94.9184 88.9135 95.5272Z" fill="#339F5E"/>
<path d="M95.4827 102.096C94.8739 102.705 93.8903 102.708 93.2856 102.104C92.6809 101.499 92.6842 100.515 93.293 99.9067C93.9017 99.2979 94.8854 99.2946 95.4901 99.8993C96.0948 100.504 96.0915 101.488 95.4827 102.096Z" fill="#339F5E"/>
<path d="M102.052 108.666C101.443 109.274 100.46 109.278 99.8548 108.673C99.2501 108.068 99.2534 107.085 99.8622 106.476C100.471 105.867 101.455 105.864 102.059 106.469C102.664 107.073 102.661 108.057 102.052 108.666Z" fill="#339F5E"/>
<path d="M29.7459 49.5867C29.1372 50.1955 28.1535 50.1988 27.5488 49.5941C26.9441 48.9894 26.9474 48.0057 27.5562 47.397C28.1649 46.7882 29.1486 46.7849 29.7533 47.3896C30.358 47.9943 30.3547 48.9779 29.7459 49.5867Z" fill="#339F5E"/>
<path d="M36.3152 56.156C35.7064 56.7647 34.7227 56.768 34.118 56.1633C33.5134 55.5587 33.5167 54.575 34.1254 53.9662C34.7342 53.3574 35.7179 53.3541 36.3226 53.9588C36.9272 54.5635 36.9239 55.5472 36.3152 56.156Z" fill="#339F5E"/>
<path d="M42.8844 62.7252C42.2757 63.334 41.292 63.3373 40.6873 62.7326C40.0826 62.1279 40.0859 61.1442 40.6947 60.5355C41.3034 59.9267 42.2871 59.9234 42.8918 60.5281C43.4965 61.1328 43.4932 62.1164 42.8844 62.7252Z" fill="#339F5E"/>
<path d="M49.4537 69.2945C48.8449 69.9032 47.8612 69.9065 47.2565 69.3018C46.6519 68.6972 46.6552 67.7135 47.2639 67.1047C47.8727 66.4959 48.8564 66.4926 49.4611 67.0973C50.0657 67.702 50.0624 68.6857 49.4537 69.2945Z" fill="#339F5E"/>
<path d="M56.0229 75.8637C55.4142 76.4725 54.4305 76.4758 53.8258 75.8711C53.2211 75.2664 53.2244 74.2827 53.8332 73.6739C54.4419 73.0652 55.4256 73.0619 56.0303 73.6666C56.635 74.2713 56.6317 75.2549 56.0229 75.8637Z" fill="#339F5E"/>
<path d="M62.5922 82.4329C61.9834 83.0417 60.9997 83.045 60.395 82.4403C59.7904 81.8357 59.7937 80.852 60.4024 80.2432C61.0112 79.6344 61.9949 79.6311 62.5996 80.2358C63.2042 80.8405 63.2009 81.8242 62.5922 82.4329Z" fill="#339F5E"/>
<path d="M69.1614 89.0022C68.5527 89.611 67.569 89.6143 66.9643 89.0096C66.3596 88.4049 66.3629 87.4212 66.9717 86.8125C67.5804 86.2037 68.5641 86.2004 69.1688 86.8051C69.7735 87.4098 69.7702 88.3934 69.1614 89.0022Z" fill="#339F5E"/>
<path d="M75.7307 95.5715C75.1219 96.1802 74.1382 96.1835 73.5335 95.5788C72.9289 94.9742 72.9322 93.9905 73.5409 93.3817C74.1497 92.7729 75.1334 92.7696 75.7381 93.3743C76.3427 93.979 76.3394 94.9627 75.7307 95.5715Z" fill="#339F5E"/>
<path d="M82.2999 102.141C81.6912 102.749 80.7075 102.753 80.1028 102.148C79.4981 101.543 79.5014 100.56 80.1102 99.9509C80.7189 99.3422 81.7026 99.3389 82.3073 99.9436C82.912 100.548 82.9087 101.532 82.2999 102.141Z" fill="#339F5E"/>
<path d="M88.8692 108.71C88.2604 109.319 87.2767 109.322 86.672 108.717C86.0674 108.113 86.0707 107.129 86.6794 106.52C87.2882 105.911 88.2719 105.908 88.8766 106.513C89.4812 107.118 89.4779 108.101 88.8692 108.71Z" fill="#339F5E"/>
<path d="M95.4384 115.279C94.8297 115.888 93.846 115.891 93.2413 115.287C92.6366 114.682 92.6399 113.698 93.2487 113.089C93.8574 112.481 94.8411 112.477 95.4458 113.082C96.0505 113.687 96.0472 114.67 95.4384 115.279Z" fill="#339F5E"/>
<path d="M23.1324 56.2002C22.5236 56.809 21.5399 56.8123 20.9353 56.2076C20.3306 55.6029 20.3339 54.6192 20.9426 54.0105C21.5514 53.4017 22.5351 53.3984 23.1398 54.0031C23.7445 54.6078 23.7412 55.5915 23.1324 56.2002Z" fill="#339F5E"/>
<path d="M29.7016 62.7695C29.0929 63.3782 28.1092 63.3815 27.5045 62.7769C26.8998 62.1722 26.9031 61.1885 27.5119 60.5797C28.1207 59.971 29.1043 59.9677 29.709 60.5724C30.3137 61.177 30.3104 62.1607 29.7016 62.7695Z" fill="#339F5E"/>
<path d="M36.2709 69.3387C35.6621 69.9475 34.6784 69.9508 34.0738 69.3461C33.4691 68.7414 33.4724 67.7577 34.0811 67.149C34.6899 66.5402 35.6736 66.5369 36.2783 67.1416C36.883 67.7463 36.8797 68.73 36.2709 69.3387Z" fill="#339F5E"/>
<path d="M42.8401 75.908C42.2314 76.5167 41.2477 76.52 40.643 75.9154C40.0383 75.3107 40.0416 74.327 40.6504 73.7182C41.2592 73.1095 42.2428 73.1062 42.8475 73.7109C43.4522 74.3155 43.4489 75.2992 42.8401 75.908Z" fill="#339F5E"/>
<path d="M49.4094 82.4772C48.8006 83.086 47.8169 83.0893 47.2123 82.4846C46.6076 81.8799 46.6109 80.8962 47.2196 80.2875C47.8284 79.6787 48.8121 79.6754 49.4168 80.2801C50.0215 80.8848 50.0182 81.8685 49.4094 82.4772Z" fill="#339F5E"/>
<path d="M55.9786 89.0465C55.3699 89.6552 54.3862 89.6585 53.7815 89.0539C53.1768 88.4492 53.1801 87.4655 53.7889 86.8567C54.3977 86.248 55.3813 86.2447 55.986 86.8494C56.5907 87.454 56.5874 88.4377 55.9786 89.0465Z" fill="#339F5E"/>
<path d="M62.5479 95.6157C61.9391 96.2245 60.9554 96.2278 60.3508 95.6231C59.7461 95.0184 59.7494 94.0347 60.3581 93.426C60.9669 92.8172 61.9506 92.8139 62.5553 93.4186C63.16 94.0233 63.1567 95.007 62.5479 95.6157Z" fill="#339F5E"/>
<path d="M69.1171 102.185C68.5084 102.794 67.5247 102.797 66.92 102.192C66.3153 101.588 66.3186 100.604 66.9274 99.9952C67.5362 99.3865 68.5198 99.3832 69.1245 99.9878C69.7292 100.593 69.7259 101.576 69.1171 102.185Z" fill="#339F5E"/>
<path d="M75.6864 108.754C75.0776 109.363 74.0939 109.366 73.4893 108.762C72.8846 108.157 72.8879 107.173 73.4966 106.564C74.1054 105.956 75.0891 105.952 75.6938 106.557C76.2985 107.162 76.2952 108.145 75.6864 108.754Z" fill="#339F5E"/>
<path d="M82.2556 115.323C81.6469 115.932 80.6632 115.936 80.0585 115.331C79.4538 114.726 79.4571 113.742 80.0659 113.134C80.6747 112.525 81.6583 112.522 82.263 113.126C82.8677 113.731 82.8644 114.715 82.2556 115.323Z" fill="#339F5E"/>
<path d="M88.8249 121.893C88.2161 122.501 87.2324 122.505 86.6278 121.9C86.0231 121.295 86.0264 120.312 86.6351 119.703C87.2439 119.094 88.2276 119.091 88.8323 119.696C89.437 120.3 89.4337 121.284 88.8249 121.893Z" fill="#339F5E"/>
<path d="M16.5189 62.8138C15.9101 63.4225 14.9264 63.4258 14.3217 62.8211C13.7171 62.2165 13.7204 61.2328 14.3291 60.624C14.9379 60.0153 15.9216 60.0119 16.5262 60.6166C17.1309 61.2213 17.1276 62.205 16.5189 62.8138Z" fill="#339F5E"/>
<path d="M23.0881 69.383C22.4794 69.9918 21.4957 69.9951 20.891 69.3904C20.2863 68.7857 20.2896 67.802 20.8984 67.1933C21.5071 66.5845 22.4908 66.5812 23.0955 67.1859C23.7002 67.7906 23.6969 68.7742 23.0881 69.383Z" fill="#339F5E"/>
<path d="M29.6574 75.9523C29.0486 76.561 28.0649 76.5643 27.4602 75.9596C26.8556 75.355 26.8589 74.3713 27.4676 73.7625C28.0764 73.1537 29.0601 73.1504 29.6647 73.7551C30.2694 74.3598 30.2661 75.3435 29.6574 75.9523Z" fill="#339F5E"/>
<path d="M36.2266 82.5215C35.6179 83.1303 34.6342 83.1336 34.0295 82.5289C33.4248 81.9242 33.4281 80.9405 34.0369 80.3318C34.6456 79.723 35.6293 79.7197 36.234 80.3244C36.8387 80.9291 36.8354 81.9128 36.2266 82.5215Z" fill="#339F5E"/>
<path d="M42.7959 89.0908C42.1871 89.6995 41.2034 89.7028 40.5987 89.0981C39.9941 88.4935 39.9974 87.5098 40.6061 86.901C41.2149 86.2922 42.1986 86.2889 42.8032 86.8936C43.4079 87.4983 43.4046 88.482 42.7959 89.0908Z" fill="#339F5E"/>
<path d="M49.3651 95.66C48.7564 96.2688 47.7727 96.2721 47.168 95.6674C46.5633 95.0627 46.5666 94.079 47.1754 93.4703C47.7841 92.8615 48.7678 92.8582 49.3725 93.4629C49.9772 94.0676 49.9739 95.0512 49.3651 95.66Z" fill="#339F5E"/>
<path d="M55.9344 102.229C55.3256 102.838 54.3419 102.841 53.7372 102.237C53.1326 101.632 53.1359 100.648 53.7446 100.04C54.3534 99.4308 55.3371 99.4274 55.9417 100.032C56.5464 100.637 56.5431 101.621 55.9344 102.229Z" fill="#339F5E"/>
<path d="M62.5036 108.799C61.8949 109.407 60.9112 109.411 60.3065 108.806C59.7018 108.201 59.7051 107.218 60.3139 106.609C60.9226 106 61.9063 105.997 62.511 106.601C63.1157 107.206 63.1124 108.19 62.5036 108.799Z" fill="#339F5E"/>
<path d="M69.0729 115.368C68.4641 115.977 67.4804 115.98 66.8757 115.375C66.2711 114.77 66.2744 113.787 66.8831 113.178C67.4919 112.569 68.4756 112.566 69.0802 113.171C69.6849 113.775 69.6816 114.759 69.0729 115.368Z" fill="#339F5E"/>
<path d="M75.6421 121.937C75.0334 122.546 74.0497 122.549 73.445 121.944C72.8403 121.34 72.8436 120.356 73.4524 119.747C74.0611 119.139 75.0448 119.135 75.6495 119.74C76.2542 120.345 76.2509 121.328 75.6421 121.937Z" fill="#339F5E"/>
<path d="M82.2114 128.506C81.6026 129.115 80.6189 129.118 80.0142 128.514C79.4096 127.909 79.4129 126.925 80.0216 126.317C80.6304 125.708 81.6141 125.704 82.2187 126.309C82.8234 126.914 82.8201 127.897 82.2114 128.506Z" fill="#339F5E"/>
<path d="M9.90534 69.4273C9.29658 70.036 8.31289 70.0394 7.70821 69.4347C7.10352 68.83 7.10683 67.8463 7.71559 67.2375C8.32435 66.6288 9.30803 66.6255 9.91271 67.2302C10.5174 67.8348 10.5141 68.8185 9.90534 69.4273Z" fill="#339F5E"/>
<path d="M16.4746 75.9965C15.8658 76.6053 14.8821 76.6086 14.2775 76.0039C13.6728 75.3992 13.6761 74.4155 14.2848 73.8068C14.8936 73.198 15.8773 73.1947 16.482 73.7994C17.0866 74.4041 17.0833 75.3878 16.4746 75.9965Z" fill="#339F5E"/>
<path d="M23.0438 82.5658C22.4351 83.1745 21.4514 83.1779 20.8467 82.5732C20.242 81.9685 20.2453 80.9848 20.8541 80.376C21.4628 79.7673 22.4465 79.764 23.0512 80.3687C23.6559 80.9733 23.6526 81.957 23.0438 82.5658Z" fill="#339F5E"/>
<path d="M29.6131 89.135C29.0043 89.7438 28.0206 89.7471 27.416 89.1424C26.8113 88.5377 26.8146 87.554 27.4233 86.9453C28.0321 86.3365 29.0158 86.3332 29.6205 86.9379C30.2251 87.5426 30.2218 88.5263 29.6131 89.135Z" fill="#339F5E"/>
<path d="M36.1823 95.7043C35.5736 96.313 34.5899 96.3164 33.9852 95.7117C33.3805 95.107 33.3838 94.1233 33.9926 93.5145C34.6013 92.9058 35.585 92.9025 36.1897 93.5072C36.7944 94.1118 36.7911 95.0955 36.1823 95.7043Z" fill="#339F5E"/>
<path d="M42.7516 102.274C42.1428 102.882 41.1591 102.886 40.5545 102.281C39.9498 101.676 39.9531 100.693 40.5618 100.084C41.1706 99.475 42.1543 99.4717 42.759 100.076C43.3636 100.681 43.3603 101.665 42.7516 102.274Z" fill="#339F5E"/>
<path d="M49.3208 108.843C48.7121 109.452 47.7284 109.455 47.1237 108.85C46.519 108.245 46.5223 107.262 47.1311 106.653C47.7398 106.044 48.7235 106.041 49.3282 106.646C49.9329 107.25 49.9296 108.234 49.3208 108.843Z" fill="#339F5E"/>
<path d="M55.8901 115.412C55.2813 116.021 54.2976 116.024 53.693 115.419C53.0883 114.815 53.0916 113.831 53.7003 113.222C54.3091 112.614 55.2928 112.61 55.8975 113.215C56.5021 113.82 56.4988 114.803 55.8901 115.412Z" fill="#339F5E"/>
<path d="M62.4593 121.981C61.8506 122.59 60.8669 122.593 60.2622 121.989C59.6575 121.384 59.6608 120.4 60.2696 119.792C60.8783 119.183 61.862 119.179 62.4667 119.784C63.0714 120.389 63.0681 121.373 62.4593 121.981Z" fill="#339F5E"/>
<path d="M69.0286 128.551C68.4198 129.159 67.4361 129.163 66.8315 128.558C66.2268 127.953 66.2301 126.97 66.8388 126.361C67.4476 125.752 68.4313 125.749 69.036 126.353C69.6406 126.958 69.6373 127.942 69.0286 128.551Z" fill="#339F5E"/>
<path d="M75.5978 135.12C74.9891 135.729 74.0054 135.732 73.4007 135.127C72.796 134.522 72.7993 133.539 73.4081 132.93C74.0168 132.321 75.0005 132.318 75.6052 132.923C76.2099 133.527 76.2066 134.511 75.5978 135.12Z" fill="#339F5E"/>
<path d="M3.29181 76.0408C2.68305 76.6496 1.69937 76.6529 1.09468 76.0482C0.49 75.4435 0.493302 74.4598 1.10206 73.8511C1.71082 73.2423 2.69451 73.239 3.29919 73.8437C3.90387 74.4484 3.90057 75.4321 3.29181 76.0408Z" fill="#339F5E"/>
<path d="M9.86106 82.6101C9.2523 83.2188 8.26862 83.2221 7.66393 82.6174C7.05925 82.0128 7.06255 81.0291 7.67131 80.4203C8.28007 79.8116 9.26376 79.8083 9.86844 80.4129C10.4731 81.0176 10.4698 82.0013 9.86106 82.6101Z" fill="#339F5E"/>
<path d="M16.4303 89.1793C15.8216 89.7881 14.8379 89.7914 14.2332 89.1867C13.6285 88.582 13.6318 87.5983 14.2406 86.9896C14.8493 86.3808 15.833 86.3775 16.4377 86.9822C17.0424 87.5869 17.0391 88.5706 16.4303 89.1793Z" fill="#339F5E"/>
<path d="M22.9996 95.7486C22.3908 96.3573 21.4071 96.3606 20.8024 95.7559C20.1978 95.1513 20.2011 94.1676 20.8098 93.5588C21.4186 92.9501 22.4023 92.9468 23.0069 93.5514C23.6116 94.1561 23.6083 95.1398 22.9996 95.7486Z" fill="#339F5E"/>
<path d="M29.5688 102.318C28.9601 102.927 27.9764 102.93 27.3717 102.325C26.767 101.721 26.7703 100.737 27.3791 100.128C27.9878 99.5193 28.9715 99.516 29.5762 100.121C30.1809 100.725 30.1776 101.709 29.5688 102.318Z" fill="#339F5E"/>
<path d="M36.1381 108.887C35.5293 109.496 34.5456 109.499 33.9409 108.894C33.3363 108.29 33.3396 107.306 33.9483 106.697C34.5571 106.089 35.5408 106.085 36.1454 106.69C36.7501 107.295 36.7468 108.278 36.1381 108.887Z" fill="#339F5E"/>
<path d="M42.7073 115.456C42.0986 116.065 41.1149 116.068 40.5102 115.464C39.9055 114.859 39.9088 113.875 40.5176 113.267C41.1263 112.658 42.11 112.655 42.7147 113.259C43.3194 113.864 43.3161 114.848 42.7073 115.456Z" fill="#339F5E"/>
<path d="M49.2766 122.026C48.6678 122.634 47.6841 122.638 47.0794 122.033C46.4747 121.428 46.4781 120.445 47.0868 119.836C47.6956 119.227 48.6793 119.224 49.2839 119.828C49.8886 120.433 49.8853 121.417 49.2766 122.026Z" fill="#339F5E"/>
<path d="M55.8458 128.595C55.2371 129.204 54.2534 129.207 53.6487 128.602C53.044 127.998 53.0473 127.014 53.6561 126.405C54.2648 125.796 55.2485 125.793 55.8532 126.398C56.4579 127.002 56.4546 127.986 55.8458 128.595Z" fill="#339F5E"/>
<path d="M62.4151 135.164C61.8063 135.773 60.8226 135.776 60.2179 135.171C59.6132 134.567 59.6166 133.583 60.2253 132.974C60.8341 132.366 61.8178 132.362 62.4224 132.967C63.0271 133.572 63.0238 134.555 62.4151 135.164Z" fill="#339F5E"/>
<path d="M68.9843 141.733C68.3756 142.342 67.3919 142.345 66.7872 141.741C66.1825 141.136 66.1858 140.152 66.7946 139.544C67.4033 138.935 68.387 138.932 68.9917 139.536C69.5964 140.141 69.5931 141.125 68.9843 141.733Z" fill="#339F5E"/>
</g>
</svg>