<svg width="190" height="153" viewBox="0 0 190 153" fill="none" xmlns="http://www.w3.org/2000/svg">
<path fill-rule="evenodd" clip-rule="evenodd" d="M73.998 88.8383C74.911 88.3894 75.9377 88.0953 76.9631 87.8024C82.292 85.9448 88.4498 83.7024 94.2267 83.6796C101.848 83.7108 106.848 86.4482 109.938 90.632C114.281 96.5238 114.499 105.777 111.385 113.929C108.324 122.041 102.166 129.115 94.5327 131.267C89.3335 132.785 83.3358 132.009 77.0499 127.586C69.8962 122.613 66.9152 114.966 66.562 106.539C66.3726 103.301 66.7075 100.15 67.2159 96.8668C64.3669 98.2974 61.4935 99.7461 58.5846 101.222C49.2725 106.334 40.2268 112.694 32.1222 119.549C21.2897 128.469 12.3345 138.867 5.24801 150.99C4.52445 152.02 3.08346 152.385 1.99446 151.76C0.906671 151.133 0.549784 149.714 1.15724 148.53C8.53457 135.945 17.7954 125.074 29.0667 115.823C37.533 108.936 46.718 102.231 56.3907 97.0871C60.4289 94.9983 64.3999 92.9593 68.4491 91.1044C70.3326 84.1245 73.3014 77.5312 76.3251 72.5872C96.9671 40.066 146.246 24.7643 182.742 18.8919C184.002 18.6633 185.162 19.4781 185.375 20.7657C185.587 22.0543 184.688 23.2178 183.428 23.4464C148.116 29.1473 100.262 43.6108 80.312 75.1254C77.9666 78.832 75.7165 83.6737 73.998 88.8383ZM72.48 94.5765C74.3537 93.6413 76.3337 92.8671 78.4249 92.251C83.3957 90.6642 88.9388 88.4027 94.1736 88.307C99.9135 88.3122 103.795 90.2079 106.083 93.3071C109.743 98.2667 109.521 105.679 106.954 112.209C104.451 118.934 99.6009 125.019 93.2279 126.699C89.168 127.839 84.6118 127.178 79.7926 123.821C73.8318 119.636 71.4754 113.208 71.2615 106.366C71.0415 102.426 71.5353 98.4306 72.48 94.5765Z" fill="#339F5E"/>
<path fill-rule="evenodd" clip-rule="evenodd" d="M184.417 20.5218C183.295 20.1629 181.904 20.0072 180.512 19.8527C177.791 19.4959 175.092 19.3636 173.293 18.793C162.356 15.4738 149.282 11.3569 139.856 4.72091C138.843 4.03851 138.57 2.55424 139.321 1.50335C140.07 0.453563 141.472 0.116652 142.602 0.95281C151.566 7.21346 164.093 11.0211 174.698 14.3503C176.568 14.8676 179.839 15.0484 182.598 15.3761C184.999 15.7335 187.125 16.2991 188.562 17.3858C189.418 17.9457 190.155 19.5622 189.122 21.7927C187.599 24.8768 181.607 31.102 181.064 31.754C175.551 38.3398 170.839 44.3189 171.032 53.3503C171.005 54.5779 169.949 55.6177 168.768 55.787C167.47 55.8026 166.358 54.7113 166.386 53.4824C166.203 43.2361 171.156 36.1087 177.487 28.6629C177.972 28.2959 181.575 24.604 183.706 21.5429C183.896 21.158 184.232 20.9033 184.417 20.5218Z" fill="#339F5E"/>
</svg>