<svg width="60" height="60" viewBox="0 0 60 60" fill="none" xmlns="http://www.w3.org/2000/svg">
<rect width="60" height="60" rx="30" fill="#339F5E"/>
<path fill-rule="evenodd" clip-rule="evenodd" d="M17.2789 20.1908C17.102 20.0152 16.8585 19.9073 16.5889 19.9073C16.3193 19.9073 16.0744 20.0152 15.899 20.1908C15.7221 20.3664 15.6134 20.6082 15.6134 20.8759C15.6134 21.1436 15.7221 21.3869 15.899 21.561C15.9656 21.6272 16.041 21.6834 16.1251 21.728L12.5739 27.3773C12.5275 27.4421 12.5 27.5212 12.5 27.6076C12.5 28.7288 12.958 29.745 13.6987 30.479C14.4394 31.2145 15.4612 31.6694 16.5904 31.6694C17.7195 31.6694 18.7428 31.2145 19.482 30.479C20.2227 29.7435 20.6807 28.7288 20.6807 27.6076C20.6807 27.5212 20.6532 27.4421 20.6068 27.3773L17.0557 21.728C17.1397 21.6834 17.2151 21.6272 17.2818 21.561C17.3137 21.5294 17.3441 21.4948 17.3717 21.4574L17.3746 21.4531C17.4949 21.2919 17.5673 21.0918 17.5673 20.8759C17.5673 20.6586 17.4963 20.46 17.3746 20.2988L17.3702 20.2944C17.3427 20.2585 17.3122 20.2239 17.2803 20.1908L17.2789 20.1908ZM13.6204 27.2119L16.5875 22.4911L19.5545 27.2119H13.6204ZM44.0967 20.1908C43.9198 20.0152 43.6763 19.9073 43.4067 19.9073C43.1371 19.9073 42.8936 20.0152 42.7168 20.1908C42.6849 20.2225 42.6544 20.257 42.6269 20.293L42.6225 20.2987C42.5022 20.4599 42.4312 20.66 42.4312 20.8759C42.4312 21.0918 42.5022 21.2919 42.624 21.4531L42.6283 21.4574C42.6559 21.4934 42.6863 21.5279 42.7182 21.561C42.7849 21.6272 42.8603 21.6834 42.9443 21.728L39.3932 27.3773C39.3468 27.442 39.3193 27.5212 39.3193 27.6076C39.3193 28.7288 39.7773 29.745 40.518 30.479C41.2586 31.2145 42.2805 31.6693 43.4096 31.6693C44.5388 31.6693 45.5621 31.2145 46.3013 30.479C47.042 29.7435 47.5 28.7288 47.5 27.6076C47.5 27.5212 47.4725 27.442 47.4261 27.3773L43.8749 21.728C43.959 21.6834 44.0344 21.6272 44.101 21.561C44.2779 21.3854 44.3866 21.1436 44.3866 20.8759C44.3866 20.6082 44.2779 20.3649 44.101 20.1908L44.0967 20.1908ZM40.4382 27.2119L43.4053 22.4911L46.3723 27.2119H40.4368H40.4382ZM22.758 21.2977H18.3153C18.3486 21.1638 18.366 21.0228 18.366 20.8774C18.366 20.732 18.3486 20.5924 18.3153 20.4571H22.758V21.2977ZM26.0163 22.0389C26.0845 22.3023 26.2758 22.4721 26.5034 22.5484C26.6353 22.593 26.7788 22.6089 26.9179 22.5959C27.0556 22.583 27.1904 22.5412 27.3064 22.4721C27.518 22.3469 27.6716 22.1152 27.6716 21.7784V19.0005C27.6716 18.6076 27.4644 18.36 27.1977 18.2535C27.089 18.2103 26.9672 18.1887 26.844 18.1887C26.7208 18.1887 26.5991 18.2103 26.4903 18.2535C26.2236 18.36 26.0164 18.6076 26.0164 19.0005V22.0403L26.0163 22.0389ZM28.4732 21.479C28.4935 21.7842 28.6935 21.9957 28.9457 22.0951C29.0602 22.1397 29.1819 22.1613 29.3037 22.1613C29.424 22.1613 29.5428 22.1382 29.653 22.0907C29.9197 21.977 30.127 21.7036 30.127 21.2415V18.4636C30.127 18.0592 30.0632 17.78 29.9327 17.6173C29.8226 17.482 29.6356 17.4187 29.3646 17.423C28.9921 17.4273 28.7732 17.5338 28.6587 17.7339C28.5167 17.9829 28.4703 18.3816 28.4703 18.9141C28.4717 18.9429 28.4717 18.9717 28.4717 19.0005V21.4804L28.4732 21.479ZM23.8887 22.7471C23.9337 22.7614 23.9757 22.7845 24.0119 22.8147C24.0192 22.8176 24.0264 22.8205 24.0337 22.8233C24.1424 22.8665 24.2641 22.8881 24.3873 22.8881C24.5105 22.8881 24.6323 22.8665 24.741 22.8233C25.0077 22.7168 25.2149 22.4693 25.2149 22.0763V19.6928C25.2149 19.2999 25.0077 19.0523 24.741 18.9458C24.6323 18.9027 24.5105 18.8811 24.3873 18.8811C24.2641 18.8811 24.1424 18.9027 24.0337 18.9458C23.767 19.0523 23.5597 19.2999 23.5597 19.6928V22.0763C23.5597 22.3944 23.6959 22.6175 23.8887 22.7471ZM34.2305 31.4881H24.3466V35.1541H34.2305V31.4881ZM32.0491 32.9231C32.3448 32.9231 32.5854 33.162 32.5854 33.4557C32.5854 33.7493 32.3448 33.9882 32.0491 33.9882C31.7534 33.9882 31.5128 33.7493 31.5128 33.4557C31.5128 33.162 31.7534 32.9231 32.0491 32.9231ZM37.238 20.4587H41.6807C41.6474 20.5926 41.63 20.7336 41.63 20.879C41.63 21.0243 41.6474 21.164 41.6807 21.2992H37.238V20.4918V20.4587ZM32.2677 21.613C31.9995 21.3885 31.7951 21.1021 31.6632 20.7955C31.5589 20.5551 31.4994 20.2989 31.4879 20.0471C31.4748 19.788 31.5139 19.5332 31.6067 19.3015C31.7719 18.8913 32.0923 18.5646 32.5851 18.4278V17.9558C32.5851 17.5067 32.3662 17.2073 32.0864 17.0778C31.9792 17.0274 31.8618 17.0015 31.7473 17.0001C31.6342 16.9986 31.5212 17.0217 31.4168 17.0706C31.1458 17.1987 30.9341 17.5139 30.9269 18.0493H30.9283V18.2263C30.9283 18.2451 30.9269 18.2638 30.924 18.2825C30.9269 18.34 30.9283 18.4005 30.9283 18.4624V21.1841C30.982 21.3396 31.0892 21.4792 31.2269 21.5828C31.3777 21.6965 31.5632 21.7642 31.756 21.7642C31.9067 21.7642 32.0444 21.7325 32.1619 21.6749C32.1981 21.6562 32.2329 21.6361 32.2662 21.613L32.2677 21.613ZM34.5418 21.2978H33.6243C33.0141 21.2978 32.5894 20.9265 32.3981 20.4846C32.3314 20.3292 32.2923 20.1665 32.285 20.0096C32.2778 19.8599 32.2981 19.7175 32.3473 19.5937C32.4488 19.3404 32.701 19.1547 33.1272 19.1547H35.0317C35.3115 19.1547 35.7072 19.336 36.0159 19.634C36.258 19.8672 36.4348 20.1651 36.4348 20.4904V24.1232C36.4348 24.5708 36.0637 25.125 35.5637 25.669C35.0201 26.262 34.336 26.8291 33.775 27.2638C33.4388 27.5243 33.1807 27.8381 33.0083 28.1921C32.8343 28.5476 32.743 28.942 32.743 29.3637V30.6937H25.9044V29.345C25.9044 28.9463 25.8232 28.5721 25.6652 28.2296C25.5073 27.887 25.2724 27.5819 24.9666 27.3214C24.7144 27.1069 24.51 26.8406 24.3694 26.5384C24.2346 26.2491 24.1593 25.9281 24.1593 25.587V23.6698C24.2346 23.6799 24.31 23.6842 24.3854 23.6842C24.6057 23.6842 24.8289 23.6425 25.0362 23.559C25.3116 23.4482 25.558 23.2697 25.7334 23.0193C25.8841 23.1445 26.058 23.2381 26.2436 23.3C26.4813 23.3806 26.7378 23.4079 26.99 23.3849C27.2437 23.3604 27.493 23.2827 27.7133 23.1531C27.9322 23.0236 28.1206 22.8437 28.2554 22.6163C28.3757 22.707 28.5105 22.7789 28.6525 22.8351C28.8569 22.9142 29.0801 22.9545 29.3048 22.9545C29.5309 22.9531 29.757 22.9099 29.9643 22.8221C30.2614 22.6955 30.5223 22.4853 30.6977 22.1816C30.7136 22.1946 30.7296 22.2061 30.7455 22.2176C31.0311 22.4321 31.3862 22.5616 31.7558 22.5616C32.0312 22.5616 32.2921 22.5011 32.5197 22.3874C32.7081 22.2939 32.8733 22.1658 33.0067 22.0089C33.1168 22.0406 33.2328 22.065 33.3546 22.0794V22.4652C32.3834 22.6005 31.6123 22.9157 31.0412 23.4123C30.3861 23.9822 30.0063 24.7724 29.9005 25.7842C29.8773 26.003 30.0382 26.1973 30.2571 26.2189C30.4774 26.2405 30.6731 26.0822 30.6948 25.8648C30.7789 25.0603 31.0688 24.4414 31.566 24.0096C32.0718 23.5706 32.8009 23.3057 33.7546 23.2165C33.9764 23.2165 34.1547 23.038 34.1547 22.8193V22.0967H34.5402C34.762 22.0967 34.9403 21.9183 34.9403 21.6995C34.9403 21.4793 34.7605 21.3023 34.5402 21.3023L34.5418 21.2978ZM33.7185 35.9502L34.2302 43H24.3463L24.8579 35.9502H33.7199H33.7185Z" fill="white"/>
</svg>