<svg width="60" height="60" viewBox="0 0 60 60" fill="none" xmlns="http://www.w3.org/2000/svg">
<rect width="60" height="60" rx="30" fill="#339F5E"/>
<path d="M41.8333 41.1688V18.1667H23.9065V38.7465H22.7398V17H43V41.1688H41.8333ZM39.8732 38.7465H18.1268C17.0442 38.7465 16.1667 39.624 16.1667 40.7066C16.1667 41.7891 17.0442 42.6667 18.1268 42.6667H39.8732C40.9558 42.6667 41.8333 41.7891 41.8333 40.7066C41.8333 39.624 40.9558 38.7465 39.8732 38.7465ZM39.8732 37.5798C41.6001 37.5798 43 38.9797 43 40.7066C43 42.4334 41.6001 43.8333 39.8732 43.8333H18.1268C16.3999 43.8333 15 42.4334 15 40.7066C15 38.9797 16.3999 37.5798 18.1268 37.5798H39.8732ZM39.877 43.8333C38.2719 43.8333 36.9959 42.421 36.9959 40.7066C36.9959 38.9922 38.2719 37.5798 39.877 37.5798H40.4604V38.7465H39.877C38.9441 38.7465 38.1626 39.6116 38.1626 40.7066C38.1626 41.8016 38.9441 42.6667 39.877 42.6667H40.4604V43.8333H39.877ZM32.9375 27.7917C31.4072 27.7917 30.1667 26.5511 30.1667 25.0208C30.1667 23.4905 31.4072 22.25 32.9375 22.25C34.4678 22.25 35.7083 23.4905 35.7083 25.0208C35.7083 26.5511 34.4678 27.7917 32.9375 27.7917ZM31.625 28.6667H34.25C36.3441 28.6667 38.0417 30.3643 38.0417 32.4583V35.9583H27.8333V32.4583C27.8333 30.3643 29.5309 28.6667 31.625 28.6667Z" fill="white"/>
</svg>