<svg width="150" height="150" fill="none" xmlns="http://www.w3.org/2000/svg">
<path opacity="0.835" fill-rule="evenodd" clip-rule="evenodd" d="M65.9998 0.0699426C73.2695 0.998131 80.7401 1.55843 88.4117 1.75083C86.9176 2.12433 85.4234 2.49793 83.9293 2.87143C86.9176 3.61853 86.9176 4.36552 83.9293 5.11262C89.9058 5.85972 89.9058 6.60671 83.9293 7.35381C86.9176 8.10091 86.9176 8.8479 83.9293 9.595C85.797 9.96849 87.6646 10.3421 89.5323 10.7156C88.2614 11.8541 88.6349 12.6012 90.6529 12.9568C87.6646 13.7039 87.6646 14.4509 90.6529 15.198C87.6646 15.9451 87.6646 16.6921 90.6529 17.4392C87.6646 18.1863 87.6646 18.9332 90.6529 19.6803C87.6646 20.4274 87.6646 21.1744 90.6529 21.9215C87.6646 22.6686 87.6646 23.4156 90.6529 24.1627C87.6646 24.9098 87.6646 25.6568 90.6529 26.4039C87.6646 27.151 87.6646 27.898 90.6529 28.6451C87.6646 29.3922 87.6646 30.1392 90.6529 30.8863C87.6646 31.6334 87.6646 32.3804 90.6529 33.1275C89.6266 33.4395 88.8795 33.9998 88.4117 34.8084C74.9594 34.6218 61.5123 34.8085 48.0703 35.3687C47.5577 35.8326 47.1842 36.3929 46.9497 37.0496C70.4703 38.1698 94.0023 38.5433 117.547 38.1702C107.92 38.7953 98.2079 39.7291 88.4117 40.9716C91.4 41.7187 91.4 42.4657 88.4117 43.2128C91.4 43.9599 91.4 44.7069 88.4117 45.454C91.4 46.2011 91.4 46.9481 88.4117 47.6952C91.6218 47.9002 94.6097 48.4605 97.3764 49.3761C80.5675 49.3761 63.7586 49.3761 46.9497 49.3761C46.9497 50.4967 46.9497 51.6173 46.9497 52.7379C61.5174 52.7379 76.0851 52.7379 90.6529 52.7379C90.185 53.5465 89.4379 54.1068 88.4117 54.4188C91.4 55.1659 91.4 55.9129 88.4117 56.66C91.4 57.4071 91.4 58.1541 88.4117 58.9012C91.4 59.6483 91.4 60.3952 88.4117 61.1423C89.1588 61.5158 89.9058 61.8894 90.6529 62.2629C99.816 62.4543 108.781 63.0146 117.547 63.9438C94.0023 63.5707 70.4703 63.9442 46.9497 65.0644C47.1842 65.7211 47.5577 66.2814 48.0703 66.7453C61.5123 67.3055 74.9594 67.4922 88.4117 67.3056C88.8795 68.1142 89.6266 68.6745 90.6529 68.9865C87.6646 69.7336 87.6646 70.4806 90.6529 71.2277C87.6646 71.9748 87.6646 72.7218 90.6529 73.4689C87.6646 74.216 87.6646 74.963 90.6529 75.7101C89.9058 76.0836 89.1588 76.4572 88.4117 76.8307C98.3211 77.0216 108.033 77.5819 117.547 78.5116C23.4172 79.2587 23.4172 80.0056 117.547 80.7527C107.92 81.3779 98.2079 82.3117 88.4117 83.5542C91.4 84.3013 91.4 85.0483 88.4117 85.7954C91.4 86.5425 91.4 87.2895 88.4117 88.0366C91.4 88.7837 91.4 89.5307 88.4117 90.2778C91.4 91.0249 91.4 91.7716 88.4117 92.519C91.4 93.2664 91.4 94.0127 88.4117 94.7602C91.4 95.5076 91.4 96.2539 88.4117 97.0014C91.4 97.7488 91.4 98.4951 88.4117 99.2426C91.4 99.99 91.4 100.736 88.4117 101.484C91.4 102.231 91.4 102.978 88.4117 103.725C91.4 104.472 91.4 105.219 88.4117 105.966C91.4 106.714 91.4 107.46 88.4117 108.207C91.4 108.955 91.4 109.701 88.4117 110.449C91.4 111.196 91.4 111.942 88.4117 112.69C91.4 113.437 91.4 114.183 88.4117 114.931C91.4 115.678 91.4 116.425 88.4117 117.172C91.4 117.92 91.4 118.666 88.4117 119.413C91.4 120.161 91.4 120.907 88.4117 121.654C91.4 122.402 91.4 123.148 88.4117 123.896C91.4 124.643 91.4 125.389 88.4117 126.137C91.4 126.884 91.4 127.631 88.4117 128.378C91.4 129.125 91.4 129.872 88.4117 130.619C91.4 131.367 91.4 132.113 88.4117 132.86C91.4 133.608 91.4 134.354 88.4117 135.102C91.4 135.849 91.4 136.595 88.4117 137.343C91.4 138.09 91.4 138.837 88.4117 139.584C91.4 140.331 91.4 141.078 88.4117 141.825C91.4 142.573 91.4 143.319 88.4117 144.066C91.4 144.814 91.4 145.56 88.4117 146.308C89.1588 146.681 89.9058 147.055 90.6529 147.428C88.1788 147.642 85.9376 148.202 83.9293 149.109C68.2365 149.296 52.5482 149.109 36.8643 148.549C34.0737 146.917 32.206 144.489 31.2614 141.265C25.7991 140.467 22.2505 137.478 20.6157 132.3C19.516 89.6505 19.8894 47.0679 21.7363 4.55232C23.2142 2.32514 25.2687 1.01785 27.8996 0.63024C40.5941 0.0700547 53.2943 -0.116636 65.9998 0.0699426Z" fill="#E0E0E0"/>
<path opacity="0.914" fill-rule="evenodd" clip-rule="evenodd" d="M66 0.0699899C80.9459 -0.116701 95.8874 0.0701019 110.824 0.630287C115.54 1.42591 118.155 4.2274 118.668 9.03475C123.996 9.353 127.544 11.9677 129.314 16.8789C130.413 59.5285 130.04 102.111 128.193 144.627C127.633 146.681 126.325 147.988 124.271 148.549C110.829 149.109 97.3823 149.296 83.9295 149.109C85.9378 148.203 88.179 147.642 90.6531 147.428C89.906 147.055 89.159 146.681 88.4119 146.308C91.4002 145.56 91.4002 144.814 88.4119 144.066C91.4002 143.319 91.4002 142.573 88.4119 141.825C91.4002 141.078 91.4002 140.331 88.4119 139.584C91.4002 138.837 91.4002 138.09 88.4119 137.343C91.4002 136.595 91.4002 135.849 88.4119 135.102C91.4002 134.354 91.4002 133.608 88.4119 132.86C91.4002 132.113 91.4002 131.367 88.4119 130.619C91.4002 129.872 91.4002 129.126 88.4119 128.378C91.4002 127.631 91.4002 126.884 88.4119 126.137C91.4002 125.389 91.4002 124.643 88.4119 123.896C91.4002 123.148 91.4002 122.402 88.4119 121.655C91.4002 120.907 91.4002 120.161 88.4119 119.413C91.4002 118.666 91.4002 117.92 88.4119 117.172C91.4002 116.425 91.4002 115.678 88.4119 114.931C91.4002 114.183 91.4002 113.437 88.4119 112.69C91.4002 111.942 91.4002 111.196 88.4119 110.449C91.4002 109.701 91.4002 108.955 88.4119 108.207C91.4002 107.46 91.4002 106.714 88.4119 105.966C91.4002 105.219 91.4002 104.472 88.4119 103.725C91.4002 102.978 91.4002 102.231 88.4119 101.484C91.4002 100.736 91.4002 99.99 88.4119 99.2426C91.4002 98.4952 91.4002 97.7489 88.4119 97.0014C91.4002 96.254 91.4002 95.5077 88.4119 94.7602C91.4002 94.0128 91.4002 93.2665 88.4119 92.519C91.4002 91.7716 91.4002 91.025 88.4119 90.2779C91.4002 89.5308 91.4002 88.7838 88.4119 88.0367C91.4002 87.2896 91.4002 86.5426 88.4119 85.7955C91.4002 85.0484 91.4002 84.3014 88.4119 83.5543C98.2081 82.3118 107.92 81.378 117.547 80.7528C119.041 80.0057 119.041 79.2587 117.547 78.5116C108.034 77.582 98.3213 77.0217 88.4119 76.8307C89.159 76.4572 89.906 76.0836 90.6531 75.7101C87.6648 74.963 87.6648 74.216 90.6531 73.4689C87.6648 72.7218 87.6648 71.9748 90.6531 71.2277C87.6648 70.4807 87.6648 69.7337 90.6531 68.9866C89.6268 68.6746 88.8797 68.1143 88.4119 67.3057C98.4972 67.3057 108.583 67.3057 118.668 67.3057C118.934 65.859 118.56 64.7384 117.547 63.9439C108.781 63.0147 99.8162 62.4544 90.6531 62.263C89.906 61.8895 89.159 61.5159 88.4119 61.1424C91.4002 60.3953 91.4002 59.6483 88.4119 58.9012C91.4002 58.1541 91.4002 57.4071 88.4119 56.66C91.4002 55.9129 91.4002 55.1659 88.4119 54.4188C89.4381 54.1069 90.1852 53.5466 90.6531 52.7379C99.991 52.7379 109.33 52.7379 118.668 52.7379C118.668 51.6173 118.668 50.4967 118.668 49.3762C111.571 49.3762 104.473 49.3762 97.3766 49.3762C94.6099 48.4605 91.6221 47.9002 88.4119 47.6953C91.4002 46.9482 91.4002 46.2012 88.4119 45.4541C91.4002 44.707 91.4002 43.96 88.4119 43.2129C91.4002 42.4658 91.4002 41.7188 88.4119 40.9717C98.2081 39.7292 107.92 38.7954 117.547 38.1702C118.56 37.3757 118.934 36.2551 118.668 34.8084C108.583 34.8084 98.4972 34.8084 88.4119 34.8084C88.8797 33.9998 89.6268 33.4395 90.6531 33.1275C87.6648 32.3804 87.6648 31.6334 90.6531 30.8863C87.6648 30.1392 87.6648 29.3923 90.6531 28.6452C87.6648 27.8981 87.6648 27.1511 90.6531 26.404C87.6648 25.6569 87.6648 24.9099 90.6531 24.1628C87.6648 23.4157 87.6648 22.6687 90.6531 21.9216C87.6648 21.1745 87.6648 20.4275 90.6531 19.6804C87.6648 18.9333 87.6648 18.1863 90.6531 17.4392C87.6648 16.6921 87.6648 15.9451 90.6531 15.198C87.6648 14.4509 87.6648 13.7039 90.6531 12.9568C88.6351 12.6013 88.2616 11.8542 89.5325 10.7156C87.6648 10.3421 85.7972 9.96854 83.9295 9.59504C86.9178 8.84794 86.9178 8.10096 83.9295 7.35386C89.906 6.60675 89.906 5.85977 83.9295 5.11267C86.9178 4.36557 86.9178 3.61858 83.9295 2.87148C85.4236 2.49798 86.9178 2.12438 88.4119 1.75088C80.7403 1.55848 73.2697 0.998178 66 0.0699899Z" fill="#ECECEC"/>
<path fill-rule="evenodd" clip-rule="evenodd" d="M88.4112 34.8082C98.4966 34.8082 108.582 34.8082 118.667 34.8082C118.933 36.2549 118.56 37.3755 117.547 38.17C94.0019 38.5432 70.4698 38.1697 46.9492 37.0494C47.1838 36.3927 47.5573 35.8324 48.0698 35.3685C61.5118 34.8083 74.9589 34.6216 88.4112 34.8082Z" fill="#C0C0C0"/>
<path fill-rule="evenodd" clip-rule="evenodd" d="M97.376 49.375C104.473 49.375 111.571 49.375 118.667 49.375C118.667 50.4956 118.667 51.6162 118.667 52.7368C109.329 52.7368 99.9903 52.7368 90.6524 52.7368C76.0847 52.7368 61.5169 52.7368 46.9492 52.7368C46.9492 51.6162 46.9492 50.4956 46.9492 49.375C63.7581 49.375 80.5671 49.375 97.376 49.375Z" fill="#BFBFBF"/>
<path fill-rule="evenodd" clip-rule="evenodd" d="M117.547 63.9446C118.56 64.7391 118.933 65.8597 118.667 67.3063C108.582 67.3063 98.4966 67.3063 88.4112 67.3063C74.9589 67.4929 61.5118 67.3062 48.0698 66.746C47.5573 66.2821 47.1838 65.7218 46.9492 65.0652C70.4698 63.9449 94.0019 63.5714 117.547 63.9446Z" fill="#C1C1C1"/>
<path fill-rule="evenodd" clip-rule="evenodd" d="M117.547 78.5117C119.04 79.2588 119.04 80.0058 117.547 80.7529C23.4167 80.0058 23.4167 79.2588 117.547 78.5117Z" fill="#BEBEBE"/>
<path fill-rule="evenodd" clip-rule="evenodd" d="M117.547 121.095C116.053 119.601 114.558 118.106 113.064 116.613C112.154 114.94 110.661 114.192 108.582 114.371C107.208 114.394 106.088 114.767 105.22 115.492C103.109 115.73 101.615 116.85 100.738 118.854C100.058 118.715 99.6844 118.342 99.6172 117.733C104.834 110.671 110.623 110.297 116.986 116.613C117.535 118.062 117.723 119.556 117.547 121.095Z" fill="#339F5E"/>
<path fill-rule="evenodd" clip-rule="evenodd" d="M105.221 115.492C106.088 114.767 107.209 114.394 108.582 114.372C110.661 114.192 112.155 114.94 113.065 116.613C110.528 115.807 107.913 115.434 105.221 115.492Z" fill="#D7D7D7"/>
<path fill-rule="evenodd" clip-rule="evenodd" d="M105.221 115.49C107.913 115.432 110.528 115.805 113.065 116.611C113.438 118.105 113.812 119.599 114.185 121.093C110.45 121.093 106.714 121.093 102.979 121.093C102.858 118.836 103.605 116.969 105.221 115.49Z" fill="#339F5E"/>
<path fill-rule="evenodd" clip-rule="evenodd" d="M48.0698 118.852C56.6611 118.852 65.2522 118.852 73.8435 118.852C73.8435 119.972 73.8435 121.093 73.8435 122.213C64.8477 122.584 55.8829 122.211 46.9492 121.093C47.3557 120.327 47.7293 119.58 48.0698 118.852Z" fill="#C0C0C0"/>
<path fill-rule="evenodd" clip-rule="evenodd" d="M105.222 115.49C103.606 116.969 102.86 118.836 102.981 121.093C106.716 121.093 110.452 121.093 114.187 121.093C114.327 124.895 112.459 126.389 108.584 125.576C104.371 126.033 101.944 124.166 101.3 119.973C100.927 121.093 100.552 122.214 100.179 123.334C99.9193 121.948 99.359 120.828 98.4984 119.973C98.3056 118.861 98.6799 118.115 99.619 117.731C99.6862 118.34 100.059 118.713 100.74 118.852C101.617 116.848 103.111 115.728 105.222 115.49Z" fill="#339F5E"/>
<path fill-rule="evenodd" clip-rule="evenodd" d="M113.066 116.611C114.56 118.105 116.055 119.6 117.548 121.094C117.019 129.637 112.537 132.812 104.101 130.619C99.9662 128.188 98.0982 124.639 98.4982 119.973C99.3589 120.828 99.9191 121.949 100.179 123.335C100.552 122.214 100.927 121.094 101.3 119.973C101.944 124.166 104.371 126.033 108.584 125.576C112.459 126.39 114.327 124.896 114.187 121.094C113.813 119.6 113.439 118.105 113.066 116.611Z" fill="#339F5E"/>
</svg>