<?xml version="1.0" encoding="utf-8"?>
<!-- Generator: Adobe Illustrator 26.4.1, SVG Export Plug-In . SVG Version: 6.00 Build 0)  -->
<svg version="1.1" id="Layer_1" xmlns="http://www.w3.org/2000/svg" xmlns:xlink="http://www.w3.org/1999/xlink" x="0px" y="0px"
	 viewBox="0 0 150 150" style="enable-background:new 0 0 150 150;" xml:space="preserve">
<style type="text/css">
	.st0{opacity:0.966;fill:#C3C3C3;enable-background:new    ;}
	.st1{opacity:0.978;fill:#BEBEBE;enable-background:new    ;}
	.st2{opacity:0.845;fill:#B9B9B9;enable-background:new    ;}
	.st3{opacity:0.935;fill:#EEEEEE;enable-background:new    ;}
	.st4{opacity:0.927;fill:#E5E5E5;enable-background:new    ;}
	.st5{opacity:0.957;fill:#EAEAEA;enable-background:new    ;}
	.st6{opacity:0.998;fill:#EEEEEE;enable-background:new    ;}
	.st7{fill:#D4D4D4;}
	.st8{fill:#D8D8D8;}
	.st9{fill:#C2C2C2;}
	.st10{fill:#C3C3C3;}
	.st11{fill:#C4C4C4;}
	.st12{fill:#CACACA;}
	.st13{fill:#BDBDBD;}
	.st14{fill:#CFCFCF;}
	.st15{fill:#BBBBBB;}
	.st16{opacity:0.911;fill:#444444;enable-background:new    ;}
	.st17{opacity:0.901;fill:#444444;enable-background:new    ;}
	.st18{opacity:0.976;fill:#525252;enable-background:new    ;}
	.st19{opacity:0.983;fill:#5B5B5B;enable-background:new    ;}
	.st20{opacity:0.974;fill:#5B5B5B;enable-background:new    ;}
	.st21{opacity:0.935;fill:#666666;enable-background:new    ;}
	.st22{opacity:0.945;fill:#666666;enable-background:new    ;}
	.st23{opacity:0.886;fill:#6E6E6E;enable-background:new    ;}
	.st24{opacity:0.875;fill:#777777;enable-background:new    ;}
	.st25{opacity:0.941;fill:#777777;enable-background:new    ;}
	.st26{opacity:0.931;fill:#7E7E7E;enable-background:new    ;}
	.st27{opacity:0.933;fill:#7E7E7E;enable-background:new    ;}
	.st28{fill:#464646;}
	.st29{opacity:0.925;fill:#868686;enable-background:new    ;}
	.st30{opacity:0.863;fill:#464646;enable-background:new    ;}
	.st31{opacity:0.962;fill:#595959;enable-background:new    ;}
	.st32{opacity:0.971;fill:#919191;enable-background:new    ;}
	.st33{opacity:0.97;fill:#919191;enable-background:new    ;}
	.st34{opacity:0.954;fill:#6A6A6A;enable-background:new    ;}
	.st35{opacity:0.954;fill:#6D6D6D;enable-background:new    ;}
	.st36{opacity:0.916;fill:#7C7C7C;enable-background:new    ;}
	.st37{opacity:0.883;fill:#9D9D9D;enable-background:new    ;}
	.st38{opacity:0.881;fill:#9D9D9D;enable-background:new    ;}
	.st39{opacity:0.97;fill:#848484;enable-background:new    ;}
	.st40{fill:#8D8D8D;}
	.st41{opacity:0.938;fill:#A9A9A9;enable-background:new    ;}
	.st42{opacity:0.94;fill:#A9A9A9;enable-background:new    ;}
	.st43{opacity:0.985;fill:#969696;enable-background:new    ;}
	.st44{fill:#9F9F9F;}
	.st45{opacity:0.921;fill:#B2B2B2;enable-background:new    ;}
	.st46{opacity:0.977;fill:#AAAAAA;enable-background:new    ;}
	.st47{opacity:0.978;fill:#B0B0B0;enable-background:new    ;}
	.st48{opacity:0.92;fill:#B4B4B4;enable-background:new    ;}
</style>
<path class="st0" d="M112.5,20.2c-25,1.9-49.9,1.9-74.9,0c0-1.4,0-2.9,0-4.3c25,0,49.9,0,74.9,0C112.5,17.3,112.5,18.8,112.5,20.2z"
	/>
<path class="st1" d="M37.5,20.2c25,1.9,49.9,1.9,74.9,0c1.2,1.7,2.2,3.6,2.9,5.8c-26.9,1-53.8,1.9-80.7,2.9
	C34.8,25.6,35.8,22.7,37.5,20.2z"/>
<path class="st2" d="M115.3,26c0.5,2.9,1,5.8,1.4,8.6c-27.8,0-55.7,0-83.5,0c-0.1-2.1,0.4-4,1.4-5.8C61.6,27.9,88.4,26.9,115.3,26z"
	/>
<path class="st3" d="M124,86.5c-2.6-1.2-5.5-1.9-8.6-2.2c1-0.5,1.9-1,2.9-1.4c-1.3-0.4-2.3-1.1-2.9-2.2c5.3,0,10.6,0,15.8,0
	c0.2-2.9,0-5.8-0.7-8.6c-5.6-3.1-8.8-7.9-9.4-14.4c1.4-7,3.6-13.7,6.5-20.2c6.3-6.1,12.1-5.7,17.3,1.4c4.2,8.2,5.7,16.8,4.3,25.9
	c-1.9,2.2-4.1,4.1-6.5,5.8c-1.4,3.2-1.9,6.6-1.4,10.1c2.9-0.2,5.8,0,8.6,0.7C141,82.1,132.4,83.8,124,86.5z"/>
<path class="st4" d="M37.5,50.5c1,5.9,2,11.9,2.9,18c-0.5,0.5-1,1-1.4,1.4c4.4,0.5,4.9,1.5,1.4,2.9c3.3,0.7,6.2,2.1,8.6,4.3
	c-1,0.5-1.9,1-2.9,1.4c2.4,0.7,4.8,1,7.2,0.7c0,0.5,0,1,0,1.4c0,1.3,1.4,2,4.3,2.2c-1,0.5-1.9,1-2.9,1.4c4.8,2.4,9.6,4.8,14.4,7.2
	c-1,0.5-1.9,1-2.9,1.4c1.9,0.5,3.8,1,5.8,1.4c-1,0.5-1.9,1-2.9,1.4c3.3,0.7,6.2,2.1,8.6,4.3c-1,0.5-1.9,1-2.9,1.4
	c2.9,0.5,5.8,1,8.6,1.4c-1,0.5-1.9,1-2.9,1.4c1.9,0.5,3.8,1,5.8,1.4c-1,0.5-1.9,1-2.9,1.4c1.9,0.7,3.8,0.9,5.8,0.7
	c-4.8,6.2-9.6,12.5-14.4,18.7C57.5,99.6,32.5,84.4,0.1,81.4c2.8-0.7,5.7-1,8.6-0.7c0.4-3.5,0-6.9-1.4-10.1C2.1,68.1-0.3,64,0.1,58.4
	c0.4-6.8,2.1-13.3,5-19.4c5.2-7.1,11-7.6,17.3-1.4c2.9,6.5,5,13.2,6.5,20.2c-0.6,6.5-3.7,11.3-9.4,14.4c-0.7,2.8-1,5.7-0.7,8.6
	c6.2,0,12.5,0,18.7,0C37.5,70.6,37.5,60.6,37.5,50.5z"/>
<path class="st5" d="M73.6,41.8c-2.1,1.2-4.5,1.9-7.2,2.2c1.9,0.5,3.8,1,5.8,1.4c-1,0.5-1.9,1-2.9,1.4c1.9,0.5,3.8,1,5.8,1.4
	c-1,0.5-1.9,1-2.9,1.4c2.7,0.3,5.1,1,7.2,2.2c-2.9,0-5.8,0-8.6,0c0,2.4,0,4.8,0,7.2c2.9,0,5.8,0,8.6,0c0-1.9,0-3.8,0-5.8
	c4.5-0.1,4.9,0.6,1.4,2.2c1.9,0.7,3.8,0.9,5.8,0.7c0,1,0,1.9,0,2.9c0,0.5,0,1,0,1.4c2.6,1.2,5.5,1.9,8.6,2.2c-1,0.5-1.9,1-2.9,1.4
	c2.5,2.2,5.4,3.6,8.6,4.3c-1,0.5-1.9,1-2.9,1.4c1.9,0.5,3.8,1,5.8,1.4c-1,0.5-1.9,1-2.9,1.4c4.2,0.6,7.4,2.7,9.4,6.5
	c0.7-12,1-24,0.7-36c-12.3,0.5-24.3,0-36-1.4c12.5,0,25,0,37.5,0c-0.9,13.5,0,26.5,2.9,38.9c0.6,1,1.6,1.8,2.9,2.2
	c-1,0.5-1.9,1-2.9,1.4c3.2,0.3,6.1,1,8.6,2.2c-12.9,5-24.5,12.2-34.6,21.6c-2,0.2-3.9,0-5.8-0.7c1-0.5,1.9-1,2.9-1.4
	c-1.9-0.5-3.8-1-5.8-1.4c1-0.5,1.9-1,2.9-1.4c-2.9-0.5-5.8-1-8.6-1.4c1-0.5,1.9-1,2.9-1.4c-2.5-2.2-5.4-3.6-8.6-4.3
	c1-0.5,1.9-1,2.9-1.4c-1.9-0.5-3.8-1-5.8-1.4c1-0.5,1.9-1,2.9-1.4c-4.8-2.4-9.6-4.8-14.4-7.2c1-0.5,1.9-1,2.9-1.4
	c-2.9-0.1-4.3-0.8-4.3-2.2c0.5,0,1,0,1.4,0c2.4,0,4.8,0,7.2,0c1.4-3.5,1.9-7.4,1.4-11.5c-3.4,0-6.7,0-10.1,0c0,3.4,0,6.7,0,10.1
	c-2.4,0.2-4.8,0-7.2-0.7c1-0.5,1.9-1,2.9-1.4c-2.5-2.2-5.4-3.6-8.6-4.3c3.4-1.4,2.9-2.4-1.4-2.9c0.5-0.5,1-1,1.4-1.4
	c-0.9-6.1-1.9-12.1-2.9-18c0-2.9,0-5.8,0-8.6C49.6,41.8,61.6,41.8,73.6,41.8z"/>
<path class="st6" d="M73.6,41.8c0.5,0,1,0,1.4,0c11.7,1.4,23.7,1.9,36,1.4c0.2,12,0,24-0.7,36c-2-3.8-5.1-5.9-9.4-6.5
	c1-0.5,1.9-1,2.9-1.4c-1.9-0.5-3.8-1-5.8-1.4c1-0.5,1.9-1,2.9-1.4c-3.3-0.7-6.2-2.1-8.6-4.3c1-0.5,1.9-1,2.9-1.4
	c-3.2-0.3-6.1-1-8.6-2.2c3.4,0,6.7,0,10.1,0c0-3.4,0-6.7,0-10.1c-3.7-0.4-7,0-10.1,1.4c0,1.4,0,2.9,0,4.3c-2,0.2-3.9,0-5.8-0.7
	c3.5-1.6,3-2.3-1.4-2.2c0-0.5,0-1,0-1.4c-2.1-1.2-4.5-1.9-7.2-2.2c1-0.5,1.9-1,2.9-1.4c-1.9-0.5-3.8-1-5.8-1.4c1-0.5,1.9-1,2.9-1.4
	c-1.9-0.5-3.8-1-5.8-1.4C69.1,43.7,71.5,43,73.6,41.8z"/>
<path class="st7" d="M53.4,50.5c3.4,0,6.7,0,10.1,0c0,3.4,0,6.7,0,10.1c-3.4,0-6.7,0-10.1,0C53.4,57.2,53.4,53.8,53.4,50.5z"/>
<path class="st8" d="M86.5,51.9c3-1.4,6.4-1.9,10.1-1.4c0,3.4,0,6.7,0,10.1c-3.4,0-6.7,0-10.1,0c0-0.5,0-1,0-1.4c2.9,0,5.8,0,8.6,0
	c0-2.4,0-4.8,0-7.2C92.3,51.9,89.4,51.9,86.5,51.9z"/>
<path class="st9" d="M54.8,51.9c2.4,0,4.8,0,7.2,0c0,2.4,0,4.8,0,7.2c-2.4,0-4.8,0-7.2,0C54.8,56.7,54.8,54.3,54.8,51.9z"/>
<path class="st10" d="M79.3,51.9c0,0.5,0,1,0,1.4c0,1.9,0,3.8,0,5.8c-2.9,0-5.8,0-8.6,0c0-2.4,0-4.8,0-7.2
	C73.6,51.9,76.4,51.9,79.3,51.9z"/>
<path class="st11" d="M86.5,51.9c2.9,0,5.8,0,8.6,0c0,2.4,0,4.8,0,7.2c-2.9,0-5.8,0-8.6,0c0-1,0-1.9,0-2.9
	C86.5,54.8,86.5,53.3,86.5,51.9z"/>
<path class="st12" d="M62,80.7c0-3.4,0-6.7,0-10.1c-2.4,0-4.8,0-7.2,0c0,3.4,0,6.7,0,10.1c-0.5,0-1,0-1.4,0c0-0.5,0-1,0-1.4
	c0-3.4,0-6.7,0-10.1c3.4,0,6.7,0,10.1,0C63.9,73.3,63.4,77.2,62,80.7z"/>
<path class="st13" d="M70.7,69.2c2.9,0,5.8,0,8.6,0c0,3.8,0,7.7,0,11.5c-2.9,0-5.8,0-8.6,0C70.7,76.9,70.7,73,70.7,69.2z"/>
<path class="st14" d="M95.2,80.7c0-3.4,0-6.7,0-10.1c-2.4,0-4.8,0-7.2,0c0,3.4,0,6.7,0,10.1c-1.4-3.5-1.9-7.4-1.4-11.5
	c3.4,0,6.7,0,10.1,0C97,73.3,96.6,77.2,95.2,80.7z"/>
<path class="st15" d="M62,80.7c-2.4,0-4.8,0-7.2,0c0-3.4,0-6.7,0-10.1c2.4,0,4.8,0,7.2,0C62,74,62,77.4,62,80.7z"/>
<path class="st15" d="M95.2,80.7c-2.4,0-4.8,0-7.2,0c0-3.4,0-6.7,0-10.1c2.4,0,4.8,0,7.2,0C95.2,74,95.2,77.4,95.2,80.7z"/>
<path class="st16" d="M26,95.1c-8.6,0-17.3,0-25.9,0c0-1.9,0-3.8,0-5.8C9.3,89.3,18,91.2,26,95.1z"/>
<path class="st17" d="M149.9,95.1c-8.6,0-17.3,0-25.9,0c8-3.9,16.7-5.8,25.9-5.8C149.9,91.3,149.9,93.2,149.9,95.1z"/>
<path class="st18" d="M0.1,95.1c8.6,0,17.3,0,25.9,0c4.7,0.4,8.5,2.3,11.5,5.8C25.1,99.5,12.7,99,0.1,99.4C0.1,98,0.1,96.6,0.1,95.1
	z"/>
<path class="st18" d="M124,95.1c8.6,0,17.3,0,25.9,0c0,1.4,0,2.9,0,4.3c-12.4,0.1-24.5,0.1-36,0C116.7,96.9,120,95.4,124,95.1z"/>
<path class="st19" d="M0.1,99.4c12.6-0.4,25,0.1,37.5,1.4c2.4,0.2,4.3,1.2,5.8,2.9c-14.4,0-28.8,0-43.2,0
	C0.1,102.3,0.1,100.9,0.1,99.4z"/>
<path class="st20" d="M113.9,99.4c11.6,0.1,23.6,0.1,36,0c0,1.4,0,2.9,0,4.3c-14.4,0-28.8,0-43.2,0
	C108.8,102,111.2,100.5,113.9,99.4z"/>
<path class="st21" d="M0.1,103.8c14.4,0,28.8,0,43.2,0c1.4,0.5,2.4,1.4,2.9,2.9c-11,0-22.1,0-33.1,0C8.4,106.4,4.1,105.4,0.1,103.8z
	"/>
<path class="st22" d="M106.7,103.8c14.4,0,28.8,0,43.2,0c-4,1.7-8.3,2.6-13,2.9c-11,0-22.1,0-33.1,0
	C104.3,105.2,105.3,104.2,106.7,103.8z"/>
<path class="st23" d="M13.1,106.6c11,0,22.1,0,33.1,0c2.2-0.1,3.6,0.9,4.3,2.9c-9.6,0-19.2,0-28.8,0
	C18.4,109.4,15.5,108.4,13.1,106.6z"/>
<path class="st23" d="M103.8,106.6c11,0,22.1,0,33.1,0c-2.5,1.8-5.4,2.7-8.6,2.9c-9.6,0-19.2,0-28.8,0
	C100.2,107.5,101.6,106.5,103.8,106.6z"/>
<path class="st24" d="M21.7,109.5c9.6,0,19.2,0,28.8,0c1.4,0.5,2.4,1.4,2.9,2.9c-8.4-0.5-16.6,0-24.5,1.4
	C26.2,112.7,23.8,111.3,21.7,109.5z"/>
<path class="st25" d="M99.5,109.5c9.6,0,19.2,0,28.8,0c-1.5,1.7-3.4,2.7-5.8,2.9c-8.6,0-17.3,0-25.9,0C97.1,111,98,110,99.5,109.5z"
	/>
<path class="st26" d="M28.9,113.8c7.9-1.4,16.1-1.9,24.5-1.4c1.4,0.5,2.4,1.4,2.9,2.9c-8.2,0-16.3,0-24.5,0
	C30.8,114.8,29.9,114.3,28.9,113.8z"/>
<path class="st27" d="M96.6,112.4c8.6,0,17.3,0,25.9,0c-1.1,1.3-2.6,2.3-4.3,2.9c-8.2,0-16.3,0-24.5,0
	C94.2,113.8,95.2,112.9,96.6,112.4z"/>
<path class="st28" d="M14.5,115.3c-4.5,1.4-9.3,1.9-14.4,1.4c-0.3-1.7,0.2-3.1,1.4-4.3C5.8,113.5,10.2,114.5,14.5,115.3z"/>
<path class="st29" d="M31.8,115.3c8.2,0,16.3,0,24.5,0c1,0,1.4,0.5,1.4,1.4c-6.9,1.4-14.1,1.9-21.6,1.4
	C34.4,117.5,32.9,116.6,31.8,115.3z"/>
<path class="st29" d="M93.7,115.3c8.2,0,16.3,0,24.5,0c-1.1,1.3-2.6,2.3-4.3,2.9c-7.5,0.5-14.7,0-21.6-1.4
	C92.3,115.8,92.8,115.3,93.7,115.3z"/>
<path class="st30" d="M149.9,116.7c-5.3,0-10.6,0-15.8,0c4.5-2,9.3-3.5,14.4-4.3C149.7,113.6,150.2,115,149.9,116.7z"/>
<path class="st31" d="M14.5,115.3c3.2,0.9,6.1,2.3,8.6,4.3c-7.7,0-15.4,0-23,0c0-1,0-1.9,0-2.9C5.2,117.2,10,116.7,14.5,115.3z"/>
<path class="st31" d="M134.1,116.7c5.3,0,10.6,0,15.8,0c0,1,0,1.9,0,2.9c-7.7,0-15.4,0-23,0C128.7,117.5,131.1,116.6,134.1,116.7z"
	/>
<path class="st32" d="M57.7,116.7c2.1,1.3,3.6,3.3,4.3,5.8c-7-0.5-13.7,0-20.2,1.4c-2.4-1.4-4.3-3.4-5.8-5.8
	C43.6,118.6,50.8,118.2,57.7,116.7z"/>
<path class="st33" d="M92.3,116.7c6.9,1.4,14.1,1.9,21.6,1.4c-1.4,2.4-3.4,4.3-5.8,5.8c-6.4-1.4-13.2-1.9-20.2-1.4
	C88.7,120,90.2,118.1,92.3,116.7z"/>
<path class="st34" d="M0.1,119.6c7.7,0,15.4,0,23,0c1.7,0.6,3.2,1.6,4.3,2.9c-9.1,0-18.2,0-27.4,0C0.1,121.5,0.1,120.6,0.1,119.6z"
	/>
<path class="st35" d="M126.9,119.6c7.7,0,15.4,0,23,0c0,1.4,0,2.9,0,4.3c-9.9,0.5-19.5,0-28.8-1.4
	C123,121.5,124.9,120.6,126.9,119.6z"/>
<path class="st36" d="M0.1,122.5c9.1,0,18.2,0,27.4,0c2.2-0.1,3.6,0.9,4.3,2.9c-10.6,0-21.1,0-31.7,0C0.1,124.4,0.1,123.5,0.1,122.5
	z"/>
<path class="st37" d="M62,122.5c2,0.7,3,2.1,2.9,4.3c-6.7,0-13.4,0-20.2,0c-1.4-0.5-2.4-1.4-2.9-2.9C48.3,122.5,55,122,62,122.5z"/>
<path class="st38" d="M88,122.5c7-0.5,13.7,0,20.2,1.4c-0.5,1.4-1.4,2.4-2.9,2.9c-6.7,0-13.4,0-20.2,0C85,124.6,85.9,123.2,88,122.5
	z"/>
<path class="st39" d="M121.1,122.5c9.3,1.4,18.9,1.9,28.8,1.4c0,1,0,1.9,0,2.9c-11,0-22.1,0-33.1,0
	C117.7,124.9,119.2,123.5,121.1,122.5z"/>
<path class="st40" d="M0.1,125.4c10.6,0,21.1,0,31.7,0c1.4,0.5,2.4,1.4,2.9,2.9c-11.5,0-23,0-34.6,0C0.1,127.3,0.1,126.3,0.1,125.4z
	"/>
<path class="st41" d="M44.7,126.8c6.7,0,13.4,0,20.2,0c2,0.7,3,2.1,2.9,4.3c-6.2,0-12.5,0-18.7,0C47.2,130.2,45.7,128.7,44.7,126.8z
	"/>
<path class="st42" d="M85.1,126.8c6.7,0,13.4,0,20.2,0c-1,1.9-2.4,3.4-4.3,4.3c-6.2,0-12.5,0-18.7,0
	C82.1,128.9,83.1,127.5,85.1,126.8z"/>
<path class="st43" d="M116.8,126.8c11,0,22.1,0,33.1,0c0,1,0,1.9,0,2.9c-12,0-24,0-36,0C114.4,128.3,115.3,127.3,116.8,126.8z"/>
<path class="st44" d="M0.1,128.3c11.5,0,23,0,34.6,0c1.4,0.5,2.4,1.4,2.9,2.9c-12.5,0-25,0-37.5,0C0.1,130.2,0.1,129.2,0.1,128.3z"
	/>
<path class="st45" d="M49.1,131.1c6.2,0,12.5,0,18.7,0c0.8,0.1,1.3,0.6,1.4,1.4c-3.4,0.5-6.7,1-10.1,1.4
	C55.2,134,51.8,133,49.1,131.1z"/>
<path class="st46" d="M113.9,129.7c12,0,24,0,36,0c0,1.4,0,2.9,0,4.3c-13.5,0.2-26.9,0-40.3-0.7
	C110.8,131.8,112.3,130.6,113.9,129.7z"/>
<path class="st47" d="M0.1,131.1c12.5,0,25,0,37.5,0c1.1,0.4,2.1,1.1,2.9,2.2c-6.7,0.2-13.4,0.5-20.2,0.7C13,134,6.3,133,0.1,131.1z
	"/>
<path class="st48" d="M82.2,131.1c6.2,0,12.5,0,18.7,0c-2.7,1.9-6.1,2.8-10.1,2.9c-3.4-0.5-6.7-1-10.1-1.4
	C80.9,131.7,81.4,131.2,82.2,131.1z"/>
</svg>
