<svg width="150" height="150" fill="none" xmlns="http://www.w3.org/2000/svg">
<path opacity="0.989" fill-rule="evenodd" clip-rule="evenodd" d="M82.4846 0.420009C82.5767 1.90689 83.3698 2.89826 84.864 3.39424C81.6915 4.18741 81.6915 4.98046 84.864 5.77362C81.6915 6.56679 81.6915 7.35984 84.864 8.15301C81.6915 8.94618 81.6915 9.73922 84.864 10.5324C81.6915 11.3256 81.6915 12.1186 84.864 12.9118C81.6915 13.7049 81.6915 14.498 84.864 15.2912C81.6915 16.0843 81.6915 16.8774 84.864 17.6705C81.6915 18.4637 81.6915 19.2568 84.864 20.0499C81.6915 20.8431 81.6915 21.6361 84.864 22.4293C81.6915 23.2225 81.6915 24.0155 84.864 24.8087C81.6915 25.6019 81.6915 26.3949 84.864 27.1881C81.6915 27.9813 81.6915 28.7743 84.864 29.5675C81.6915 30.3606 81.6915 31.1537 84.864 31.9468C81.6915 32.74 81.6915 33.5331 84.864 34.3262C81.6915 35.1194 81.6915 35.9125 84.864 36.7056C81.6915 37.4988 81.6915 38.2918 84.864 39.085C81.6915 39.8782 81.6915 40.6712 84.864 41.4644C81.6915 42.2576 81.6915 43.0506 84.864 43.8438C83.7745 44.175 82.9813 44.7698 82.4846 45.6283C71.6658 42.4882 62.1483 44.6694 53.932 52.1716C56.9493 55.3897 60.1219 58.364 63.4496 61.0943C63.9996 62.736 65.1892 63.5291 67.0186 63.4737C76.1063 60.4903 82.4513 63.2662 86.0537 71.8015C82.5938 72.5859 82.1972 73.5773 84.864 74.7758C82.1972 75.9743 82.5938 76.9656 86.0537 77.75C85.0416 80.5834 83.4554 82.9627 81.2949 84.8881C79.8428 85.5167 78.4548 86.3098 77.131 87.2675C76.537 93.2029 76.3388 99.1514 76.5362 105.113C78.5778 104.959 80.5607 104.563 82.4846 103.923C82.9813 104.782 83.7745 105.377 84.864 105.708C81.6915 106.501 81.6915 107.294 84.864 108.087C81.6915 108.881 81.6915 109.673 84.864 110.467C81.6915 111.26 81.6915 112.052 84.864 112.846C81.6915 113.639 81.6915 114.432 84.864 115.225C81.6915 116.019 81.6915 116.811 84.864 117.605C81.6915 118.398 81.6915 119.191 84.864 119.984C81.6915 120.778 81.6915 121.57 84.864 122.363C81.6915 123.157 81.6915 123.949 84.864 124.743C81.6915 125.536 81.6915 126.329 84.864 127.122C81.6915 127.916 81.6915 128.708 84.864 129.502C81.6915 130.295 81.6915 131.087 84.864 131.881C81.6915 132.675 81.6915 133.467 84.864 134.26C81.6915 135.054 81.6915 135.846 84.864 136.64C81.6915 137.433 81.6915 138.226 84.864 139.019C81.6915 139.813 81.6915 140.605 84.864 141.399C81.6915 142.192 81.6915 142.984 84.864 143.778C84.0709 144.174 83.2778 144.571 82.4846 144.968C84.9967 145.973 87.3761 146.964 89.6228 147.942C69.3941 148.141 49.1693 147.942 28.9485 147.347C26.8237 146.413 25.0392 145.026 23.5949 143.183C22.8017 97.1812 22.8017 51.1802 23.5949 5.17878C24.1897 2.99771 25.5777 1.6097 27.7588 1.01485C45.9964 0.420128 64.2383 0.221806 82.4846 0.420009Z" fill="#E0E0E0"/>
<path opacity="0.993" fill-rule="evenodd" clip-rule="evenodd" d="M82.4844 0.419922C92.7951 0.419922 103.105 0.419922 113.416 0.419922C112.919 1.2784 112.127 1.87325 111.037 2.20446C114.21 2.99763 114.21 3.79068 111.037 4.58384C114.21 5.37701 114.21 6.17006 111.037 6.96323C114.21 7.7564 114.21 8.54945 111.037 9.34261C114.21 10.1358 114.21 10.9288 111.037 11.722C114.21 12.5152 114.21 13.3082 111.037 14.1014C114.21 14.8945 114.21 15.6876 111.037 16.4808C114.21 17.2739 114.21 18.067 111.037 18.8601C114.21 19.6533 114.21 20.4464 111.037 21.2395C114.21 22.0327 114.21 22.8258 111.037 23.6189C114.21 24.4121 114.21 25.2051 111.037 25.9983C114.21 26.7915 114.21 27.5845 111.037 28.3777C114.21 29.1709 114.21 29.9639 111.037 30.7571C114.21 31.5502 114.21 32.3433 111.037 33.1365C114.21 33.9296 114.21 34.7227 111.037 35.5158C114.21 36.309 114.21 37.1021 111.037 37.8952C114.21 38.6884 114.21 39.4814 111.037 40.2746C114.21 41.0678 114.21 41.8608 111.037 42.654C114.21 43.4472 114.21 44.2402 111.037 45.0334C114.21 45.8265 114.21 46.6196 111.037 47.4128C114.21 48.2059 114.21 48.999 111.037 49.7921C114.21 50.5853 114.21 51.3784 111.037 52.1715C114.21 52.9647 114.21 53.7577 111.037 54.5509C114.21 55.3441 114.21 56.1371 111.037 56.9303C114.21 57.7235 114.21 58.5165 111.037 59.3097C114.21 60.1029 114.21 60.8959 111.037 61.6891C114.21 62.4822 114.21 63.2753 111.037 64.0685C114.21 64.8616 114.21 65.6547 111.037 66.4478C114.21 67.241 114.21 68.034 111.037 68.8272C114.21 69.6204 114.21 70.4134 111.037 71.2066C114.21 71.9998 114.21 72.7928 111.037 73.586C114.21 74.3792 114.21 75.1722 111.037 75.9654C114.21 76.7585 114.21 77.5516 111.037 78.3448C114.21 79.1379 114.21 79.931 111.037 80.7241C114.21 81.5173 114.21 82.3104 111.037 83.1035C114.21 83.8967 114.21 84.6897 111.037 85.4829C114.21 86.2761 114.21 87.0691 111.037 87.8623C114.21 88.6555 114.21 89.4485 111.037 90.2417C114.21 91.0348 114.21 91.8275 111.037 92.6211C114.21 93.4146 114.21 94.2069 111.037 95.0005C114.21 95.794 114.21 96.5863 111.037 97.3798C114.21 98.1734 114.21 98.9657 111.037 99.7592C114.21 100.553 114.21 101.345 111.037 102.139C114.21 102.932 114.21 103.724 111.037 104.518C114.21 105.312 114.21 106.104 111.037 106.897C114.21 107.691 114.21 108.483 111.037 109.277C114.21 110.07 114.21 110.863 111.037 111.656C114.21 112.45 114.21 113.242 111.037 114.036C114.21 114.829 114.21 115.621 111.037 116.415C114.21 117.208 114.21 118.001 111.037 118.794C114.21 119.588 114.21 120.38 111.037 121.174C114.21 121.967 114.21 122.76 111.037 123.553C114.21 124.347 114.21 125.139 111.037 125.932C114.21 126.726 114.21 127.518 111.037 128.312C114.21 129.105 114.21 129.898 111.037 130.691C114.21 131.485 114.21 132.277 111.037 133.071C114.21 133.864 114.21 134.656 111.037 135.45C114.21 136.243 114.21 137.036 111.037 137.829C114.21 138.623 114.21 139.415 111.037 140.209C114.21 141.002 114.21 141.795 111.037 142.588C114.21 143.382 114.21 144.174 111.037 144.968C113.196 145.868 115.178 146.859 116.985 147.942C107.864 147.942 98.7439 147.942 89.6226 147.942C87.3758 146.964 84.9964 145.973 82.4844 144.968C83.2776 144.571 84.0706 144.174 84.8638 143.778C81.6912 142.984 81.6912 142.192 84.8638 141.398C81.6912 140.605 81.6912 139.813 84.8638 139.019C81.6912 138.226 81.6912 137.433 84.8638 136.64C81.6912 135.846 81.6912 135.054 84.8638 134.26C81.6912 133.467 81.6912 132.674 84.8638 131.881C81.6912 131.087 81.6912 130.295 84.8638 129.502C81.6912 128.708 81.6912 127.916 84.8638 127.122C81.6912 126.329 81.6912 125.536 84.8638 124.743C81.6912 123.949 81.6912 123.157 84.8638 122.363C81.6912 121.57 81.6912 120.778 84.8638 119.984C81.6912 119.19 81.6912 118.398 84.8638 117.605C81.6912 116.811 81.6912 116.019 84.8638 115.225C81.6912 114.432 81.6912 113.639 84.8638 112.846C81.6912 112.052 81.6912 111.26 84.8638 110.466C81.6912 109.673 81.6912 108.881 84.8638 108.087C81.6912 107.294 81.6912 106.501 84.8638 105.708C83.7743 105.377 82.9811 104.782 82.4844 103.923C91.9009 101.206 98.2454 95.2574 101.519 86.0778C103.231 83.5937 104.025 80.8176 103.899 77.7499C97.9504 77.7499 92.0019 77.7499 86.0535 77.7499C82.5936 76.9655 82.197 75.9742 84.8638 74.7757C82.197 73.5772 82.5936 72.5858 86.0535 71.8015C92.0019 71.8015 97.9504 71.8015 103.899 71.8015C103.866 67.737 102.676 64.1679 100.33 61.0942C96.6179 53.4695 90.6695 48.3142 82.4844 45.6282C82.9811 44.7697 83.7743 44.1749 84.8638 43.8437C81.6912 43.0505 81.6912 42.2575 84.8638 41.4643C81.6912 40.6711 81.6912 39.8781 84.8638 39.0849C81.6912 38.2917 81.6912 37.4987 84.8638 36.7055C81.6912 35.9124 81.6912 35.1193 84.8638 34.3261C81.6912 33.533 81.6912 32.7399 84.8638 31.9468C81.6912 31.1536 81.6912 30.3605 84.8638 29.5674C81.6912 28.7742 81.6912 27.9812 84.8638 27.188C81.6912 26.3948 81.6912 25.6018 84.8638 24.8086C81.6912 24.0154 81.6912 23.2224 84.8638 22.4292C81.6912 21.6361 81.6912 20.843 84.8638 20.0498C81.6912 19.2567 81.6912 18.4636 84.8638 17.6705C81.6912 16.8773 81.6912 16.0842 84.8638 15.2911C81.6912 14.4979 81.6912 13.7049 84.8638 12.9117C81.6912 12.1185 81.6912 11.3255 84.8638 10.5323C81.6912 9.73914 81.6912 8.94609 84.8638 8.15292C81.6912 7.35975 81.6912 6.5667 84.8638 5.77354C81.6912 4.98037 81.6912 4.18732 84.8638 3.39415C83.3695 2.89817 82.5765 1.9068 82.4844 0.419922Z" fill="#EAEAEA"/>
<path opacity="0.956" fill-rule="evenodd" clip-rule="evenodd" d="M113.416 0.417839C119.292 -0.948047 123.456 1.03481 125.908 6.3663C126.702 51.1781 126.702 95.9894 125.908 140.802C124.897 145.576 121.923 147.955 116.986 147.94C115.178 146.857 113.196 145.866 111.037 144.965C114.21 144.172 114.21 143.38 111.037 142.586C114.21 141.793 114.21 141 111.037 140.207C114.21 139.413 114.21 138.621 111.037 137.827C114.21 137.034 114.21 136.241 111.037 135.448C114.21 134.654 114.21 133.862 111.037 133.069C114.21 132.275 114.21 131.483 111.037 130.689C114.21 129.896 114.21 129.103 111.037 128.31C114.21 127.516 114.21 126.724 111.037 125.93C114.21 125.137 114.21 124.345 111.037 123.551C114.21 122.757 114.21 121.965 111.037 121.172C114.21 120.378 114.21 119.586 111.037 118.792C114.21 117.999 114.21 117.206 111.037 116.413C114.21 115.619 114.21 114.827 111.037 114.033C114.21 113.24 114.21 112.448 111.037 111.654C114.21 110.861 114.21 110.068 111.037 109.275C114.21 108.481 114.21 107.689 111.037 106.895C114.21 106.102 114.21 105.309 111.037 104.516C114.21 103.722 114.21 102.93 111.037 102.137C114.21 101.343 114.21 100.551 111.037 99.7571C114.21 98.9636 114.21 98.1713 111.037 97.3778C114.21 96.5842 114.21 95.7919 111.037 94.9984C114.21 94.2048 114.21 93.4125 111.037 92.619C114.21 91.8255 114.21 91.0328 111.037 90.2396C114.21 89.4464 114.21 88.6534 111.037 87.8602C114.21 87.067 114.21 86.274 111.037 85.4808C114.21 84.6877 114.21 83.8946 111.037 83.1014C114.21 82.3083 114.21 81.5152 111.037 80.7221C114.21 79.9289 114.21 79.1358 111.037 78.3427C114.21 77.5495 114.21 76.7565 111.037 75.9633C114.21 75.1701 114.21 74.3771 111.037 73.5839C114.21 72.7907 114.21 71.9977 111.037 71.2045C114.21 70.4114 114.21 69.6183 111.037 68.8251C114.21 68.032 114.21 67.2389 111.037 66.4458C114.21 65.6526 114.21 64.8595 111.037 64.0664C114.21 63.2732 114.21 62.4802 111.037 61.687C114.21 60.8938 114.21 60.1008 111.037 59.3076C114.21 58.5144 114.21 57.7214 111.037 56.9282C114.21 56.135 114.21 55.342 111.037 54.5488C114.21 53.7557 114.21 52.9626 111.037 52.1694C114.21 51.3763 114.21 50.5832 111.037 49.7901C114.21 48.9969 114.21 48.2038 111.037 47.4107C114.21 46.6175 114.21 45.8245 111.037 45.0313C114.21 44.2381 114.21 43.4451 111.037 42.6519C114.21 41.8587 114.21 41.0657 111.037 40.2725C114.21 39.4794 114.21 38.6863 111.037 37.8931C114.21 37.1 114.21 36.3069 111.037 35.5138C114.21 34.7206 114.21 33.9275 111.037 33.1344C114.21 32.3412 114.21 31.5482 111.037 30.755C114.21 29.9618 114.21 29.1688 111.037 28.3756C114.21 27.5824 114.21 26.7894 111.037 25.9962C114.21 25.2031 114.21 24.41 111.037 23.6168C114.21 22.8237 114.21 22.0306 111.037 21.2374C114.21 20.4443 114.21 19.6512 111.037 18.8581C114.21 18.0649 114.21 17.2719 111.037 16.4787C114.21 15.6855 114.21 14.8925 111.037 14.0993C114.21 13.3061 114.21 12.5131 111.037 11.7199C114.21 10.9267 114.21 10.1337 111.037 9.34053C114.21 8.54736 114.21 7.75431 111.037 6.96115C114.21 6.16798 114.21 5.37493 111.037 4.58176C114.21 3.78859 114.21 2.99554 111.037 2.20238C112.127 1.87117 112.919 1.27632 113.416 0.417839Z" fill="#EFEFEF"/>
<path fill-rule="evenodd" clip-rule="evenodd" d="M82.4843 45.6261C90.6693 48.312 96.6178 53.4673 100.33 61.092C88.0362 61.092 75.7426 61.092 63.4492 61.092C60.1215 58.3617 56.9489 55.3875 53.9316 52.1694C62.1479 44.6672 71.6654 42.486 82.4843 45.6261Z" fill="#339F5E"/>
<path fill-rule="evenodd" clip-rule="evenodd" d="M63.4492 61.0918C75.7427 61.0918 88.0362 61.0918 100.33 61.0918C102.676 64.1655 103.865 67.7346 103.899 71.799C97.9503 71.799 92.0018 71.799 86.0534 71.799C82.451 63.2637 76.106 60.4878 67.0183 63.4712C65.1889 63.5266 63.9992 62.7335 63.4492 61.0918Z" fill="#339F5E"/>
<path fill-rule="evenodd" clip-rule="evenodd" d="M61.0698 72.9877C55.5178 72.9877 49.966 72.9877 44.4141 72.9877C44.4141 71.4015 44.4141 69.8152 44.4141 68.229C45.1435 63.5977 47.1262 59.632 50.3625 56.332C54.3097 59.6836 58.0771 63.2527 61.6646 67.0393C62.122 69.0577 61.9237 71.0404 61.0698 72.9877Z" fill="#339F5E"/>
<path fill-rule="evenodd" clip-rule="evenodd" d="M86.0556 77.75C92.0041 77.75 97.9526 77.75 103.901 77.75C104.027 80.8177 103.234 83.5938 101.522 86.0778C94.5524 86.4612 87.8108 86.0646 81.2969 84.8882C83.4574 82.9628 85.0436 80.5834 86.0556 77.75Z" fill="#339F5E"/>
<path fill-rule="evenodd" clip-rule="evenodd" d="M44.4152 68.2305C44.4152 69.8167 44.4152 71.403 44.4152 72.9892C49.9671 72.9892 55.519 72.9892 61.0709 72.9892C61.0418 77.6721 62.628 81.6377 65.8297 84.8862C59.3158 86.0626 52.5741 86.4592 45.6049 86.0759C43.3471 80.0946 42.9506 74.1461 44.4152 68.2305Z" fill="#339F5E"/>
<path fill-rule="evenodd" clip-rule="evenodd" d="M65.8302 84.8848C67.3849 85.6621 68.9711 86.4553 70.589 87.2641C71.7717 93.1603 72.1683 99.1087 71.7787 105.11C59.413 103.857 50.6885 97.5122 45.6055 86.0745C52.5747 86.4578 59.3163 86.0613 65.8302 84.8848Z" fill="#339F5E"/>
<path fill-rule="evenodd" clip-rule="evenodd" d="M81.2955 84.8848C87.8094 86.0613 94.5511 86.4578 101.52 86.0745C98.2462 95.2541 91.9017 101.203 82.4852 103.92C80.5612 104.56 78.5784 104.956 76.5367 105.11C76.3394 99.148 76.5376 93.1995 77.1316 87.2641C78.4554 86.3064 79.8434 85.5133 81.2955 84.8848Z" fill="#339F5E"/>
</svg>