<?xml version="1.0" encoding="utf-8"?>
<!-- Generator: Adobe Illustrator 26.4.1, SVG Export Plug-In . SVG Version: 6.00 Build 0)  -->
<svg version="1.1" id="Layer_1" xmlns="http://www.w3.org/2000/svg" xmlns:xlink="http://www.w3.org/1999/xlink" x="0px" y="0px"
	 viewBox="0 0 150 150" style="enable-background:new 0 0 150 150;" xml:space="preserve">
<style type="text/css">
	.st0{opacity:0.916;fill:#E3E3E3;enable-background:new    ;}
	.st1{opacity:0.934;fill:#EAEAEA;enable-background:new    ;}
	.st2{opacity:0.931;fill:#DFDFDF;enable-background:new    ;}
	.st3{opacity:0.927;fill:#EEEEEE;enable-background:new    ;}
	.st4{opacity:0.745;fill:#3B3B3B;enable-background:new    ;}
	.st5{opacity:0.918;fill:#424242;enable-background:new    ;}
	.st6{opacity:0.955;fill:#474747;enable-background:new    ;}
	.st7{opacity:0.958;fill:#4D4D4D;enable-background:new    ;}
	.st8{opacity:0.964;fill:#545454;enable-background:new    ;}
	.st9{opacity:0.954;fill:#545454;enable-background:new    ;}
	.st10{opacity:0.901;fill:#5A5A5A;enable-background:new    ;}
	.st11{opacity:0.888;fill:#5A5A5A;enable-background:new    ;}
	.st12{opacity:0.931;fill:#606060;enable-background:new    ;}
	.st13{opacity:0.922;fill:#616161;enable-background:new    ;}
	.st14{opacity:0.938;fill:#676767;enable-background:new    ;}
	.st15{opacity:0.915;fill:#717171;enable-background:new    ;}
	.st16{opacity:0.906;fill:#787878;enable-background:new    ;}
	.st17{opacity:0.892;fill:#7F7F7F;enable-background:new    ;}
	.st18{opacity:0.924;fill:#868686;enable-background:new    ;}
	.st19{opacity:0.932;fill:#8B8B8B;enable-background:new    ;}
	.st20{opacity:0.886;fill:#8D8D8D;enable-background:new    ;}
	.st21{opacity:0.986;fill:#929292;enable-background:new    ;}
	.st22{opacity:0.91;fill:#939393;enable-background:new    ;}
	.st23{opacity:0.879;fill:#989898;enable-background:new    ;}
	.st24{opacity:0.917;fill:#989898;enable-background:new    ;}
	.st25{opacity:0.932;fill:#9F9F9F;enable-background:new    ;}
	.st26{opacity:0.935;fill:#EAEAEA;enable-background:new    ;}
	.st27{opacity:0.978;fill:#A6A6A6;enable-background:new    ;}
	.st28{opacity:0.98;fill:#ACACAC;enable-background:new    ;}
	.st29{opacity:0.848;fill:#B2B2B2;enable-background:new    ;}
	.st30{opacity:0.92;fill:#E3E3E3;enable-background:new    ;}
</style>
<path class="st0" d="M87.5,0.7c1.1,2.3,1.1,4.2,0,5.9c4.5,1.1,4.5,2.2,0,3.4c2.2,1.1,2.2,2.2,0,3.4c1.1,0.6,2.2,1.1,3.4,1.7
	c-2.1,0.7-3.2,2.1-3.4,4.2c-15.8-2.3-30.9,0.5-45.3,8.4c-0.7,0.1-1.3-0.2-1.7-0.8c4.5-1.1,4.5-2.2,0-3.4c4.5-1.1,4.5-2.2,0-3.4
	c4.5-1.1,4.5-2.2,0-3.4c4.5-1.1,4.5-2.2,0-3.4c1.1-0.6,2.2-1.1,3.4-1.7c-2.2-0.8-4.4-1.1-6.7-0.8C52.6,1.7,69.4-1.6,87.5,0.7z"/>
<path class="st1" d="M87.5,0.7c17.6,3.2,32.2,11.6,43.6,25.1c-4.4,0.4-4.4,1.2,0,2.5c-4.5,1.1-4.5,2.2,0,3.4c-4.5,1.1-4.5,2.2,0,3.4
	c-4.5,1.1-4.5,2.2,0,3.4c-4.5,1.1-4.5,2.2,0,3.4c-4.5,1.1-4.5,2.2,0,3.4c-4.5,1.1-4.5,2.2,0,3.4c-1.6,0.8-3.3,1.1-5,0.8
	c-8.8-14.9-21.6-25-38.6-30.2c0.1-2.1,1.2-3.5,3.4-4.2c-1.1-0.6-2.2-1.1-3.4-1.7c2.2-1.1,2.2-2.2,0-3.4c4.5-1.1,4.5-2.2,0-3.4
	C88.7,4.9,88.7,3,87.5,0.7z"/>
<path class="st2" d="M37.2,10.8c2.3-0.3,4.5,0,6.7,0.8c-1.1,0.6-2.2,1.1-3.4,1.7c4.5,1.1,4.5,2.2,0,3.4c4.5,1.1,4.5,2.2,0,3.4
	c4.5,1.1,4.5,2.2,0,3.4c4.5,1.1,4.5,2.2,0,3.4c0.4,0.7,0.9,0.9,1.7,0.8c-33.5,31.8-33.5,63.7,0,95.5c-0.7-0.1-1.3,0.2-1.7,0.8
	c4.5,1.1,4.5,2.2,0,3.4c4.5,1.1,4.5,2.2,0,3.4c4.5,1.1,4.5,2.2,0,3.4c4.5,1.1,4.5,2.2,0,3.4c1.1,0.6,2.2,1.1,3.4,1.7
	c-1.5,0.5-2.7,1.3-3.4,2.5C6.8,122.1-5.8,93,2.9,54.4c3.5-14.6,11.1-26.6,22.6-36C29.3,15.4,33.2,12.9,37.2,10.8z"/>
<path class="st3" d="M131.1,25.9c19.5,24.1,23.7,50.9,12.6,80.5c-2.7,7.4-6.8,13.5-12.6,18.4c-4.4-0.4-4.4-1.2,0-2.5
	c-4.5-1.1-4.5-2.2,0-3.4c-4.5-1.1-4.5-2.2,0-3.4c-4.5-1.1-4.5-2.2,0-3.4c-4.5-1.1-4.5-2.2,0-3.4c-4.5-1.1-4.5-2.2,0-3.4
	c-4.5-1.1-4.5-2.2,0-3.4c-1.6-0.8-3.3-1.1-5-0.8c3.5-8.4,5.8-17,6.7-26c-0.9-9-3.2-17.6-6.7-26c1.8,0.3,3.4,0,5-0.8
	c-4.5-1.1-4.5-2.2,0-3.4c-4.5-1.1-4.5-2.2,0-3.4c-4.5-1.1-4.5-2.2,0-3.4c-4.5-1.1-4.5-2.2,0-3.4c-4.5-1.1-4.5-2.2,0-3.4
	c-4.5-1.1-4.5-2.2,0-3.4C126.8,27.1,126.8,26.2,131.1,25.9z"/>
<path class="st4" d="M90.9,34.2c-10.2,0.9-20.8,0.9-31.8,0C69.9,30,80.5,30,90.9,34.2z"/>
<path class="st5" d="M59,34.2c11,0.9,21.7,0.9,31.8,0c3,0.7,5.8,1.8,8.4,3.4c-15.3,1.7-31,2.2-46.9,1.7C53.9,36.8,56.1,35.1,59,34.2
	z"/>
<path class="st6" d="M99.3,37.6c2.3,1.7,4.5,3.4,6.7,5c-19.6,0-39.1,0-58.7,0c0.8-2.4,2.5-3.5,5-3.4C68.3,39.8,83.9,39.3,99.3,37.6z
	"/>
<path class="st7" d="M47.3,42.6c19.6,0,39.1,0,58.7,0c2.2,1.1,3.9,2.8,5,5c-10.9-0.5-21.5,0-31.8,1.7c-1.7,0-3.4,0-5,0
	c-10.3-1.7-20.9-2.2-31.8-1.7C43.4,45.4,45.1,43.7,47.3,42.6z"/>
<path class="st8" d="M42.3,47.6c10.9-0.5,21.5,0,31.8,1.7c-3.9,1.1-7.8,2.2-11.7,3.4c-7.6,0.5-14.9,0-21.8-1.7
	C40.3,49.3,40.9,48.2,42.3,47.6z"/>
<path class="st9" d="M79.1,49.3c10.3-1.7,20.9-2.2,31.8-1.7c0.6,1.1,1.1,2.2,1.7,3.4c-6.9,1.7-14.2,2.2-21.8,1.7
	C87,51.6,83.1,50.4,79.1,49.3z"/>
<path class="st10" d="M40.6,51c6.9,1.7,14.2,2.2,21.8,1.7c-0.8,2.4-2.5,3.5-5,3.4c-6.7,0-13.4,0-20.1,0C37.1,53.5,38.2,51.8,40.6,51
	z"/>
<path class="st11" d="M112.7,51c1.5,1.3,2.6,3,3.4,5c-7.3,0-14.5,0-21.8,0c-1.7-0.6-2.8-1.7-3.4-3.4C98.5,53.2,105.7,52.6,112.7,51z
	"/>
<path class="st12" d="M37.2,56c6.7,0,13.4,0,20.1,0c0.1,2.6-1,4.2-3.4,5c-6.1,0-12.3,0-18.4,0C35.2,58.9,35.7,57.2,37.2,56z"/>
<path class="st13" d="M94.2,56c7.3,0,14.5,0,21.8,0c1.2,2,1.8,4.3,1.7,6.7c-6.2,0.3-12.3,0-18.4-0.8C97.2,60.2,95.6,58.2,94.2,56z"
	/>
<path class="st14" d="M35.6,61.1c6.1,0,12.3,0,18.4,0c-0.1,1.9-0.7,3.5-1.7,5c-6.1,0-12.3,0-18.4,0C33.5,63.9,34.1,62.2,35.6,61.1z"
	/>
<path class="st15" d="M33.9,66.1c6.1,0,12.3,0,18.4,0c-1.2,2-1.8,4.3-1.7,6.7c-6.1,0-12.3,0-18.4,0C31.8,70.1,32.3,67.9,33.9,66.1z"
	/>
<path class="st16" d="M32.2,72.8c6.1,0,12.3,0,18.4,0c0,1.7,0,3.4,0,5c-6.1,0-12.3,0-18.4,0C32.2,76.1,32.2,74.5,32.2,72.8z"/>
<path class="st17" d="M32.2,77.8c6.1,0,12.3,0,18.4,0c0,1.7,0,3.4,0,5c-5.9-0.5-11.5,0-16.8,1.7C32.3,82.7,31.8,80.5,32.2,77.8z"/>
<path class="st18" d="M50.7,82.8c1.4,0.6,2,1.7,1.7,3.4c-6.3-0.4-12.5,0.1-18.4,1.7c0-1.1,0-2.2,0-3.4
	C39.1,82.9,44.7,82.3,50.7,82.8z"/>
<path class="st19" d="M52.3,86.2c1.5,1.3,2.6,3,3.4,5c-6.9-0.4-13.6,0.1-20.1,1.7c-0.1-1.9-0.7-3.5-1.7-5
	C39.9,86.3,46,85.8,52.3,86.2z"/>
<path class="st20" d="M116,92.9c-5.8-1.6-11.9-2.2-18.4-1.7c0.2-1,0.7-1.9,1.7-2.5c6.1-0.8,12.3-1.1,18.4-0.8
	C118.1,90,117.5,91.7,116,92.9z"/>
<path class="st21" d="M55.7,91.2c2.2,1.1,3.9,2.8,5,5c-8,0.5-15.8-0.1-23.5-1.7c-1.1,0-1.7-0.6-1.7-1.7
	C42.1,91.3,48.8,90.8,55.7,91.2z"/>
<path class="st22" d="M97.6,91.2c6.5-0.5,12.6,0,18.4,1.7c0.3,1.7-0.3,2.8-1.7,3.4c-7.3,0-14.5,0-21.8,0
	C93.7,94,95.4,92.3,97.6,91.2z"/>
<path class="st23" d="M37.2,94.6c7.7,1.6,15.5,2.1,23.5,1.7c2,0.7,3.7,1.8,5,3.4c-8.4,0-16.8,0-25.1,0
	C38.2,98.8,37.1,97.1,37.2,94.6z"/>
<path class="st24" d="M92.6,96.3c7.3,0,14.5,0,21.8,0c0.1,2.6-1,4.2-3.4,5c-7.5-1.7-15.3-2.2-23.5-1.7C88.9,98.1,90.5,97,92.6,96.3z
	"/>
<path class="st25" d="M40.6,99.6c8.4,0,16.8,0,25.1,0c7.3,2.2,14.5,2.2,21.8,0c8.2-0.5,16,0,23.5,1.7c-0.7,2-1.8,3.7-3.4,5
	c-20.9-1.7-42.2-2.2-63.7-1.7C41.6,103.8,40.5,102.2,40.6,99.6z"/>
<path class="st26" d="M126.1,101.3c1.8-0.3,3.4,0,5,0.8c-4.5,1.1-4.5,2.2,0,3.4c-4.5,1.1-4.5,2.2,0,3.4c-4.5,1.1-4.5,2.2,0,3.4
	c-4.5,1.1-4.5,2.2,0,3.4c-4.5,1.1-4.5,2.2,0,3.4c-4.5,1.1-4.5,2.2,0,3.4c-4.4,1.3-4.4,2.1,0,2.5c-11.4,13.5-25.9,21.9-43.6,25.1
	c1.1-2.3,1.1-4.2,0-5.9c4.5-1.1,4.5-2.2,0-3.4c2.2-1.1,2.2-2.2,0-3.4c1.1-0.6,2.2-1.1,3.4-1.7c-2.1-0.7-3.2-2.1-3.4-4.2
	C104.4,126.3,117.3,116.2,126.1,101.3z"/>
<path class="st27" d="M43.9,104.6c21.5-0.6,42.8,0,63.7,1.7c-0.8,2.4-2.5,3.5-5,3.4c-17.9,0-35.8,0-53.6,0
	C46.7,108.5,45.1,106.9,43.9,104.6z"/>
<path class="st28" d="M49,109.7c17.9,0,35.8,0,53.6,0c-0.8,2.4-2.5,3.5-5,3.4c-14.5,0-29.1,0-43.6,0C52,112.3,50.3,111.2,49,109.7z"
	/>
<path class="st29" d="M54,113c14.5,0,29.1,0,43.6,0C83.1,122,68.6,122,54,113z"/>
<path class="st30" d="M42.3,123.1c14.3,7.9,29.4,10.7,45.3,8.4c0.1,2.1,1.2,3.5,3.4,4.2c-1.1,0.6-2.2,1.1-3.4,1.7
	c2.2,1.1,2.2,2.2,0,3.4c4.5,1.1,4.5,2.2,0,3.4c1.1,1.7,1.1,3.6,0,5.9c-9,0.3-17.9,0-26.8-0.8c-7.3-1.4-14-3.9-20.1-7.5
	c0.7-1.2,1.8-2,3.4-2.5c-1.1-0.6-2.2-1.1-3.4-1.7c4.5-1.1,4.5-2.2,0-3.4c4.5-1.1,4.5-2.2,0-3.4c4.5-1.1,4.5-2.2,0-3.4
	c4.5-1.1,4.5-2.2,0-3.4C41,123.2,41.5,123,42.3,123.1z"/>
</svg>
