<svg width="150" height="150" fill="none" xmlns="http://www.w3.org/2000/svg">
<path opacity="0.966" fill-rule="evenodd" clip-rule="evenodd" d="M96.0874 0.198827C93.1243 1.17963 89.9233 1.77981 86.4846 1.99935C89.6856 2.79962 89.6856 3.59978 86.4846 4.40005C89.6856 5.20032 89.6856 6.00048 86.4846 6.80075C89.6856 7.60102 89.6856 8.40118 86.4846 9.20145C89.6856 10.0017 89.6856 10.8019 86.4846 11.6021C89.6856 12.4024 89.6856 13.2026 86.4846 14.0028C89.6856 14.8031 89.6856 15.6033 86.4846 16.4035C89.6856 17.2038 89.6856 18.004 86.4846 18.8042C89.6856 19.6045 89.6856 20.4047 86.4846 21.2049C89.6856 22.0052 89.6856 22.8054 86.4846 23.6056C89.6856 24.4059 89.6856 25.2061 86.4846 26.0063C97.4991 26.2108 108.302 26.8109 118.894 27.8069C95.6598 28.131 72.453 27.7309 49.2738 26.6065C41.551 25.8497 33.9488 25.0495 26.4672 24.2058C26.2679 17.7915 26.4679 11.3896 27.0673 5.00023C28.0676 3.99997 29.068 2.9996 30.0682 1.99935C51.9922 0.24612 73.9986 -0.354055 96.0874 0.198827Z" fill="#E0E0E0"/>
<path opacity="0.955" fill-rule="evenodd" clip-rule="evenodd" d="M96.0879 0.197488C106.591 -0.294535 116.993 0.30564 127.297 1.99801C128.969 3.40374 129.97 5.20427 130.298 7.39959C131.099 52.6128 131.099 97.8255 130.298 143.039C129.356 145.183 127.956 146.983 126.097 148.441C122.517 149.038 118.916 149.239 115.294 149.041C115.795 148.174 116.595 147.574 117.694 147.24C114.493 146.44 114.493 145.64 117.694 144.84C114.493 144.039 114.493 143.24 117.694 142.439C114.493 141.638 114.493 140.839 117.694 140.038C114.493 139.238 114.493 138.438 117.694 137.638C114.493 136.837 114.493 136.037 117.694 135.237C114.493 134.436 114.493 133.637 117.694 132.836C114.493 132.036 114.493 131.236 117.694 130.435C114.493 129.635 114.493 128.835 117.694 128.035C114.493 127.234 114.493 126.435 117.694 125.634C114.493 124.833 114.493 124.034 117.694 123.233C114.493 122.433 114.493 121.633 117.694 120.833C114.493 120.032 114.493 119.233 117.694 118.432C114.493 117.631 114.493 116.832 117.694 116.031C114.493 115.231 114.493 114.431 117.694 113.631C114.493 112.83 114.493 112.03 117.694 111.23C114.493 110.429 114.493 109.63 117.694 108.829C114.493 108.029 114.493 107.229 117.694 106.428C114.493 105.628 114.493 104.828 117.694 104.028C114.493 103.227 114.493 102.428 117.694 101.627C114.493 100.826 114.493 100.027 117.694 99.2263C114.493 98.4257 114.493 97.6263 117.694 96.8256C114.493 96.025 114.493 95.2256 117.694 94.4249C114.493 93.6247 114.493 92.8245 117.694 92.0242C114.493 91.224 114.493 90.4238 117.694 89.6235C114.493 88.8233 114.493 88.0231 117.694 87.2228C114.493 86.4226 114.493 85.6224 117.694 84.8221C114.493 84.0219 114.493 83.2217 117.694 82.4214C114.493 81.6212 114.493 80.821 117.694 80.0207C116.894 79.6207 116.094 79.2205 115.294 78.8204C116.393 78.4862 117.192 77.886 117.694 77.0199C118.779 76.1688 119.179 74.9685 118.895 73.4188C95.879 73.8153 73.0724 73.4152 50.4746 72.2185C51.2066 71.149 51.6067 69.9486 51.675 68.6174C52.829 66.4993 53.2291 64.0986 52.8753 61.4153C74.8817 61.4153 96.8882 61.4153 118.895 61.4153C118.895 60.215 118.895 59.0146 118.895 57.8143C96.8882 57.8143 74.8817 57.8143 52.8753 57.8143C52.8753 53.8132 52.8753 49.8119 52.8753 45.8108C74.8817 45.8108 96.8882 45.8108 118.895 45.8108C119.179 44.2611 118.779 43.0608 117.694 42.2097C117.192 41.3436 116.393 40.7434 115.294 40.4092C118.495 39.6089 118.495 38.8088 115.294 38.0085C118.495 37.2082 118.495 36.4081 115.294 35.6078C118.495 34.8075 118.495 34.0074 115.294 33.2071C117.024 32.7548 118.225 31.7546 118.895 30.2062C118.895 29.406 118.895 28.6058 118.895 27.8055C108.303 26.8096 97.4995 26.2094 86.4851 26.005C89.6861 25.2047 89.6861 24.4046 86.4851 23.6043C89.6861 22.804 89.6861 22.0039 86.4851 21.2036C89.6861 20.4033 89.6861 19.6032 86.4851 18.8029C89.6861 18.0026 89.6861 17.2025 86.4851 16.4022C89.6861 15.6019 89.6861 14.8018 86.4851 14.0015C89.6861 13.2012 89.6861 12.4011 86.4851 11.6008C89.6861 10.8005 89.6861 10.0004 86.4851 9.20011C89.6861 8.39984 89.6861 7.59969 86.4851 6.79941C89.6861 5.99914 89.6861 5.19899 86.4851 4.39871C89.6861 3.59844 89.6861 2.79829 86.4851 1.99801C89.9237 1.77847 93.1247 1.17829 96.0879 0.197488Z" fill="#ECECEC"/>
<path opacity="0.983" fill-rule="evenodd" clip-rule="evenodd" d="M26.4671 24.2074C33.9488 25.0511 41.5509 25.8513 49.2738 26.6081C49.6738 27.4084 50.074 28.2085 50.4741 29.0088C34.5186 31.3878 18.1138 32.188 1.25977 31.4095C1.75503 27.9104 3.75565 25.7098 7.26151 24.8076C13.6509 24.2081 20.0528 24.0081 26.4671 24.2074Z" fill="#339F5E"/>
<path fill-rule="evenodd" clip-rule="evenodd" d="M49.2734 26.6074C72.4527 27.7318 95.6594 28.1319 118.894 27.8078C118.894 28.608 118.894 29.4082 118.894 30.2085C96.4872 30.2085 74.0807 30.2085 51.6741 30.2085C51.6741 29.4082 51.2741 29.0081 50.4738 29.0081C50.0737 28.2078 49.6735 27.4077 49.2734 26.6074Z" fill="#BEBEBE"/>
<path opacity="0.984" fill-rule="evenodd" clip-rule="evenodd" d="M50.4733 29.0078C51.2736 29.0078 51.6736 29.4079 51.6736 30.2082C51.6736 31.0084 51.6736 31.8086 51.6736 32.6089C51.6736 34.2093 51.6736 35.8098 51.6736 37.4103C34.1759 38.1583 16.9708 37.358 0.0585938 35.0096C0.126894 33.6784 0.52697 32.478 1.25894 31.4085C18.1129 32.1871 34.5178 31.3868 50.4733 29.0078Z" fill="#339F5E"/>
<path fill-rule="evenodd" clip-rule="evenodd" d="M51.6758 30.209C74.0824 30.209 96.4888 30.209 118.895 30.209C118.226 31.7573 117.025 32.7576 115.294 33.2099C118.496 34.0101 118.496 34.8103 115.294 35.6106C118.496 36.4108 118.496 37.211 115.294 38.0113C118.496 38.8115 118.496 39.6117 115.294 40.412C116.394 40.7461 117.193 41.3463 117.695 42.2125C96.0887 42.2125 74.4824 42.2125 52.8761 42.2125C53.2439 38.749 52.8438 35.548 51.6758 32.6097C51.6758 31.8094 51.6758 31.0093 51.6758 30.209Z" fill="#E6E6E6"/>
<path opacity="0.96" fill-rule="evenodd" clip-rule="evenodd" d="M0.0605469 35.0098C16.9728 37.3583 34.1778 38.1585 51.6756 37.4105C51.6756 39.0109 51.6756 40.6114 51.6756 42.2119C44.0734 42.2119 36.4711 42.2119 28.8689 42.2119C28.5195 40.8325 27.5193 40.0323 25.8681 39.8112C24.2169 40.0323 23.2166 40.8325 22.8672 42.2119C15.265 42.2119 7.66272 42.2119 0.0605469 42.2119C0.0605469 39.8112 0.0605469 37.4105 0.0605469 35.0098Z" fill="#339F5E"/>
<path fill-rule="evenodd" clip-rule="evenodd" d="M28.869 42.2112C28.869 44.2119 28.869 46.2124 28.869 48.213C31.9411 47.851 34.7419 48.2512 37.2715 49.4133C37.2715 51.0138 37.2715 52.6143 37.2715 54.2147C34.4707 54.2147 31.6698 54.2147 28.869 54.2147C28.869 56.6154 28.869 59.0161 28.869 61.4168C27.0183 62.378 25.0177 62.778 22.8673 62.6172C22.8673 59.8164 22.8673 57.0155 22.8673 54.2147C20.0665 54.2147 17.2656 54.2147 14.4648 54.2147C14.4648 52.6143 14.4648 51.0138 14.4648 49.4133C16.9945 48.2512 19.7952 47.851 22.8673 48.213C22.8673 46.2124 22.8673 44.2119 22.8673 42.2112C23.2167 40.8319 24.217 40.0317 25.8682 39.8105C27.5194 40.0317 28.5196 40.8319 28.869 42.2112Z" fill="#EFEFEF"/>
<path opacity="0.956" fill-rule="evenodd" clip-rule="evenodd" d="M0.0585938 42.2109C7.66077 42.2109 15.2631 42.2109 22.8652 42.2109C22.8652 44.2116 22.8652 46.2121 22.8652 48.2127C19.7932 47.8507 16.9924 48.2509 14.4628 49.413C9.66139 49.413 4.85999 49.413 0.0585938 49.413C0.0585938 47.0123 0.0585938 44.6116 0.0585938 42.2109Z" fill="#339F5E"/>
<path fill-rule="evenodd" clip-rule="evenodd" d="M28.8672 42.2109C36.4694 42.2109 44.0717 42.2109 51.6738 42.2109C51.6738 44.6116 51.6738 47.0123 51.6738 49.413C46.8724 49.413 42.071 49.413 37.2696 49.413C34.74 48.2509 31.9392 47.8507 28.8672 48.2127C28.8672 46.2121 28.8672 44.2116 28.8672 42.2109Z" fill="#339F5E"/>
<path fill-rule="evenodd" clip-rule="evenodd" d="M51.6738 32.6094C52.8419 35.5477 53.242 38.7487 52.8742 42.2122C74.4805 42.2122 96.0868 42.2122 117.693 42.2122C118.778 43.0632 119.178 44.2636 118.893 45.8132C96.887 45.8132 74.8806 45.8132 52.8742 45.8132C52.8742 49.8143 52.8742 53.8156 52.8742 57.8167C74.8806 57.8167 96.887 57.8167 118.893 57.8167C118.893 59.0171 118.893 60.2174 118.893 61.4178C96.887 61.4178 74.8806 61.4178 52.8742 61.4178C53.2279 64.101 52.8278 66.5017 51.6738 68.6199C51.6738 66.6192 51.6738 64.6187 51.6738 62.6181C51.6738 58.2168 51.6738 53.8156 51.6738 49.4143C51.6738 47.0136 51.6738 44.6129 51.6738 42.2122C51.6738 40.6117 51.6738 39.0112 51.6738 37.4108C51.6738 35.8103 51.6738 34.2098 51.6738 32.6094Z" fill="#BFBFBF"/>
<path opacity="0.965" fill-rule="evenodd" clip-rule="evenodd" d="M0.0605469 49.4141C4.86195 49.4141 9.66335 49.4141 14.4647 49.4141C14.4647 51.0145 14.4647 52.615 14.4647 54.2155C17.2655 54.2155 20.0664 54.2155 22.8672 54.2155C22.8672 57.0162 22.8672 59.8171 22.8672 62.6179C15.3276 62.1261 7.72538 62.1261 0.0605469 62.6179C0.0605469 58.2166 0.0605469 53.8154 0.0605469 49.4141Z" fill="#339F5E"/>
<path fill-rule="evenodd" clip-rule="evenodd" d="M37.2696 49.4141C42.071 49.4141 46.8724 49.4141 51.6738 49.4141C51.6738 53.8154 51.6738 58.2166 51.6738 62.6179C44.011 62.4508 36.4089 62.0507 28.8672 61.4176C28.8672 59.0169 28.8672 56.6162 28.8672 54.2155C31.668 54.2155 34.4689 54.2155 37.2696 54.2155C37.2696 52.615 37.2696 51.0145 37.2696 49.4141Z" fill="#339F5E"/>
<path opacity="0.994" fill-rule="evenodd" clip-rule="evenodd" d="M22.8661 62.6183C25.0166 62.7792 27.0172 62.3791 28.8679 61.418C36.4096 62.0512 44.0117 62.4512 51.6745 62.6183C51.6745 64.6189 51.6745 66.6194 51.6745 68.6201C51.6062 69.9513 51.2062 71.1516 50.4742 72.2211C48.1788 73.7806 45.7781 74.981 43.2721 75.8222C37.6704 75.8222 32.0689 75.8222 26.4672 75.8222C19.254 76.0217 12.0519 75.8216 4.86089 75.222C1.26176 71.8326 -0.338666 67.6313 0.0594901 62.6183C7.72432 62.1265 15.3265 62.1265 22.8661 62.6183Z" fill="#339F5E"/>
<path fill-rule="evenodd" clip-rule="evenodd" d="M50.4755 72.2207C73.0733 73.4175 95.88 73.8175 118.895 73.4211C119.18 74.9707 118.78 76.1711 117.695 77.0221C108.092 77.0221 98.4895 77.0221 88.8867 77.0221C77.6835 77.0221 66.4802 77.0221 55.2769 77.0221C51.0254 77.3976 47.0243 76.9974 43.2734 75.8218C45.7794 74.9805 48.1801 73.7802 50.4755 72.2207Z" fill="#C0C0C0"/>
<path opacity="0.994" fill-rule="evenodd" clip-rule="evenodd" d="M26.4675 75.8223C32.0692 75.8223 37.6708 75.8223 43.2724 75.8223C47.0233 76.9979 51.0244 77.3981 55.2759 77.0226C55.3689 78.5228 56.169 79.5231 57.6766 80.0235C54.4757 81.6239 54.4757 83.2245 57.6766 84.8249C54.4757 86.4253 54.4757 88.0259 57.6766 89.6263C54.4757 91.2267 54.4757 92.8273 57.6766 94.4277C54.4757 96.0278 54.4757 97.629 57.6766 99.2291C54.4757 100.829 54.4757 102.43 57.6766 104.03C54.4757 105.631 54.4757 107.232 57.6766 108.832C54.4757 110.432 54.4757 112.033 57.6766 113.633C54.4757 115.233 54.4757 116.835 57.6766 118.435C56.7066 118.804 55.9065 119.405 55.2759 120.235C62.2614 121.036 69.0633 121.835 75.6819 122.636C64.8787 122.636 54.0756 122.636 43.2724 122.636C43.2724 123.836 43.2724 125.037 43.2724 126.237C47.2736 126.237 51.2748 126.237 55.2759 126.237C55.7771 127.104 56.5774 127.704 57.6766 128.037C54.4757 129.638 54.4757 131.239 57.6766 132.839C54.4757 134.439 54.4757 136.04 57.6766 137.64C54.4757 139.24 54.4757 140.842 57.6766 142.442C56.5627 142.907 55.7626 143.708 55.2759 144.842C56.3917 146.135 57.1919 147.536 57.6766 149.044C48.865 149.243 40.0625 149.044 31.2689 148.443C29.0683 147.843 27.6679 146.442 27.0677 144.242C26.4677 121.439 26.2676 98.6325 26.4675 75.8223Z" fill="#DFDFDF"/>
<path opacity="0.999" fill-rule="evenodd" clip-rule="evenodd" d="M55.2754 77.0215C66.4786 77.0215 77.682 77.0215 88.8852 77.0215C88.3841 77.8877 87.5838 78.4878 86.4845 78.822C89.6855 79.6223 89.6855 80.4224 86.4845 81.2227C89.6855 82.023 89.6855 82.8231 86.4845 83.6234C89.6855 84.4237 89.6855 85.2238 86.4845 86.0241C89.6855 86.8244 89.6855 87.6245 86.4845 88.4248C89.6855 89.2251 89.6855 90.0252 86.4845 90.8255C89.6855 91.6258 89.6855 92.4259 86.4845 93.2262C89.6855 94.0265 89.6855 94.8263 86.4845 95.6269C89.6855 96.4275 89.6855 97.227 86.4845 98.0276C89.6855 98.8282 89.6855 99.6277 86.4845 100.428C89.6855 101.229 89.6855 102.028 86.4845 102.829C89.6855 103.63 89.6855 104.429 86.4845 105.23C89.6855 106.03 89.6855 106.83 86.4845 107.63C89.6855 108.431 89.6855 109.23 86.4845 110.031C89.6855 110.832 89.6855 111.631 86.4845 112.432C89.6855 113.232 89.6855 114.032 86.4845 114.833C89.6855 115.633 89.6855 116.433 86.4845 117.233C89.6855 118.034 89.6855 118.833 86.4845 119.634C89.6855 120.435 89.6855 121.234 86.4845 122.035C89.6855 122.835 89.6855 123.635 86.4845 124.435C89.6855 125.236 89.6855 126.035 86.4845 126.836C89.6855 127.637 89.6855 128.436 86.4845 129.237C89.6855 130.037 89.6855 130.837 86.4845 131.637C89.6855 132.438 89.6855 133.237 86.4845 134.038C89.6855 134.839 89.6855 135.638 86.4845 136.439C89.6855 137.239 89.6855 138.039 86.4845 138.84C89.6855 139.64 89.6855 140.44 86.4845 141.24C89.6855 142.041 89.6855 142.84 86.4845 143.641C89.6855 144.442 89.6855 145.241 86.4845 146.042C87.2848 146.441 88.0849 146.842 88.8852 147.242C87.3998 147.52 86.1994 148.121 85.2842 149.042C76.0814 149.042 66.8788 149.042 57.6761 149.042C57.1914 147.535 56.3911 146.134 55.2754 144.841C55.762 143.707 56.5622 142.906 57.6761 142.441C54.4751 140.84 54.4751 139.239 57.6761 137.639C54.4751 136.039 54.4751 134.438 57.6761 132.838C54.4751 131.238 54.4751 129.636 57.6761 128.036C56.5768 127.703 55.7766 127.102 55.2754 126.236C62.4775 126.236 69.6796 126.236 76.8817 126.236C77.1666 124.686 76.7665 123.486 75.6814 122.635C69.0628 121.834 62.2609 121.035 55.2754 120.234C55.906 119.403 56.7061 118.803 57.6761 118.434C54.4751 116.833 54.4751 115.232 57.6761 113.632C54.4751 112.032 54.4751 110.431 57.6761 108.831C54.4751 107.231 54.4751 105.629 57.6761 104.029C54.4751 102.429 54.4751 100.828 57.6761 99.228C54.4751 97.6279 54.4751 96.0266 57.6761 94.4266C54.4751 92.8261 54.4751 91.2256 57.6761 89.6252C54.4751 88.0247 54.4751 86.4242 57.6761 84.8238C54.4751 83.2233 54.4751 81.6228 57.6761 80.0224C56.1685 79.5219 55.3683 78.5217 55.2754 77.0215Z" fill="#E4E4E4"/>
<path opacity="0.999" fill-rule="evenodd" clip-rule="evenodd" d="M88.8862 77.0215C98.489 77.0215 108.092 77.0215 117.695 77.0215C117.193 77.8877 116.393 78.4878 115.294 78.822C116.095 79.2221 116.894 79.6223 117.695 80.0224C114.493 80.8226 114.493 81.6228 117.695 82.4231C114.493 83.2233 114.493 84.0235 117.695 84.8238C114.493 85.624 114.493 86.4242 117.695 87.2245C114.493 88.0247 114.493 88.8249 117.695 89.6252C114.493 90.4254 114.493 91.2256 117.695 92.0259C114.493 92.8261 114.493 93.6263 117.695 94.4266C114.493 95.2272 114.493 96.0266 117.695 96.8273C114.493 97.6279 114.493 98.4273 117.695 99.228C114.493 100.029 114.493 100.828 117.695 101.629C114.493 102.429 114.493 103.229 117.695 104.029C114.493 104.83 114.493 105.629 117.695 106.43C114.493 107.231 114.493 108.03 117.695 108.831C114.493 109.631 114.493 110.431 117.695 111.231C114.493 112.032 114.493 112.832 117.695 113.632C114.493 114.433 114.493 115.232 117.695 116.033C114.493 116.833 114.493 117.633 117.695 118.434C114.493 119.234 114.493 120.034 117.695 120.834C114.493 121.635 114.493 122.434 117.695 123.235C114.493 124.036 114.493 124.835 117.695 125.636C114.493 126.436 114.493 127.236 117.695 128.036C114.493 128.837 114.493 129.636 117.695 130.437C114.493 131.238 114.493 132.037 117.695 132.838C114.493 133.638 114.493 134.438 117.695 135.238C114.493 136.039 114.493 136.839 117.695 137.639C114.493 138.44 114.493 139.239 117.695 140.04C114.493 140.84 114.493 141.64 117.695 142.441C114.493 143.241 114.493 144.041 117.695 144.841C114.493 145.642 114.493 146.441 117.695 147.242C116.595 147.576 115.796 148.176 115.294 149.042C105.291 149.042 95.288 149.042 85.2852 149.042C86.2004 148.121 87.4008 147.52 88.8862 147.242C88.0859 146.842 87.2858 146.441 86.4855 146.042C89.6865 145.241 89.6865 144.442 86.4855 143.641C89.6865 142.84 89.6865 142.041 86.4855 141.24C89.6865 140.44 89.6865 139.64 86.4855 138.84C89.6865 138.039 89.6865 137.239 86.4855 136.439C89.6865 135.638 89.6865 134.839 86.4855 134.038C89.6865 133.237 89.6865 132.438 86.4855 131.637C89.6865 130.837 89.6865 130.037 86.4855 129.237C89.6865 128.436 89.6865 127.637 86.4855 126.836C89.6865 126.035 89.6865 125.236 86.4855 124.435C89.6865 123.635 89.6865 122.835 86.4855 122.035C89.6865 121.234 89.6865 120.435 86.4855 119.634C89.6865 118.833 89.6865 118.034 86.4855 117.233C89.6865 116.433 89.6865 115.633 86.4855 114.833C89.6865 114.032 89.6865 113.232 86.4855 112.432C89.6865 111.631 89.6865 110.832 86.4855 110.031C89.6865 109.23 89.6865 108.431 86.4855 107.63C89.6865 106.83 89.6865 106.03 86.4855 105.23C89.6865 104.429 89.6865 103.63 86.4855 102.829C89.6865 102.028 89.6865 101.229 86.4855 100.428C89.6865 99.6277 89.6865 98.8282 86.4855 98.0276C89.6865 97.227 89.6865 96.4275 86.4855 95.6269C89.6865 94.8263 89.6865 94.0265 86.4855 93.2262C89.6865 92.4259 89.6865 91.6258 86.4855 90.8255C89.6865 90.0252 89.6865 89.2251 86.4855 88.4248C89.6865 87.6245 89.6865 86.8244 86.4855 86.0241C89.6865 85.2238 89.6865 84.4237 86.4855 83.6234C89.6865 82.8231 89.6865 82.023 86.4855 81.2227C89.6865 80.4224 89.6865 79.6223 86.4855 78.822C87.5848 78.4878 88.3851 77.8877 88.8862 77.0215Z" fill="#EAEAEA"/>
<path fill-rule="evenodd" clip-rule="evenodd" d="M75.6829 122.637C76.768 123.488 77.1681 124.688 76.8832 126.238C69.6811 126.238 62.479 126.238 55.2769 126.238C51.2758 126.238 47.2746 126.238 43.2734 126.238C43.2734 125.037 43.2734 123.837 43.2734 122.637C54.0766 122.637 64.8797 122.637 75.6829 122.637Z" fill="#BEBEBE"/>
</svg>