<svg width="150" height="150" fill="none" xmlns="http://www.w3.org/2000/svg">
<path opacity="0.968" fill-rule="evenodd" clip-rule="evenodd" d="M66.1474 32.5162C53.7652 32.5162 41.3829 32.5162 29.0006 32.5162C29.0006 33.892 29.0006 35.2678 29.0006 36.6436C41.6336 37.093 54.0158 36.6344 66.1474 35.2678C82.0877 36.6134 98.1391 37.0719 114.301 36.6436C107.431 37.4032 100.552 38.5497 93.6636 40.0831C95.0394 40.5417 96.4152 41.0004 97.791 41.459C93.05 44.1594 93.05 45.9938 97.791 46.9622C93.05 49.6626 93.05 51.497 97.791 52.4654C96.6794 52.8886 95.7617 53.5765 95.0394 54.5291C101.667 55.4467 108.086 56.3638 114.301 57.2808C98.7018 57.0517 83.1089 57.2809 67.5232 57.9687C66.7583 58.495 66.2997 59.1829 66.1474 60.0324C52.8479 60.0324 39.5485 60.0324 26.249 60.0324C27.7259 52.3067 27.9551 44.5104 26.9369 36.6436C22.7418 30.5905 19.761 23.9408 17.9941 16.6944C18.2641 12.1996 20.0984 8.53077 23.4974 5.68794C39.0898 4.77069 54.6824 4.77069 70.2749 5.68794C71.4213 6.8344 72.5679 7.981 73.7144 9.12746C74.6316 14.1721 74.6316 19.2167 73.7144 24.2614C70.5061 26.6044 67.9837 29.356 66.1474 32.5162Z" fill="#E0E0E0"/>
<path fill-rule="evenodd" clip-rule="evenodd" d="M66.1468 32.5176C66.1468 33.4348 66.1468 34.3519 66.1468 35.2692C54.0152 36.6358 41.6329 37.0943 29 36.645C29 35.2692 29 33.8934 29 32.5176C41.3823 32.5176 53.7646 32.5176 66.1468 32.5176Z" fill="#BEBEBE"/>
<path opacity="0.935" fill-rule="evenodd" clip-rule="evenodd" d="M114.301 36.6442C123.027 36.4156 131.74 36.6449 140.442 37.3321C148.09 39.3379 150.612 44.1532 148.009 51.7781C146.194 54.5125 143.672 56.1175 140.442 56.5934C131.74 57.2807 123.027 57.51 114.301 57.2813C108.087 56.3644 101.667 55.4473 95.0399 54.5297C95.7622 53.5771 96.6798 52.8892 97.7915 52.466C93.0505 51.4976 93.0505 49.6632 97.7915 46.9628C93.0505 45.9943 93.0505 44.16 97.7915 41.4595C96.4157 41.001 95.0399 40.5423 93.6641 40.0837C100.553 38.5503 107.432 37.4038 114.301 36.6442Z" fill="#EBEBEB"/>
<path fill-rule="evenodd" clip-rule="evenodd" d="M26.25 60.0332C39.5495 60.0332 52.8489 60.0332 66.1484 60.0332C66.1484 60.9505 66.1484 61.8676 66.1484 62.7848C59.3784 63.6678 52.4993 64.1265 45.5113 64.1606C38.5624 64.1514 32.1419 63.2342 26.25 61.409C26.25 60.9505 26.25 60.4918 26.25 60.0332Z" fill="#BDBDBD"/>
<path opacity="0.979" fill-rule="evenodd" clip-rule="evenodd" d="M26.2494 61.4082C32.1413 63.2334 38.5617 64.1506 45.5107 64.1598C52.4987 64.1257 59.3777 63.667 66.1478 62.784C68.6997 64.8933 71.2219 67.1862 73.7147 69.6631C74.632 74.7077 74.632 79.7523 73.7147 84.7969C72.5683 85.9434 71.4217 87.09 70.2752 88.2365C54.6828 89.1537 39.0902 89.1537 23.4977 88.2365C16.0197 78.5721 16.9369 69.6293 26.2494 61.4082Z" fill="#DFDFDF"/>
<path opacity="0.948" fill-rule="evenodd" clip-rule="evenodd" d="M53.7649 106.81C53.8714 108.53 54.7885 109.676 56.5166 110.25C52.8477 111.167 52.8477 112.084 56.5166 113.001C52.8477 113.919 52.8477 114.835 56.5166 115.753C52.8477 116.671 52.8477 117.587 56.5166 118.505C52.8477 119.422 52.8477 120.339 56.5166 121.256C55.5993 121.714 54.6822 122.174 53.7649 122.632C55.0249 123.014 55.9422 123.702 56.5166 124.696C39.7616 124.244 23.2519 124.703 6.98745 126.072C6.98745 126.989 6.98745 127.905 6.98745 128.823C22.3338 130.192 37.9262 130.65 53.7649 130.199C54.3393 131.192 55.2566 131.88 56.5166 132.263C52.8477 133.18 52.8477 134.097 56.5166 135.014C52.8477 135.932 52.8477 136.848 56.5166 137.766C52.8477 138.684 52.8477 139.6 56.5166 140.518C55.5993 140.976 54.6822 141.435 53.7649 141.893C55.0249 142.276 55.9422 142.964 56.5166 143.957C39.0836 144.187 21.6567 143.957 4.23584 143.269C0.960176 141.193 -0.415633 138.213 0.108412 134.326C2.90488 128.234 5.42729 121.813 7.67536 115.065C10.3422 111.48 13.7817 108.958 17.9939 107.498C29.9088 106.81 41.8324 106.582 53.7649 106.81Z" fill="#E1E1E1"/>
<path opacity="0.976" fill-rule="evenodd" clip-rule="evenodd" d="M53.7657 106.81C61.1176 106.582 68.4553 106.811 75.7786 107.498C83.9809 110.409 88.1086 116.142 88.1609 124.696C77.613 124.696 67.0652 124.696 56.5173 124.696C55.9429 123.702 55.0256 123.014 53.7657 122.632C54.6829 122.174 55.6 121.714 56.5173 121.256C52.8484 120.338 52.8484 119.422 56.5173 118.504C52.8484 117.587 52.8484 116.67 56.5173 115.753C52.8484 114.835 52.8484 113.919 56.5173 113.001C52.8484 112.083 52.8484 111.167 56.5173 110.25C54.7893 109.676 53.8721 108.53 53.7657 106.81Z" fill="#EAEAEA"/>
<path fill-rule="evenodd" clip-rule="evenodd" d="M6.98828 126.073C23.2527 124.704 39.7624 124.246 56.5174 124.697C67.0653 124.697 77.6131 124.697 88.161 124.697C89.5368 125.155 90.4545 126.073 90.9126 127.449C89.8271 127.838 88.9094 128.526 88.161 129.513C76.705 130.2 65.24 130.429 53.7658 130.2C37.927 130.652 22.3346 130.194 6.98828 128.825C17.5362 128.825 28.084 128.825 38.6319 128.825C82.6577 127.907 82.6577 126.991 38.6319 126.073C28.084 126.073 17.5362 126.073 6.98828 126.073Z" fill="#339F5E"/>
<path fill-rule="evenodd" clip-rule="evenodd" d="M6.98828 126.072C17.5362 126.072 28.084 126.072 38.6319 126.072C38.6319 126.99 38.6319 127.906 38.6319 128.824C28.084 128.824 17.5362 128.824 6.98828 128.824C6.98828 127.906 6.98828 126.99 6.98828 126.072Z" fill="#339F5E"/>
<path fill-rule="evenodd" clip-rule="evenodd" d="M38.6309 126.072C82.6567 126.99 82.6567 127.906 38.6309 128.824C38.6309 127.906 38.6309 126.99 38.6309 126.072Z" fill="#339F5E"/>
<path fill-rule="evenodd" clip-rule="evenodd" d="M90.9125 127.447C94.7854 132.934 94.3272 138.207 89.5367 143.269C78.5397 143.957 67.5332 144.185 56.5173 143.957C55.9429 142.964 55.0256 142.276 53.7657 141.893C54.6829 141.435 55.6 140.976 56.5173 140.517C52.8484 139.6 52.8484 138.683 56.5173 137.766C52.8484 136.848 52.8484 135.932 56.5173 135.014C52.8484 134.097 52.8484 133.18 56.5173 132.263C55.2573 131.88 54.3401 131.192 53.7657 130.199C65.2399 130.427 76.7049 130.199 88.1609 129.511C88.9093 128.525 89.827 127.837 90.9125 127.447Z" fill="#EBEBEB"/>
</svg>