<?xml version="1.0" encoding="utf-8"?>
<!-- Generator: Adobe Illustrator 26.4.1, SVG Export Plug-In . SVG Version: 6.00 Build 0)  -->
<svg version="1.1" id="Layer_1" xmlns="http://www.w3.org/2000/svg" xmlns:xlink="http://www.w3.org/1999/xlink" x="0px" y="0px"
	 viewBox="0 0 150 150" style="enable-background:new 0 0 150 150;" xml:space="preserve">
<style type="text/css">
	.st0{opacity:0.965;fill:#DCDCDC;enable-background:new    ;}
	.st1{fill:#C3C3C3;}
	.st2{fill:#BDBDBD;}
	.st3{opacity:0.962;fill:#EDEDED;enable-background:new    ;}
	.st4{fill:#E3E3E3;}
	.st5{opacity:0.993;fill:#E8E8E8;enable-background:new    ;}
	.st6{fill:#656565;}
	.st7{fill:#676767;}
	.st8{fill:#848484;}
	.st9{fill:#878787;}
</style>
<path class="st0" d="M43.7,17.9c-0.7,1.2-1.7,2-3.2,2.4c1.1,0.5,2.1,1.1,3.2,1.6c-1.5,0.4-2.5,1.3-3.2,2.4
	c-6.1,3.5-9.8,8.9-11.2,16.1c-4,7.6-6.7,15.6-8,24.1c35.4,0,70.7,0,106.1,0c0,0.5,0,1.1,0,1.6c-12.3,0-24.6,0-37,0
	c-15.5-0.3-31.1,0-46.6,0.8c-4.3,1.1-4.3,2.1,0,3.2c-4.3,1.1-4.3,2.1,0,3.2c-4.3,1.1-4.3,2.1,0,3.2c-1.1,0.5-2.1,1.1-3.2,1.6
	c2.3,0.6,3.9,1.9,4.8,4c-8.6,0-17.1,0-25.7,0c0,2.7,0,5.4,0,8s0,5.4,0,8c9.1,0,18.2,0,27.3,0c-1.8,1.3-3.9,2.1-6.4,2.4
	c4.3,1.1,4.3,2.1,0,3.2c4.3,1.1,4.3,2.1,0,3.2c4.3,1.1,4.3,2.1,0,3.2c1.1,0.5,2.1,1.1,3.2,1.6c-1.5,0.4-2.5,1.3-3.2,2.4
	c-3.2,0-6.4,0-9.6,0c0.3,4.8,0,9.7-0.8,14.5c-0.8,0.8-1.6,1.6-2.4,2.4c-7,1.1-13.9,1.1-20.9,0c-0.8-0.8-1.6-1.6-2.4-2.4
	c-1.1-17.7-1.1-35.4,0-53c1-3.6,2.4-7.1,4-10.4c-7.6-3.9-10-10.1-7.2-18.5c4.6-3.8,9.5-3.8,14.5,0C17.3,35,23,25.6,32.4,18.7
	C36.2,17.9,39.9,17.7,43.7,17.9z"/>
<path class="st1" d="M40.5,24.3c23.6-0.3,47.1,0,70.7,0.8c5.5,4.2,8.7,9.8,9.6,16.9c-30.4-1.6-60.9-2.1-91.6-1.6
	C30.7,33.2,34.4,27.9,40.5,24.3z"/>
<path class="st2" d="M29.2,40.4c30.7-0.5,61.2,0,91.6,1.6c4.5,7,6.6,14.5,6.4,22.5c-35.4,0-70.7,0-106.1,0
	C22.5,56,25.2,48,29.2,40.4z"/>
<path class="st3" d="M43.7,17.9c24.6-0.3,49.3,0,73.9,0.8c4.6,2.4,8,5.9,10.4,10.4c1.9,6,4,11.9,6.4,17.7c13-5.7,17.9-1.4,14.5,12.9
	c-2,2.5-4.4,4.4-7.2,5.6c1.6,3.3,3,6.8,4,10.4c1.1,17.7,1.1,35.4,0,53c-4.7,2.8-9.8,3.8-15.3,3.2c-0.7-1.2-1.7-2-3.2-2.4
	c4.3-1.1,4.3-2.1,0-3.2c4.3-1.1,4.3-2.1,0-3.2c4.3-1.1,4.3-2.1,0-3.2c4.3-1.1,4.3-2.1,0-3.2c4.3-1.1,4.3-2.1,0-3.2
	c4.3-1.1,4.3-2.1,0-3.2c4.3-1.1,4.3-2.1,0-3.2c4.3-1.1,4.3-2.1,0-3.2c4.3-1.1,4.3-2.1,0-3.2c0.9-0.6,1.4-1.4,1.6-2.4
	c1.5-2.3,2.1-5,1.6-8c0.7-3.7-0.4-6.3-3.2-8c0.7-1.2,1.7-2,3.2-2.4c-4.3-1.1-4.3-2.1,0-3.2c-4.3-1.1-4.3-2.1,0-3.2
	c-4.3-1.1-4.3-2.1,0-3.2c-4.3-1.1-4.3-2.1,0-3.2c-1-0.7-2-1-3.2-0.8c0-0.5,0-1.1,0-1.6c0.2-8-1.9-15.5-6.4-22.5
	c-1-7-4.2-12.7-9.6-16.9c-23.6-0.8-47.1-1.1-70.7-0.8c0.7-1.2,1.7-2,3.2-2.4c-1.1-0.5-2.1-1.1-3.2-1.6C42,19.9,43,19.1,43.7,17.9z"
	/>
<path class="st4" d="M90.3,66.1c-0.7,2.6-2.3,4.5-4.8,5.6c4.3,2.1,4.3,4.3,0,6.4c5.5,1.1,5.5,3.3,0,6.4c4.3,2.1,4.3,4.3,0,6.4
	c5.5,1.1,5.5,3.3,0,6.4c4.3,2.1,4.3,4.3,0,6.4c5.5,1.1,5.5,3.3,0,6.4c2,0.7,3.1,2,3.2,4c-16.1,0-32.1,0-48.2,0
	c0.7-1.2,1.7-2,3.2-2.4c-1.1-0.5-2.1-1.1-3.2-1.6c4.3-1.1,4.3-2.1,0-3.2c4.3-1.1,4.3-2.1,0-3.2c4.3-1.1,4.3-2.1,0-3.2
	c2.5-0.3,4.6-1.1,6.4-2.4c2-5,2-9.8,0-14.5c0-1.1-0.5-1.6-1.6-1.6c-0.9-2.1-2.5-3.4-4.8-4c1.1-0.5,2.1-1.1,3.2-1.6
	c-4.3-1.1-4.3-2.1,0-3.2c-4.3-1.1-4.3-2.1,0-3.2c-4.3-1.1-4.3-2.1,0-3.2C59.2,66.1,74.8,65.9,90.3,66.1z"/>
<path class="st5" d="M90.3,66.1c12.3,0,24.6,0,37,0c1.2-0.2,2.3,0.1,3.2,0.8c-4.3,1.1-4.3,2.1,0,3.2c-4.3,1.1-4.3,2.1,0,3.2
	c-4.3,1.1-4.3,2.1,0,3.2c-4.3,1.1-4.3,2.1,0,3.2c-1.5,0.4-2.5,1.3-3.2,2.4c-8.1-0.3-16.1,0-24.1,0.8c-1.4,2.2-2,4.6-1.6,7.2
	c-0.3,2.6,0.2,5.1,1.6,7.2c8.6,0.8,17.1,1.1,25.7,0.8c-0.2,1-0.7,1.8-1.6,2.4c4.3,1.1,4.3,2.1,0,3.2c4.3,1.1,4.3,2.1,0,3.2
	c4.3,1.1,4.3,2.1,0,3.2c4.3,1.1,4.3,2.1,0,3.2c4.3,1.1,4.3,2.1,0,3.2c4.3,1.1,4.3,2.1,0,3.2c4.3,1.1,4.3,2.1,0,3.2
	c4.3,1.1,4.3,2.1,0,3.2c4.3,1.1,4.3,2.1,0,3.2c1.5,0.4,2.5,1.3,3.2,2.4c-4.1,0.6-7.6-0.4-10.4-3.2c-0.8-4.8-1.1-9.6-0.8-14.5
	c-10.2,0-20.4,0-30.5,0c-0.1-2-1.2-3.3-3.2-4c5.5-3.2,5.5-5.3,0-6.4c4.3-2.1,4.3-4.3,0-6.4c5.5-3.2,5.5-5.3,0-6.4
	c4.3-2.1,4.3-4.3,0-6.4c5.5-3.2,5.5-5.3,0-6.4c4.3-2.1,4.3-4.3,0-6.4C88,70.6,89.6,68.7,90.3,66.1z"/>
<path class="st6" d="M127.3,82.2c2.8,1.7,3.9,4.4,3.2,8c-9.6,0-19.3,0-28.9,0c-0.3-2.6,0.2-5.1,1.6-7.2
	C111.2,82.2,119.2,81.9,127.3,82.2z"/>
<path class="st7" d="M45.3,82.2c1.1,0,1.6,0.5,1.6,1.6c0,2.1,0,4.3,0,6.4c-9.1,0-18.2,0-27.3,0c0-2.7,0-5.4,0-8
	C28.2,82.2,36.7,82.2,45.3,82.2z"/>
<path class="st8" d="M101.5,90.2c9.6,0,19.3,0,28.9,0c0.5,3.1-0.1,5.8-1.6,8c-8.6,0.3-17.2,0-25.7-0.8
	C101.7,95.3,101.2,92.9,101.5,90.2z"/>
<path class="st9" d="M46.9,83.8c2,4.7,2,9.5,0,14.5c-9.1,0-18.2,0-27.3,0c0-2.7,0-5.4,0-8c9.1,0,18.2,0,27.3,0
	C46.9,88.1,46.9,85.9,46.9,83.8z"/>
</svg>
