<svg width="150" height="150" fill="none" xmlns="http://www.w3.org/2000/svg">
<path opacity="0.844" fill-rule="evenodd" clip-rule="evenodd" d="M111.679 4.7862C107.424 4.7862 103.171 4.7862 98.916 4.7862C103.171 -1.5954 107.424 -1.5954 111.679 4.7862Z" fill="#339F5E"/>
<path opacity="0.911" fill-rule="evenodd" clip-rule="evenodd" d="M98.9148 4.78711C103.17 4.78711 107.423 4.78711 111.678 4.78711C114.338 6.38251 116.464 8.50966 118.06 11.1687C109.551 11.1687 101.041 11.1687 92.5332 11.1687C94.1286 8.50966 96.2558 6.38251 98.9148 4.78711Z" fill="#339F5E"/>
<path opacity="0.934" fill-rule="evenodd" clip-rule="evenodd" d="M92.5323 11.168C101.041 11.168 109.55 11.168 118.059 11.168C120.185 12.2316 121.781 13.827 122.845 15.9542C111.146 15.9542 99.4452 15.9542 87.7461 15.9542C88.8097 13.827 90.4051 12.2316 92.5323 11.168Z" fill="#339F5E"/>
<path opacity="0.938" fill-rule="evenodd" clip-rule="evenodd" d="M87.7471 15.9551C99.4462 15.9551 111.147 15.9551 122.846 15.9551C122.962 18.3911 121.898 19.9865 119.655 20.7413C107.423 20.7413 95.1924 20.7413 82.9609 20.7413C84.0246 18.6141 85.62 17.0187 87.7471 15.9551Z" fill="#339F5E"/>
<path opacity="0.948" fill-rule="evenodd" clip-rule="evenodd" d="M82.9603 20.7402C95.1918 20.7402 107.423 20.7402 119.655 20.7402C119.123 22.3356 118.059 23.3993 116.464 23.931C104.232 23.931 92.001 23.931 79.7695 23.931C80.3013 22.3356 81.3649 21.272 82.9603 20.7402Z" fill="#339F5E"/>
<path opacity="0.943" fill-rule="evenodd" clip-rule="evenodd" d="M79.7697 23.9316C92.0012 23.9316 104.232 23.9316 116.464 23.9316C115.4 26.0588 113.804 27.6542 111.678 28.7178C99.9787 28.7178 88.2785 28.7178 76.5789 28.7178C76.4625 26.2818 77.5261 24.6864 79.7697 23.9316Z" fill="#339F5E"/>
<path opacity="0.87" fill-rule="evenodd" clip-rule="evenodd" d="M76.5789 28.7188C88.2785 28.7188 99.9787 28.7188 111.678 28.7188C110.614 30.8459 109.018 32.4413 106.892 33.505C97.8509 31.3778 88.8104 31.3778 79.7697 33.505C77.5261 32.7502 76.4625 31.1548 76.5789 28.7188Z" fill="#339F5E"/>
<path opacity="0.954" fill-rule="evenodd" clip-rule="evenodd" d="M106.891 33.5055C106.36 35.1009 105.296 36.1646 103.701 36.6963C96.7872 36.6963 89.8737 36.6963 82.9603 36.6963C81.3649 36.1646 80.3013 35.1009 79.7695 33.5055C88.8102 31.3784 97.8507 31.3784 106.891 33.5055Z" fill="#339F5E"/>
<path opacity="0.887" fill-rule="evenodd" clip-rule="evenodd" d="M141.991 35.1001C135.609 35.1001 129.227 35.1001 122.846 35.1001C129.227 24.464 135.609 24.464 141.991 35.1001Z" fill="#339F5E"/>
<path opacity="0.959" fill-rule="evenodd" clip-rule="evenodd" d="M98.9148 105.298C97.7034 102.218 95.5762 99.8246 92.5332 98.1188C93.5968 97.587 94.6603 97.0551 95.724 96.5234C92.5332 94.928 89.3424 93.3326 86.1516 91.7372C87.2152 91.2054 88.2787 90.6735 89.3424 90.1418C87.2152 88.5464 85.0879 86.951 82.9608 85.3556C84.0244 84.8238 85.0879 84.2919 86.1516 83.7602C84.0244 83.2284 81.8971 82.6965 79.7699 82.1648C80.3017 81.633 80.8336 81.1011 81.3653 80.5694C76.5085 79.9968 75.9767 78.9333 79.7699 77.3786C77.6428 76.8468 75.5155 76.3149 73.3883 75.7832C77.6428 74.7195 77.6428 73.656 73.3883 72.5924C73.9201 72.0606 74.452 71.5287 74.9837 70.997C72.0179 69.9059 69.3588 68.3105 67.0067 66.2107C68.0704 65.679 69.1339 65.1471 70.1975 64.6153C68.0704 64.0836 65.9431 63.5517 63.8159 63.0199C64.8796 62.4882 65.9431 61.9563 67.0067 61.4245C63.8159 58.7655 60.6251 56.1066 57.4343 53.4475C58.498 52.9158 59.5615 52.3839 60.6251 51.8521C58.498 51.3204 56.3707 50.7885 54.2435 50.2567C55.3072 49.725 56.3707 49.1931 57.4343 48.6613C55.4631 46.9306 53.3359 45.6012 51.0527 44.6728C54.2888 39.5371 58.5433 36.0805 63.8159 34.3027C81.0994 51.5862 98.3835 68.8698 115.666 86.1533C111.727 93.5767 106.144 99.9583 98.9148 105.298Z" fill="#EEEEEE"/>
<path opacity="0.905" fill-rule="evenodd" clip-rule="evenodd" d="M82.9609 36.6953C89.8743 36.6953 96.7878 36.6953 103.701 36.6953C103.17 38.2907 102.106 39.3544 100.51 39.8861C95.7241 39.8861 90.9379 39.8861 86.1517 39.8861C84.5563 39.3544 83.4927 38.2907 82.9609 36.6953Z" fill="#339F5E"/>
<path opacity="0.927" fill-rule="evenodd" clip-rule="evenodd" d="M122.845 35.0996C129.226 35.0996 135.608 35.0996 141.99 35.0996C144.116 36.1633 145.712 37.7587 146.776 39.8858C137.203 39.8858 127.631 39.8858 118.059 39.8858C119.123 37.7587 120.718 36.1633 122.845 35.0996Z" fill="#339F5E"/>
<path opacity="0.787" fill-rule="evenodd" clip-rule="evenodd" d="M86.1523 39.8848C90.9385 39.8848 95.7247 39.8848 100.511 39.8848C95.7247 48.3935 90.9385 48.3935 86.1523 39.8848Z" fill="#339F5E"/>
<path opacity="0.955" fill-rule="evenodd" clip-rule="evenodd" d="M118.06 39.8848C127.632 39.8848 137.204 39.8848 146.777 39.8848C148.219 41.0159 148.75 42.6113 148.372 44.671C136.673 44.671 124.973 44.671 113.273 44.671C114.338 42.5438 115.933 40.9484 118.06 39.8848Z" fill="#339F5E"/>
<path opacity="0.988" fill-rule="evenodd" clip-rule="evenodd" d="M51.0538 44.6719C53.3369 45.6002 55.4641 46.9297 57.4354 48.6604C56.3717 49.1921 55.3082 49.724 54.2446 50.2558C56.3717 50.7875 58.499 51.3194 60.6262 51.8512C59.5625 52.3829 58.499 52.9148 57.4354 53.4466C60.6262 56.1056 63.817 58.7645 67.0078 61.4236C65.9441 61.9553 64.8806 62.4872 63.817 63.019C65.9441 63.5507 68.0714 64.0826 70.1986 64.6144C69.1349 65.1461 68.0714 65.678 67.0078 66.2098C69.3599 68.3095 72.0189 69.9049 74.9848 70.996C74.453 71.5277 73.9211 72.0596 73.3894 72.5914C77.6438 73.655 77.6438 74.7185 73.3894 75.7822C75.5165 76.3139 77.6438 76.8458 79.771 77.3776C75.9777 78.9323 76.5095 79.9958 81.3664 80.5684C80.8346 81.1001 80.3027 81.632 79.771 82.1638C81.8981 82.6955 84.0254 83.2274 86.1526 83.7592C85.0889 84.2909 84.0254 84.8228 82.9618 85.3546C85.0889 86.95 87.2162 88.5454 89.3434 90.1408C88.2797 90.6725 87.2162 91.2044 86.1526 91.7362C89.3434 93.3316 92.5342 94.927 95.725 96.5224C94.6613 97.0541 93.5978 97.5861 92.5342 98.1178C95.5772 99.8236 97.7044 102.217 98.9158 105.297C90.9388 114.338 82.43 122.847 73.3894 130.824C69.2458 130.471 69.2458 129.673 73.3894 128.43C71.2622 127.899 69.1349 127.366 67.0078 126.835C68.0714 126.304 69.1349 125.771 70.1986 125.24C67.4446 122.799 64.2538 121.203 60.6262 120.453C64.8806 119.389 64.8806 118.327 60.6262 117.263C61.5132 116.652 62.045 115.854 62.2216 114.87C65.4307 113.708 68.6215 112.377 71.794 110.881C73.6571 107.896 72.8594 105.503 69.4009 103.702C57.1346 111.908 48.3599 109.251 43.0768 95.7247C42.3799 90.4493 43.4434 85.6631 46.2676 81.3661C45.2387 79.5378 43.9091 77.9424 42.2791 76.5799C40.0378 78.543 38.1766 80.6703 36.6951 82.9615C31.7521 83.1011 31.2204 82.3034 35.0997 80.5684C31.9089 77.9093 28.7181 75.2504 25.5273 72.5914C29.6709 71.3483 29.6709 70.5506 25.5273 70.1983C33.5043 61.1576 42.0131 52.6489 51.0538 44.6719Z" fill="#EAEAEA"/>
<path opacity="0.96" fill-rule="evenodd" clip-rule="evenodd" d="M113.274 44.6719C124.974 44.6719 136.674 44.6719 148.373 44.6719C148.49 47.1079 147.426 48.7033 145.182 49.4581C132.951 49.4581 120.72 49.4581 108.488 49.4581C109.552 47.3309 111.148 45.7355 113.274 44.6719Z" fill="#339F5E"/>
<path opacity="0.942" fill-rule="evenodd" clip-rule="evenodd" d="M108.487 49.457C120.719 49.457 132.95 49.457 145.182 49.457C144.117 51.5842 142.522 53.1796 140.395 54.2432C128.163 54.2432 115.933 54.2432 103.701 54.2432C104.765 52.1161 106.361 50.5207 108.487 49.457Z" fill="#339F5E"/>
<path opacity="0.93" fill-rule="evenodd" clip-rule="evenodd" d="M103.701 54.2441C115.933 54.2441 128.163 54.2441 140.395 54.2441C139.331 56.3713 137.736 57.9667 135.609 59.0303C125.734 58.5152 116.161 59.0469 106.892 60.6257C104.333 59.3702 103.269 57.243 103.701 54.2441Z" fill="#339F5E"/>
<path opacity="0.968" fill-rule="evenodd" clip-rule="evenodd" d="M135.608 59.03C134.544 61.1571 132.948 62.7525 130.822 63.8162C123.909 63.8162 116.994 63.8162 110.081 63.8162C108.486 63.2844 107.422 62.2208 106.891 60.6254C116.16 59.0466 125.732 58.5148 135.608 59.03Z" fill="#339F5E"/>
<path opacity="0.914" fill-rule="evenodd" clip-rule="evenodd" d="M110.082 63.8184C116.995 63.8184 123.909 63.8184 130.822 63.8184C128.158 67.8094 124.702 71.0002 120.452 73.3908C116.202 71.0002 112.746 67.8094 110.082 63.8184Z" fill="#339F5E"/>
<path opacity="0.984" fill-rule="evenodd" clip-rule="evenodd" d="M25.5264 70.1992C29.67 70.5515 29.67 71.3492 25.5264 72.5923C28.7172 75.2514 31.908 77.9103 35.0988 80.5693C31.2194 82.3043 31.7512 83.102 36.6942 82.9624C36.6942 83.4942 36.6942 84.0261 36.6942 84.5578C33.5293 104.221 42.038 114.325 62.2206 114.87C62.044 115.855 61.5123 116.653 60.6252 117.264C64.8797 118.328 64.8797 119.39 60.6252 120.454C64.2529 121.204 67.4437 122.8 70.1976 125.241C69.134 125.772 68.0705 126.305 67.0068 126.836C69.134 127.367 71.2613 127.9 73.3884 128.431C69.2449 129.674 69.2449 130.472 73.3884 130.824C61.6185 146.978 46.1963 152.297 27.1218 146.778C29.4393 144.665 28.9074 143.336 25.5264 142.79C26.5901 142.259 27.6536 141.726 28.7172 141.195C26.5901 140.663 24.4628 140.13 22.3356 139.599C26.5901 138.535 26.5901 137.472 22.3356 136.408C22.8674 135.877 23.3993 135.344 23.931 134.813C20.9652 133.722 18.3061 132.126 15.954 130.027C17.0177 129.495 18.0812 128.963 19.1448 128.431C17.0177 127.9 14.8904 127.367 12.7632 126.836C13.8269 126.305 14.8904 125.772 15.954 125.241C12.7632 122.581 9.5724 119.923 6.3816 117.264C7.44526 116.732 8.50875 116.199 9.5724 115.668C7.44526 115.137 5.31795 114.604 3.1908 114.073C4.25446 113.541 5.31795 113.009 6.3816 112.477C4.52025 111.68 3.1908 110.351 2.3931 108.489C1.7827 109.376 0.985 109.907 0 110.084C0.613272 102.845 2.47463 95.9319 5.5839 89.344C12.0223 82.6376 18.6697 76.256 25.5264 70.1992Z" fill="#E3E3E3"/>
<path fill-rule="evenodd" clip-rule="evenodd" d="M43.0769 95.7249C41.7861 92.8656 40.9884 89.6748 40.6838 86.1525C39.6136 84.9521 38.2842 84.4202 36.6953 84.5571C36.6953 84.0253 36.6953 83.4934 36.6953 82.9617C38.1768 80.6705 40.038 78.5432 42.2792 76.5801C43.9092 77.9426 45.2388 79.538 46.2677 81.3663C43.4435 85.6633 42.38 90.4495 43.0769 95.7249Z" fill="#C7C7C7"/>
<path fill-rule="evenodd" clip-rule="evenodd" d="M57.4342 87.7491C61.6879 87.0564 63.5492 88.6518 63.0181 92.5353C57.2801 95.0338 55.4189 93.4384 57.4342 87.7491Z" fill="#CCCCCC"/>
<path fill-rule="evenodd" clip-rule="evenodd" d="M36.6943 84.5562C38.2832 84.4193 39.6126 84.9512 40.6828 86.1516C40.9874 89.6739 41.7851 92.8647 43.0759 95.724C48.3591 109.25 57.1338 111.908 69.4001 103.701C72.8586 105.502 73.6563 107.895 71.7932 110.88C68.6207 112.377 65.4299 113.707 62.2208 114.869C42.0381 114.323 33.5294 104.219 36.6943 84.5562Z" fill="#BDBDBD"/>
<path opacity="0.939" fill-rule="evenodd" clip-rule="evenodd" d="M27.1218 146.778C10.1381 140.428 1.09764 128.198 0 110.084C0.985 109.907 1.7827 109.375 2.3931 108.488C3.1908 110.35 4.52025 111.679 6.3816 112.477C5.31795 113.008 4.25446 113.541 3.1908 114.072C5.31795 114.603 7.44526 115.136 9.5724 115.668C8.50875 116.199 7.44526 116.732 6.3816 117.263C9.5724 119.923 12.7632 122.58 15.954 125.24C14.8904 125.771 13.8269 126.304 12.7632 126.835C14.8904 127.367 17.0177 127.9 19.1448 128.431C18.0812 128.962 17.0177 129.495 15.954 130.026C18.3061 132.126 20.9652 133.721 23.931 134.812C23.3993 135.344 22.8674 135.877 22.3356 136.408C26.5901 137.472 26.5901 138.534 22.3356 139.599C24.4628 140.13 26.5901 140.663 28.7172 141.194C27.6536 141.725 26.5901 142.258 25.5264 142.789C28.9074 143.335 29.4393 144.664 27.1218 146.778Z" fill="#DFDFDF"/>
</svg>