<?xml version="1.0" encoding="utf-8"?>
<!-- Generator: Adobe Illustrator 26.4.1, SVG Export Plug-In . SVG Version: 6.00 Build 0)  -->
<svg version="1.1" id="Layer_1" xmlns="http://www.w3.org/2000/svg" xmlns:xlink="http://www.w3.org/1999/xlink" x="0px" y="0px"
	 viewBox="0 0 150 150" style="enable-background:new 0 0 150 150;" xml:space="preserve">
<style type="text/css">
	.st0{opacity:0.959;fill:#DFDFDF;enable-background:new    ;}
	.st1{opacity:0.968;fill:#E3E3E3;enable-background:new    ;}
	.st2{opacity:0.965;fill:#EAEAEA;enable-background:new    ;}
	.st3{opacity:0.96;fill:#EEEEEE;enable-background:new    ;}
	.st4{opacity:0.874;fill:#404040;enable-background:new    ;}
	.st5{fill:#484848;}
	.st6{opacity:0.995;fill:#4C4C4C;enable-background:new    ;}
	.st7{fill:#595959;}
	.st8{opacity:0.995;fill:#585858;enable-background:new    ;}
	.st9{opacity:0.889;fill:#666666;enable-background:new    ;}
	.st10{opacity:0.948;fill:#656565;enable-background:new    ;}
	.st11{opacity:0.92;fill:#C3C3C3;enable-background:new    ;}
	.st12{opacity:0.931;fill:#C3C3C3;enable-background:new    ;}
	.st13{opacity:0.992;fill:#484848;enable-background:new    ;}
	.st14{opacity:0.992;fill:#595959;enable-background:new    ;}
	.st15{opacity:0.736;fill:#666666;enable-background:new    ;}
	.st16{opacity:0.943;fill:#BEBEBE;enable-background:new    ;}
	.st17{opacity:0.917;fill:#BEBEBE;enable-background:new    ;}
	.st18{opacity:0.94;fill:#C3C3C3;enable-background:new    ;}
	.st19{opacity:0.983;fill:#BEBEBE;enable-background:new    ;}
	.st20{opacity:0.869;fill:#B9B9B9;enable-background:new    ;}
</style>
<path class="st0" d="M42.5,10.6c-0.6,1-1.5,1.7-2.7,2c5.4,0.9,5.4,1.8,0,2.7c3.6,0.9,3.6,1.8,0,2.7c3.6,0.9,3.6,1.8,0,2.7
	c3.6,0.9,3.6,1.8,0,2.7c5.4,0.9,5.4,1.8,0,2.7c3.6,0.9,3.6,1.8,0,2.7c3.6,0.9,3.6,1.8,0,2.7c3.6,0.9,3.6,1.8,0,2.7
	c5.4,0.9,5.4,1.8,0,2.7c3.6,0.9,3.6,1.8,0,2.7c2.6,0.3,4.8,0.9,6.8,2c-12.2-0.5-18,5.4-17.6,17.6c0.6,4.8,2,9.3,4.1,13.6
	c-6.2,1.5-12.1,3.7-17.6,6.8C2.4,69.7-2.3,56.6,1.1,40.4C7.2,20,21,10.1,42.5,10.6z"/>
<path class="st1" d="M42.5,10.6c13.2,2,23.8,8.3,31.9,19c3.3-4,7.1-7.1,11.5-9.5c0.6,1,1.5,1.7,2.7,2c-3.6,0.9-3.6,1.8,0,2.7
	c-1.8,0.9-1.8,1.8,0,2.7c-3.6,0.9-3.6,1.8,0,2.7c-3.6,0.9-3.6,1.8,0,2.7c-3.6,0.9-3.6,1.8,0,2.7c-1.8,0.9-1.8,1.8,0,2.7
	c-3.6,0.9-3.6,1.8,0,2.7c-3.6,0.9-3.6,1.8,0,2.7c-3.6,0.9-3.6,1.8,0,2.7c-1.8,0.9-1.8,1.8,0,2.7c-3.6,0.9-3.6,1.8,0,2.7
	c-3.6,0.9-3.6,1.8,0,2.7c-3.6,0.9-3.6,1.8,0,2.7c-1.8,0.9-1.8,1.8,0,2.7c-3.6,0.9-3.6,1.8,0,2.7c-3.6,0.9-3.6,1.8,0,2.7
	c-3.6,0.9-3.6,1.8,0,2.7c-1.8,0.9-1.8,1.8,0,2.7c-0.8,0.6-1.7,0.9-2.7,0.7c-8.9-5.9-17-5-24.4,2.7c-2.5-0.4-4.7-1.3-6.8-2.7
	c5.4-8.8,5.4-17.6,0-26.5c-2.3-2.1-5-3.2-8.1-3.4c-2-1.1-4.2-1.8-6.8-2c3.6-0.9,3.6-1.8,0-2.7c5.4-0.9,5.4-1.8,0-2.7
	c3.6-0.9,3.6-1.8,0-2.7c3.6-0.9,3.6-1.8,0-2.7c3.6-0.9,3.6-1.8,0-2.7c5.4-0.9,5.4-1.8,0-2.7c3.6-0.9,3.6-1.8,0-2.7
	c3.6-0.9,3.6-1.8,0-2.7c3.6-0.9,3.6-1.8,0-2.7c5.4-0.9,5.4-1.8,0-2.7C41,12.2,41.9,11.6,42.5,10.6z"/>
<path class="st2" d="M127.9,14.6c2,1.8,1.5,2.9-1.4,3.4c1.8,0.5,3.6,0.9,5.4,1.4c-1.8,1.4-3.6,2.7-5.4,4.1c1.8,0.5,3.6,0.9,5.4,1.4
	c-1.8,1.4-3.6,2.7-5.4,4.1c1.8,0.5,3.6,0.9,5.4,1.4c-1.8,1.4-3.6,2.7-5.4,4.1c1.8,0.5,3.6,0.9,5.4,1.4c-1.8,1.4-3.6,2.7-5.4,4.1
	c1.8,0.5,3.6,0.9,5.4,1.4c-1.8,1.4-3.6,2.7-5.4,4.1c1.8,0.5,3.6,0.9,5.4,1.4c-1.8,1.4-3.6,2.7-5.4,4.1c1.8,0.5,3.6,0.9,5.4,1.4
	c-1.8,1.4-3.6,2.7-5.4,4.1c1.8,0.5,3.6,0.9,5.4,1.4c-1.8,1.4-3.6,2.7-5.4,4.1c1.8,0.5,3.6,0.9,5.4,1.4c-1.8,1.4-3.6,2.7-5.4,4.1
	c1.8,0.5,3.6,0.9,5.4,1.4c-1.8,1.4-3.6,2.7-5.4,4.1c1.8,0.5,3.6,0.9,5.4,1.4c-2.1,0.3-3.9,1-5.4,2c-3.3-1.1-6.4-2.4-9.5-4.1
	c5.2-8.4,5.4-17,0.7-25.8c-8.9-6-17.1-5.1-24.4,2.7c-1,3.3-1.7,6.7-2,10.2c0.7,5,2.1,9.8,4.1,14.2c-2.1,0-4.2,0.5-6.1,1.4
	c-1.8-0.2-2.9-1.1-3.4-2.7c1,0.2,1.9,0,2.7-0.7c-1.8-0.9-1.8-1.8,0-2.7c-3.6-0.9-3.6-1.8,0-2.7c-3.6-0.9-3.6-1.8,0-2.7
	c-3.6-0.9-3.6-1.8,0-2.7c-1.8-0.9-1.8-1.8,0-2.7c-3.6-0.9-3.6-1.8,0-2.7c-3.6-0.9-3.6-1.8,0-2.7c-3.6-0.9-3.6-1.8,0-2.7
	c-1.8-0.9-1.8-1.8,0-2.7c-3.6-0.9-3.6-1.8,0-2.7c-3.6-0.9-3.6-1.8,0-2.7c-3.6-0.9-3.6-1.8,0-2.7c-1.8-0.9-1.8-1.8,0-2.7
	c-3.6-0.9-3.6-1.8,0-2.7c-3.6-0.9-3.6-1.8,0-2.7c-3.6-0.9-3.6-1.8,0-2.7c-1.8-0.9-1.8-1.8,0-2.7c-3.6-0.9-3.6-1.8,0-2.7
	c-1.2-0.4-2.1-1.1-2.7-2c4-4.3,9-7.2,14.9-8.8c6.8-0.9,13.6-0.9,20.3,0C123.8,11.8,126.1,12.9,127.9,14.6z"/>
<path class="st3" d="M127.9,14.6c19.6,10.7,26.2,27,19.7,48.8c-3.3,6.2-7.6,11.6-12.9,16.3c-2.7-1.4-5.5-2.7-8.1-4.1
	c1.5-1.1,3.3-1.7,5.4-2c-1.8-0.5-3.6-0.9-5.4-1.4c1.8-1.4,3.6-2.7,5.4-4.1c-1.8-0.5-3.6-0.9-5.4-1.4c1.8-1.4,3.6-2.7,5.4-4.1
	c-1.8-0.5-3.6-0.9-5.4-1.4c1.8-1.4,3.6-2.7,5.4-4.1c-1.8-0.5-3.6-0.9-5.4-1.4c1.8-1.4,3.6-2.7,5.4-4.1c-1.8-0.5-3.6-0.9-5.4-1.4
	c1.8-1.4,3.6-2.7,5.4-4.1c-1.8-0.5-3.6-0.9-5.4-1.4c1.8-1.4,3.6-2.7,5.4-4.1c-1.8-0.5-3.6-0.9-5.4-1.4c1.8-1.4,3.6-2.7,5.4-4.1
	c-1.8-0.5-3.6-0.9-5.4-1.4c1.8-1.4,3.6-2.7,5.4-4.1c-1.8-0.5-3.6-0.9-5.4-1.4c1.8-1.4,3.6-2.7,5.4-4.1c-1.8-0.5-3.6-0.9-5.4-1.4
	c1.8-1.4,3.6-2.7,5.4-4.1c-1.8-0.5-3.6-0.9-5.4-1.4C129.4,17.6,129.9,16.4,127.9,14.6z"/>
<path class="st4" d="M113,54c-4.5,0-9,0-13.6,0c2.6-3.8,6.2-5,10.9-3.4C111.5,51.6,112.4,52.7,113,54z"/>
<path class="st5" d="M50.6,58.1c-4.5,0-9,0-13.6,0c-0.7-5.2,1.6-7.9,6.8-8.1C49,50.1,51.3,52.8,50.6,58.1z"/>
<path class="st6" d="M99.4,54c4.5,0,9,0,13.6,0c0,1.4,0,2.7,0,4.1c-4.5,0-9,0-13.6,0C99.4,56.7,99.4,55.3,99.4,54z"/>
<path class="st7" d="M37,58.1c4.5,0,9,0,13.6,0c0,1.8,0,3.6,0,5.4c-4.5,0-9,0-13.6,0C37,61.7,37,59.9,37,58.1z"/>
<path class="st8" d="M99.4,58.1c4.5,0,9,0,13.6,0c0,1.4,0,2.7,0,4.1c-4.5,0-9,0-13.6,0C99.4,60.8,99.4,59.4,99.4,58.1z"/>
<path class="st9" d="M37,63.5c4.5,0,9,0,13.6,0c-2.6,3.8-6.2,5-10.9,3.4C38.5,65.9,37.6,64.8,37,63.5z"/>
<path class="st10" d="M99.4,62.1c4.5,0,9,0,13.6,0c-1.8,5.1-5.4,6.7-10.9,4.7C100.3,65.8,99.4,64.2,99.4,62.1z"/>
<path class="st11" d="M61.4,87.9c-11.8,0.9-23.5,1.8-35.3,2.7c-3.3-1.2-4.2-3.2-2.7-6.1c6.7-3.3,13.7-5.8,21-7.5
	c5.4,1.2,10.6,3,15.6,5.4C61.3,84.1,61.8,85.9,61.4,87.9z"/>
<path class="st12" d="M125.2,89.3c-12.5,0.4-24.7,0-36.6-1.4c-0.4-2,0.1-3.8,1.4-5.4c5.4-2.1,10.8-3.9,16.3-5.4
	c7.8,1.8,15.1,4.7,21.7,8.8C127.7,87.6,126.8,88.8,125.2,89.3z"/>
<path class="st13" d="M80.4,81.1c-3.6,0-7.2,0-10.9,0c-0.5-4.1,1.3-5.9,5.4-5.4C79.1,75.3,80.9,77.1,80.4,81.1z"/>
<path class="st14" d="M69.6,81.1c3.6,0,7.2,0,10.9,0c0,1.4,0,2.7,0,4.1c-3.6,0-7.2,0-10.9,0C69.6,83.8,69.6,82.5,69.6,81.1z"/>
<path class="st15" d="M69.6,85.2c3.6,0,7.2,0,10.9,0c-1.1,2-2.9,2.9-5.4,2.7C72.5,88.1,70.7,87.2,69.6,85.2z"/>
<path class="st16" d="M61.4,87.9c1.2,1,2.1,2.4,2.7,4.1c-4.1,2.2-7.9,4.9-11.5,8.1c-2.2,4.3-3.5,8.8-4.1,13.6
	c-7.7-7.5-15.2-15.2-22.4-23.1C37.9,89.7,49.7,88.8,61.4,87.9z"/>
<path class="st17" d="M88.6,87.9c12,1.3,24.2,1.8,36.6,1.4c-7.6,8.3-15.6,16.5-23.7,24.4C101.2,102.8,96,95.6,85.9,92
	C86.5,90.3,87.4,88.9,88.6,87.9z"/>
<path class="st18" d="M92.6,111c-11.8,0-23.5,0-35.3,0c-0.5-3.5,0.4-6.4,2.7-8.8c4.8-2.3,9.7-3.8,14.9-4.7
	c5.2,0.9,10.2,2.5,14.9,4.7C92.3,104.6,93.2,107.5,92.6,111z"/>
<path class="st19" d="M57.4,111c11.8,0,23.5,0,35.3,0c0.2,4.5,0,9.1-0.7,13.6c-1,1.2-2.1,2.1-3.4,2.7c-8.6,0-17.2,0-25.8,0
	c-1.8-1.1-3.3-2.4-4.7-4.1C57.4,119.1,57.1,115,57.4,111z"/>
<path class="st20" d="M62.8,127.2c8.6,0,17.2,0,25.8,0c-3.6,4.8-7.9,8.8-12.9,12.2C70.7,136.1,66.4,132,62.8,127.2z"/>
</svg>
