<?xml version="1.0" encoding="utf-8"?>
<!-- Generator: Adobe Illustrator 26.4.1, SVG Export Plug-In . SVG Version: 6.00 Build 0)  -->
<svg version="1.1" id="Layer_1" xmlns="http://www.w3.org/2000/svg" xmlns:xlink="http://www.w3.org/1999/xlink" x="0px" y="0px"
	 viewBox="0 0 150 150" style="enable-background:new 0 0 150 150;" xml:space="preserve">
<style type="text/css">
	.st0{opacity:0.935;fill:#E3E3E3;enable-background:new    ;}
	.st1{opacity:0.933;fill:#E9E9E9;enable-background:new    ;}
	.st2{opacity:0.872;fill:#EEEEEE;enable-background:new    ;}
	.st3{opacity:0.944;fill:#C3C3C3;enable-background:new    ;}
	.st4{opacity:0.885;fill:#DFDFDF;enable-background:new    ;}
	.st5{opacity:0.955;fill:#BDBDBD;enable-background:new    ;}
	.st6{opacity:0.98;fill:#BBBBBB;enable-background:new    ;}
	.st7{opacity:0.963;fill:#B9B9B9;enable-background:new    ;}
</style>
<path class="st0" d="M107.1,5c-0.5,1.2-1,2.5-1.6,4.1c4.4,1.1,4.4,2.2,0,3.3c4.4,1.1,4.4,2.2,0,3.3c4.4,1.1,4.4,2.2,0,3.3
	c4.4,1.1,4.4,2.2,0,3.3c4.4,1.1,4.4,2.2,0,3.3c1.1,0.5,2.2,1.1,3.3,1.6c-1.5,0.5-2.6,1.3-3.3,2.5c-2.7-1.9-5.1-4-7.4-6.6
	c-5,12.4-2,22.3,9,29.6c-2,1.8-1.4,3.1,1.6,4.1c-4.4,1.1-4.4,2.2,0,3.3c-1.5,0.5-2.6,1.3-3.3,2.5c-1-0.2-1.8-0.7-2.5-1.6
	c-8.3,8.6-16.8,16.8-25.5,24.7c-5.1,0.1-5.6-0.7-1.6-2.5c-4.4-1.1-4.4-2.2,0-3.3c-4.4-1.1-4.4-2.2,0-3.3c-4.4-1.1-4.4-2.2,0-3.3
	c-4.4-1.1-4.4-2.2,0-3.3c-4.4-1.1-4.4-2.2,0-3.3c-1.5-0.5-2.6-1.3-3.3-2.5c4.3-5.2,9-10.1,14-14.8c0.1-5.2-0.1-10.4-0.8-15.6
	c-0.2-6.8,1.4-13.1,4.9-18.9c-3.9-12.3,0.5-16.9,13.2-14C105.3,2,106.4,3.4,107.1,5z"/>
<path class="st1" d="M107.1,5c9.9,8.8,19.2,18.1,28,28c1.3,8.9,1.3,17.7,0,26.3c-9.4,4.9-19.3,6-29.6,3.3c0.7-1.2,1.8-2,3.3-2.5
	c-4.4-1.1-4.4-2.2,0-3.3c-3.1-1-3.6-2.4-1.6-4.1c6.7,2.3,13.2,2,19.7-0.8c-7.5-7.2-14.6-14.6-21.4-22.2c0.7-1.2,1.8-2,3.3-2.5
	c-1.1-0.5-2.2-1.1-3.3-1.6c4.4-1.1,4.4-2.2,0-3.3c4.4-1.1,4.4-2.2,0-3.3c4.4-1.1,4.4-2.2,0-3.3c4.4-1.1,4.4-2.2,0-3.3
	c4.4-1.1,4.4-2.2,0-3.3C106.1,7.5,106.7,6.2,107.1,5z"/>
<path class="st2" d="M135.1,32.9c7.2,4.7,12.1,11,14.8,18.9c-1.4,8.9-6.3,11.3-14.8,7.4C136.4,50.6,136.4,41.8,135.1,32.9z"/>
<path class="st3" d="M43,82.3c-12.1,0-24.1,0-36.2,0c4.7-11.6,11.9-21.8,21.4-30.4c4.1-1.2,7.9-0.6,11.5,1.6
	c6.7,3.9,12.7,8.5,18.1,14C53.4,73,48.4,77.9,43,82.3z"/>
<path class="st4" d="M72.6,64.2c0.7,1.2,1.8,2,3.3,2.5c-4.4,1.1-4.4,2.2,0,3.3c-4.4,1.1-4.4,2.2,0,3.3c-4.4,1.1-4.4,2.2,0,3.3
	c-4.4,1.1-4.4,2.2,0,3.3c-4.4,1.1-4.4,2.2,0,3.3c-4,1.8-3.5,2.6,1.6,2.5C70,98.1,59,104.7,44.6,105.3C44.1,98,46,91.4,50.4,85.6
	C57.6,78.1,65,71,72.6,64.2z"/>
<path class="st5" d="M6.8,82.3c12.1,0,24.1,0,36.2,0c-3.5,5.5-5.7,11.5-6.6,18.1c0.5,8.2,4.9,12.6,13.2,13.2
	c4.5-0.9,8.9-2.3,13.2-4.1c6.8-5.5,13.4-11.2,19.7-17.3c7.5,7.5,13,16.3,16.5,26.3c-32.9,0-65.8,0-98.7,0c-0.3-7.1,0-14.3,0.8-21.4
	C1.9,91.6,3.8,86.6,6.8,82.3z"/>
<path class="st6" d="M0.2,118.5c32.9,0,65.8,0,98.7,0c0.3,1.6-0.3,2.7-1.6,3.3c-32.4,0-64.7,0-97.1,0C0.2,120.7,0.2,119.6,0.2,118.5
	z"/>
<path class="st7" d="M0.2,121.8c32.4,0,64.7,0,97.1,0C72.8,149.3,43.2,156.7,8.4,144C2.6,137.8-0.2,130.4,0.2,121.8z"/>
</svg>
