<svg width="149" height="149" viewBox="0 0 149 149" fill="none" xmlns="http://www.w3.org/2000/svg">
<path opacity="0.983" fill-rule="evenodd" clip-rule="evenodd" d="M42.9482 0.0742508C42.315 1.53716 41.516 2.93548 40.5512 4.26907C42.1492 25.0434 42.1492 45.8178 40.5512 66.5921C42.1011 67.1793 43.6992 67.3791 45.3452 67.1913C35.7067 70.3162 26.5182 69.1177 17.7793 63.5958C19.0401 63.775 20.2387 63.5752 21.3749 62.9965C21.5498 59.6782 21.1504 56.0826 20.1763 52.2098C20.8887 51.6534 21.6878 51.4536 22.5734 51.6106C26.5773 54.0071 30.9719 55.2057 35.7571 55.2061C35.7571 53.6082 35.7571 52.01 35.7571 50.4121C25.8385 49.4837 20.645 44.0904 20.1763 34.2321C20.645 24.3738 25.8385 18.9804 35.7571 18.052C35.7571 16.4541 35.7571 14.856 35.7571 13.258C30.2447 12.8236 25.4507 14.4217 21.3749 18.052C20.2739 13.6277 19.8744 8.83363 20.1763 3.66981C22.3066 2.35084 24.7036 1.35211 27.3675 0.67351C32.5458 0.0754493 37.7393 -0.124344 42.9482 0.0742508Z" fill="#E3E3E3"/>
<path opacity="0.988" fill-rule="evenodd" clip-rule="evenodd" d="M122.049 0.0743349C120.657 1.48607 119.458 2.88438 118.454 4.26915C119.253 4.66862 120.051 5.06821 120.851 5.46767C119.253 6.26673 119.253 7.06566 120.851 7.86471C117.654 8.66376 117.654 9.4627 120.851 10.2618C119.253 11.0608 119.253 11.8597 120.851 12.6588C117.654 13.4578 117.654 14.2568 120.851 15.0558C119.253 15.8549 119.253 16.6538 120.851 17.4529C117.654 18.2519 117.654 19.0509 120.851 19.8499C119.253 20.649 119.253 21.4479 120.851 22.2469C117.654 23.046 117.654 23.8449 120.851 24.644C119.253 25.443 119.253 26.242 120.851 27.041C117.654 27.8401 117.654 28.639 120.851 29.4381C119.253 30.2371 119.253 31.036 120.851 31.8351C117.654 32.6342 117.654 33.4331 120.851 34.2321C119.253 35.0312 119.253 35.8301 120.851 36.6292C117.654 37.4282 117.654 38.2272 120.851 39.0262C119.253 39.8253 119.253 40.6242 120.851 41.4233C117.654 42.2223 117.654 43.0212 120.851 43.8203C119.253 44.6194 119.253 45.4183 120.851 46.2173C117.654 47.0164 117.654 47.8153 120.851 48.6144C119.253 49.4134 119.253 50.2124 120.851 51.0114C117.654 51.8105 117.654 52.6094 120.851 53.4085C119.253 54.2075 119.253 55.0064 120.851 55.8055C117.654 56.6045 117.654 57.4035 120.851 58.2025C119.253 59.0016 119.253 59.8005 120.851 60.5996C117.654 61.3986 117.654 62.1976 120.851 62.9966C119.253 63.7957 119.253 64.5946 120.851 65.3936C120.051 65.7931 119.253 66.1927 118.454 66.5922C119.552 66.9258 120.35 67.5251 120.851 68.3899C112.933 69.5412 105.343 68.3427 98.079 64.7944C99.3913 60.7734 99.3913 56.5785 98.079 52.2099C98.7909 51.6535 99.5903 51.4537 100.476 51.6107C104.038 54.1873 108.033 55.3858 112.461 55.2062C112.461 53.6082 112.461 52.0101 112.461 50.4122C97.0746 45.9994 93.2789 36.8108 101.075 22.8462C104.253 19.7588 108.048 18.1608 112.461 18.0521C112.461 16.4541 112.461 14.856 112.461 13.258C107.773 13.407 103.378 14.6055 99.2775 16.8536C98.7861 12.5217 98.7861 8.12707 99.2775 3.66989C100.886 2.12021 102.884 1.12136 105.27 0.673595C110.849 0.0752937 116.441 -0.12438 122.049 0.0743349Z" fill="#E3E3E3"/>
<path opacity="0.987" fill-rule="evenodd" clip-rule="evenodd" d="M42.9478 0.0761719C64.8764 7.56776 73.4658 22.749 68.716 45.6199C64.5046 56.8274 56.7143 64.0185 45.3449 67.1933C43.6988 67.3811 42.1007 67.1813 40.5508 66.594C42.1488 45.8197 42.1488 25.0453 40.5508 4.27099C41.5156 2.9374 42.3146 1.53908 42.9478 0.0761719Z" fill="#EBEBEB"/>
<path opacity="0.984" fill-rule="evenodd" clip-rule="evenodd" d="M122.049 0.0761719C147.722 10.6869 154.715 28.6647 143.023 54.0095C137.463 61.6799 130.073 66.474 120.85 68.3918C120.349 67.5269 119.551 66.9277 118.453 66.594C119.253 66.1945 120.051 65.7949 120.85 65.3955C119.253 64.5964 119.253 63.7975 120.85 62.9984C117.654 62.1994 117.654 61.4004 120.85 60.6014C119.253 59.8023 119.253 59.0034 120.85 58.2044C117.654 57.4053 117.654 56.6064 120.85 55.8073C119.253 55.0083 119.253 54.2093 120.85 53.4103C117.654 52.6112 117.654 51.8123 120.85 51.0132C119.253 50.2142 119.253 49.4153 120.85 48.6162C117.654 47.8171 117.654 47.0182 120.85 46.2192C119.253 45.4201 119.253 44.6212 120.85 43.8221C117.654 43.0231 117.654 42.2241 120.85 41.4251C119.253 40.626 119.253 39.8271 120.85 39.028C117.654 38.229 117.654 37.4301 120.85 36.631C119.253 35.832 119.253 35.033 120.85 34.234C117.654 33.4349 117.654 32.636 120.85 31.8369C119.253 31.0379 119.253 30.2389 120.85 29.4399C117.654 28.6408 117.654 27.8419 120.85 27.0429C119.253 26.2438 119.253 25.4449 120.85 24.6458C117.654 23.8468 117.654 23.0478 120.85 22.2488C119.253 21.4497 119.253 20.6508 120.85 19.8517C117.654 19.0527 117.654 18.2538 120.85 17.4547C119.253 16.6556 119.253 15.8567 120.85 15.0577C117.654 14.2586 117.654 13.4597 120.85 12.6606C119.253 11.8616 119.253 11.0626 120.85 10.2636C117.654 9.46453 117.654 8.6656 120.85 7.86655C119.253 7.06749 119.253 6.26856 120.85 5.46951C120.051 5.07004 119.253 4.67046 118.453 4.27099C119.458 2.88622 120.656 1.48791 122.049 0.0761719Z" fill="#EBEBEB"/>
<path opacity="0.95" fill-rule="evenodd" clip-rule="evenodd" d="M20.1764 3.66992C19.8745 8.83374 20.274 13.6278 21.375 18.0522C11.5047 29.5313 11.9041 40.7175 22.5735 51.6107C21.6879 51.4537 20.8888 51.6535 20.1764 52.21C21.1505 56.0827 21.5499 59.6783 21.375 62.9966C20.2388 63.5753 19.0402 63.7751 17.7794 63.5959C3.07225 53.7306 -1.9215 40.1473 2.79791 22.8462C5.9378 13.9195 11.7306 7.52736 20.1764 3.66992Z" fill="#DFDFDF"/>
<path opacity="0.962" fill-rule="evenodd" clip-rule="evenodd" d="M99.2795 3.66992C98.7882 8.1271 98.7882 12.5217 99.2795 16.8536C89.3406 28.9209 89.7401 40.5067 100.478 51.6107C99.5924 51.4537 98.7929 51.6535 98.081 52.21C99.3934 56.5786 99.3934 60.7734 98.081 64.7944C80.1068 53.569 75.113 37.9882 83.0995 18.0522C87.2326 11.7151 92.6254 6.92103 99.2795 3.66992Z" fill="#DEDEDE"/>
<path fill-rule="evenodd" clip-rule="evenodd" d="M22.573 51.6117C11.9037 40.7185 11.5042 29.5323 21.3745 18.0531C25.4503 14.4228 30.2444 12.8247 35.7568 13.2591C35.7568 14.8571 35.7568 16.4552 35.7568 18.0531C25.8382 18.9815 20.6446 24.3749 20.176 34.2332C20.6446 44.0915 25.8382 49.4848 35.7568 50.4132C35.7568 52.0112 35.7568 53.6093 35.7568 55.2073C30.9715 55.2068 26.5769 54.0083 22.573 51.6117Z" fill="#339F5E"/>
<path fill-rule="evenodd" clip-rule="evenodd" d="M100.476 51.6104C89.738 40.5064 89.3386 28.9207 99.2775 16.8534C103.378 14.6053 107.773 13.4068 112.461 13.2578C112.461 14.8558 112.461 16.4539 112.461 18.0519C108.048 18.1606 104.253 19.7586 101.075 22.846C93.2789 36.8105 97.0746 45.9992 112.461 50.4119C112.461 52.0099 112.461 53.608 112.461 55.206C108.033 55.3855 104.038 54.187 100.476 51.6104Z" fill="#339F5E"/>
<path opacity="0.982" fill-rule="evenodd" clip-rule="evenodd" d="M41.749 79.1775C41.6624 100.427 41.2628 121.802 40.5504 143.298C41.5152 144.632 42.3143 146.03 42.9475 147.493C35.7266 149.336 28.935 148.537 22.5726 145.096C21.6404 144.31 20.8415 143.311 20.1756 142.1C19.8214 138.084 20.2209 133.889 21.3741 129.515C25.7148 132.485 30.5089 134.083 35.7564 134.309C35.7564 132.712 35.7564 131.113 35.7564 129.515C21.8372 126.458 17.2429 118.068 21.9734 104.346C25.5771 99.8496 30.1714 97.4525 35.7564 97.1553C35.7564 95.5577 35.7564 93.9588 35.7564 92.3612C30.8773 91.9058 26.4827 93.1043 22.5726 95.9568C21.3775 95.9927 20.5784 95.3935 20.1756 94.159C20.3311 90.4246 20.7305 86.6293 21.3741 82.7731C23.3498 81.0634 25.7468 80.0645 28.5652 79.7768C32.9418 79.1792 37.3364 78.9794 41.749 79.1775Z" fill="#E3E3E3"/>
<path opacity="0.986" fill-rule="evenodd" clip-rule="evenodd" d="M41.7493 79.1738C64.556 86.0201 73.5449 101.201 68.716 124.718C64.0203 136.809 55.4309 144.4 42.9478 147.489C42.3146 146.026 41.5156 144.629 40.5508 143.295C41.2632 121.798 41.6628 100.424 41.7493 79.1738Z" fill="#EBEBEB"/>
<path opacity="0.957" fill-rule="evenodd" clip-rule="evenodd" d="M132.838 85.1666C120.453 85.1666 108.068 85.1666 95.6836 85.1666C97.4514 82.878 99.8484 81.4797 102.875 80.9718C113.671 77.679 123.658 79.0773 132.838 85.1666Z" fill="#339F5E"/>
<path opacity="0.956" fill-rule="evenodd" clip-rule="evenodd" d="M21.3748 82.7715C20.7312 86.6277 20.3318 90.4231 20.1763 94.1574C20.5791 95.3919 21.3782 95.9912 22.5733 95.9552C11.9201 106.751 11.5206 117.937 21.3748 129.514C20.2216 133.887 19.8221 138.082 20.1763 142.098C20.8422 143.31 21.6411 144.308 22.5733 145.094C8.90591 139.373 1.7148 128.985 1 113.933C1.24306 99.0198 8.03459 88.6332 21.3748 82.7715Z" fill="#DFDFDF"/>
<path opacity="0.976" fill-rule="evenodd" clip-rule="evenodd" d="M95.6833 85.168C108.068 85.168 120.453 85.168 132.837 85.168C136.345 86.6749 139.143 89.0719 141.227 92.3591C123.437 92.7534 105.859 92.3543 88.4922 91.1606C90.1831 88.2673 92.5803 86.2699 95.6833 85.168Z" fill="#339F5E"/>
<path opacity="0.984" fill-rule="evenodd" clip-rule="evenodd" d="M88.492 91.1621C105.859 92.3558 123.437 92.7549 141.227 92.3606C142.231 92.7705 142.632 93.5687 142.425 94.7577C123.459 95.9514 104.283 96.3517 84.8965 95.9562C85.1813 93.6742 86.3798 92.0754 88.492 91.1621Z" fill="#339F5E"/>
<path opacity="0.983" fill-rule="evenodd" clip-rule="evenodd" d="M142.425 94.7578C144.602 96.697 146.199 99.0941 147.219 101.949C125.155 101.565 103.182 101.966 81.3008 103.147C81.8911 100.368 83.0896 97.971 84.8963 95.9563C104.282 96.3518 123.459 95.9515 142.425 94.7578Z" fill="#339F5E"/>
<path fill-rule="evenodd" clip-rule="evenodd" d="M21.3742 129.512C11.52 117.935 11.9195 106.75 22.5727 95.9533C26.4828 93.1008 30.8774 91.9023 35.7564 92.3577C35.7564 93.9554 35.7564 95.5542 35.7564 97.1518C30.1715 97.449 25.5772 99.8461 21.9735 104.343C17.243 118.065 21.8373 126.454 35.7564 129.512C35.7564 131.109 35.7564 132.708 35.7564 134.306C30.509 134.079 25.7149 132.482 21.3742 129.512Z" fill="#339F5E"/>
<path opacity="0.984" fill-rule="evenodd" clip-rule="evenodd" d="M147.219 101.949C147.618 103.547 148.018 105.146 148.417 106.743C125.554 107.127 102.782 106.728 80.1016 105.545C80.501 104.746 80.9006 103.947 81.3001 103.148C103.181 101.966 125.154 101.566 147.219 101.949Z" fill="#339F5E"/>
<path opacity="0.996" fill-rule="evenodd" clip-rule="evenodd" d="M80.1024 105.545C102.783 106.728 125.555 107.127 148.418 106.743C148.418 108.741 148.418 110.738 148.418 112.736C125.646 112.736 102.874 112.736 80.1024 112.736C80.1024 113.935 80.1024 115.133 80.1024 116.332C79.3695 112.971 79.3695 109.375 80.1024 105.545Z" fill="#339F5E"/>
<path opacity="0.988" fill-rule="evenodd" clip-rule="evenodd" d="M148.417 112.732C148.417 115.529 148.417 118.326 148.417 121.122C125.736 119.939 102.965 119.54 80.1016 119.924C80.1016 118.725 80.1016 117.526 80.1016 116.328C80.1016 115.129 80.1016 113.931 80.1016 112.732C102.873 112.732 125.645 112.732 148.417 112.732Z" fill="#339F5E"/>
<path opacity="0.988" fill-rule="evenodd" clip-rule="evenodd" d="M80.1016 119.924C102.965 119.541 125.736 119.94 148.417 121.123C147.831 122.914 147.033 124.513 146.02 125.917C124.637 125.521 103.463 125.92 82.4986 127.115C81.0144 125.061 80.2154 122.664 80.1016 119.924Z" fill="#339F5E"/>
<path opacity="0.982" fill-rule="evenodd" clip-rule="evenodd" d="M146.022 125.917C146.068 129.02 144.87 131.417 142.426 133.108C123.649 133.108 104.873 133.108 86.0956 133.108C83.9978 131.719 82.7993 129.721 82.5 127.116C103.465 125.921 124.639 125.522 146.022 125.917Z" fill="#339F5E"/>
<path opacity="0.96" fill-rule="evenodd" clip-rule="evenodd" d="M86.0938 133.109C104.871 133.109 123.647 133.109 142.424 133.109C141.794 135.183 140.595 136.782 138.829 137.903C122.448 136.306 106.069 136.306 89.6893 137.903C87.577 136.99 86.3785 135.391 86.0938 133.109Z" fill="#339F5E"/>
<path opacity="0.976" fill-rule="evenodd" clip-rule="evenodd" d="M138.831 137.903C127.755 148.229 114.971 150.826 100.478 145.694C96.33 143.725 92.7344 141.127 89.6914 137.903C106.072 136.306 122.451 136.306 138.831 137.903Z" fill="#339F5E"/>
</svg>