<svg width="150" height="150" fill="none" xmlns="http://www.w3.org/2000/svg">
<path opacity="0.95" fill-rule="evenodd" clip-rule="evenodd" d="M30.7049 0.0744328C29.3791 1.0193 27.7843 1.61732 25.9207 1.86849C29.1102 2.66588 29.1102 3.46316 25.9207 4.26056C29.1102 5.05795 29.1102 5.85523 25.9207 6.65263C29.1102 7.45002 29.1102 8.2473 25.9207 9.0447C29.1102 9.84209 29.1102 10.6394 25.9207 11.4368C29.1102 12.2342 29.1102 13.0314 25.9207 13.8288C29.1102 14.6262 29.1102 15.4235 25.9207 16.2209C29.1102 17.0183 29.1102 17.8156 25.9207 18.613C29.1102 19.4104 29.1102 20.2076 25.9207 21.005C29.1102 21.8024 29.1102 22.5997 25.9207 23.3971C29.1102 24.1945 29.1102 24.9918 25.9207 25.7892C29.1102 26.5866 29.1102 27.3839 25.9207 28.1813C29.1102 28.9787 29.1102 29.7759 25.9207 30.5733C29.1102 31.3707 29.1102 32.168 25.9207 32.9654C29.1102 33.7628 29.1102 34.5601 25.9207 35.3575C29.1102 36.1549 29.1102 36.9521 25.9207 37.7495C29.1102 38.5469 29.1102 39.3442 25.9207 40.1416C29.1102 40.939 29.1102 41.7363 25.9207 42.5337C29.1102 43.3311 29.1102 44.1283 25.9207 44.9257C29.1102 45.7231 29.1102 46.5204 25.9207 47.3178C29.1102 48.1152 29.1102 48.9125 25.9207 49.7099C29.1102 50.5073 29.1102 51.3046 25.9207 52.102C29.1102 52.8994 29.1102 53.6966 25.9207 54.494C29.1102 55.2914 29.1102 56.0887 25.9207 56.8861C29.1102 57.6835 29.1102 58.4808 25.9207 59.2782C29.1102 60.0756 29.1102 60.8728 25.9207 61.6702C29.1102 62.4676 29.1102 63.2649 25.9207 64.0623C29.1102 64.8597 29.1102 65.657 25.9207 66.4544C29.1102 67.2518 29.1102 68.049 25.9207 68.8464C29.1102 69.6438 29.1102 70.4411 25.9207 71.2385C29.1102 72.0359 29.1102 72.8332 25.9207 73.6306C29.1102 74.428 29.1102 75.2253 25.9207 76.0227C29.1102 76.8201 29.1102 77.6173 25.9207 78.4147C29.1102 79.2121 29.1102 80.0094 25.9207 80.8068C29.1102 81.6042 29.1102 82.4015 25.9207 83.1989C29.1102 83.9963 29.1102 84.7935 25.9207 85.5909C29.1102 86.3883 29.1102 87.1856 25.9207 87.983C29.1102 88.7804 29.1102 89.5777 25.9207 90.3751C29.1102 91.1725 29.1102 91.9694 25.9207 92.7672C29.1102 93.5649 29.1102 94.3615 25.9207 95.1592C29.1102 95.957 29.1102 96.7535 25.9207 97.5513C29.1102 98.349 29.1102 99.1456 25.9207 99.9434C29.1102 100.741 29.1102 101.538 25.9207 102.335C29.1102 103.133 29.1102 103.93 25.9207 104.728C29.1102 105.525 29.1102 106.322 25.9207 107.12C29.1102 107.917 29.1102 108.714 25.9207 109.512C29.1102 110.309 29.1102 111.106 25.9207 111.904C29.1102 112.701 29.1102 113.498 25.9207 114.296C29.1102 115.094 29.1102 115.89 25.9207 116.688C29.1102 117.486 29.1102 118.282 25.9207 119.08C29.1102 119.878 29.1102 120.674 25.9207 121.472C29.1102 122.27 29.1102 123.066 25.9207 123.864C29.1102 124.662 29.1102 125.458 25.9207 126.256C29.1102 127.054 29.1102 127.85 25.9207 128.648C29.1102 129.446 29.1102 130.243 25.9207 131.04C29.1102 131.838 29.1102 132.635 25.9207 133.432C29.1102 134.23 29.1102 135.027 25.9207 135.824C29.1102 136.622 29.1102 137.419 25.9207 138.216C29.1102 139.014 29.1102 139.811 25.9207 140.609C29.1102 141.406 29.1102 142.203 25.9207 143.001C29.1102 143.798 29.1102 144.595 25.9207 145.393C27.423 145.891 28.2202 146.888 28.3128 148.383C21.9216 148.581 15.5426 148.382 9.17624 147.785C5.78751 146.788 3.5947 144.595 2.59805 141.207C1.80065 96.555 1.80065 51.9026 2.59805 7.25064C3.07419 3.98343 4.86824 1.79074 7.98021 0.67245C15.5446 0.0750308 23.1195 -0.124348 30.7049 0.0744328Z" fill="#DEDEDE"/>
<path opacity="0.991" fill-rule="evenodd" clip-rule="evenodd" d="M30.7041 0.0742188C38.6777 0.0742188 46.6512 0.0742188 54.6248 0.0742188C54.1254 0.937278 53.328 1.5353 52.2327 1.86827C55.4222 2.66567 55.4222 3.46294 52.2327 4.26034C55.4222 5.05774 55.4222 5.85501 52.2327 6.65241C55.4222 7.44981 55.4222 8.24708 52.2327 9.04448C55.4222 9.84188 55.4222 10.6392 52.2327 11.4366C55.4222 12.2339 55.4222 13.0312 52.2327 13.8286C55.4222 14.626 55.4222 15.4233 52.2327 16.2207C55.4222 17.0181 55.4222 17.8154 52.2327 18.6128C55.4222 19.4102 55.4222 20.2074 52.2327 21.0048C52.5059 21.4818 52.9046 21.6811 53.4287 21.6028C52.4711 23.4469 52.0724 25.4403 52.2327 27.583C52.2327 29.1777 52.2327 30.7725 52.2327 32.3672C52.732 33.2302 53.5294 33.8282 54.6248 34.1612C51.4353 34.9586 51.4353 35.7559 54.6248 36.5533C53.8274 36.9519 53.0301 37.3507 52.2327 37.7493C55.2654 37.972 58.0562 38.57 60.6049 39.5434C57.8142 39.5434 55.0234 39.5434 52.2327 39.5434C52.2327 41.138 52.2327 42.7328 52.2327 44.3275C52.2327 45.9222 52.2327 47.517 52.2327 49.1117C55.0234 49.1117 57.8142 49.1117 60.6049 49.1117C57.9262 50.0259 55.1354 51.0226 52.2327 52.1017C55.4222 52.8991 55.4222 53.6964 52.2327 54.4938C55.2654 54.7165 58.0562 55.3145 60.6049 56.2879C57.8142 56.2879 55.0234 56.2879 52.2327 56.2879C52.2327 57.8825 52.2327 59.4773 52.2327 61.072C52.2327 62.6667 52.2327 64.2615 52.2327 65.8561C55.0234 65.8561 57.8142 65.8561 60.6049 65.8561C57.9262 66.7704 55.1354 67.7671 52.2327 68.8462C55.4222 69.6436 55.4222 70.4409 52.2327 71.2383C53.328 71.5713 54.1254 72.1693 54.6248 73.0324C53.1322 74.0297 52.3348 75.6244 52.2327 77.8165C52.4321 79.4112 52.6313 81.006 52.8307 82.6006C53.2883 83.2656 53.8863 83.6643 54.6248 83.7967C54.1254 84.6597 53.328 85.2577 52.2327 85.5907C55.4222 86.3881 55.4222 87.1854 52.2327 87.9828C53.328 88.3158 54.1254 88.9138 54.6248 89.7768C53.1121 90.9902 52.3149 92.7837 52.2327 95.159C52.3149 97.5343 53.1121 99.3284 54.6248 100.541C54.1254 101.405 53.328 102.003 52.2327 102.335C55.4222 103.133 55.4222 103.93 52.2327 104.727C53.328 105.06 54.1254 105.658 54.6248 106.521C53.1121 107.734 52.3149 109.528 52.2327 111.903C52.3149 114.279 53.1121 116.073 54.6248 117.286C54.1254 118.149 53.328 118.747 52.2327 119.08C55.4222 119.877 55.4222 120.674 52.2327 121.472C55.5226 122.6 58.7121 123.596 61.801 124.462C58.6115 124.462 55.4222 124.462 52.2327 124.462C51.5921 128.287 52.3894 131.477 54.6248 134.03C54.1254 134.894 53.328 135.492 52.2327 135.824C55.4222 136.622 55.4222 137.419 52.2327 138.216C55.4222 139.014 55.4222 139.811 52.2327 140.608C55.4222 141.406 55.4222 142.203 52.2327 143C55.4222 143.798 55.4222 144.595 52.2327 145.392C54.7581 146.403 57.1502 147.399 59.4089 148.383C49.0432 148.383 38.6777 148.383 28.312 148.383C28.2194 146.888 27.4221 145.891 25.9199 145.392C29.1094 144.595 29.1094 143.798 25.9199 143C29.1094 142.203 29.1094 141.406 25.9199 140.608C29.1094 139.811 29.1094 139.014 25.9199 138.216C29.1094 137.419 29.1094 136.622 25.9199 135.824C29.1094 135.026 29.1094 134.23 25.9199 133.432C29.1094 132.634 29.1094 131.838 25.9199 131.04C29.1094 130.242 29.1094 129.446 25.9199 128.648C29.1094 127.85 29.1094 127.054 25.9199 126.256C29.1094 125.458 29.1094 124.662 25.9199 123.864C29.1094 123.066 29.1094 122.27 25.9199 121.472C29.1094 120.674 29.1094 119.877 25.9199 119.08C29.1094 118.282 29.1094 117.485 25.9199 116.688C29.1094 115.89 29.1094 115.093 25.9199 114.296C29.1094 113.498 29.1094 112.701 25.9199 111.903C29.1094 111.106 29.1094 110.309 25.9199 109.511C29.1094 108.714 29.1094 107.917 25.9199 107.119C29.1094 106.322 29.1094 105.525 25.9199 104.727C29.1094 103.93 29.1094 103.133 25.9199 102.335C29.1094 101.537 29.1094 100.741 25.9199 99.9431C29.1094 99.1454 29.1094 98.3488 25.9199 97.5511C29.1094 96.7533 29.1094 95.9568 25.9199 95.159C29.1094 94.3613 29.1094 93.5647 25.9199 92.7669C29.1094 91.9692 29.1094 91.1723 25.9199 90.3749C29.1094 89.5775 29.1094 88.7802 25.9199 87.9828C29.1094 87.1854 29.1094 86.3881 25.9199 85.5907C29.1094 84.7933 29.1094 83.996 25.9199 83.1987C29.1094 82.4013 29.1094 81.604 25.9199 80.8066C29.1094 80.0092 29.1094 79.2119 25.9199 78.4145C29.1094 77.6171 29.1094 76.8198 25.9199 76.0224C29.1094 75.225 29.1094 74.4278 25.9199 73.6304C29.1094 72.833 29.1094 72.0357 25.9199 71.2383C29.1094 70.4409 29.1094 69.6436 25.9199 68.8462C29.1094 68.0488 29.1094 67.2516 25.9199 66.4542C29.1094 65.6568 29.1094 64.8595 25.9199 64.0621C29.1094 63.2647 29.1094 62.4674 25.9199 61.67C29.1094 60.8726 29.1094 60.0753 25.9199 59.278C29.1094 58.4806 29.1094 57.6833 25.9199 56.8859C29.1094 56.0885 29.1094 55.2912 25.9199 54.4938C29.1094 53.6964 29.1094 52.8991 25.9199 52.1017C29.1094 51.3043 29.1094 50.5071 25.9199 49.7097C29.1094 48.9123 29.1094 48.115 25.9199 47.3176C29.1094 46.5202 29.1094 45.7229 25.9199 44.9255C29.1094 44.1281 29.1094 43.3309 25.9199 42.5335C29.1094 41.7361 29.1094 40.9388 25.9199 40.1414C29.1094 39.344 29.1094 38.5467 25.9199 37.7493C29.1094 36.9519 29.1094 36.1546 25.9199 35.3573C29.1094 34.5599 29.1094 33.7626 25.9199 32.9652C29.1094 32.1678 29.1094 31.3705 25.9199 30.5731C29.1094 29.7757 29.1094 28.9784 25.9199 28.181C29.1094 27.3836 29.1094 26.5864 25.9199 25.789C29.1094 24.9916 29.1094 24.1943 25.9199 23.3969C29.1094 22.5995 29.1094 21.8022 25.9199 21.0048C29.1094 20.2074 29.1094 19.4102 25.9199 18.6128C29.1094 17.8154 29.1094 17.0181 25.9199 16.2207C29.1094 15.4233 29.1094 14.626 25.9199 13.8286C29.1094 13.0312 29.1094 12.2339 25.9199 11.4366C29.1094 10.6392 29.1094 9.84188 25.9199 9.04448C29.1094 8.24708 29.1094 7.44981 25.9199 6.65241C29.1094 5.85501 29.1094 5.05774 25.9199 4.26034C29.1094 3.46294 29.1094 2.66567 25.9199 1.86827C27.7835 1.6171 29.3783 1.01909 30.7041 0.0742188Z" fill="#E3E3E3"/>
<path opacity="0.992" fill-rule="evenodd" clip-rule="evenodd" d="M54.6245 0.0745672C64.5995 -0.124453 74.5664 0.0749261 84.5254 0.672585C86.7181 1.2706 88.1135 2.66602 88.7115 4.85871C89.3095 28.3773 89.5093 51.8994 89.3095 75.4248C89.3095 75.8234 89.3095 76.2222 89.3095 76.6208C86.5188 76.6208 83.728 76.6208 80.9373 76.6208C80.9373 75.4248 80.9373 74.2287 80.9373 73.0327C77.412 72.7013 74.0231 73.0999 70.771 74.2287C68.8723 96.908 68.4737 119.633 69.575 142.403C70.5716 144.197 71.967 145.593 73.7611 146.589C76.7938 146.811 79.5846 147.409 82.1333 148.383C74.5585 148.383 66.9835 148.383 59.4087 148.383C57.15 147.4 54.7579 146.403 52.2325 145.393C55.4219 144.595 55.4219 143.799 52.2325 143.001C55.4219 142.203 55.4219 141.406 52.2325 140.609C55.4219 139.811 55.4219 139.014 52.2325 138.217C55.4219 137.419 55.4219 136.622 52.2325 135.825C53.3278 135.492 54.1252 134.894 54.6245 134.03C57.0166 134.03 59.4087 134.03 61.8007 134.03C61.8007 130.841 61.8007 127.652 61.8007 124.462C58.7119 123.596 55.5224 122.6 52.2325 121.472C55.4219 120.674 55.4219 119.878 52.2325 119.08C53.3278 118.748 54.1252 118.15 54.6245 117.286C57.0166 117.286 59.4087 117.286 61.8007 117.286C61.8007 113.698 61.8007 110.11 61.8007 106.522C59.4087 106.522 57.0166 106.522 54.6245 106.522C54.1252 105.658 53.3278 105.06 52.2325 104.728C55.4219 103.93 55.4219 103.133 52.2325 102.336C53.3278 102.003 54.1252 101.405 54.6245 100.542C57.0166 100.542 59.4087 100.542 61.8007 100.542C61.8007 96.9534 61.8007 93.3653 61.8007 89.7772C59.4087 89.7772 57.0166 89.7772 54.6245 89.7772C54.1252 88.9141 53.3278 88.3161 52.2325 87.9831C55.4219 87.1857 55.4219 86.3885 52.2325 85.5911C53.3278 85.2581 54.1252 84.6601 54.6245 83.797C57.0166 83.797 59.4087 83.797 61.8007 83.797C61.8007 80.2089 61.8007 76.6208 61.8007 73.0327C59.4087 73.0327 57.0166 73.0327 54.6245 73.0327C54.1252 72.1696 53.3278 71.5716 52.2325 71.2386C55.4219 70.4413 55.4219 69.644 52.2325 68.8466C55.1351 67.7674 57.9259 66.7707 60.6047 65.8565C61.7224 64.5796 62.121 62.9848 61.8007 61.0724C62.121 59.1599 61.7224 57.5651 60.6047 56.2882C58.0559 55.3149 55.2651 54.7169 52.2325 54.4942C55.4219 53.6968 55.4219 52.8995 52.2325 52.1021C55.1351 51.0229 57.9259 50.0262 60.6047 49.112C61.7224 47.8351 62.121 46.2403 61.8007 44.3279C62.121 42.4154 61.7224 40.8206 60.6047 39.5437C58.0559 38.5704 55.2651 37.9724 52.2325 37.7497C53.0298 37.351 53.8271 36.9523 54.6245 36.5536C51.4351 35.7562 51.4351 34.959 54.6245 34.1616C53.5292 33.8286 52.7318 33.2306 52.2325 32.3675C61.8003 34.766 64.9897 31.5767 61.8007 22.7992C59.2802 21.6412 56.4895 21.2425 53.4285 21.6032C52.9044 21.6814 52.5056 21.4822 52.2325 21.0052C55.4219 20.2078 55.4219 19.4105 52.2325 18.6131C55.4219 17.8157 55.4219 17.0184 52.2325 16.221C55.4219 15.4236 55.4219 14.6264 52.2325 13.829C55.4219 13.0316 55.4219 12.2343 52.2325 11.4369C55.4219 10.6395 55.4219 9.84223 52.2325 9.04483C55.4219 8.24743 55.4219 7.45016 52.2325 6.65276C55.4219 5.85536 55.4219 5.05809 52.2325 4.26069C55.4219 3.46329 55.4219 2.66602 52.2325 1.86862C53.3278 1.53564 54.1252 0.937626 54.6245 0.0745672Z" fill="#EAEAEA"/>
<path fill-rule="evenodd" clip-rule="evenodd" d="M15.1562 21.6015C18.2891 21.2806 21.2792 21.6792 24.1265 22.7975C24.7214 25.9622 24.9208 29.1517 24.7245 32.3658C21.5351 32.3658 18.3457 32.3658 15.1562 32.3658C15.1562 28.7777 15.1562 25.1896 15.1562 21.6015Z" fill="#339F5E"/>
<path fill-rule="evenodd" clip-rule="evenodd" d="M34.2929 21.6013C43.4532 19.8191 46.2439 23.2078 42.6651 31.7676C33.4028 33.9207 30.6119 30.532 34.2929 21.6013Z" fill="#339F5E"/>
<path fill-rule="evenodd" clip-rule="evenodd" d="M71.3715 21.6015C74.5044 21.2806 77.4945 21.6792 80.3418 22.7975C80.9367 25.9622 81.136 29.1517 80.9398 32.3658C70.8737 34.6642 67.6842 31.0761 71.3715 21.6015Z" fill="#339F5E"/>
<path fill-rule="evenodd" clip-rule="evenodd" d="M53.4297 21.6012C56.4907 21.2404 59.2814 21.6392 61.802 22.7972C61.802 24.3919 61.802 25.9867 61.802 27.5813C58.6125 27.5813 55.4232 27.5813 52.2337 27.5813C52.0734 25.4386 52.4721 23.4452 53.4297 21.6012Z" fill="#339F5E"/>
<path fill-rule="evenodd" clip-rule="evenodd" d="M61.8007 22.7988C64.9897 31.5763 61.8002 34.7656 52.2324 32.3671C52.2324 30.7724 52.2324 29.1776 52.2324 27.583C55.4219 27.583 58.6112 27.583 61.8007 27.583C61.8007 25.9883 61.8007 24.3935 61.8007 22.7988Z" fill="#339F5E"/>
<path fill-rule="evenodd" clip-rule="evenodd" d="M15.1562 39.543C18.3457 39.543 21.5351 39.543 24.7245 39.543C24.7245 42.7324 24.7245 45.9218 24.7245 49.1112C21.5351 49.1112 18.3457 49.1112 15.1562 49.1112C15.1562 45.9218 15.1562 42.7324 15.1562 39.543Z" fill="#339F5E"/>
<path fill-rule="evenodd" clip-rule="evenodd" d="M33.0977 39.543C36.6858 39.543 40.2739 39.543 43.862 39.543C43.862 42.7324 43.862 45.9218 43.862 49.1112C40.2739 49.1112 36.6858 49.1112 33.0977 49.1112C33.0977 45.9218 33.0977 42.7324 33.0977 39.543Z" fill="#339F5E"/>
<path fill-rule="evenodd" clip-rule="evenodd" d="M70.1738 39.543C73.7619 39.543 77.35 39.543 80.9381 39.543C80.9381 42.7324 80.9381 45.9218 80.9381 49.1112C77.35 49.1112 73.7619 49.1112 70.1738 49.1112C70.1738 45.9218 70.1738 42.7324 70.1738 39.543Z" fill="#339F5E"/>
<path fill-rule="evenodd" clip-rule="evenodd" d="M60.6047 39.543C61.7224 40.8199 62.121 42.4146 61.8007 44.3271C58.6112 44.3271 55.4219 44.3271 52.2324 44.3271C52.2324 42.7324 52.2324 41.1376 52.2324 39.543C55.0231 39.543 57.814 39.543 60.6047 39.543Z" fill="#339F5E"/>
<path fill-rule="evenodd" clip-rule="evenodd" d="M52.2324 44.3281C55.4219 44.3281 58.6112 44.3281 61.8007 44.3281C62.121 46.2406 61.7224 47.8354 60.6047 49.1123C57.814 49.1123 55.0231 49.1123 52.2324 49.1123C52.2324 47.5176 52.2324 45.9228 52.2324 44.3281Z" fill="#339F5E"/>
<path fill-rule="evenodd" clip-rule="evenodd" d="M15.1562 56.2871C18.3457 56.2871 21.5351 56.2871 24.7245 56.2871C24.7245 59.4766 24.7245 62.6659 24.7245 65.8554C21.5351 65.8554 18.3457 65.8554 15.1562 65.8554C15.1562 62.6659 15.1562 59.4766 15.1562 56.2871Z" fill="#339F5E"/>
<path fill-rule="evenodd" clip-rule="evenodd" d="M33.0977 56.2871C36.6858 56.2871 40.2739 56.2871 43.862 56.2871C43.862 59.4766 43.862 62.6659 43.862 65.8554C40.2739 65.8554 36.6858 65.8554 33.0977 65.8554C33.0977 62.6659 33.0977 59.4766 33.0977 56.2871Z" fill="#339F5E"/>
<path fill-rule="evenodd" clip-rule="evenodd" d="M71.369 56.2871C74.5585 56.2871 77.7479 56.2871 80.9373 56.2871C80.9373 59.4766 80.9373 62.6659 80.9373 65.8554C77.3492 65.8554 73.7611 65.8554 70.173 65.8554C69.9082 62.5318 70.307 59.3424 71.369 56.2871Z" fill="#339F5E"/>
<path fill-rule="evenodd" clip-rule="evenodd" d="M60.6047 56.2871C61.7224 57.564 62.121 59.1588 61.8007 61.0712C58.6112 61.0712 55.4219 61.0712 52.2324 61.0712C52.2324 59.4766 52.2324 57.8818 52.2324 56.2871C55.0231 56.2871 57.814 56.2871 60.6047 56.2871Z" fill="#339F5E"/>
<path fill-rule="evenodd" clip-rule="evenodd" d="M52.2324 61.0703C55.4219 61.0703 58.6112 61.0703 61.8007 61.0703C62.121 62.9828 61.7224 64.5776 60.6047 65.8545C57.814 65.8545 55.0231 65.8545 52.2324 65.8545C52.2324 64.2598 52.2324 62.665 52.2324 61.0703Z" fill="#339F5E"/>
<path fill-rule="evenodd" clip-rule="evenodd" d="M15.1562 73.0332C18.3457 73.0332 21.5351 73.0332 24.7245 73.0332C24.9208 76.2473 24.7214 79.4368 24.1265 82.6015C21.2792 83.7198 18.2891 84.1184 15.1562 83.7975C15.1562 80.2094 15.1562 76.6213 15.1562 73.0332Z" fill="#339F5E"/>
<path fill-rule="evenodd" clip-rule="evenodd" d="M34.2929 73.033C43.4532 71.2507 46.2439 74.6395 42.6651 83.1993C33.4028 85.3524 30.6119 81.9636 34.2929 73.033Z" fill="#339F5E"/>
<path fill-rule="evenodd" clip-rule="evenodd" d="M54.6245 73.0332C57.0166 73.0332 59.4086 73.0332 61.8007 73.0332C61.8007 76.6213 61.8007 80.2094 61.8007 83.7975C59.4086 83.7975 57.0166 83.7975 54.6245 83.7975C53.8861 83.6651 53.288 83.2665 52.8304 82.6015C52.6311 81.0068 52.4318 79.412 52.2324 77.8173C52.3346 75.6253 53.132 74.0306 54.6245 73.0332Z" fill="#339F5E"/>
<path opacity="0.957" fill-rule="evenodd" clip-rule="evenodd" d="M89.3105 76.6199C89.3105 76.2212 89.3105 75.8225 89.3105 75.4238C101.271 75.4238 113.231 75.4238 125.192 75.4238C122.643 76.3972 119.853 76.9952 116.819 77.2179C115.709 77.6818 114.912 78.4792 114.427 79.61C116.022 81.2046 116.022 82.7994 114.427 84.3941C114.912 85.5248 115.709 86.3222 116.819 86.7862C115.709 87.2501 114.912 88.0475 114.427 89.1782C116.022 90.7729 116.022 92.3681 114.427 93.9624C114.912 95.0926 115.709 95.8904 116.819 96.3544C115.709 96.8185 114.912 97.6163 114.427 98.7465C116.022 100.341 116.022 101.936 114.427 103.531C114.912 104.661 115.709 105.459 116.819 105.923C115.709 106.387 114.912 107.185 114.427 108.315C116.022 109.909 116.022 111.505 114.427 113.099C114.912 114.229 115.709 115.027 116.819 115.491C115.709 115.955 114.912 116.753 114.427 117.883C116.022 119.477 116.022 121.073 114.427 122.667C114.912 123.797 115.709 124.595 116.819 125.059C115.709 125.523 114.912 126.321 114.427 127.451C116.022 129.046 116.022 130.641 114.427 132.235C114.912 133.366 115.709 134.164 116.819 134.628C115.709 135.092 114.912 135.889 114.427 137.02C116.022 138.614 116.022 140.209 114.427 141.804C114.912 142.934 115.709 143.732 116.819 144.196C115.853 144.564 115.055 145.162 114.427 145.99C116.16 146.794 117.755 147.591 119.211 148.382C110.441 148.382 101.669 148.382 92.8987 148.382C92.1918 147.603 91.3952 146.806 90.5066 145.99C92.1834 144.385 91.7851 143.387 89.3105 143C90.1717 140.02 90.9694 137.03 91.7026 134.03C93.1953 133.032 93.993 131.438 94.0947 129.245C93.8949 127.651 93.6964 126.056 93.4967 124.461C92.6941 123.562 91.6978 123.162 90.5066 123.265C90.5066 121.271 90.5066 119.279 90.5066 117.285C91.7026 117.285 92.8987 117.285 94.0947 117.285C94.0947 115.291 94.0947 113.299 94.0947 111.305C94.5049 108.933 93.7072 107.338 91.7026 106.521C91.2027 105.657 90.4061 105.059 89.3105 104.727C90.3116 103.517 90.7099 102.122 90.5066 100.541C91.7026 100.541 92.8987 100.541 94.0947 100.541C94.0947 96.9525 94.0947 93.3644 94.0947 89.7762C92.8987 89.7762 91.7026 89.7762 90.5066 89.7762C90.4037 88.5851 90.8032 87.5885 91.7026 86.7862C90.9049 86.3875 90.1083 85.9888 89.3105 85.5901C90.1083 82.7994 90.9049 80.0086 91.7026 77.2179C90.9922 76.6626 90.1944 76.4632 89.3105 76.6199Z" fill="#E3E3E3"/>
<path opacity="0.976" fill-rule="evenodd" clip-rule="evenodd" d="M125.19 75.4216C129.991 75.2237 134.775 75.4231 139.543 76.0196C142.351 76.4333 144.543 77.8286 146.121 80.2058C148.062 100.06 148.46 119.994 147.317 140.008C146.846 144.066 144.653 146.657 140.739 147.782C133.573 148.379 126.397 148.578 119.21 148.38C117.753 147.589 116.159 146.791 114.426 145.988C115.054 145.16 115.851 144.562 116.818 144.194C115.708 143.73 114.91 142.932 114.426 141.802C116.02 140.207 116.02 138.612 114.426 137.017C114.91 135.887 115.708 135.089 116.818 134.625C115.708 134.161 114.91 133.364 114.426 132.233C116.02 130.639 116.02 129.043 114.426 127.449C114.91 126.319 115.708 125.521 116.818 125.057C115.708 124.593 114.91 123.795 114.426 122.665C116.02 121.071 116.02 119.475 114.426 117.881C114.91 116.751 115.708 115.953 116.818 115.489C115.708 115.025 114.91 114.227 114.426 113.097C116.02 111.502 116.02 109.907 114.426 108.313C114.91 107.182 115.708 106.385 116.818 105.921C115.708 105.456 114.91 104.659 114.426 103.528C116.02 101.934 116.02 100.339 114.426 98.7443C114.91 97.614 115.708 96.8163 116.818 96.3522C115.708 95.8882 114.91 95.0904 114.426 93.9602C116.02 92.3658 116.02 90.7707 114.426 89.176C114.91 88.0453 115.708 87.2479 116.818 86.784C115.708 86.32 114.91 85.5226 114.426 84.3919C116.02 82.7972 116.02 81.2024 114.426 79.6077C114.91 78.477 115.708 77.6796 116.818 77.2157C119.851 76.993 122.641 76.395 125.19 75.4216Z" fill="#EBEBEB"/>
<path opacity="0.993" fill-rule="evenodd" clip-rule="evenodd" d="M89.3098 76.6189C90.1937 76.4622 90.9914 76.6616 91.7019 77.2169C90.9041 80.0076 90.1075 82.7985 89.3098 85.5892C90.1075 85.9878 90.9041 86.3866 91.7019 86.7852C90.8024 87.5875 90.403 88.5842 90.5058 89.7753C88.512 89.7753 86.5191 89.7753 84.5256 89.7753C84.5256 93.3634 84.5256 96.9515 84.5256 100.54C86.5191 100.54 88.512 100.54 90.5058 100.54C90.7091 102.121 90.3109 103.517 89.3098 104.726C90.4054 105.058 91.2019 105.656 91.7019 106.52C89.3098 106.52 86.9177 106.52 84.5256 106.52C84.5256 108.114 84.5256 109.71 84.5256 111.304C84.5256 113.298 84.5256 115.29 84.5256 117.284C86.5191 117.284 88.512 117.284 90.5058 117.284C90.5058 119.278 90.5058 121.27 90.5058 123.264C88.512 123.264 86.5191 123.264 84.5256 123.264C84.5256 126.852 84.5256 130.44 84.5256 134.029C86.9177 134.029 89.3098 134.029 91.7019 134.029C90.9687 137.029 90.1709 140.02 89.3098 142.999C91.7844 143.386 92.1827 144.384 90.5058 145.989C91.3945 146.805 92.191 147.602 92.8979 148.381C89.3098 148.381 85.7217 148.381 82.1336 148.381C79.5848 147.407 76.794 146.809 73.7613 146.587C71.9673 145.591 70.5719 144.195 69.5752 142.401C68.4739 119.631 68.8725 96.9061 70.7712 74.2268C74.0234 73.098 77.4122 72.6994 80.9375 73.0308C80.9375 74.2268 80.9375 75.4229 80.9375 76.6189C83.7282 76.6189 86.5191 76.6189 89.3098 76.6189Z" fill="#DDDDDD"/>
<path fill-rule="evenodd" clip-rule="evenodd" d="M15.1562 89.7751C24.3166 87.9929 27.1073 91.3817 23.5285 99.9414C20.7659 100.536 17.9751 100.734 15.1562 100.539C15.1562 96.9514 15.1562 93.3632 15.1562 89.7751Z" fill="#339F5E"/>
<path fill-rule="evenodd" clip-rule="evenodd" d="M42.6652 90.9733C41.8852 92.4385 40.4897 93.2362 38.4791 93.3654C36.4684 93.2362 35.073 92.4385 34.293 90.9733C37.0837 89.3787 39.8745 89.3787 42.6652 90.9733Z" fill="#339F5E"/>
<path fill-rule="evenodd" clip-rule="evenodd" d="M54.6245 89.7773C57.0166 89.7773 59.4086 89.7773 61.8007 89.7773C61.8007 93.3654 61.8007 96.9536 61.8007 100.542C59.4086 100.542 57.0166 100.542 54.6245 100.542C53.1119 99.3289 52.3146 97.5348 52.2324 95.1595C52.3146 92.7842 53.1119 90.9907 54.6245 89.7773Z" fill="#339F5E"/>
<path fill-rule="evenodd" clip-rule="evenodd" d="M90.5075 89.7773C91.7036 89.7773 92.8996 89.7773 94.0956 89.7773C94.0956 93.3654 94.0956 96.9536 94.0956 100.542C92.8996 100.542 91.7036 100.542 90.5075 100.542C88.5137 100.542 86.5208 100.542 84.5273 100.542C84.5273 96.9536 84.5273 93.3654 84.5273 89.7773C86.5208 89.7773 88.5137 89.7773 90.5075 89.7773Z" fill="#339F5E"/>
<path fill-rule="evenodd" clip-rule="evenodd" d="M103.664 89.7751C112.825 87.9929 115.615 91.3817 112.036 99.9414C102.774 102.094 99.9827 98.7059 103.664 89.7751Z" fill="#339F5E"/>
<path fill-rule="evenodd" clip-rule="evenodd" d="M121.604 89.7773C124.793 89.7773 127.982 89.7773 131.172 89.7773C131.172 93.3654 131.172 96.9536 131.172 100.542C127.982 100.542 124.793 100.542 121.604 100.542C121.604 96.9536 121.604 93.3654 121.604 89.7773Z" fill="#339F5E"/>
<path fill-rule="evenodd" clip-rule="evenodd" d="M34.2933 90.9727C35.0733 92.4378 36.4688 93.2356 38.4794 93.3647C40.4901 93.2356 41.8855 92.4378 42.6655 90.9727C43.8235 93.4927 44.2223 96.2842 43.8616 99.3449C40.2735 99.3449 36.6854 99.3449 33.0973 99.3449C32.7365 96.2842 33.1353 93.4927 34.2933 90.9727Z" fill="#339F5E"/>
<path fill-rule="evenodd" clip-rule="evenodd" d="M15.1562 106.521C24.3166 104.739 27.1073 108.127 23.5285 116.688C20.7659 117.282 17.9751 117.48 15.1562 117.286C15.1562 113.697 15.1562 110.109 15.1562 106.521Z" fill="#339F5E"/>
<path fill-rule="evenodd" clip-rule="evenodd" d="M34.2929 106.521C43.4532 104.739 46.2439 108.127 42.6651 116.688C33.4028 118.84 30.6119 115.452 34.2929 106.521Z" fill="#339F5E"/>
<path fill-rule="evenodd" clip-rule="evenodd" d="M54.6245 106.521C57.0166 106.521 59.4086 106.521 61.8007 106.521C61.8007 110.11 61.8007 113.698 61.8007 117.286C59.4086 117.286 57.0166 117.286 54.6245 117.286C53.1119 116.073 52.3146 114.279 52.2324 111.904C52.3146 109.528 53.1119 107.734 54.6245 106.521Z" fill="#339F5E"/>
<path fill-rule="evenodd" clip-rule="evenodd" d="M91.7036 106.521C93.7081 107.338 94.5059 108.934 94.0956 111.306C90.9058 111.306 87.7172 111.306 84.5273 111.306C84.5273 109.711 84.5273 108.116 84.5273 106.521C86.9194 106.521 89.3115 106.521 91.7036 106.521Z" fill="#339F5E"/>
<path fill-rule="evenodd" clip-rule="evenodd" d="M121.604 106.521C124.793 106.521 127.982 106.521 131.172 106.521C131.172 110.11 131.172 113.698 131.172 117.286C127.982 117.286 124.793 117.286 121.604 117.286C121.604 113.698 121.604 110.11 121.604 106.521Z" fill="#339F5E"/>
<path fill-rule="evenodd" clip-rule="evenodd" d="M113.232 111.306C110.178 112.368 106.988 112.766 103.664 112.502C103.664 110.907 103.664 109.312 103.664 107.718C106.209 106.367 109 106.168 112.036 107.12C113.037 108.329 113.436 109.725 113.232 111.306Z" fill="#339F5E"/>
<path fill-rule="evenodd" clip-rule="evenodd" d="M84.5273 111.305C87.7172 111.305 90.9058 111.305 94.0956 111.305C94.0956 113.298 94.0956 115.291 94.0956 117.285C92.8996 117.285 91.7036 117.285 90.5075 117.285C88.5137 117.285 86.5208 117.285 84.5273 117.285C84.5273 115.291 84.5273 113.298 84.5273 111.305Z" fill="#339F5E"/>
<path fill-rule="evenodd" clip-rule="evenodd" d="M103.663 107.717C103.663 109.311 103.663 110.907 103.663 112.501C106.986 112.765 110.176 112.367 113.231 111.305C113.487 113.271 113.087 115.065 112.035 116.687C103.049 119.07 100.259 116.079 103.663 107.717Z" fill="#339F5E"/>
<path fill-rule="evenodd" clip-rule="evenodd" d="M15.1562 123.265C18.2891 122.945 21.2792 123.343 24.1265 124.461C24.7214 127.626 24.9208 130.816 24.7245 134.03C21.5351 134.03 18.3457 134.03 15.1562 134.03C15.1562 130.442 15.1562 126.853 15.1562 123.265Z" fill="#339F5E"/>
<path fill-rule="evenodd" clip-rule="evenodd" d="M34.2929 123.265C43.4532 121.483 46.2439 124.872 42.6651 133.432C33.4028 135.585 30.6119 132.196 34.2929 123.265Z" fill="#339F5E"/>
<path fill-rule="evenodd" clip-rule="evenodd" d="M61.8019 124.463C61.8019 127.653 61.8019 130.841 61.8019 134.031C59.4098 134.031 57.0177 134.031 54.6256 134.031C52.3903 131.478 51.593 128.288 52.2336 124.463C55.423 124.463 58.6124 124.463 61.8019 124.463Z" fill="#339F5E"/>
<path fill-rule="evenodd" clip-rule="evenodd" d="M90.5075 123.266C91.6988 123.163 92.6951 123.562 93.4976 124.462C93.6973 126.056 93.8959 127.652 94.0956 129.246C93.994 131.438 93.1962 133.033 91.7036 134.03C89.3115 134.03 86.9194 134.03 84.5273 134.03C84.5273 130.442 84.5273 126.854 84.5273 123.266C86.5208 123.266 88.5137 123.266 90.5075 123.266Z" fill="#339F5E"/>
<path fill-rule="evenodd" clip-rule="evenodd" d="M103.662 123.265C112.823 121.483 115.613 124.872 112.034 133.432C102.772 135.585 99.9808 132.196 103.662 123.265Z" fill="#339F5E"/>
<path fill-rule="evenodd" clip-rule="evenodd" d="M131.171 124.46C131.171 126.054 131.171 127.65 131.171 129.244C127.981 129.244 124.792 129.244 121.602 129.244C121.346 127.278 121.746 125.484 122.798 123.862C125.835 122.91 128.625 123.109 131.171 124.46Z" fill="#339F5E"/>
<path fill-rule="evenodd" clip-rule="evenodd" d="M131.172 124.463C134.36 133.241 131.172 136.429 121.604 134.031C121.604 132.437 121.604 130.841 121.604 129.247C124.793 129.247 127.982 129.247 131.172 129.247C131.172 127.653 131.172 126.057 131.172 124.463Z" fill="#339F5E"/>
</svg>