<?xml version="1.0" encoding="utf-8"?>
<!-- Generator: Adobe Illustrator 26.4.1, SVG Export Plug-In . SVG Version: 6.00 Build 0)  -->
<svg version="1.1" id="Layer_1" xmlns="http://www.w3.org/2000/svg" xmlns:xlink="http://www.w3.org/1999/xlink" x="0px" y="0px"
	 viewBox="0 0 150 150" style="enable-background:new 0 0 150 150;" xml:space="preserve">
<style type="text/css">
	.st0{opacity:0.875;fill:#C3C3C3;enable-background:new    ;}
	.st1{opacity:0.9;fill:#BEBEBE;enable-background:new    ;}
	.st2{opacity:0.893;fill:#BEBEBE;enable-background:new    ;}
	.st3{opacity:0.989;fill:#EAEAEA;enable-background:new    ;}
	.st4{opacity:0.851;fill:#B9B9B9;enable-background:new    ;}
	.st5{opacity:0.966;fill:#EEEEEE;enable-background:new    ;}
	.st6{opacity:0.893;fill:#B8B8B8;enable-background:new    ;}
	.st7{opacity:0.989;fill:#E4E4E4;enable-background:new    ;}
	.st8{opacity:0.963;fill:#E0E0E0;enable-background:new    ;}
</style>
<path class="st0" d="M101.3,18.4c-2.2,2.4-3.6,1.9-4.2-1.7c-1.1,4.4-2.2,4.4-3.3,0c-0.4,2.1-1.2,3.7-2.5,5
	c-5.7-11.6-14.6-14.6-26.6-9.1c-2,1.7-3.7,3.7-5,5.8c-2.2-2.4-3.6-1.9-4.2,1.7c-1.1-4.4-2.2-4.4-3.3,0c-0.5-1.5-1.3-2.6-2.5-3.3
	c4.2-12,12.8-17.5,25.8-16.6C88.5,0.1,97.1,6.2,101.3,18.4z"/>
<path class="st1" d="M49.7,16.7c1.2,0.7,2,1.8,2.5,3.3c1.1-4.4,2.2-4.4,3.3,0c0.6-3.5,2-4.1,4.2-1.7c-2.8,6.9-3.9,14.1-3.3,21.6
	c-2.8,0.3-5.6,0-8.3-0.8c1.1-0.6,2.2-1.1,3.3-1.7c-2-1.2-3.6-2.5-5-4.2C45.8,27.3,46.9,21.7,49.7,16.7z"/>
<path class="st2" d="M101.3,18.4c1.6,8.2,2.1,16.5,1.7,25c-2.7-2.6-6-3.7-10-3.3c0.4-6.3-0.1-12.4-1.7-18.3c1.3-1.3,2.1-2.9,2.5-5
	c1.1,4.4,2.2,4.4,3.3,0C97.7,20.3,99.1,20.8,101.3,18.4z"/>
<path class="st3" d="M64.7,51.7c1.6-2.4,2.1-5.1,1.7-8.3c1.5,1.8,4.2,3.2,8.3,4.2c-1.1,0.6-2.2,1.1-3.3,1.7c3.3,2.8,6.7,5.5,10,8.3
	c-1.1,0.6-2.2,1.1-3.3,1.7c2.2,0.6,4.4,1.1,6.7,1.7c-1.1,0.6-2.2,1.1-3.3,1.7c2.9,2.5,6.2,4.2,10,5c-1.1,0.6-2.2,1.1-3.3,1.7
	c3.3,2.8,6.7,5.5,10,8.3c-1.1,0.6-2.2,1.1-3.3,1.7c3.8,0.8,7.1,2.4,10,5c-1.1,0.6-2.2,1.1-3.3,1.7c2.2,0.6,4.4,1.1,6.7,1.7
	c-1.1,0.6-2.2,1.1-3.3,1.7c4.4,3.9,8.9,7.8,13.3,11.6c-0.6,0.6-1.1,1.1-1.7,1.7c5.1,0.6,5.6,1.7,1.7,3.3c2.2,0.6,4.4,1.1,6.7,1.7
	c-1.1,0.6-2.2,1.1-3.3,1.7c2.9,2.5,6.2,4.2,10,5c-4.4,1.1-4.4,2.2,0,3.3c-1.1,0.6-2.2,1.1-3.3,1.7c3.6,1,6.9,2.4,10,4.2
	c2,8.7,2,17.3,0,25.8c-11.6,0.8-23.3,1.1-34.9,0.8c0.2-1,0.7-1.9,1.7-2.5c-2.2-0.6-4.4-1.1-6.7-1.7c1.1-0.6,2.2-1.1,3.3-1.7
	c-3.3-2.8-6.7-5.5-10-8.3c1.1-0.6,2.2-1.1,3.3-1.7c-2.2-0.6-4.4-1.1-6.7-1.7c1.1-0.6,2.2-1.1,3.3-1.7c-3.3-1.7-6.7-3.3-10-5
	c4.4-1.1,4.4-2.2,0-3.3c0.6-0.6,1.1-1.1,1.7-1.7c-2.2-0.6-4.4-1.1-6.7-1.7c1.9-1.7,1.3-2.8-1.7-3.3c1.1-0.6,2.2-1.1,3.3-1.7
	c-2.2-0.6-4.4-1.1-6.7-1.7c1.1-0.6,2.2-1.1,3.3-1.7c-3.3-1.7-6.7-3.3-10-5c1.1-0.6,2.2-1.1,3.3-1.7c-3.3-2.8-6.7-5.5-10-8.3
	c1.1-0.6,2.2-1.1,3.3-1.7c-2.2-0.6-4.4-1.1-6.7-1.7c0.6-0.6,1.1-1.1,1.7-1.7c-5.1-0.6-5.6-1.7-1.7-3.3c-2.2-0.6-4.4-1.1-6.7-1.7
	c1.1-0.6,2.2-1.1,3.3-1.7c-2.9-2.5-6.2-4.2-10-5c1.1-0.6,2.2-1.1,3.3-1.7c-1.9-3-5.3-5.8-10-8.3c1.1-0.6,2.2-1.1,3.3-1.7
	c-2.2-0.6-4.4-1.1-6.7-1.7c1.1-0.6,2.2-1.1,3.3-1.7c-2.2-0.6-4.4-1.1-6.7-1.7c1.1-0.6,2.2-1.1,3.3-1.7c-2.2-0.6-4.4-1.1-6.7-1.7
	c1.1-0.6,2.2-1.1,3.3-1.7c-2.6-2.3-5.3-4.2-8.3-5.8c-0.6-6.3,0.3-12.4,2.5-18.3c5.6-1.6,11.5-2.1,17.5-1.7c-0.3,8.3,0,16.7,0.8,25
	c6.4,8.2,13.6,8.7,21.6,1.7C62.9,56,63.7,53.8,64.7,51.7z"/>
<path class="st4" d="M46.4,33.4c1.3,1.6,3,3,5,4.2c-1.1,0.6-2.2,1.1-3.3,1.7c2.7,0.8,5.5,1.1,8.3,0.8c0.3,5,0,10-0.8,15
	c-3.2,2.3-6,1.7-8.3-1.7C46.4,46.7,46.1,40,46.4,33.4z"/>
<path class="st5" d="M137.9,123.2c-3.1-1.8-6.4-3.2-10-4.2c1.1-0.6,2.2-1.1,3.3-1.7c-4.4-1.1-4.4-2.2,0-3.3c-3.8-0.8-7.1-2.4-10-5
	c1.1-0.6,2.2-1.1,3.3-1.7c-2.2-0.6-4.4-1.1-6.7-1.7c4-1.6,3.4-2.7-1.7-3.3c0.6-0.6,1.1-1.1,1.7-1.7c-4.4-3.9-8.9-7.8-13.3-11.6
	c1.1-0.6,2.2-1.1,3.3-1.7c-2.2-0.6-4.4-1.1-6.7-1.7c1.1-0.6,2.2-1.1,3.3-1.7c-2.9-2.5-6.2-4.2-10-5c1.1-0.6,2.2-1.1,3.3-1.7
	c-3.3-2.8-6.7-5.5-10-8.3c1.1-0.6,2.2-1.1,3.3-1.7c-3.8-0.8-7.1-2.4-10-5c1.1-0.6,2.2-1.1,3.3-1.7c-2.2-0.6-4.4-1.1-6.7-1.7
	c1.1-0.6,2.2-1.1,3.3-1.7c-3.3-2.8-6.7-5.5-10-8.3c1.1-0.6,2.2-1.1,3.3-1.7c-4.1-1-6.9-2.4-8.3-4.2c0.5,3.2-0.1,6-1.7,8.3
	c0-6.7,0-13.3,0-20c6.7,0,13.3,0,20,0c-0.5,9,0.4,17.9,2.5,26.6c7.2,6.7,14.4,6.7,21.6,0c2.1-8.7,2.9-17.6,2.5-26.6
	c5-0.3,10,0,15,0.8c0.8,0.8,1.7,1.7,2.5,2.5C132.2,64.4,135.3,93.8,137.9,123.2z"/>
<path class="st6" d="M93,40c4-0.4,7.3,0.7,10,3.3c0.3,3.9,0,7.8-0.8,11.6c-2.3,1.8-4.8,2-7.5,0.8C93.1,50.7,92.5,45.5,93,40z"/>
<path class="st7" d="M19.8,51.7c3,1.6,5.7,3.5,8.3,5.8c-1.1,0.6-2.2,1.1-3.3,1.7c2.2,0.6,4.4,1.1,6.7,1.7c-1.1,0.6-2.2,1.1-3.3,1.7
	c2.2,0.6,4.4,1.1,6.7,1.7c-1.1,0.6-2.2,1.1-3.3,1.7c2.2,0.6,4.4,1.1,6.7,1.7c-1.1,0.6-2.2,1.1-3.3,1.7c4.7,2.5,8,5.3,10,8.3
	c-1.1,0.6-2.2,1.1-3.3,1.7c3.8,0.8,7.1,2.4,10,5c-1.1,0.6-2.2,1.1-3.3,1.7c2.2,0.6,4.4,1.1,6.7,1.7c-4,1.6-3.4,2.7,1.7,3.3
	c-0.6,0.6-1.1,1.1-1.7,1.7c2.2,0.6,4.4,1.1,6.7,1.7c-1.1,0.6-2.2,1.1-3.3,1.7c3.3,2.8,6.7,5.5,10,8.3c-1.1,0.6-2.2,1.1-3.3,1.7
	c3.3,1.7,6.7,3.3,10,5c-1.1,0.6-2.2,1.1-3.3,1.7c2.2,0.6,4.4,1.1,6.7,1.7c-1.1,0.6-2.2,1.1-3.3,1.7c3,0.5,3.6,1.6,1.7,3.3
	c2.2,0.6,4.4,1.1,6.7,1.7c-0.6,0.6-1.1,1.1-1.7,1.7c4.4,1.1,4.4,2.2,0,3.3c3.3,1.7,6.7,3.3,10,5c-1.1,0.6-2.2,1.1-3.3,1.7
	c2.2,0.6,4.4,1.1,6.7,1.7c-1.1,0.6-2.2,1.1-3.3,1.7c3.3,2.8,6.7,5.5,10,8.3c-1.1,0.6-2.2,1.1-3.3,1.7c2.2,0.6,4.4,1.1,6.7,1.7
	c-0.9,0.6-1.5,1.5-1.7,2.5c-20.5,0-41,0-61.6,0c0.7-1.2,1.8-2,3.3-2.5c-2.2-0.6-4.4-1.1-6.7-1.7c1.1-0.6,2.2-1.1,3.3-1.7
	c-3.3-2.8-6.7-5.5-10-8.3c1.1-0.6,2.2-1.1,3.3-1.7c-2.2-0.6-4.4-1.1-6.7-1.7c1.1-0.6,2.2-1.1,3.3-1.7c-2.2-0.6-4.4-1.1-6.7-1.7
	c1.1-0.6,2.2-1.1,3.3-1.7c-2.2-0.6-4.4-1.1-6.7-1.7c1.1-0.6,2.2-1.1,3.3-1.7c-2.9-2.5-6.2-4.2-10-5c4.4-1.1,4.4-2.2,0-3.3
	c1.1-0.6,2.2-1.1,3.3-1.7c-2.2-1.6-3.8-3.6-5-5.8C14.9,89.1,17.1,70.2,19.8,51.7z"/>
<path class="st8" d="M13.1,108.2c1.1,2.2,2.8,4.2,5,5.8c-1.1,0.6-2.2,1.1-3.3,1.7c4.4,1.1,4.4,2.2,0,3.3c3.8,0.8,7.1,2.4,10,5
	c-1.1,0.6-2.2,1.1-3.3,1.7c2.2,0.6,4.4,1.1,6.7,1.7c-1.1,0.6-2.2,1.1-3.3,1.7c2.2,0.6,4.4,1.1,6.7,1.7c-1.1,0.6-2.2,1.1-3.3,1.7
	c2.2,0.6,4.4,1.1,6.7,1.7c-1.1,0.6-2.2,1.1-3.3,1.7c3.3,2.8,6.7,5.5,10,8.3c-1.1,0.6-2.2,1.1-3.3,1.7c2.2,0.6,4.4,1.1,6.7,1.7
	c-1.5,0.5-2.6,1.3-3.3,2.5c-10.4,0.5-20.7,0-30.8-1.7C10.5,134.8,11.3,121.5,13.1,108.2z"/>
</svg>
