<?xml version="1.0" encoding="utf-8"?>
<!-- Generator: Adobe Illustrator 26.4.1, SVG Export Plug-In . SVG Version: 6.00 Build 0)  -->
<svg version="1.1" id="Layer_1" xmlns="http://www.w3.org/2000/svg" xmlns:xlink="http://www.w3.org/1999/xlink" x="0px" y="0px"
	 viewBox="0 0 150 150" style="enable-background:new 0 0 150 150;" xml:space="preserve">
<style type="text/css">
	.st0{opacity:0.494;fill:#EBEBEB;enable-background:new    ;}
	.st1{opacity:0.494;fill:#E5E5E5;enable-background:new    ;}
	.st2{opacity:0.747;fill:#CDCDCD;enable-background:new    ;}
	.st3{opacity:0.756;fill:#7C7C7C;enable-background:new    ;}
	.st4{opacity:0.496;fill:#BEBEBE;enable-background:new    ;}
	.st5{opacity:0.498;fill:#4B4B4B;enable-background:new    ;}
	.st6{fill:#5C5C5C;}
	.st7{opacity:0.497;fill:#585858;enable-background:new    ;}
	.st8{opacity:0.493;fill:#B9B9B9;enable-background:new    ;}
	.st9{opacity:0.988;fill:#9B9B9B;enable-background:new    ;}
	.st10{opacity:0.49;fill:#656565;enable-background:new    ;}
</style>
<path class="st0" d="M121.2,55.5c-13.3-4.3-26.4-3.8-39.3,1.5c-2.4-1-4.9-1.7-7.5-2.3c1-0.5,2-1,3-1.5c-3-1.5-6-3-9.1-4.5
	c4-1,4-2,0-3c1-0.5,2-1,3-1.5c-3-0.5-6-1-9.1-1.5c4-1,4-2,0-3c1-0.5,2-1,3-1.5c-2-0.5-4-1-6-1.5c4-1,4-2,0-3c1-0.5,2-1,3-1.5
	c-2-0.5-4-1-6-1.5c1-0.5,2-1,3-1.5c-3-1.5-6-3-9.1-4.5c4-1,4-2,0-3c1-0.5,2-1,3-1.5c-3.6-0.8-7.1-0.6-10.6,0.8
	C48,13.8,55,9.5,63.8,7.9C100.2,3.3,119.3,19.2,121.2,55.5z"/>
<path class="st1" d="M81.9,57c-1.4,2.2-3.4,3.7-6,4.5c-6.5-2.7-13.1-5.5-19.6-8.3c-8.6-1-17.2-0.8-25.7,0.8c0-0.5,0-1,0-1.5
	c-1.4-12.4,2.6-23,12.1-31.7c3.4-1.3,7-1.6,10.6-0.8c-1,0.5-2,1-3,1.5c4,1,4,2,0,3c3,1.5,6,3,9.1,4.5c-1,0.5-2,1-3,1.5
	c2,0.5,4,1,6,1.5c-1,0.5-2,1-3,1.5c4,1,4,2,0,3c2,0.5,4,1,6,1.5c-1,0.5-2,1-3,1.5c4,1,4,2,0,3c3,0.5,6,1,9.1,1.5c-1,0.5-2,1-3,1.5
	c4,1,4,2,0,3c3,1.5,6,3,9.1,4.5c-1,0.5-2,1-3,1.5C77,55.2,79.5,56,81.9,57z"/>
<path class="st2" d="M75.9,61.5c0,0.5,0,1,0,1.5c-7.2,4.8-11.7,11.3-13.6,19.6c-1.4,3.3-2.4,6.8-3,10.6C41.6,86.1,32.1,73,30.6,54
	c8.5-1.5,17.1-1.8,25.7-0.8C62.8,56,69.4,58.8,75.9,61.5z"/>
<path class="st3" d="M121.2,55.5c-1.5,14.1-8.1,25.2-19.6,33.2c-2.7,2.1-5.7,3.6-9.1,4.5c-1.6,5.4-2.6,11-3,16.6c-0.5,0-1,0-1.5,0
	c-9.1-0.4-18.2-0.4-27.2,0c-1.1-5.5-1.6-11-1.5-16.6c0.6-3.8,1.7-7.3,3-10.6c0,2,0,4,0,6c8.6,0,17.1,0,25.7,0c0.2-3.1,0-6.1-0.8-9.1
	c-3.5-5.8-7.3-11.3-11.3-16.6c0-0.5,0-1,0-1.5c2.6-0.8,4.6-2.3,6-4.5C94.8,51.6,107.9,51.1,121.2,55.5z"/>
<path class="st4" d="M30.6,52.4c0,0.5,0,1,0,1.5c1.5,19.1,11,32.1,28.7,39.3c-0.1,5.6,0.4,11.1,1.5,16.6c-19.1,0-38.2,0-57.4,0
	c0,1.5,0,3,0,4.5C-5.7,86.7,3.4,66,30.6,52.4z"/>
<path class="st5" d="M121.2,55.5c17.9,6.1,27.5,18.7,28.7,37.7c-16-2.4-32.1-4-48.3-4.5C113.1,80.6,119.6,69.6,121.2,55.5z"/>
<path class="st6" d="M75.9,63c4,5.3,7.8,10.8,11.3,16.6c0.7,3,1,6,0.8,9.1c-8.6,0-17.1,0-25.7,0c0-2,0-4,0-6
	C64.2,74.3,68.7,67.8,75.9,63z"/>
<path class="st7" d="M101.6,88.7c16.2,0.6,32.3,2.1,48.3,4.5c0.4,6.2-0.1,12.2-1.5,18.1c-19.9,0.5-39.5,0-58.9-1.5
	c0.4-5.6,1.5-11.2,3-16.6C95.9,92.3,98.9,90.7,101.6,88.7z"/>
<path class="st8" d="M60.8,109.8c2.3,8.6,6.8,15.6,13.6,21.1c0,0.5,0,1,0,1.5c-18.8,13.6-37.9,13.9-57.4,0.8
	c-6.6-4.9-11.1-11.2-13.6-18.9c0-1.5,0-3,0-4.5C22.5,109.8,41.7,109.8,60.8,109.8z"/>
<path class="st9" d="M88,109.8c-2.1,8.6-6.6,15.7-13.6,21.1c-6.8-5.5-11.3-12.5-13.6-21.1C69.8,109.4,78.9,109.4,88,109.8z"/>
<path class="st10" d="M88,109.8c0.5,0,1,0,1.5,0c19.4,1.5,39,2,58.9,1.5c-10.4,24.8-29,34.6-55.9,29.4c-6.7-1.6-12.7-4.3-18.1-8.3
	c0-0.5,0-1,0-1.5C81.3,125.5,85.9,118.4,88,109.8z"/>
</svg>
