<svg width="150" height="150" fill="none" xmlns="http://www.w3.org/2000/svg">
<path opacity="0.834" fill-rule="evenodd" clip-rule="evenodd" d="M92.4034 3.67589C89.1687 3.67589 85.934 3.67589 82.6992 3.67589C82.7704 0.980061 84.1855 -0.232965 86.9448 0.0368118C89.5927 0.0636197 91.4123 1.27665 92.4034 3.67589Z" fill="#339F5E"/>
<path opacity="0.886" fill-rule="evenodd" clip-rule="evenodd" d="M82.6992 3.67578C85.934 3.67578 89.1687 3.67578 92.4034 3.67578C92.4034 4.48451 92.4034 5.29311 92.4034 6.10183C89.1687 6.10183 85.934 6.10183 82.6992 6.10183C82.6992 5.29311 82.6992 4.48451 82.6992 3.67578Z" fill="#339F5E"/>
<path opacity="0.886" fill-rule="evenodd" clip-rule="evenodd" d="M82.6992 6.10156C85.934 6.10156 89.1687 6.10156 92.4034 6.10156C92.4034 6.91029 92.4034 7.71889 92.4034 8.52761C89.1687 8.52761 85.934 8.52761 82.6992 8.52761C82.6992 7.71889 82.6992 6.91029 82.6992 6.10156Z" fill="#339F5E"/>
<path opacity="0.886" fill-rule="evenodd" clip-rule="evenodd" d="M82.6992 8.52734C85.934 8.52734 89.1687 8.52734 92.4034 8.52734C92.4034 9.33607 92.4034 10.1447 92.4034 10.9534C89.1687 10.9534 85.934 10.9534 82.6992 10.9534C82.6992 10.1447 82.6992 9.33607 82.6992 8.52734Z" fill="#339F5E"/>
<path opacity="0.886" fill-rule="evenodd" clip-rule="evenodd" d="M82.6992 10.9551C85.934 10.9551 89.1687 10.9551 92.4034 10.9551C92.4034 11.7638 92.4034 12.5724 92.4034 13.3811C89.1687 13.3811 85.934 13.3811 82.6992 13.3811C82.6992 12.5724 82.6992 11.7638 82.6992 10.9551Z" fill="#339F5E"/>
<path opacity="0.888" fill-rule="evenodd" clip-rule="evenodd" d="M82.6992 13.3809C85.934 13.3809 89.1687 13.3809 92.4034 13.3809C91.6128 17.6095 89.1867 19.0246 85.1253 17.6265C83.5207 16.6367 82.7121 15.2215 82.6992 13.3809Z" fill="#339F5E"/>
<path opacity="0.812" fill-rule="evenodd" clip-rule="evenodd" d="M116.663 13.3809C114.237 16.6156 111.407 19.446 108.172 21.872C109.789 17.8287 112.62 14.9982 116.663 13.3809Z" fill="#339F5E"/>
<path fill-rule="evenodd" clip-rule="evenodd" d="M120.302 13.379C116.283 16.9912 112.239 20.6302 108.172 24.2962C106.555 23.4875 106.555 22.6789 108.172 21.8702C111.407 19.4441 114.237 16.6138 116.663 13.379C117.876 11.7617 119.089 11.7617 120.302 13.379Z" fill="#339F5E"/>
<path fill-rule="evenodd" clip-rule="evenodd" d="M58.4384 13.379C56.8542 15.772 54.8324 17.7937 52.3732 19.4442C50.82 15.697 52.2352 13.271 56.6188 12.166C57.5466 12.2508 58.1531 12.6552 58.4384 13.379Z" fill="#339F5E"/>
<path fill-rule="evenodd" clip-rule="evenodd" d="M58.4382 13.3809C59.6512 13.7852 60.4599 14.5939 60.8642 15.8069C59.2469 18.233 57.2252 20.2547 54.7991 21.872C53.5861 21.4677 52.7773 20.659 52.373 19.446C54.8322 17.7955 56.854 15.7738 58.4382 13.3809Z" fill="#339F5E"/>
<path fill-rule="evenodd" clip-rule="evenodd" d="M120.302 13.3809C117.472 18.6373 113.428 22.6808 108.172 25.5111C108.172 25.1068 108.172 24.7024 108.172 24.2981C112.239 20.6321 116.283 16.993 120.302 13.3809Z" fill="#339F5E"/>
<path fill-rule="evenodd" clip-rule="evenodd" d="M60.864 15.8066C62.077 16.2109 62.8857 17.0197 63.29 18.2327C61.6727 20.6587 59.6509 22.6805 57.2249 24.2978C56.0119 23.8935 55.2031 23.0848 54.7988 21.8718C57.2249 20.2544 59.2466 18.2327 60.864 15.8066Z" fill="#339F5E"/>
<path fill-rule="evenodd" clip-rule="evenodd" d="M120.302 13.3809C121.111 13.3809 121.515 13.7852 121.515 14.5939C118.685 19.8503 114.641 23.8938 109.385 26.7241C108.576 26.7241 108.172 26.3198 108.172 25.5111C113.428 22.6808 117.472 18.6373 120.302 13.3809Z" fill="#339F5E"/>
<path fill-rule="evenodd" clip-rule="evenodd" d="M121.517 14.5918C122.533 15.0063 122.939 15.815 122.73 17.0178C119.495 21.0612 115.856 24.7003 111.813 27.9351C110.609 28.1432 109.802 27.7388 109.387 26.7221C114.643 23.8917 118.687 19.8482 121.517 14.5918Z" fill="#339F5E"/>
<path opacity="0.376" fill-rule="evenodd" clip-rule="evenodd" d="M122.73 17.0195C121.113 22.6804 117.474 26.3194 111.812 27.9368C115.856 24.702 119.495 21.0629 122.73 17.0195Z" fill="#339F5E"/>
<path fill-rule="evenodd" clip-rule="evenodd" d="M63.2897 18.2324C64.5028 18.6367 65.3115 19.4454 65.7158 20.6585C64.0985 23.0845 62.0767 25.1063 59.6507 26.7236C58.4376 26.3193 57.6289 25.5106 57.2246 24.2976C59.6507 22.6802 61.6724 20.6585 63.2897 18.2324Z" fill="#339F5E"/>
<path opacity="0.626" fill-rule="evenodd" clip-rule="evenodd" d="M65.7175 20.6582C68.1435 27.1276 66.1218 29.1494 59.6523 26.7233C62.0784 25.106 64.1001 23.0843 65.7175 20.6582Z" fill="#339F5E"/>
<path opacity="0.963" fill-rule="evenodd" clip-rule="evenodd" d="M149.415 46.1317C123.221 44.7311 96.9391 44.5289 70.5685 45.5252C72.1859 45.9295 73.8033 46.3339 75.4206 46.7382C74.6119 47.1425 73.8033 47.5469 72.9946 47.9512C75.4206 49.1642 77.8467 50.3773 80.2727 51.5903C79.464 51.9946 78.6554 52.399 77.8467 52.8033C79.464 53.2076 81.0815 53.612 82.6988 54.0163C79.464 54.8251 79.464 55.6337 82.6988 56.4424C81.8901 56.8467 81.0815 57.2511 80.2727 57.6554C81.8414 58.2498 83.4589 58.452 85.1248 58.2619C84.837 56.6959 85.2413 55.4829 86.3379 54.6229C86.3379 70.3922 86.3379 86.1615 86.3379 101.931C87.5509 101.931 88.7639 101.931 89.9769 101.931C89.9769 90.6093 89.9769 79.2877 89.9769 67.9661C92.4361 67.7695 94.8622 67.9716 97.2551 68.5727C94.0203 69.3814 94.0203 70.19 97.2551 70.9987C96.4464 71.403 95.6378 71.8074 94.829 72.2117C97.2551 72.616 99.6812 73.0205 102.107 73.4248C98.8724 74.2335 98.8724 75.0421 102.107 75.8508C101.298 76.2551 100.49 76.6595 99.6812 77.0638C102.107 77.4681 104.533 77.8726 106.959 78.2769C103.724 79.0856 103.724 79.8942 106.959 80.7029C106.15 81.1072 105.342 81.5116 104.533 81.9159C106.15 82.3202 107.768 82.7247 109.385 83.129C108.576 83.5333 107.768 83.9377 106.959 84.342C108.941 84.9406 110.964 85.1428 113.024 84.9485C110.634 90.8705 109.824 96.9356 110.598 103.144C111.309 102.89 111.916 102.485 112.418 101.931C112.91 97.9982 113.921 94.3592 115.45 91.0136C116.376 91.9451 117.589 92.5516 119.09 92.8332C118.28 93.2371 117.473 93.6423 116.664 94.0462C118.757 95.9021 121.183 97.1152 123.942 97.6853C123.133 98.0892 122.325 98.4944 121.516 98.8983C123.133 99.3022 124.751 99.7074 126.368 100.111C125.559 100.515 124.751 100.92 123.942 101.324C125.559 101.728 127.177 102.133 128.794 102.537C125.559 103.346 125.559 104.154 128.794 104.963C127.985 105.367 127.177 105.773 126.368 106.176C127.936 106.771 129.554 106.973 131.22 106.783C130.622 109.58 130.218 112.41 130.007 115.274C121.516 115.274 113.024 115.274 104.533 115.274C94.2343 114.267 83.7214 113.661 72.9946 113.455C73.8033 113.051 74.6119 112.646 75.4206 112.242C73.8033 111.838 72.1859 111.433 70.5685 111.029C73.8033 110.219 73.8033 109.412 70.5685 108.603C71.3773 108.199 72.1859 107.793 72.9946 107.389C70.5685 106.986 68.1425 106.58 65.7164 106.176C68.9512 105.367 68.9512 104.559 65.7164 103.75C66.5252 103.346 67.3338 102.941 68.1425 102.537C66.6982 101.691 65.4852 100.68 64.5034 99.5048C61.7467 84.0163 57.7032 69.0556 52.3731 54.6229C51.9688 55.8359 51.5644 57.0489 51.1601 58.2619C53.5916 69.6024 56.0177 80.9239 58.4383 92.2267C55.9791 92.4233 53.5531 92.2212 51.1601 91.6201C54.3949 90.8114 54.3949 90.0028 51.1601 89.1941C51.9688 88.7898 52.7774 88.3854 53.5862 87.9811C50.828 87.4107 48.4019 86.1977 46.308 84.342C47.1167 83.9377 47.9253 83.5333 48.7341 83.129C47.1167 82.7247 45.4993 82.3202 43.882 81.9159C44.6907 81.5116 45.4993 81.1072 46.308 80.7029C43.882 79.4899 41.4559 78.2769 39.0299 77.0638C39.8386 76.6595 40.6472 76.2551 41.4559 75.8508C39.8386 75.4465 38.2211 75.0421 36.6038 74.6378C37.4125 74.2335 38.2211 73.8291 39.0299 73.4248C37.4612 72.8304 35.8437 72.6282 34.1778 72.8182C31.0167 60.7898 27.3776 48.8616 23.2605 37.034C18.7586 36.0329 14.3108 36.2351 9.91723 37.6405C9.66335 38.3513 9.25905 38.9578 8.70421 39.46C5.49454 40.0634 2.25976 40.2656 -1 40.0665C-0.855893 34.0548 1.97446 29.8092 7.49118 27.3298C23.7803 21.9136 33.4845 27.3722 36.6038 43.7056C74.6337 42.9061 112.237 43.7147 149.415 46.1317Z" fill="#E9E9E9"/>
<path opacity="0.993" fill-rule="evenodd" clip-rule="evenodd" d="M149.415 46.1319C143.329 66.4499 137.264 86.667 131.22 106.783C129.554 106.974 127.936 106.771 126.368 106.177C127.177 105.773 127.985 105.368 128.794 104.964C125.558 104.155 125.558 103.347 128.794 102.538C127.177 102.134 125.558 101.729 123.942 101.325C124.751 100.921 125.558 100.516 126.368 100.112C124.751 99.7077 123.132 99.3025 121.515 98.8986C122.325 98.4946 123.132 98.0895 123.942 97.6855C121.183 97.1154 118.757 95.9024 116.663 94.0465C117.472 93.6425 118.28 93.2374 119.089 92.8334C117.589 92.5519 116.376 91.9454 115.45 91.0139C115.45 89.3966 115.45 87.7791 115.45 86.1618C118.192 78.3673 120.416 70.2805 122.122 61.9013C123.102 59.3798 122.9 56.9537 121.515 54.6231C117.397 64.2029 114.567 74.3115 113.024 84.9488C110.963 85.1431 108.941 84.9409 106.959 84.3423C107.768 83.938 108.576 83.5335 109.385 83.1292C107.768 82.7249 106.15 82.3205 104.533 81.9162C105.342 81.5119 106.15 81.1075 106.959 80.7032C103.724 79.8945 103.724 79.0859 106.959 78.2771C104.533 77.8728 102.107 77.4684 99.681 77.0641C100.49 76.6598 101.298 76.2554 102.107 75.8511C98.8723 75.0424 98.8723 74.2338 102.107 73.425C99.681 73.0207 97.2549 72.6163 94.8289 72.212C95.6376 71.8077 96.4462 71.4033 97.2549 70.999C94.0202 70.1903 94.0202 69.3816 97.2549 68.5729C94.862 67.9719 92.4359 67.7698 89.9768 67.9664C89.9768 63.5186 89.9768 59.0709 89.9768 54.6231C88.7638 54.6231 87.5507 54.6231 86.3377 54.6231C85.2411 55.4832 84.8368 56.6962 85.1247 58.2622C83.4587 58.4523 81.8413 58.2501 80.2726 57.6557C81.0813 57.2514 81.8899 56.847 82.6986 56.4427C79.4638 55.6339 79.4638 54.8253 82.6986 54.0166C81.0813 53.6123 79.4638 53.2079 77.8465 52.8036C78.6552 52.3993 79.4638 51.9949 80.2726 51.5906C77.8465 50.3775 75.4205 49.1645 72.9944 47.9515C73.8031 47.5472 74.6117 47.1428 75.4205 46.7385C73.8031 46.3342 72.1857 45.9297 70.5684 45.5254C96.9389 44.5292 123.221 44.7314 149.415 46.1319Z" fill="#EEEEEE"/>
<path fill-rule="evenodd" clip-rule="evenodd" d="M86.3379 54.623C87.5509 54.623 88.7639 54.623 89.977 54.623C89.977 59.0708 89.977 63.5185 89.977 67.9663C89.977 79.2879 89.977 90.6095 89.977 101.931C88.7639 101.931 87.5509 101.931 86.3379 101.931C86.3379 86.1617 86.3379 70.3924 86.3379 54.623Z" fill="#C1C1C1"/>
<path opacity="0.913" fill-rule="evenodd" clip-rule="evenodd" d="M34.1777 72.8191C35.8437 72.629 37.4612 72.8312 39.0298 73.4256C38.2211 73.8299 37.4125 74.2343 36.6038 74.6386C38.2211 75.0429 39.8386 75.4473 41.4559 75.8516C40.6472 76.2559 39.8386 76.6604 39.0298 77.0647C41.4559 78.2777 43.8819 79.4907 46.308 80.7037C45.4993 81.108 44.6907 81.5125 43.8819 81.9168C45.4993 82.3211 47.1167 82.7255 48.734 83.1298C47.9253 83.5341 47.1167 83.9385 46.308 84.3428C48.4019 86.1985 50.828 87.4115 53.5861 87.9819C52.7774 88.3862 51.9688 88.7906 51.1601 89.1949C54.3949 90.0037 54.3949 90.8123 51.1601 91.621C53.553 92.222 55.9791 92.4241 58.4383 92.2275C60.1211 95.1109 61.1319 98.3448 61.4708 101.932C63.67 103.277 64.6808 102.468 64.5034 99.5057C65.4852 100.681 66.6982 101.692 68.1425 102.538C67.3337 102.942 66.5251 103.347 65.7164 103.751C68.9512 104.56 68.9512 105.368 65.7164 106.177C68.1425 106.581 70.5685 106.986 72.9946 107.39C72.1858 107.794 71.3772 108.199 70.5685 108.603C73.8033 109.412 73.8033 110.22 70.5685 111.029C72.1858 111.433 73.8033 111.838 75.4206 112.242C74.6119 112.646 73.8033 113.052 72.9946 113.455C83.7214 113.662 94.2343 114.268 104.533 115.275C85.1206 115.072 65.7122 115.275 46.308 115.882C43.0732 117.904 43.0732 119.925 46.308 121.947C67.3299 122.553 88.3557 122.756 109.385 122.553C102.327 123.558 95.0482 124.164 87.5509 124.373C86.7421 124.777 85.9335 125.182 85.1248 125.586C87.5509 126.799 89.9769 128.012 92.403 129.225C90.8741 130.575 89.459 130.777 88.1574 129.831C87.5942 130.552 87.392 131.361 87.5509 132.257C84.2188 131.878 80.9842 132.282 77.8467 133.47C78.4161 146.023 72.3509 151.076 59.6513 148.633C53.4238 145.279 50.9978 140.226 52.3731 133.47C40.0195 133.452 34.1565 127.387 34.7842 115.275C36.7737 111.472 38.9977 107.833 41.4559 104.358C38.6422 93.9136 36.2161 83.4003 34.1777 72.8191ZM63.2904 133.47C67.7031 132.545 69.5226 134.162 68.749 138.322C63.1879 140.643 61.3683 139.025 63.2904 133.47Z" fill="#E5E5E5"/>
<path fill-rule="evenodd" clip-rule="evenodd" d="M64.5034 99.505C64.6809 102.467 63.6701 103.276 61.4709 101.931C61.132 98.3441 60.1211 95.1102 58.4383 92.2269C56.0177 80.9241 53.5917 69.6026 51.1602 58.2621C51.5645 57.0491 51.9689 55.8361 52.3732 54.623C57.7032 69.0558 61.7467 84.0165 64.5034 99.505Z" fill="#C2C2C2"/>
<path fill-rule="evenodd" clip-rule="evenodd" d="M115.449 86.1617C115.035 85.145 114.227 84.7405 113.023 84.9487C114.566 74.3114 117.396 64.2028 121.515 54.623C122.899 56.9536 123.101 59.3797 122.121 61.9012C120.416 70.2804 118.191 78.3672 115.449 86.1617Z" fill="#C5C5C5"/>
<path fill-rule="evenodd" clip-rule="evenodd" d="M113.024 84.9495C114.228 84.7414 115.035 85.1458 115.45 86.1626C115.45 87.7799 115.45 89.3973 115.45 91.0147C113.921 94.3602 112.91 97.9993 112.418 101.932C111.916 102.486 111.309 102.891 110.598 103.145C109.824 96.9367 110.633 90.8715 113.024 84.9495Z" fill="#BBBBBB"/>
<path opacity="0.933" fill-rule="evenodd" clip-rule="evenodd" d="M109.386 122.551C121.323 120.232 128.601 124.883 131.22 136.501C127.615 149.424 119.932 152.658 108.172 146.205C104.761 142.454 103.548 138.208 104.533 133.469C98.9297 132.264 93.2689 131.859 87.5511 132.256C87.3921 131.359 87.5944 130.55 88.1576 129.83C89.4591 130.776 90.8743 130.573 92.4032 129.223C89.9771 128.01 87.5511 126.797 85.125 125.584C85.9337 125.18 86.7423 124.775 87.5511 124.371C95.0484 124.162 102.327 123.556 109.386 122.551ZM115.451 133.469C117.473 133.469 119.494 133.469 121.516 133.469C121.516 135.491 121.516 137.512 121.516 139.534C115.548 140.85 113.526 138.828 115.451 133.469Z" fill="#E9E9E9"/>
</svg>