<svg width="166" height="60" viewBox="0 0 166 60" fill="none" xmlns="http://www.w3.org/2000/svg">
<rect width="166" height="60" rx="8" fill="#F4F4F4"/>
<path d="M23.3125 22.2363L30.0565 28.9803L32.3046 26.7322L23.3125 22.2363Z" fill="#00F375"/>
<path d="M28.8965 30.1387C28.9746 30.0606 28.9746 29.934 28.8965 29.8559L21.5017 22.4615C21.3757 22.3355 21.1603 22.4248 21.1603 22.6029L21.1602 37.3925C21.1602 37.5706 21.3756 37.6599 21.5016 37.5339L28.8965 30.1387Z" fill="#01D6FE"/>
<path d="M33.6616 27.4102L31.0742 29.9974L33.6617 32.5849L38.8369 29.9977L33.6616 27.4102Z" fill="#FCCE00"/>
<path d="M30.0545 31.0146L23.3105 37.7586L32.3029 33.263L30.0545 31.0146Z" fill="#FD3445"/>
<path d="M58.84 17.04C58.6853 16.7147 58.4613 16.464 58.168 16.288C57.8747 16.1067 57.5333 16.016 57.144 16.016C56.7547 16.016 56.4027 16.1067 56.088 16.288C55.7787 16.464 55.5333 16.72 55.352 17.056C55.176 17.3867 55.088 17.7707 55.088 18.208C55.088 18.6453 55.176 19.0293 55.352 19.36C55.5333 19.6907 55.7787 19.9467 56.088 20.128C56.4027 20.304 56.7547 20.392 57.144 20.392C57.688 20.392 58.136 20.2293 58.488 19.904C58.84 19.5787 59.0453 19.1387 59.104 18.584H56.88V17.992H59.88V18.552C59.8373 19.0107 59.6933 19.432 59.448 19.816C59.2027 20.1947 58.88 20.496 58.48 20.72C58.08 20.9387 57.6347 21.048 57.144 21.048C56.6267 21.048 56.1547 20.928 55.728 20.688C55.3013 20.4427 54.9627 20.104 54.712 19.672C54.4667 19.24 54.344 18.752 54.344 18.208C54.344 17.664 54.4667 17.176 54.712 16.744C54.9627 16.3067 55.3013 15.968 55.728 15.728C56.1547 15.4827 56.6267 15.36 57.144 15.36C57.736 15.36 58.2587 15.5067 58.712 15.8C59.1707 16.0933 59.504 16.5067 59.712 17.04H58.84ZM64.8426 18.64C64.8426 18.7787 64.8346 18.9253 64.8186 19.08H61.3146C61.3412 19.512 61.4879 19.8507 61.7546 20.096C62.0266 20.336 62.3546 20.456 62.7386 20.456C63.0532 20.456 63.3146 20.384 63.5226 20.24C63.7359 20.0907 63.8852 19.8933 63.9706 19.648H64.7546C64.6372 20.0693 64.4026 20.4133 64.0506 20.68C63.6986 20.9413 63.2612 21.072 62.7386 21.072C62.3226 21.072 61.9492 20.9787 61.6186 20.792C61.2932 20.6053 61.0372 20.3413 60.8506 20C60.6639 19.6533 60.5706 19.2533 60.5706 18.8C60.5706 18.3467 60.6612 17.9493 60.8426 17.608C61.0239 17.2667 61.2772 17.0053 61.6026 16.824C61.9332 16.6373 62.3119 16.544 62.7386 16.544C63.1546 16.544 63.5226 16.6347 63.8426 16.816C64.1626 16.9973 64.4079 17.248 64.5786 17.568C64.7546 17.8827 64.8426 18.24 64.8426 18.64ZM64.0906 18.488C64.0906 18.2107 64.0292 17.9733 63.9066 17.776C63.7839 17.5733 63.6159 17.4213 63.4026 17.32C63.1946 17.2133 62.9626 17.16 62.7066 17.16C62.3386 17.16 62.0239 17.2773 61.7626 17.512C61.5066 17.7467 61.3599 18.072 61.3226 18.488H64.0906ZM66.6915 17.216V19.8C66.6915 20.0133 66.7368 20.1653 66.8275 20.256C66.9182 20.3413 67.0755 20.384 67.2995 20.384H67.8355V21H67.1795C66.7742 21 66.4702 20.9067 66.2675 20.72C66.0648 20.5333 65.9635 20.2267 65.9635 19.8V17.216H65.3955V16.616H65.9635V15.512H66.6915V16.616H67.8355V17.216H66.6915ZM71.2264 15.904C71.0877 15.904 70.9704 15.856 70.8744 15.76C70.7784 15.664 70.7304 15.5467 70.7304 15.408C70.7304 15.2693 70.7784 15.152 70.8744 15.056C70.9704 14.96 71.0877 14.912 71.2264 14.912C71.3597 14.912 71.4717 14.96 71.5624 15.056C71.6584 15.152 71.7064 15.2693 71.7064 15.408C71.7064 15.5467 71.6584 15.664 71.5624 15.76C71.4717 15.856 71.3597 15.904 71.2264 15.904ZM71.5784 16.616V21H70.8504V16.616H71.5784ZM73.7071 17.216V19.8C73.7071 20.0133 73.7525 20.1653 73.8431 20.256C73.9338 20.3413 74.0911 20.384 74.3151 20.384H74.8511V21H74.1951C73.7898 21 73.4858 20.9067 73.2831 20.72C73.0805 20.5333 72.9791 20.2267 72.9791 19.8V17.216H72.4111V16.616H72.9791V15.512H73.7071V16.616H74.8511V17.216H73.7071ZM79.778 21.072C79.3673 21.072 78.994 20.9787 78.658 20.792C78.3273 20.6053 78.066 20.3413 77.874 20C77.6873 19.6533 77.594 19.2533 77.594 18.8C77.594 18.352 77.69 17.9573 77.882 17.616C78.0793 17.2693 78.346 17.0053 78.682 16.824C79.018 16.6373 79.394 16.544 79.81 16.544C80.226 16.544 80.602 16.6373 80.938 16.824C81.274 17.0053 81.538 17.2667 81.73 17.608C81.9273 17.9493 82.026 18.3467 82.026 18.8C82.026 19.2533 81.9247 19.6533 81.722 20C81.5247 20.3413 81.2553 20.6053 80.914 20.792C80.5727 20.9787 80.194 21.072 79.778 21.072ZM79.778 20.432C80.0393 20.432 80.2847 20.3707 80.514 20.248C80.7433 20.1253 80.9273 19.9413 81.066 19.696C81.21 19.4507 81.282 19.152 81.282 18.8C81.282 18.448 81.2127 18.1493 81.074 17.904C80.9353 17.6587 80.754 17.4773 80.53 17.36C80.306 17.2373 80.0633 17.176 79.802 17.176C79.5353 17.176 79.29 17.2373 79.066 17.36C78.8473 17.4773 78.6713 17.6587 78.538 17.904C78.4047 18.1493 78.338 18.448 78.338 18.8C78.338 19.1573 78.402 19.4587 78.53 19.704C78.6633 19.9493 78.8393 20.1333 79.058 20.256C79.2767 20.3733 79.5167 20.432 79.778 20.432ZM85.1192 16.536C85.6525 16.536 86.0845 16.6987 86.4152 17.024C86.7459 17.344 86.9112 17.808 86.9112 18.416V21H86.1912V18.52C86.1912 18.0827 86.0819 17.7493 85.8632 17.52C85.6445 17.2853 85.3459 17.168 84.9672 17.168C84.5832 17.168 84.2765 17.288 84.0472 17.528C83.8232 17.768 83.7112 18.1173 83.7112 18.576V21H82.9832V16.616H83.7112V17.24C83.8552 17.016 84.0499 16.8427 84.2952 16.72C84.5459 16.5973 84.8205 16.536 85.1192 16.536Z" fill="#536C73"/>
<path d="M63.248 34.08C62.96 33.5253 62.56 33.1093 62.048 32.832C61.536 32.544 60.944 32.4 60.272 32.4C59.536 32.4 58.88 32.5653 58.304 32.896C57.728 33.2267 57.2747 33.696 56.944 34.304C56.624 34.912 56.464 35.616 56.464 36.416C56.464 37.216 56.624 37.9253 56.944 38.544C57.2747 39.152 57.728 39.6213 58.304 39.952C58.88 40.2827 59.536 40.448 60.272 40.448C61.264 40.448 62.0693 40.1707 62.688 39.616C63.3067 39.0613 63.6853 38.3093 63.824 37.36H59.648V35.904H65.776V37.328C65.6587 38.192 65.3493 38.9867 64.848 39.712C64.3573 40.4373 63.712 41.0187 62.912 41.456C62.1227 41.8827 61.2427 42.096 60.272 42.096C59.2267 42.096 58.272 41.856 57.408 41.376C56.544 40.8853 55.856 40.208 55.344 39.344C54.8427 38.48 54.592 37.504 54.592 36.416C54.592 35.328 54.8427 34.352 55.344 33.488C55.856 32.624 56.544 31.952 57.408 31.472C58.2827 30.9813 59.2373 30.736 60.272 30.736C61.456 30.736 62.5067 31.0293 63.424 31.616C64.352 32.192 65.024 33.0133 65.44 34.08H63.248ZM71.399 42.144C70.567 42.144 69.815 41.9573 69.143 41.584C68.471 41.2 67.943 40.6667 67.559 39.984C67.175 39.2907 66.983 38.4907 66.983 37.584C66.983 36.688 67.1803 35.8933 67.575 35.2C67.9697 34.5067 68.5083 33.9733 69.191 33.6C69.8737 33.2267 70.6363 33.04 71.479 33.04C72.3217 33.04 73.0843 33.2267 73.767 33.6C74.4497 33.9733 74.9883 34.5067 75.383 35.2C75.7777 35.8933 75.975 36.688 75.975 37.584C75.975 38.48 75.7723 39.2747 75.367 39.968C74.9617 40.6613 74.407 41.2 73.703 41.584C73.0097 41.9573 72.2417 42.144 71.399 42.144ZM71.399 40.56C71.8683 40.56 72.3057 40.448 72.711 40.224C73.127 40 73.463 39.664 73.719 39.216C73.975 38.768 74.103 38.224 74.103 37.584C74.103 36.944 73.9803 36.4053 73.735 35.968C73.4897 35.52 73.1643 35.184 72.759 34.96C72.3537 34.736 71.9163 34.624 71.447 34.624C70.9777 34.624 70.5403 34.736 70.135 34.96C69.7403 35.184 69.4257 35.52 69.191 35.968C68.9563 36.4053 68.839 36.944 68.839 37.584C68.839 38.5333 69.079 39.2693 69.559 39.792C70.0497 40.304 70.663 40.56 71.399 40.56ZM81.6021 42.144C80.7701 42.144 80.0181 41.9573 79.3461 41.584C78.6741 41.2 78.1461 40.6667 77.7621 39.984C77.3781 39.2907 77.1861 38.4907 77.1861 37.584C77.1861 36.688 77.3835 35.8933 77.7781 35.2C78.1728 34.5067 78.7115 33.9733 79.3941 33.6C80.0768 33.2267 80.8395 33.04 81.6821 33.04C82.5248 33.04 83.2875 33.2267 83.9701 33.6C84.6528 33.9733 85.1915 34.5067 85.5861 35.2C85.9808 35.8933 86.1781 36.688 86.1781 37.584C86.1781 38.48 85.9755 39.2747 85.5701 39.968C85.1648 40.6613 84.6101 41.2 83.9061 41.584C83.2128 41.9573 82.4448 42.144 81.6021 42.144ZM81.6021 40.56C82.0715 40.56 82.5088 40.448 82.9141 40.224C83.3301 40 83.6661 39.664 83.9221 39.216C84.1781 38.768 84.3061 38.224 84.3061 37.584C84.3061 36.944 84.1835 36.4053 83.9381 35.968C83.6928 35.52 83.3675 35.184 82.9621 34.96C82.5568 34.736 82.1195 34.624 81.6501 34.624C81.1808 34.624 80.7435 34.736 80.3381 34.96C79.9435 35.184 79.6288 35.52 79.3941 35.968C79.1595 36.4053 79.0421 36.944 79.0421 37.584C79.0421 38.5333 79.2821 39.2693 79.7621 39.792C80.2528 40.304 80.8661 40.56 81.6021 40.56ZM91.5333 33.04C92.2159 33.04 92.8186 33.1787 93.3413 33.456C93.8746 33.7227 94.2906 34.0587 94.5893 34.464V33.184H96.4293V42.144C96.4293 42.9547 96.2586 43.6747 95.9173 44.304C95.5759 44.944 95.0799 45.4453 94.4293 45.808C93.7893 46.1707 93.0213 46.352 92.1253 46.352C90.9306 46.352 89.9386 46.0693 89.1493 45.504C88.3599 44.9493 87.9119 44.192 87.8053 43.232H89.6133C89.7519 43.6907 90.0453 44.0587 90.4933 44.336C90.9519 44.624 91.4959 44.768 92.1253 44.768C92.8613 44.768 93.4533 44.544 93.9013 44.096C94.3599 43.648 94.5893 42.9973 94.5893 42.144V40.672C94.2799 41.088 93.8586 41.44 93.3253 41.728C92.8026 42.0053 92.2053 42.144 91.5333 42.144C90.7653 42.144 90.0613 41.952 89.4213 41.568C88.7919 41.1733 88.2906 40.6293 87.9173 39.936C87.5546 39.232 87.3733 38.4373 87.3733 37.552C87.3733 36.6667 87.5546 35.8827 87.9173 35.2C88.2906 34.5173 88.7919 33.9893 89.4213 33.616C90.0613 33.232 90.7653 33.04 91.5333 33.04ZM94.5893 37.584C94.5893 36.976 94.4613 36.448 94.2053 36C93.9599 35.552 93.6346 35.2107 93.2293 34.976C92.8239 34.7413 92.3866 34.624 91.9173 34.624C91.4479 34.624 91.0106 34.7413 90.6053 34.976C90.1999 35.2 89.8693 35.536 89.6133 35.984C89.3679 36.4213 89.2453 36.944 89.2453 37.552C89.2453 38.16 89.3679 38.6933 89.6133 39.152C89.8693 39.6107 90.1999 39.9627 90.6053 40.208C91.0213 40.4427 91.4586 40.56 91.9173 40.56C92.3866 40.56 92.8239 40.4427 93.2293 40.208C93.6346 39.9733 93.9599 39.632 94.2053 39.184C94.4613 38.7253 94.5893 38.192 94.5893 37.584ZM100.649 30.16V42H98.825V30.16H100.649ZM111.124 37.376C111.124 37.7067 111.102 38.0053 111.06 38.272H104.324C104.377 38.976 104.638 39.5413 105.108 39.968C105.577 40.3947 106.153 40.608 106.836 40.608C107.817 40.608 108.51 40.1973 108.916 39.376H110.884C110.617 40.1867 110.132 40.8533 109.428 41.376C108.734 41.888 107.87 42.144 106.836 42.144C105.993 42.144 105.236 41.9573 104.564 41.584C103.902 41.2 103.38 40.6667 102.996 39.984C102.622 39.2907 102.436 38.4907 102.436 37.584C102.436 36.6773 102.617 35.8827 102.98 35.2C103.353 34.5067 103.87 33.9733 104.532 33.6C105.204 33.2267 105.972 33.04 106.836 33.04C107.668 33.04 108.409 33.2213 109.06 33.584C109.71 33.9467 110.217 34.4587 110.58 35.12C110.942 35.7707 111.124 36.5227 111.124 37.376ZM109.22 36.8C109.209 36.128 108.969 35.5893 108.5 35.184C108.03 34.7787 107.449 34.576 106.756 34.576C106.126 34.576 105.588 34.7787 105.14 35.184C104.692 35.5787 104.425 36.1173 104.34 36.8H109.22ZM124.851 34.192C124.851 34.7573 124.718 35.2907 124.451 35.792C124.184 36.2933 123.758 36.704 123.171 37.024C122.584 37.3333 121.832 37.488 120.915 37.488H118.899V42H117.075V30.88H120.915C121.768 30.88 122.488 31.0293 123.075 31.328C123.672 31.616 124.115 32.0107 124.403 32.512C124.702 33.0133 124.851 33.5733 124.851 34.192ZM120.915 36C121.608 36 122.126 35.8453 122.467 35.536C122.808 35.216 122.979 34.768 122.979 34.192C122.979 32.976 122.291 32.368 120.915 32.368H118.899V36H120.915ZM128.415 30.16V42H126.591V30.16H128.415ZM130.201 37.552C130.201 36.6667 130.383 35.8827 130.745 35.2C131.119 34.5173 131.62 33.9893 132.249 33.616C132.889 33.232 133.593 33.04 134.361 33.04C135.055 33.04 135.657 33.1787 136.169 33.456C136.692 33.7227 137.108 34.0587 137.417 34.464V33.184H139.257V42H137.417V40.688C137.108 41.104 136.687 41.4507 136.153 41.728C135.62 42.0053 135.012 42.144 134.329 42.144C133.572 42.144 132.879 41.952 132.249 41.568C131.62 41.1733 131.119 40.6293 130.745 39.936C130.383 39.232 130.201 38.4373 130.201 37.552ZM137.417 37.584C137.417 36.976 137.289 36.448 137.033 36C136.788 35.552 136.463 35.2107 136.057 34.976C135.652 34.7413 135.215 34.624 134.745 34.624C134.276 34.624 133.839 34.7413 133.433 34.976C133.028 35.2 132.697 35.536 132.441 35.984C132.196 36.4213 132.073 36.944 132.073 37.552C132.073 38.16 132.196 38.6933 132.441 39.152C132.697 39.6107 133.028 39.9627 133.433 40.208C133.849 40.4427 134.287 40.56 134.745 40.56C135.215 40.56 135.652 40.4427 136.057 40.208C136.463 39.9733 136.788 39.632 137.033 39.184C137.289 38.7253 137.417 38.192 137.417 37.584ZM149.589 33.184L144.181 46.144H142.293L144.085 41.856L140.613 33.184H142.645L145.125 39.904L147.701 33.184H149.589Z" fill="#072027"/>
</svg>