<svg width="149" height="60" viewBox="0 0 149 60" fill="none" xmlns="http://www.w3.org/2000/svg">
<rect width="149" height="60" rx="8" fill="#2E3742"/>
<path d="M35.8917 39.66C34.7484 40.7683 33.5 40.5933 32.2984 40.0683C31.0267 39.5317 29.86 39.5083 28.5184 40.0683C26.8384 40.7917 25.9517 40.5817 24.9484 39.66C19.255 33.7917 20.095 24.855 26.5584 24.5283C28.1334 24.61 29.23 25.3917 30.1517 25.4617C31.5284 25.1817 32.8467 24.3767 34.3167 24.4817C36.0784 24.6217 37.4084 25.3217 38.2834 26.5817C34.6434 28.7633 35.5067 33.5583 38.8434 34.9C38.1784 36.65 37.315 38.3883 35.88 39.6717L35.8917 39.66ZM30.035 24.4583C29.86 21.8567 31.9717 19.71 34.3984 19.5C34.7367 22.51 31.6684 24.75 30.035 24.4583Z" fill="white"/>
<path d="M56.352 15.424C56.96 15.424 57.4853 15.5387 57.928 15.768C58.376 15.992 58.7173 16.3147 58.952 16.736C59.192 17.1573 59.312 17.6533 59.312 18.224C59.312 18.7947 59.192 19.2907 58.952 19.712C58.7173 20.128 58.376 20.448 57.928 20.672C57.4853 20.8907 56.96 21 56.352 21H54.616V15.424H56.352ZM56.352 20.4C57.072 20.4 57.6213 20.2107 58 19.832C58.3787 19.448 58.568 18.912 58.568 18.224C58.568 17.5307 58.376 16.9893 57.992 16.6C57.6133 16.2107 57.0667 16.016 56.352 16.016H55.344V20.4H56.352ZM62.1843 21.072C61.7736 21.072 61.4003 20.9787 61.0643 20.792C60.7336 20.6053 60.4723 20.3413 60.2803 20C60.0936 19.6533 60.0003 19.2533 60.0003 18.8C60.0003 18.352 60.0963 17.9573 60.2883 17.616C60.4856 17.2693 60.7523 17.0053 61.0883 16.824C61.4243 16.6373 61.8003 16.544 62.2163 16.544C62.6323 16.544 63.0083 16.6373 63.3443 16.824C63.6803 17.0053 63.9443 17.2667 64.1363 17.608C64.3336 17.9493 64.4323 18.3467 64.4323 18.8C64.4323 19.2533 64.3309 19.6533 64.1283 20C63.9309 20.3413 63.6616 20.6053 63.3203 20.792C62.9789 20.9787 62.6003 21.072 62.1843 21.072ZM62.1843 20.432C62.4456 20.432 62.6909 20.3707 62.9203 20.248C63.1496 20.1253 63.3336 19.9413 63.4723 19.696C63.6163 19.4507 63.6883 19.152 63.6883 18.8C63.6883 18.448 63.6189 18.1493 63.4803 17.904C63.3416 17.6587 63.1603 17.4773 62.9363 17.36C62.7123 17.2373 62.4696 17.176 62.2083 17.176C61.9416 17.176 61.6963 17.2373 61.4723 17.36C61.2536 17.4773 61.0776 17.6587 60.9443 17.904C60.8109 18.1493 60.7443 18.448 60.7443 18.8C60.7443 19.1573 60.8083 19.4587 60.9363 19.704C61.0696 19.9493 61.2456 20.1333 61.4643 20.256C61.6829 20.3733 61.9229 20.432 62.1843 20.432ZM71.2294 16.616L69.8614 21H69.1094L68.0534 17.52L66.9974 21H66.2454L64.8694 16.616H65.6134L66.6214 20.296L67.7094 16.616H68.4534L69.5174 20.304L70.5094 16.616H71.2294ZM74.0879 16.536C74.6213 16.536 75.0533 16.6987 75.3839 17.024C75.7146 17.344 75.8799 17.808 75.8799 18.416V21H75.1599V18.52C75.1599 18.0827 75.0506 17.7493 74.8319 17.52C74.6133 17.2853 74.3146 17.168 73.9359 17.168C73.5519 17.168 73.2453 17.288 73.0159 17.528C72.7919 17.768 72.6799 18.1173 72.6799 18.576V21H71.9519V16.616H72.6799V17.24C72.8239 17.016 73.0186 16.8427 73.2639 16.72C73.5146 16.5973 73.7893 16.536 74.0879 16.536ZM77.7971 15.08V21H77.0691V15.08H77.7971ZM80.9499 21.072C80.5392 21.072 80.1659 20.9787 79.8299 20.792C79.4992 20.6053 79.2379 20.3413 79.0459 20C78.8592 19.6533 78.7659 19.2533 78.7659 18.8C78.7659 18.352 78.8619 17.9573 79.0539 17.616C79.2512 17.2693 79.5179 17.0053 79.8539 16.824C80.1899 16.6373 80.5659 16.544 80.9819 16.544C81.3979 16.544 81.7739 16.6373 82.1099 16.824C82.4459 17.0053 82.7099 17.2667 82.9019 17.608C83.0992 17.9493 83.1979 18.3467 83.1979 18.8C83.1979 19.2533 83.0965 19.6533 82.8939 20C82.6965 20.3413 82.4272 20.6053 82.0859 20.792C81.7445 20.9787 81.3659 21.072 80.9499 21.072ZM80.9499 20.432C81.2112 20.432 81.4565 20.3707 81.6859 20.248C81.9152 20.1253 82.0992 19.9413 82.2379 19.696C82.3819 19.4507 82.4539 19.152 82.4539 18.8C82.4539 18.448 82.3845 18.1493 82.2459 17.904C82.1072 17.6587 81.9259 17.4773 81.7019 17.36C81.4779 17.2373 81.2352 17.176 80.9739 17.176C80.7072 17.176 80.4619 17.2373 80.2379 17.36C80.0192 17.4773 79.8432 17.6587 79.7099 17.904C79.5765 18.1493 79.5099 18.448 79.5099 18.8C79.5099 19.1573 79.5739 19.4587 79.7019 19.704C79.8352 19.9493 80.0112 20.1333 80.2299 20.256C80.4485 20.3733 80.6885 20.432 80.9499 20.432ZM83.8831 18.792C83.8831 18.344 83.9737 17.952 84.1551 17.616C84.3364 17.2747 84.5844 17.0107 84.8991 16.824C85.2191 16.6373 85.5737 16.544 85.9631 16.544C86.3471 16.544 86.6804 16.6267 86.9631 16.792C87.2457 16.9573 87.4564 17.1653 87.5951 17.416V16.616H88.3311V21H87.5951V20.184C87.4511 20.44 87.2351 20.6533 86.9471 20.824C86.6644 20.9893 86.3337 21.072 85.9551 21.072C85.5657 21.072 85.2137 20.976 84.8991 20.784C84.5844 20.592 84.3364 20.3227 84.1551 19.976C83.9737 19.6293 83.8831 19.2347 83.8831 18.792ZM87.5951 18.8C87.5951 18.4693 87.5284 18.1813 87.3951 17.936C87.2617 17.6907 87.0804 17.504 86.8511 17.376C86.6271 17.2427 86.3791 17.176 86.1071 17.176C85.8351 17.176 85.5871 17.24 85.3631 17.368C85.1391 17.496 84.9604 17.6827 84.8271 17.928C84.6937 18.1733 84.6271 18.4613 84.6271 18.792C84.6271 19.128 84.6937 19.4213 84.8271 19.672C84.9604 19.9173 85.1391 20.1067 85.3631 20.24C85.5871 20.368 85.8351 20.432 86.1071 20.432C86.3791 20.432 86.6271 20.368 86.8511 20.24C87.0804 20.1067 87.2617 19.9173 87.3951 19.672C87.5284 19.4213 87.5951 19.1307 87.5951 18.8ZM89.2893 18.792C89.2893 18.344 89.38 17.952 89.5613 17.616C89.7426 17.2747 89.9906 17.0107 90.3053 16.824C90.6253 16.6373 90.9826 16.544 91.3773 16.544C91.7186 16.544 92.036 16.624 92.3293 16.784C92.6226 16.9387 92.8466 17.144 93.0013 17.4V15.08H93.7373V21H93.0013V20.176C92.8573 20.4373 92.644 20.6533 92.3613 20.824C92.0786 20.9893 91.748 21.072 91.3693 21.072C90.98 21.072 90.6253 20.976 90.3053 20.784C89.9906 20.592 89.7426 20.3227 89.5613 19.976C89.38 19.6293 89.2893 19.2347 89.2893 18.792ZM93.0013 18.8C93.0013 18.4693 92.9346 18.1813 92.8013 17.936C92.668 17.6907 92.4866 17.504 92.2573 17.376C92.0333 17.2427 91.7853 17.176 91.5133 17.176C91.2413 17.176 90.9933 17.24 90.7693 17.368C90.5453 17.496 90.3666 17.6827 90.2333 17.928C90.1 18.1733 90.0333 18.4613 90.0333 18.792C90.0333 19.128 90.1 19.4213 90.2333 19.672C90.3666 19.9173 90.5453 20.1067 90.7693 20.24C90.9933 20.368 91.2413 20.432 91.5133 20.432C91.7853 20.432 92.0333 20.368 92.2573 20.24C92.4866 20.1067 92.668 19.9173 92.8013 19.672C92.9346 19.4213 93.0013 19.1307 93.0013 18.8ZM99.0124 21.072C98.6017 21.072 98.2284 20.9787 97.8924 20.792C97.5617 20.6053 97.3004 20.3413 97.1084 20C96.9217 19.6533 96.8284 19.2533 96.8284 18.8C96.8284 18.352 96.9244 17.9573 97.1164 17.616C97.3137 17.2693 97.5804 17.0053 97.9164 16.824C98.2524 16.6373 98.6284 16.544 99.0444 16.544C99.4604 16.544 99.8364 16.6373 100.172 16.824C100.508 17.0053 100.772 17.2667 100.964 17.608C101.162 17.9493 101.26 18.3467 101.26 18.8C101.26 19.2533 101.159 19.6533 100.956 20C100.759 20.3413 100.49 20.6053 100.148 20.792C99.807 20.9787 99.4284 21.072 99.0124 21.072ZM99.0124 20.432C99.2737 20.432 99.519 20.3707 99.7484 20.248C99.9777 20.1253 100.162 19.9413 100.3 19.696C100.444 19.4507 100.516 19.152 100.516 18.8C100.516 18.448 100.447 18.1493 100.308 17.904C100.17 17.6587 99.9884 17.4773 99.7644 17.36C99.5404 17.2373 99.2977 17.176 99.0364 17.176C98.7697 17.176 98.5244 17.2373 98.3004 17.36C98.0817 17.4773 97.9057 17.6587 97.7724 17.904C97.639 18.1493 97.5724 18.448 97.5724 18.8C97.5724 19.1573 97.6364 19.4587 97.7644 19.704C97.8977 19.9493 98.0737 20.1333 98.2924 20.256C98.511 20.3733 98.751 20.432 99.0124 20.432ZM104.354 16.536C104.887 16.536 105.319 16.6987 105.65 17.024C105.98 17.344 106.146 17.808 106.146 18.416V21H105.426V18.52C105.426 18.0827 105.316 17.7493 105.098 17.52C104.879 17.2853 104.58 17.168 104.202 17.168C103.818 17.168 103.511 17.288 103.282 17.528C103.058 17.768 102.946 18.1173 102.946 18.576V21H102.218V16.616H102.946V17.24C103.09 17.016 103.284 16.8427 103.53 16.72C103.78 16.5973 104.055 16.536 104.354 16.536ZM110.356 17.216V19.8C110.356 20.0133 110.401 20.1653 110.492 20.256C110.582 20.3413 110.74 20.384 110.964 20.384H111.5V21H110.844C110.438 21 110.134 20.9067 109.932 20.72C109.729 20.5333 109.628 20.2267 109.628 19.8V17.216H109.06V16.616H109.628V15.512H110.356V16.616H111.5V17.216H110.356ZM114.558 16.536C114.888 16.536 115.187 16.608 115.454 16.752C115.72 16.8907 115.928 17.1013 116.078 17.384C116.232 17.6667 116.31 18.0107 116.31 18.416V21H115.59V18.52C115.59 18.0827 115.48 17.7493 115.262 17.52C115.043 17.2853 114.744 17.168 114.366 17.168C113.982 17.168 113.675 17.288 113.446 17.528C113.222 17.768 113.11 18.1173 113.11 18.576V21H112.382V15.08H113.11V17.24C113.254 17.016 113.451 16.8427 113.702 16.72C113.958 16.5973 114.243 16.536 114.558 16.536ZM121.499 18.64C121.499 18.7787 121.491 18.9253 121.475 19.08H117.971C117.997 19.512 118.144 19.8507 118.411 20.096C118.683 20.336 119.011 20.456 119.395 20.456C119.709 20.456 119.971 20.384 120.179 20.24C120.392 20.0907 120.541 19.8933 120.627 19.648H121.411C121.293 20.0693 121.059 20.4133 120.707 20.68C120.355 20.9413 119.917 21.072 119.395 21.072C118.979 21.072 118.605 20.9787 118.275 20.792C117.949 20.6053 117.693 20.3413 117.507 20C117.32 19.6533 117.227 19.2533 117.227 18.8C117.227 18.3467 117.317 17.9493 117.499 17.608C117.68 17.2667 117.933 17.0053 118.259 16.824C118.589 16.6373 118.968 16.544 119.395 16.544C119.811 16.544 120.179 16.6347 120.499 16.816C120.819 16.9973 121.064 17.248 121.235 17.568C121.411 17.8827 121.499 18.24 121.499 18.64ZM120.747 18.488C120.747 18.2107 120.685 17.9733 120.563 17.776C120.44 17.5733 120.272 17.4213 120.059 17.32C119.851 17.2133 119.619 17.16 119.363 17.16C118.995 17.16 118.68 17.2773 118.419 17.512C118.163 17.7467 118.016 18.072 117.979 18.488H120.747Z" fill="#E8E8E8"/>
<path d="M61.904 39.728H57.248L56.448 42H54.544L58.528 30.864H60.64L64.624 42H62.704L61.904 39.728ZM61.392 38.24L59.584 33.072L57.76 38.24H61.392ZM68.1803 34.48C68.4896 34.0747 68.9109 33.7333 69.4443 33.456C69.9776 33.1787 70.5803 33.04 71.2523 33.04C72.0203 33.04 72.7189 33.232 73.3483 33.616C73.9883 33.9893 74.4896 34.5173 74.8523 35.2C75.2149 35.8827 75.3963 36.6667 75.3963 37.552C75.3963 38.4373 75.2149 39.232 74.8523 39.936C74.4896 40.6293 73.9883 41.1733 73.3483 41.568C72.7189 41.952 72.0203 42.144 71.2523 42.144C70.5803 42.144 69.9829 42.0107 69.4603 41.744C68.9376 41.4667 68.5109 41.1253 68.1803 40.72V46.192H66.3563V33.184H68.1803V34.48ZM73.5403 37.552C73.5403 36.944 73.4123 36.4213 73.1562 35.984C72.9109 35.536 72.5803 35.2 72.1643 34.976C71.7589 34.7413 71.3216 34.624 70.8523 34.624C70.3936 34.624 69.9563 34.7413 69.5403 34.976C69.1349 35.2107 68.8043 35.552 68.5483 36C68.3029 36.448 68.1803 36.976 68.1803 37.584C68.1803 38.192 68.3029 38.7253 68.5483 39.184C68.8043 39.632 69.1349 39.9733 69.5403 40.208C69.9563 40.4427 70.3936 40.56 70.8523 40.56C71.3216 40.56 71.7589 40.4427 72.1643 40.208C72.5803 39.9627 72.9109 39.6107 73.1562 39.152C73.4123 38.6933 73.5403 38.16 73.5403 37.552ZM79.024 34.48C79.3333 34.0747 79.7547 33.7333 80.288 33.456C80.8213 33.1787 81.424 33.04 82.096 33.04C82.864 33.04 83.5627 33.232 84.192 33.616C84.832 33.9893 85.3333 34.5173 85.696 35.2C86.0587 35.8827 86.24 36.6667 86.24 37.552C86.24 38.4373 86.0587 39.232 85.696 39.936C85.3333 40.6293 84.832 41.1733 84.192 41.568C83.5627 41.952 82.864 42.144 82.096 42.144C81.424 42.144 80.8267 42.0107 80.304 41.744C79.7813 41.4667 79.3547 41.1253 79.024 40.72V46.192H77.2V33.184H79.024V34.48ZM84.384 37.552C84.384 36.944 84.256 36.4213 84 35.984C83.7547 35.536 83.424 35.2 83.008 34.976C82.6027 34.7413 82.1653 34.624 81.696 34.624C81.2373 34.624 80.8 34.7413 80.384 34.976C79.9787 35.2107 79.648 35.552 79.392 36C79.1467 36.448 79.024 36.976 79.024 37.584C79.024 38.192 79.1467 38.7253 79.392 39.184C79.648 39.632 79.9787 39.9733 80.384 40.208C80.8 40.4427 81.2373 40.56 81.696 40.56C82.1653 40.56 82.6027 40.4427 83.008 40.208C83.424 39.9627 83.7547 39.6107 84 39.152C84.256 38.6933 84.384 38.16 84.384 37.552ZM95.864 42.112C95.1173 42.112 94.4453 41.984 93.848 41.728C93.2507 41.4613 92.7813 41.088 92.44 40.608C92.0987 40.128 91.928 39.568 91.928 38.928H93.88C93.9227 39.408 94.1093 39.8027 94.44 40.112C94.7813 40.4213 95.256 40.576 95.864 40.576C96.4933 40.576 96.984 40.4267 97.336 40.128C97.688 39.8187 97.864 39.424 97.864 38.944C97.864 38.5707 97.752 38.2667 97.528 38.032C97.3147 37.7973 97.0427 37.616 96.712 37.488C96.392 37.36 95.944 37.2213 95.368 37.072C94.6427 36.88 94.0507 36.688 93.592 36.496C93.144 36.2933 92.76 35.984 92.44 35.568C92.12 35.152 91.96 34.5973 91.96 33.904C91.96 33.264 92.12 32.704 92.44 32.224C92.76 31.744 93.208 31.376 93.784 31.12C94.36 30.864 95.0267 30.736 95.784 30.736C96.8613 30.736 97.7413 31.008 98.424 31.552C99.1173 32.0853 99.5013 32.8213 99.576 33.76H97.56C97.528 33.3547 97.336 33.008 96.984 32.72C96.632 32.432 96.168 32.288 95.592 32.288C95.0693 32.288 94.6427 32.4213 94.312 32.688C93.9813 32.9547 93.816 33.3387 93.816 33.84C93.816 34.1813 93.9173 34.464 94.12 34.688C94.3333 34.9013 94.6 35.072 94.92 35.2C95.24 35.328 95.6773 35.4667 96.232 35.616C96.968 35.8187 97.5653 36.0213 98.024 36.224C98.4933 36.4267 98.888 36.7413 99.208 37.168C99.5387 37.584 99.704 38.144 99.704 38.848C99.704 39.4133 99.5493 39.9467 99.24 40.448C98.9413 40.9493 98.4987 41.3547 97.912 41.664C97.336 41.9627 96.6533 42.112 95.864 42.112ZM103.984 34.672V39.552C103.984 39.8827 104.059 40.1227 104.208 40.272C104.368 40.4107 104.635 40.48 105.008 40.48H106.128V42H104.688C103.867 42 103.238 41.808 102.8 41.424C102.363 41.04 102.144 40.416 102.144 39.552V34.672H101.104V33.184H102.144V30.992H103.984V33.184H106.128V34.672H103.984ZM111.633 42.144C110.801 42.144 110.049 41.9573 109.377 41.584C108.705 41.2 108.177 40.6667 107.793 39.984C107.409 39.2907 107.217 38.4907 107.217 37.584C107.217 36.688 107.415 35.8933 107.809 35.2C108.204 34.5067 108.743 33.9733 109.425 33.6C110.108 33.2267 110.871 33.04 111.713 33.04C112.556 33.04 113.319 33.2267 114.001 33.6C114.684 33.9733 115.223 34.5067 115.617 35.2C116.012 35.8933 116.209 36.688 116.209 37.584C116.209 38.48 116.007 39.2747 115.601 39.968C115.196 40.6613 114.641 41.2 113.937 41.584C113.244 41.9573 112.476 42.144 111.633 42.144ZM111.633 40.56C112.103 40.56 112.54 40.448 112.945 40.224C113.361 40 113.697 39.664 113.953 39.216C114.209 38.768 114.337 38.224 114.337 37.584C114.337 36.944 114.215 36.4053 113.969 35.968C113.724 35.52 113.399 35.184 112.993 34.96C112.588 34.736 112.151 34.624 111.681 34.624C111.212 34.624 110.775 34.736 110.369 34.96C109.975 35.184 109.66 35.52 109.425 35.968C109.191 36.4053 109.073 36.944 109.073 37.584C109.073 38.5333 109.313 39.2693 109.793 39.792C110.284 40.304 110.897 40.56 111.633 40.56ZM119.837 34.464C120.103 34.016 120.455 33.6693 120.893 33.424C121.341 33.168 121.869 33.04 122.477 33.04V34.928H122.013C121.298 34.928 120.754 35.1093 120.381 35.472C120.018 35.8347 119.837 36.464 119.837 37.36V42H118.013V33.184H119.837V34.464ZM132.233 37.376C132.233 37.7067 132.212 38.0053 132.169 38.272H125.433C125.486 38.976 125.748 39.5413 126.217 39.968C126.686 40.3947 127.262 40.608 127.945 40.608C128.926 40.608 129.62 40.1973 130.025 39.376H131.993C131.726 40.1867 131.241 40.8533 130.537 41.376C129.844 41.888 128.98 42.144 127.945 42.144C127.102 42.144 126.345 41.9573 125.673 41.584C125.012 41.2 124.489 40.6667 124.105 39.984C123.732 39.2907 123.545 38.4907 123.545 37.584C123.545 36.6773 123.726 35.8827 124.089 35.2C124.462 34.5067 124.98 33.9733 125.641 33.6C126.313 33.2267 127.081 33.04 127.945 33.04C128.777 33.04 129.518 33.2213 130.169 33.584C130.82 33.9467 131.326 34.4587 131.689 35.12C132.052 35.7707 132.233 36.5227 132.233 37.376ZM130.329 36.8C130.318 36.128 130.078 35.5893 129.609 35.184C129.14 34.7787 128.558 34.576 127.865 34.576C127.236 34.576 126.697 34.7787 126.249 35.184C125.801 35.5787 125.534 36.1173 125.449 36.8H130.329Z" fill="white"/>
</svg>