<svg width="24" height="24" viewBox="0 0 24 24" fill="none" xmlns="http://www.w3.org/2000/svg">
<g clip-path="url(#clip0_8837_9424)">
<path d="M18.4 1.84C16.52 0.68 14.36 0 12 0V1.84H18.4Z" fill="#ED4C5C"/>
<path d="M12 3.68375H20.64C19.96 3.00375 19.2 2.36375 18.4 1.84375H12V3.68375Z" fill="white"/>
<path d="M12 5.51969H22.12C21.68 4.83969 21.2 4.23969 20.68 3.67969H12V5.51969Z" fill="#ED4C5C"/>
<path d="M12 7.35562H23.08C22.8 6.71562 22.48 6.07562 22.12 5.51562H12V7.35562Z" fill="white"/>
<path d="M12 9.19938H23.68C23.52 8.55938 23.32 7.95938 23.08 7.35938H12V9.19938Z" fill="#ED4C5C"/>
<path d="M12 11.0822H23.96C23.92 10.4422 23.8 9.84219 23.68 9.24219H12V11.0822Z" fill="white"/>
<path d="M23.96 11.0781H12V11.9981H0C0 12.3181 -3.8743e-08 12.5981 0.04 12.9181H23.96C24 12.5981 24 12.3181 24 11.9981C24 11.6781 24 11.3581 23.96 11.0781Z" fill="#ED4C5C"/>
<path d="M0.319063 14.7619H23.6791C23.8391 14.1619 23.9191 13.5619 23.9591 12.9219H0.0390625C0.0790625 13.5219 0.159063 14.1619 0.319063 14.7619Z" fill="white"/>
<path d="M0.920313 16.5978H23.0803C23.3203 15.9978 23.5203 15.3978 23.6803 14.7578H0.320312C0.480313 15.3978 0.680313 15.9978 0.920313 16.5978Z" fill="#ED4C5C"/>
<path d="M1.87992 18.4416H22.1199C22.4799 17.8416 22.7999 17.2416 23.0799 16.6016H0.919922C1.19992 17.2416 1.51992 17.8416 1.87992 18.4416Z" fill="white"/>
<path d="M3.31891 20.2775H20.6789C21.1989 19.7175 21.7189 19.0775 22.1189 18.4375H1.87891C2.27891 19.1175 2.79891 19.7175 3.31891 20.2775Z" fill="#ED4C5C"/>
<path d="M5.56031 22.1213H18.4403C19.2803 21.6012 20.0003 20.9613 20.6803 20.2812H3.32031C4.00031 21.0013 4.76031 21.6012 5.56031 22.1213Z" fill="white"/>
<path d="M12.0005 23.9972C14.3605 23.9972 16.5605 23.3172 18.4405 22.1172H5.56055C7.44055 23.3172 9.64055 23.9972 12.0005 23.9972Z" fill="#ED4C5C"/>
<path d="M5.6 1.84C4.76 2.36 4 3 3.32 3.68C2.76 4.24 2.28 4.88 1.88 5.52C1.52 6.12 1.16 6.72 0.92 7.36C0.68 7.96 0.48 8.56 0.32 9.2C0.16 9.8 0.08 10.4 0.04 11.04C-3.8743e-08 11.36 0 11.68 0 12H12V0C9.64 0 7.48 0.68 5.6 1.84Z" fill="#428BC1"/>
<path d="M9.20055 0.398438L9.40055 0.998438H10.0005L9.52055 1.39844L9.68055 1.99844L9.20055 1.63844L8.72055 1.99844L8.88055 1.39844L8.40055 0.998438H9.00055L9.20055 0.398438ZM10.8005 2.79844L11.0005 3.39844H11.6005L11.1205 3.79844L11.2805 4.39844L10.8005 4.03844L10.3205 4.39844L10.4805 3.79844L10.0005 3.39844H10.6005L10.8005 2.79844ZM7.60055 2.79844L7.80055 3.39844H8.40055L7.92055 3.79844L8.08055 4.39844L7.60055 4.03844L7.12055 4.39844L7.28055 3.79844L6.80055 3.39844H7.40055L7.60055 2.79844ZM9.20055 5.19844L9.40055 5.79844H10.0005L9.52055 6.19844L9.68055 6.79844L9.20055 6.43844L8.72055 6.79844L8.88055 6.19844L8.40055 5.79844H9.00055L9.20055 5.19844ZM6.00055 5.19844L6.20055 5.79844H6.80055L6.32055 6.19844L6.48055 6.79844L6.00055 6.43844L5.52055 6.79844L5.68055 6.19844L5.20055 5.79844H5.80055L6.00055 5.19844ZM2.80055 5.19844L3.00055 5.79844H3.60055L3.12055 6.19844L3.28055 6.79844L2.80055 6.43844L2.32055 6.79844L2.48055 6.19844L2.00055 5.79844H2.60055L2.80055 5.19844ZM10.8005 7.59844L11.0005 8.19844H11.6005L11.1205 8.59844L11.2805 9.19844L10.8005 8.83844L10.3205 9.19844L10.4805 8.59844L10.0005 8.19844H10.6005L10.8005 7.59844ZM7.60055 7.59844L7.80055 8.19844H8.40055L7.92055 8.59844L8.08055 9.19844L7.60055 8.83844L7.12055 9.19844L7.28055 8.59844L6.80055 8.19844H7.40055L7.60055 7.59844ZM4.40055 7.59844L4.60055 8.19844H5.20055L4.72055 8.59844L4.88055 9.19844L4.40055 8.83844L3.92055 9.19844L4.08055 8.59844L3.60055 8.19844H4.20055L4.40055 7.59844ZM9.20055 9.99844L9.40055 10.5984H10.0005L9.52055 10.9984L9.68055 11.5984L9.20055 11.2384L8.72055 11.5984L8.88055 10.9984L8.40055 10.5984H9.00055L9.20055 9.99844ZM6.00055 9.99844L6.20055 10.5984H6.80055L6.32055 10.9984L6.48055 11.5984L6.00055 11.2384L5.52055 11.5984L5.68055 10.9984L5.20055 10.5984H5.80055L6.00055 9.99844ZM2.80055 9.99844L3.00055 10.5984H3.60055L3.12055 10.9984L3.28055 11.5984L2.80055 11.2384L2.32055 11.5984L2.48055 10.9984L2.00055 10.5984H2.60055L2.80055 9.99844ZM3.92055 4.39844L4.40055 4.03844L4.88055 4.39844L4.68055 3.79844L5.16055 3.39844H4.56055L4.40055 2.79844L4.20055 3.39844H3.64055L4.12055 3.75844L3.92055 4.39844ZM0.720547 9.19844L1.20055 8.83844L1.68055 9.19844L1.48055 8.59844L1.96055 8.19844H1.40055L1.20055 7.59844L1.00055 8.19844H0.600547C0.600547 8.23844 0.560547 8.27844 0.560547 8.31844L0.880547 8.55844L0.720547 9.19844Z" fill="white"/>
</g>
<defs>
<clipPath id="clip0_8837_9424">
<rect width="24" height="24" fill="white"/>
</clipPath>
</defs>
</svg>
